G04 #@! TF.GenerationSoftware,KiCad,Pcbnew,5.0.2-bee76a0~70~ubuntu18.04.1*
G04 #@! TF.CreationDate,2019-01-03T15:41:27+08:00*
G04 #@! TF.ProjectId,Divider,44697669-6465-4722-9e6b-696361645f70,rev?*
G04 #@! TF.SameCoordinates,PX8d9ee20PY6422c40*
G04 #@! TF.FileFunction,Paste,Bot*
G04 #@! TF.FilePolarity,Positive*
%FSLAX46Y46*%
G04 Gerber Fmt 4.6, Leading zero omitted, Abs format (unit mm)*
G04 Created by KiCad (PCBNEW 5.0.2-bee76a0~70~ubuntu18.04.1) date Thu Jan  3 15:41:27 2019*
%MOMM*%
%LPD*%
G01*
G04 APERTURE LIST*
%ADD10R,1.200000X2.200000*%
%ADD11R,2.750000X3.050000*%
%ADD12C,0.100000*%
%ADD13C,1.600000*%
%ADD14C,0.875000*%
%ADD15R,1.500000X2.400000*%
%ADD16R,1.500000X1.050000*%
%ADD17C,1.010000*%
%ADD18C,0.250000*%
%ADD19R,0.900000X0.800000*%
%ADD20R,1.060000X0.650000*%
G04 APERTURE END LIST*
D10*
G04 #@! TO.C,U3*
X-2280000Y23504000D03*
X0Y23504000D03*
X2280000Y23504000D03*
D11*
X1525000Y15529000D03*
X-1525000Y18879000D03*
X-1525000Y15529000D03*
X1525000Y18879000D03*
G04 #@! TD*
D12*
G04 #@! TO.C,C2*
G36*
X-9585496Y33451796D02*
X-9561227Y33448196D01*
X-9537429Y33442235D01*
X-9514329Y33433970D01*
X-9492151Y33423480D01*
X-9471107Y33410867D01*
X-9451402Y33396253D01*
X-9433223Y33379777D01*
X-9416747Y33361598D01*
X-9402133Y33341893D01*
X-9389520Y33320849D01*
X-9379030Y33298671D01*
X-9370765Y33275571D01*
X-9364804Y33251773D01*
X-9361204Y33227504D01*
X-9360000Y33203000D01*
X-9360000Y31103000D01*
X-9361204Y31078496D01*
X-9364804Y31054227D01*
X-9370765Y31030429D01*
X-9379030Y31007329D01*
X-9389520Y30985151D01*
X-9402133Y30964107D01*
X-9416747Y30944402D01*
X-9433223Y30926223D01*
X-9451402Y30909747D01*
X-9471107Y30895133D01*
X-9492151Y30882520D01*
X-9514329Y30872030D01*
X-9537429Y30863765D01*
X-9561227Y30857804D01*
X-9585496Y30854204D01*
X-9610000Y30853000D01*
X-10710000Y30853000D01*
X-10734504Y30854204D01*
X-10758773Y30857804D01*
X-10782571Y30863765D01*
X-10805671Y30872030D01*
X-10827849Y30882520D01*
X-10848893Y30895133D01*
X-10868598Y30909747D01*
X-10886777Y30926223D01*
X-10903253Y30944402D01*
X-10917867Y30964107D01*
X-10930480Y30985151D01*
X-10940970Y31007329D01*
X-10949235Y31030429D01*
X-10955196Y31054227D01*
X-10958796Y31078496D01*
X-10960000Y31103000D01*
X-10960000Y33203000D01*
X-10958796Y33227504D01*
X-10955196Y33251773D01*
X-10949235Y33275571D01*
X-10940970Y33298671D01*
X-10930480Y33320849D01*
X-10917867Y33341893D01*
X-10903253Y33361598D01*
X-10886777Y33379777D01*
X-10868598Y33396253D01*
X-10848893Y33410867D01*
X-10827849Y33423480D01*
X-10805671Y33433970D01*
X-10782571Y33442235D01*
X-10758773Y33448196D01*
X-10734504Y33451796D01*
X-10710000Y33453000D01*
X-9610000Y33453000D01*
X-9585496Y33451796D01*
X-9585496Y33451796D01*
G37*
D13*
X-10160000Y32153000D03*
D12*
G36*
X-9585496Y29851796D02*
X-9561227Y29848196D01*
X-9537429Y29842235D01*
X-9514329Y29833970D01*
X-9492151Y29823480D01*
X-9471107Y29810867D01*
X-9451402Y29796253D01*
X-9433223Y29779777D01*
X-9416747Y29761598D01*
X-9402133Y29741893D01*
X-9389520Y29720849D01*
X-9379030Y29698671D01*
X-9370765Y29675571D01*
X-9364804Y29651773D01*
X-9361204Y29627504D01*
X-9360000Y29603000D01*
X-9360000Y27503000D01*
X-9361204Y27478496D01*
X-9364804Y27454227D01*
X-9370765Y27430429D01*
X-9379030Y27407329D01*
X-9389520Y27385151D01*
X-9402133Y27364107D01*
X-9416747Y27344402D01*
X-9433223Y27326223D01*
X-9451402Y27309747D01*
X-9471107Y27295133D01*
X-9492151Y27282520D01*
X-9514329Y27272030D01*
X-9537429Y27263765D01*
X-9561227Y27257804D01*
X-9585496Y27254204D01*
X-9610000Y27253000D01*
X-10710000Y27253000D01*
X-10734504Y27254204D01*
X-10758773Y27257804D01*
X-10782571Y27263765D01*
X-10805671Y27272030D01*
X-10827849Y27282520D01*
X-10848893Y27295133D01*
X-10868598Y27309747D01*
X-10886777Y27326223D01*
X-10903253Y27344402D01*
X-10917867Y27364107D01*
X-10930480Y27385151D01*
X-10940970Y27407329D01*
X-10949235Y27430429D01*
X-10955196Y27454227D01*
X-10958796Y27478496D01*
X-10960000Y27503000D01*
X-10960000Y29603000D01*
X-10958796Y29627504D01*
X-10955196Y29651773D01*
X-10949235Y29675571D01*
X-10940970Y29698671D01*
X-10930480Y29720849D01*
X-10917867Y29741893D01*
X-10903253Y29761598D01*
X-10886777Y29779777D01*
X-10868598Y29796253D01*
X-10848893Y29810867D01*
X-10827849Y29823480D01*
X-10805671Y29833970D01*
X-10782571Y29842235D01*
X-10758773Y29848196D01*
X-10734504Y29851796D01*
X-10710000Y29853000D01*
X-9610000Y29853000D01*
X-9585496Y29851796D01*
X-9585496Y29851796D01*
G37*
D13*
X-10160000Y28553000D03*
G04 #@! TD*
D12*
G04 #@! TO.C,C5*
G36*
X10734504Y29851796D02*
X10758773Y29848196D01*
X10782571Y29842235D01*
X10805671Y29833970D01*
X10827849Y29823480D01*
X10848893Y29810867D01*
X10868598Y29796253D01*
X10886777Y29779777D01*
X10903253Y29761598D01*
X10917867Y29741893D01*
X10930480Y29720849D01*
X10940970Y29698671D01*
X10949235Y29675571D01*
X10955196Y29651773D01*
X10958796Y29627504D01*
X10960000Y29603000D01*
X10960000Y27503000D01*
X10958796Y27478496D01*
X10955196Y27454227D01*
X10949235Y27430429D01*
X10940970Y27407329D01*
X10930480Y27385151D01*
X10917867Y27364107D01*
X10903253Y27344402D01*
X10886777Y27326223D01*
X10868598Y27309747D01*
X10848893Y27295133D01*
X10827849Y27282520D01*
X10805671Y27272030D01*
X10782571Y27263765D01*
X10758773Y27257804D01*
X10734504Y27254204D01*
X10710000Y27253000D01*
X9610000Y27253000D01*
X9585496Y27254204D01*
X9561227Y27257804D01*
X9537429Y27263765D01*
X9514329Y27272030D01*
X9492151Y27282520D01*
X9471107Y27295133D01*
X9451402Y27309747D01*
X9433223Y27326223D01*
X9416747Y27344402D01*
X9402133Y27364107D01*
X9389520Y27385151D01*
X9379030Y27407329D01*
X9370765Y27430429D01*
X9364804Y27454227D01*
X9361204Y27478496D01*
X9360000Y27503000D01*
X9360000Y29603000D01*
X9361204Y29627504D01*
X9364804Y29651773D01*
X9370765Y29675571D01*
X9379030Y29698671D01*
X9389520Y29720849D01*
X9402133Y29741893D01*
X9416747Y29761598D01*
X9433223Y29779777D01*
X9451402Y29796253D01*
X9471107Y29810867D01*
X9492151Y29823480D01*
X9514329Y29833970D01*
X9537429Y29842235D01*
X9561227Y29848196D01*
X9585496Y29851796D01*
X9610000Y29853000D01*
X10710000Y29853000D01*
X10734504Y29851796D01*
X10734504Y29851796D01*
G37*
D13*
X10160000Y28553000D03*
D12*
G36*
X10734504Y33451796D02*
X10758773Y33448196D01*
X10782571Y33442235D01*
X10805671Y33433970D01*
X10827849Y33423480D01*
X10848893Y33410867D01*
X10868598Y33396253D01*
X10886777Y33379777D01*
X10903253Y33361598D01*
X10917867Y33341893D01*
X10930480Y33320849D01*
X10940970Y33298671D01*
X10949235Y33275571D01*
X10955196Y33251773D01*
X10958796Y33227504D01*
X10960000Y33203000D01*
X10960000Y31103000D01*
X10958796Y31078496D01*
X10955196Y31054227D01*
X10949235Y31030429D01*
X10940970Y31007329D01*
X10930480Y30985151D01*
X10917867Y30964107D01*
X10903253Y30944402D01*
X10886777Y30926223D01*
X10868598Y30909747D01*
X10848893Y30895133D01*
X10827849Y30882520D01*
X10805671Y30872030D01*
X10782571Y30863765D01*
X10758773Y30857804D01*
X10734504Y30854204D01*
X10710000Y30853000D01*
X9610000Y30853000D01*
X9585496Y30854204D01*
X9561227Y30857804D01*
X9537429Y30863765D01*
X9514329Y30872030D01*
X9492151Y30882520D01*
X9471107Y30895133D01*
X9451402Y30909747D01*
X9433223Y30926223D01*
X9416747Y30944402D01*
X9402133Y30964107D01*
X9389520Y30985151D01*
X9379030Y31007329D01*
X9370765Y31030429D01*
X9364804Y31054227D01*
X9361204Y31078496D01*
X9360000Y31103000D01*
X9360000Y33203000D01*
X9361204Y33227504D01*
X9364804Y33251773D01*
X9370765Y33275571D01*
X9379030Y33298671D01*
X9389520Y33320849D01*
X9402133Y33341893D01*
X9416747Y33361598D01*
X9433223Y33379777D01*
X9451402Y33396253D01*
X9471107Y33410867D01*
X9492151Y33423480D01*
X9514329Y33433970D01*
X9537429Y33442235D01*
X9561227Y33448196D01*
X9585496Y33451796D01*
X9610000Y33453000D01*
X10710000Y33453000D01*
X10734504Y33451796D01*
X10734504Y33451796D01*
G37*
D13*
X10160000Y32153000D03*
G04 #@! TD*
D12*
G04 #@! TO.C,C1*
G36*
X3008691Y4029947D02*
X3029926Y4026797D01*
X3050750Y4021581D01*
X3070962Y4014349D01*
X3090368Y4005170D01*
X3108781Y3994134D01*
X3126024Y3981346D01*
X3141930Y3966930D01*
X3156346Y3951024D01*
X3169134Y3933781D01*
X3180170Y3915368D01*
X3189349Y3895962D01*
X3196581Y3875750D01*
X3201797Y3854926D01*
X3204947Y3833691D01*
X3206000Y3812250D01*
X3206000Y3299750D01*
X3204947Y3278309D01*
X3201797Y3257074D01*
X3196581Y3236250D01*
X3189349Y3216038D01*
X3180170Y3196632D01*
X3169134Y3178219D01*
X3156346Y3160976D01*
X3141930Y3145070D01*
X3126024Y3130654D01*
X3108781Y3117866D01*
X3090368Y3106830D01*
X3070962Y3097651D01*
X3050750Y3090419D01*
X3029926Y3085203D01*
X3008691Y3082053D01*
X2987250Y3081000D01*
X2549750Y3081000D01*
X2528309Y3082053D01*
X2507074Y3085203D01*
X2486250Y3090419D01*
X2466038Y3097651D01*
X2446632Y3106830D01*
X2428219Y3117866D01*
X2410976Y3130654D01*
X2395070Y3145070D01*
X2380654Y3160976D01*
X2367866Y3178219D01*
X2356830Y3196632D01*
X2347651Y3216038D01*
X2340419Y3236250D01*
X2335203Y3257074D01*
X2332053Y3278309D01*
X2331000Y3299750D01*
X2331000Y3812250D01*
X2332053Y3833691D01*
X2335203Y3854926D01*
X2340419Y3875750D01*
X2347651Y3895962D01*
X2356830Y3915368D01*
X2367866Y3933781D01*
X2380654Y3951024D01*
X2395070Y3966930D01*
X2410976Y3981346D01*
X2428219Y3994134D01*
X2446632Y4005170D01*
X2466038Y4014349D01*
X2486250Y4021581D01*
X2507074Y4026797D01*
X2528309Y4029947D01*
X2549750Y4031000D01*
X2987250Y4031000D01*
X3008691Y4029947D01*
X3008691Y4029947D01*
G37*
D14*
X2768500Y3556000D03*
D12*
G36*
X4583691Y4029947D02*
X4604926Y4026797D01*
X4625750Y4021581D01*
X4645962Y4014349D01*
X4665368Y4005170D01*
X4683781Y3994134D01*
X4701024Y3981346D01*
X4716930Y3966930D01*
X4731346Y3951024D01*
X4744134Y3933781D01*
X4755170Y3915368D01*
X4764349Y3895962D01*
X4771581Y3875750D01*
X4776797Y3854926D01*
X4779947Y3833691D01*
X4781000Y3812250D01*
X4781000Y3299750D01*
X4779947Y3278309D01*
X4776797Y3257074D01*
X4771581Y3236250D01*
X4764349Y3216038D01*
X4755170Y3196632D01*
X4744134Y3178219D01*
X4731346Y3160976D01*
X4716930Y3145070D01*
X4701024Y3130654D01*
X4683781Y3117866D01*
X4665368Y3106830D01*
X4645962Y3097651D01*
X4625750Y3090419D01*
X4604926Y3085203D01*
X4583691Y3082053D01*
X4562250Y3081000D01*
X4124750Y3081000D01*
X4103309Y3082053D01*
X4082074Y3085203D01*
X4061250Y3090419D01*
X4041038Y3097651D01*
X4021632Y3106830D01*
X4003219Y3117866D01*
X3985976Y3130654D01*
X3970070Y3145070D01*
X3955654Y3160976D01*
X3942866Y3178219D01*
X3931830Y3196632D01*
X3922651Y3216038D01*
X3915419Y3236250D01*
X3910203Y3257074D01*
X3907053Y3278309D01*
X3906000Y3299750D01*
X3906000Y3812250D01*
X3907053Y3833691D01*
X3910203Y3854926D01*
X3915419Y3875750D01*
X3922651Y3895962D01*
X3931830Y3915368D01*
X3942866Y3933781D01*
X3955654Y3951024D01*
X3970070Y3966930D01*
X3985976Y3981346D01*
X4003219Y3994134D01*
X4021632Y4005170D01*
X4041038Y4014349D01*
X4061250Y4021581D01*
X4082074Y4026797D01*
X4103309Y4029947D01*
X4124750Y4031000D01*
X4562250Y4031000D01*
X4583691Y4029947D01*
X4583691Y4029947D01*
G37*
D14*
X4343500Y3556000D03*
G04 #@! TD*
D12*
G04 #@! TO.C,C3*
G36*
X-4661309Y25873947D02*
X-4640074Y25870797D01*
X-4619250Y25865581D01*
X-4599038Y25858349D01*
X-4579632Y25849170D01*
X-4561219Y25838134D01*
X-4543976Y25825346D01*
X-4528070Y25810930D01*
X-4513654Y25795024D01*
X-4500866Y25777781D01*
X-4489830Y25759368D01*
X-4480651Y25739962D01*
X-4473419Y25719750D01*
X-4468203Y25698926D01*
X-4465053Y25677691D01*
X-4464000Y25656250D01*
X-4464000Y25143750D01*
X-4465053Y25122309D01*
X-4468203Y25101074D01*
X-4473419Y25080250D01*
X-4480651Y25060038D01*
X-4489830Y25040632D01*
X-4500866Y25022219D01*
X-4513654Y25004976D01*
X-4528070Y24989070D01*
X-4543976Y24974654D01*
X-4561219Y24961866D01*
X-4579632Y24950830D01*
X-4599038Y24941651D01*
X-4619250Y24934419D01*
X-4640074Y24929203D01*
X-4661309Y24926053D01*
X-4682750Y24925000D01*
X-5120250Y24925000D01*
X-5141691Y24926053D01*
X-5162926Y24929203D01*
X-5183750Y24934419D01*
X-5203962Y24941651D01*
X-5223368Y24950830D01*
X-5241781Y24961866D01*
X-5259024Y24974654D01*
X-5274930Y24989070D01*
X-5289346Y25004976D01*
X-5302134Y25022219D01*
X-5313170Y25040632D01*
X-5322349Y25060038D01*
X-5329581Y25080250D01*
X-5334797Y25101074D01*
X-5337947Y25122309D01*
X-5339000Y25143750D01*
X-5339000Y25656250D01*
X-5337947Y25677691D01*
X-5334797Y25698926D01*
X-5329581Y25719750D01*
X-5322349Y25739962D01*
X-5313170Y25759368D01*
X-5302134Y25777781D01*
X-5289346Y25795024D01*
X-5274930Y25810930D01*
X-5259024Y25825346D01*
X-5241781Y25838134D01*
X-5223368Y25849170D01*
X-5203962Y25858349D01*
X-5183750Y25865581D01*
X-5162926Y25870797D01*
X-5141691Y25873947D01*
X-5120250Y25875000D01*
X-4682750Y25875000D01*
X-4661309Y25873947D01*
X-4661309Y25873947D01*
G37*
D14*
X-4901500Y25400000D03*
D12*
G36*
X-6236309Y25873947D02*
X-6215074Y25870797D01*
X-6194250Y25865581D01*
X-6174038Y25858349D01*
X-6154632Y25849170D01*
X-6136219Y25838134D01*
X-6118976Y25825346D01*
X-6103070Y25810930D01*
X-6088654Y25795024D01*
X-6075866Y25777781D01*
X-6064830Y25759368D01*
X-6055651Y25739962D01*
X-6048419Y25719750D01*
X-6043203Y25698926D01*
X-6040053Y25677691D01*
X-6039000Y25656250D01*
X-6039000Y25143750D01*
X-6040053Y25122309D01*
X-6043203Y25101074D01*
X-6048419Y25080250D01*
X-6055651Y25060038D01*
X-6064830Y25040632D01*
X-6075866Y25022219D01*
X-6088654Y25004976D01*
X-6103070Y24989070D01*
X-6118976Y24974654D01*
X-6136219Y24961866D01*
X-6154632Y24950830D01*
X-6174038Y24941651D01*
X-6194250Y24934419D01*
X-6215074Y24929203D01*
X-6236309Y24926053D01*
X-6257750Y24925000D01*
X-6695250Y24925000D01*
X-6716691Y24926053D01*
X-6737926Y24929203D01*
X-6758750Y24934419D01*
X-6778962Y24941651D01*
X-6798368Y24950830D01*
X-6816781Y24961866D01*
X-6834024Y24974654D01*
X-6849930Y24989070D01*
X-6864346Y25004976D01*
X-6877134Y25022219D01*
X-6888170Y25040632D01*
X-6897349Y25060038D01*
X-6904581Y25080250D01*
X-6909797Y25101074D01*
X-6912947Y25122309D01*
X-6914000Y25143750D01*
X-6914000Y25656250D01*
X-6912947Y25677691D01*
X-6909797Y25698926D01*
X-6904581Y25719750D01*
X-6897349Y25739962D01*
X-6888170Y25759368D01*
X-6877134Y25777781D01*
X-6864346Y25795024D01*
X-6849930Y25810930D01*
X-6834024Y25825346D01*
X-6816781Y25838134D01*
X-6798368Y25849170D01*
X-6778962Y25858349D01*
X-6758750Y25865581D01*
X-6737926Y25870797D01*
X-6716691Y25873947D01*
X-6695250Y25875000D01*
X-6257750Y25875000D01*
X-6236309Y25873947D01*
X-6236309Y25873947D01*
G37*
D14*
X-6476500Y25400000D03*
G04 #@! TD*
D12*
G04 #@! TO.C,C4*
G36*
X6742691Y25873947D02*
X6763926Y25870797D01*
X6784750Y25865581D01*
X6804962Y25858349D01*
X6824368Y25849170D01*
X6842781Y25838134D01*
X6860024Y25825346D01*
X6875930Y25810930D01*
X6890346Y25795024D01*
X6903134Y25777781D01*
X6914170Y25759368D01*
X6923349Y25739962D01*
X6930581Y25719750D01*
X6935797Y25698926D01*
X6938947Y25677691D01*
X6940000Y25656250D01*
X6940000Y25143750D01*
X6938947Y25122309D01*
X6935797Y25101074D01*
X6930581Y25080250D01*
X6923349Y25060038D01*
X6914170Y25040632D01*
X6903134Y25022219D01*
X6890346Y25004976D01*
X6875930Y24989070D01*
X6860024Y24974654D01*
X6842781Y24961866D01*
X6824368Y24950830D01*
X6804962Y24941651D01*
X6784750Y24934419D01*
X6763926Y24929203D01*
X6742691Y24926053D01*
X6721250Y24925000D01*
X6283750Y24925000D01*
X6262309Y24926053D01*
X6241074Y24929203D01*
X6220250Y24934419D01*
X6200038Y24941651D01*
X6180632Y24950830D01*
X6162219Y24961866D01*
X6144976Y24974654D01*
X6129070Y24989070D01*
X6114654Y25004976D01*
X6101866Y25022219D01*
X6090830Y25040632D01*
X6081651Y25060038D01*
X6074419Y25080250D01*
X6069203Y25101074D01*
X6066053Y25122309D01*
X6065000Y25143750D01*
X6065000Y25656250D01*
X6066053Y25677691D01*
X6069203Y25698926D01*
X6074419Y25719750D01*
X6081651Y25739962D01*
X6090830Y25759368D01*
X6101866Y25777781D01*
X6114654Y25795024D01*
X6129070Y25810930D01*
X6144976Y25825346D01*
X6162219Y25838134D01*
X6180632Y25849170D01*
X6200038Y25858349D01*
X6220250Y25865581D01*
X6241074Y25870797D01*
X6262309Y25873947D01*
X6283750Y25875000D01*
X6721250Y25875000D01*
X6742691Y25873947D01*
X6742691Y25873947D01*
G37*
D14*
X6502500Y25400000D03*
D12*
G36*
X5167691Y25873947D02*
X5188926Y25870797D01*
X5209750Y25865581D01*
X5229962Y25858349D01*
X5249368Y25849170D01*
X5267781Y25838134D01*
X5285024Y25825346D01*
X5300930Y25810930D01*
X5315346Y25795024D01*
X5328134Y25777781D01*
X5339170Y25759368D01*
X5348349Y25739962D01*
X5355581Y25719750D01*
X5360797Y25698926D01*
X5363947Y25677691D01*
X5365000Y25656250D01*
X5365000Y25143750D01*
X5363947Y25122309D01*
X5360797Y25101074D01*
X5355581Y25080250D01*
X5348349Y25060038D01*
X5339170Y25040632D01*
X5328134Y25022219D01*
X5315346Y25004976D01*
X5300930Y24989070D01*
X5285024Y24974654D01*
X5267781Y24961866D01*
X5249368Y24950830D01*
X5229962Y24941651D01*
X5209750Y24934419D01*
X5188926Y24929203D01*
X5167691Y24926053D01*
X5146250Y24925000D01*
X4708750Y24925000D01*
X4687309Y24926053D01*
X4666074Y24929203D01*
X4645250Y24934419D01*
X4625038Y24941651D01*
X4605632Y24950830D01*
X4587219Y24961866D01*
X4569976Y24974654D01*
X4554070Y24989070D01*
X4539654Y25004976D01*
X4526866Y25022219D01*
X4515830Y25040632D01*
X4506651Y25060038D01*
X4499419Y25080250D01*
X4494203Y25101074D01*
X4491053Y25122309D01*
X4490000Y25143750D01*
X4490000Y25656250D01*
X4491053Y25677691D01*
X4494203Y25698926D01*
X4499419Y25719750D01*
X4506651Y25739962D01*
X4515830Y25759368D01*
X4526866Y25777781D01*
X4539654Y25795024D01*
X4554070Y25810930D01*
X4569976Y25825346D01*
X4587219Y25838134D01*
X4605632Y25849170D01*
X4625038Y25858349D01*
X4645250Y25865581D01*
X4666074Y25870797D01*
X4687309Y25873947D01*
X4708750Y25875000D01*
X5146250Y25875000D01*
X5167691Y25873947D01*
X5167691Y25873947D01*
G37*
D14*
X4927500Y25400000D03*
G04 #@! TD*
D12*
G04 #@! TO.C,C7*
G36*
X6742691Y47336947D02*
X6763926Y47333797D01*
X6784750Y47328581D01*
X6804962Y47321349D01*
X6824368Y47312170D01*
X6842781Y47301134D01*
X6860024Y47288346D01*
X6875930Y47273930D01*
X6890346Y47258024D01*
X6903134Y47240781D01*
X6914170Y47222368D01*
X6923349Y47202962D01*
X6930581Y47182750D01*
X6935797Y47161926D01*
X6938947Y47140691D01*
X6940000Y47119250D01*
X6940000Y46606750D01*
X6938947Y46585309D01*
X6935797Y46564074D01*
X6930581Y46543250D01*
X6923349Y46523038D01*
X6914170Y46503632D01*
X6903134Y46485219D01*
X6890346Y46467976D01*
X6875930Y46452070D01*
X6860024Y46437654D01*
X6842781Y46424866D01*
X6824368Y46413830D01*
X6804962Y46404651D01*
X6784750Y46397419D01*
X6763926Y46392203D01*
X6742691Y46389053D01*
X6721250Y46388000D01*
X6283750Y46388000D01*
X6262309Y46389053D01*
X6241074Y46392203D01*
X6220250Y46397419D01*
X6200038Y46404651D01*
X6180632Y46413830D01*
X6162219Y46424866D01*
X6144976Y46437654D01*
X6129070Y46452070D01*
X6114654Y46467976D01*
X6101866Y46485219D01*
X6090830Y46503632D01*
X6081651Y46523038D01*
X6074419Y46543250D01*
X6069203Y46564074D01*
X6066053Y46585309D01*
X6065000Y46606750D01*
X6065000Y47119250D01*
X6066053Y47140691D01*
X6069203Y47161926D01*
X6074419Y47182750D01*
X6081651Y47202962D01*
X6090830Y47222368D01*
X6101866Y47240781D01*
X6114654Y47258024D01*
X6129070Y47273930D01*
X6144976Y47288346D01*
X6162219Y47301134D01*
X6180632Y47312170D01*
X6200038Y47321349D01*
X6220250Y47328581D01*
X6241074Y47333797D01*
X6262309Y47336947D01*
X6283750Y47338000D01*
X6721250Y47338000D01*
X6742691Y47336947D01*
X6742691Y47336947D01*
G37*
D14*
X6502500Y46863000D03*
D12*
G36*
X5167691Y47336947D02*
X5188926Y47333797D01*
X5209750Y47328581D01*
X5229962Y47321349D01*
X5249368Y47312170D01*
X5267781Y47301134D01*
X5285024Y47288346D01*
X5300930Y47273930D01*
X5315346Y47258024D01*
X5328134Y47240781D01*
X5339170Y47222368D01*
X5348349Y47202962D01*
X5355581Y47182750D01*
X5360797Y47161926D01*
X5363947Y47140691D01*
X5365000Y47119250D01*
X5365000Y46606750D01*
X5363947Y46585309D01*
X5360797Y46564074D01*
X5355581Y46543250D01*
X5348349Y46523038D01*
X5339170Y46503632D01*
X5328134Y46485219D01*
X5315346Y46467976D01*
X5300930Y46452070D01*
X5285024Y46437654D01*
X5267781Y46424866D01*
X5249368Y46413830D01*
X5229962Y46404651D01*
X5209750Y46397419D01*
X5188926Y46392203D01*
X5167691Y46389053D01*
X5146250Y46388000D01*
X4708750Y46388000D01*
X4687309Y46389053D01*
X4666074Y46392203D01*
X4645250Y46397419D01*
X4625038Y46404651D01*
X4605632Y46413830D01*
X4587219Y46424866D01*
X4569976Y46437654D01*
X4554070Y46452070D01*
X4539654Y46467976D01*
X4526866Y46485219D01*
X4515830Y46503632D01*
X4506651Y46523038D01*
X4499419Y46543250D01*
X4494203Y46564074D01*
X4491053Y46585309D01*
X4490000Y46606750D01*
X4490000Y47119250D01*
X4491053Y47140691D01*
X4494203Y47161926D01*
X4499419Y47182750D01*
X4506651Y47202962D01*
X4515830Y47222368D01*
X4526866Y47240781D01*
X4539654Y47258024D01*
X4554070Y47273930D01*
X4569976Y47288346D01*
X4587219Y47301134D01*
X4605632Y47312170D01*
X4625038Y47321349D01*
X4645250Y47328581D01*
X4666074Y47333797D01*
X4687309Y47336947D01*
X4708750Y47338000D01*
X5146250Y47338000D01*
X5167691Y47336947D01*
X5167691Y47336947D01*
G37*
D14*
X4927500Y46863000D03*
G04 #@! TD*
D15*
G04 #@! TO.C,D3*
X-4572000Y46062000D03*
D16*
X-4572000Y43687000D03*
G04 #@! TD*
D12*
G04 #@! TO.C,D4*
G36*
X-14386496Y44585796D02*
X-14362227Y44582196D01*
X-14338429Y44576235D01*
X-14315329Y44567970D01*
X-14293151Y44557480D01*
X-14272107Y44544867D01*
X-14252402Y44530253D01*
X-14234223Y44513777D01*
X-14217747Y44495598D01*
X-14203133Y44475893D01*
X-14190520Y44454849D01*
X-14180030Y44432671D01*
X-14171765Y44409571D01*
X-14165804Y44385773D01*
X-14162204Y44361504D01*
X-14161000Y44337000D01*
X-14161000Y43237000D01*
X-14162204Y43212496D01*
X-14165804Y43188227D01*
X-14171765Y43164429D01*
X-14180030Y43141329D01*
X-14190520Y43119151D01*
X-14203133Y43098107D01*
X-14217747Y43078402D01*
X-14234223Y43060223D01*
X-14252402Y43043747D01*
X-14272107Y43029133D01*
X-14293151Y43016520D01*
X-14315329Y43006030D01*
X-14338429Y42997765D01*
X-14362227Y42991804D01*
X-14386496Y42988204D01*
X-14411000Y42987000D01*
X-15561000Y42987000D01*
X-15585504Y42988204D01*
X-15609773Y42991804D01*
X-15633571Y42997765D01*
X-15656671Y43006030D01*
X-15678849Y43016520D01*
X-15699893Y43029133D01*
X-15719598Y43043747D01*
X-15737777Y43060223D01*
X-15754253Y43078402D01*
X-15768867Y43098107D01*
X-15781480Y43119151D01*
X-15791970Y43141329D01*
X-15800235Y43164429D01*
X-15806196Y43188227D01*
X-15809796Y43212496D01*
X-15811000Y43237000D01*
X-15811000Y44337000D01*
X-15809796Y44361504D01*
X-15806196Y44385773D01*
X-15800235Y44409571D01*
X-15791970Y44432671D01*
X-15781480Y44454849D01*
X-15768867Y44475893D01*
X-15754253Y44495598D01*
X-15737777Y44513777D01*
X-15719598Y44530253D01*
X-15699893Y44544867D01*
X-15678849Y44557480D01*
X-15656671Y44567970D01*
X-15633571Y44576235D01*
X-15609773Y44582196D01*
X-15585504Y44585796D01*
X-15561000Y44587000D01*
X-14411000Y44587000D01*
X-14386496Y44585796D01*
X-14386496Y44585796D01*
G37*
D13*
X-14986000Y43787000D03*
D12*
G36*
X-14386496Y47435796D02*
X-14362227Y47432196D01*
X-14338429Y47426235D01*
X-14315329Y47417970D01*
X-14293151Y47407480D01*
X-14272107Y47394867D01*
X-14252402Y47380253D01*
X-14234223Y47363777D01*
X-14217747Y47345598D01*
X-14203133Y47325893D01*
X-14190520Y47304849D01*
X-14180030Y47282671D01*
X-14171765Y47259571D01*
X-14165804Y47235773D01*
X-14162204Y47211504D01*
X-14161000Y47187000D01*
X-14161000Y46087000D01*
X-14162204Y46062496D01*
X-14165804Y46038227D01*
X-14171765Y46014429D01*
X-14180030Y45991329D01*
X-14190520Y45969151D01*
X-14203133Y45948107D01*
X-14217747Y45928402D01*
X-14234223Y45910223D01*
X-14252402Y45893747D01*
X-14272107Y45879133D01*
X-14293151Y45866520D01*
X-14315329Y45856030D01*
X-14338429Y45847765D01*
X-14362227Y45841804D01*
X-14386496Y45838204D01*
X-14411000Y45837000D01*
X-15561000Y45837000D01*
X-15585504Y45838204D01*
X-15609773Y45841804D01*
X-15633571Y45847765D01*
X-15656671Y45856030D01*
X-15678849Y45866520D01*
X-15699893Y45879133D01*
X-15719598Y45893747D01*
X-15737777Y45910223D01*
X-15754253Y45928402D01*
X-15768867Y45948107D01*
X-15781480Y45969151D01*
X-15791970Y45991329D01*
X-15800235Y46014429D01*
X-15806196Y46038227D01*
X-15809796Y46062496D01*
X-15811000Y46087000D01*
X-15811000Y47187000D01*
X-15809796Y47211504D01*
X-15806196Y47235773D01*
X-15800235Y47259571D01*
X-15791970Y47282671D01*
X-15781480Y47304849D01*
X-15768867Y47325893D01*
X-15754253Y47345598D01*
X-15737777Y47363777D01*
X-15719598Y47380253D01*
X-15699893Y47394867D01*
X-15678849Y47407480D01*
X-15656671Y47417970D01*
X-15633571Y47426235D01*
X-15609773Y47432196D01*
X-15585504Y47435796D01*
X-15561000Y47437000D01*
X-14411000Y47437000D01*
X-14386496Y47435796D01*
X-14386496Y47435796D01*
G37*
D13*
X-14986000Y46637000D03*
G04 #@! TD*
D12*
G04 #@! TO.C,U1*
G36*
X5730504Y9510796D02*
X5754773Y9507196D01*
X5778571Y9501235D01*
X5801671Y9492970D01*
X5823849Y9482480D01*
X5844893Y9469867D01*
X5864598Y9455253D01*
X5882777Y9438777D01*
X5899253Y9420598D01*
X5913867Y9400893D01*
X5926480Y9379849D01*
X5936970Y9357671D01*
X5945235Y9334571D01*
X5951196Y9310773D01*
X5954796Y9286504D01*
X5956000Y9262000D01*
X5956000Y8752000D01*
X5954796Y8727496D01*
X5951196Y8703227D01*
X5945235Y8679429D01*
X5936970Y8656329D01*
X5926480Y8634151D01*
X5913867Y8613107D01*
X5899253Y8593402D01*
X5882777Y8575223D01*
X5864598Y8558747D01*
X5844893Y8544133D01*
X5823849Y8531520D01*
X5801671Y8521030D01*
X5778571Y8512765D01*
X5754773Y8506804D01*
X5730504Y8503204D01*
X5706000Y8502000D01*
X5196000Y8502000D01*
X5171496Y8503204D01*
X5147227Y8506804D01*
X5123429Y8512765D01*
X5100329Y8521030D01*
X5078151Y8531520D01*
X5057107Y8544133D01*
X5037402Y8558747D01*
X5019223Y8575223D01*
X5002747Y8593402D01*
X4988133Y8613107D01*
X4975520Y8634151D01*
X4965030Y8656329D01*
X4956765Y8679429D01*
X4950804Y8703227D01*
X4947204Y8727496D01*
X4946000Y8752000D01*
X4946000Y9262000D01*
X4947204Y9286504D01*
X4950804Y9310773D01*
X4956765Y9334571D01*
X4965030Y9357671D01*
X4975520Y9379849D01*
X4988133Y9400893D01*
X5002747Y9420598D01*
X5019223Y9438777D01*
X5037402Y9455253D01*
X5057107Y9469867D01*
X5078151Y9482480D01*
X5100329Y9492970D01*
X5123429Y9501235D01*
X5147227Y9507196D01*
X5171496Y9510796D01*
X5196000Y9512000D01*
X5706000Y9512000D01*
X5730504Y9510796D01*
X5730504Y9510796D01*
G37*
D17*
X5451000Y9007000D03*
D12*
G36*
X5730504Y8260796D02*
X5754773Y8257196D01*
X5778571Y8251235D01*
X5801671Y8242970D01*
X5823849Y8232480D01*
X5844893Y8219867D01*
X5864598Y8205253D01*
X5882777Y8188777D01*
X5899253Y8170598D01*
X5913867Y8150893D01*
X5926480Y8129849D01*
X5936970Y8107671D01*
X5945235Y8084571D01*
X5951196Y8060773D01*
X5954796Y8036504D01*
X5956000Y8012000D01*
X5956000Y7502000D01*
X5954796Y7477496D01*
X5951196Y7453227D01*
X5945235Y7429429D01*
X5936970Y7406329D01*
X5926480Y7384151D01*
X5913867Y7363107D01*
X5899253Y7343402D01*
X5882777Y7325223D01*
X5864598Y7308747D01*
X5844893Y7294133D01*
X5823849Y7281520D01*
X5801671Y7271030D01*
X5778571Y7262765D01*
X5754773Y7256804D01*
X5730504Y7253204D01*
X5706000Y7252000D01*
X5196000Y7252000D01*
X5171496Y7253204D01*
X5147227Y7256804D01*
X5123429Y7262765D01*
X5100329Y7271030D01*
X5078151Y7281520D01*
X5057107Y7294133D01*
X5037402Y7308747D01*
X5019223Y7325223D01*
X5002747Y7343402D01*
X4988133Y7363107D01*
X4975520Y7384151D01*
X4965030Y7406329D01*
X4956765Y7429429D01*
X4950804Y7453227D01*
X4947204Y7477496D01*
X4946000Y7502000D01*
X4946000Y8012000D01*
X4947204Y8036504D01*
X4950804Y8060773D01*
X4956765Y8084571D01*
X4965030Y8107671D01*
X4975520Y8129849D01*
X4988133Y8150893D01*
X5002747Y8170598D01*
X5019223Y8188777D01*
X5037402Y8205253D01*
X5057107Y8219867D01*
X5078151Y8232480D01*
X5100329Y8242970D01*
X5123429Y8251235D01*
X5147227Y8257196D01*
X5171496Y8260796D01*
X5196000Y8262000D01*
X5706000Y8262000D01*
X5730504Y8260796D01*
X5730504Y8260796D01*
G37*
D17*
X5451000Y7757000D03*
D12*
G36*
X4480504Y9510796D02*
X4504773Y9507196D01*
X4528571Y9501235D01*
X4551671Y9492970D01*
X4573849Y9482480D01*
X4594893Y9469867D01*
X4614598Y9455253D01*
X4632777Y9438777D01*
X4649253Y9420598D01*
X4663867Y9400893D01*
X4676480Y9379849D01*
X4686970Y9357671D01*
X4695235Y9334571D01*
X4701196Y9310773D01*
X4704796Y9286504D01*
X4706000Y9262000D01*
X4706000Y8752000D01*
X4704796Y8727496D01*
X4701196Y8703227D01*
X4695235Y8679429D01*
X4686970Y8656329D01*
X4676480Y8634151D01*
X4663867Y8613107D01*
X4649253Y8593402D01*
X4632777Y8575223D01*
X4614598Y8558747D01*
X4594893Y8544133D01*
X4573849Y8531520D01*
X4551671Y8521030D01*
X4528571Y8512765D01*
X4504773Y8506804D01*
X4480504Y8503204D01*
X4456000Y8502000D01*
X3946000Y8502000D01*
X3921496Y8503204D01*
X3897227Y8506804D01*
X3873429Y8512765D01*
X3850329Y8521030D01*
X3828151Y8531520D01*
X3807107Y8544133D01*
X3787402Y8558747D01*
X3769223Y8575223D01*
X3752747Y8593402D01*
X3738133Y8613107D01*
X3725520Y8634151D01*
X3715030Y8656329D01*
X3706765Y8679429D01*
X3700804Y8703227D01*
X3697204Y8727496D01*
X3696000Y8752000D01*
X3696000Y9262000D01*
X3697204Y9286504D01*
X3700804Y9310773D01*
X3706765Y9334571D01*
X3715030Y9357671D01*
X3725520Y9379849D01*
X3738133Y9400893D01*
X3752747Y9420598D01*
X3769223Y9438777D01*
X3787402Y9455253D01*
X3807107Y9469867D01*
X3828151Y9482480D01*
X3850329Y9492970D01*
X3873429Y9501235D01*
X3897227Y9507196D01*
X3921496Y9510796D01*
X3946000Y9512000D01*
X4456000Y9512000D01*
X4480504Y9510796D01*
X4480504Y9510796D01*
G37*
D17*
X4201000Y9007000D03*
D12*
G36*
X4480504Y8260796D02*
X4504773Y8257196D01*
X4528571Y8251235D01*
X4551671Y8242970D01*
X4573849Y8232480D01*
X4594893Y8219867D01*
X4614598Y8205253D01*
X4632777Y8188777D01*
X4649253Y8170598D01*
X4663867Y8150893D01*
X4676480Y8129849D01*
X4686970Y8107671D01*
X4695235Y8084571D01*
X4701196Y8060773D01*
X4704796Y8036504D01*
X4706000Y8012000D01*
X4706000Y7502000D01*
X4704796Y7477496D01*
X4701196Y7453227D01*
X4695235Y7429429D01*
X4686970Y7406329D01*
X4676480Y7384151D01*
X4663867Y7363107D01*
X4649253Y7343402D01*
X4632777Y7325223D01*
X4614598Y7308747D01*
X4594893Y7294133D01*
X4573849Y7281520D01*
X4551671Y7271030D01*
X4528571Y7262765D01*
X4504773Y7256804D01*
X4480504Y7253204D01*
X4456000Y7252000D01*
X3946000Y7252000D01*
X3921496Y7253204D01*
X3897227Y7256804D01*
X3873429Y7262765D01*
X3850329Y7271030D01*
X3828151Y7281520D01*
X3807107Y7294133D01*
X3787402Y7308747D01*
X3769223Y7325223D01*
X3752747Y7343402D01*
X3738133Y7363107D01*
X3725520Y7384151D01*
X3715030Y7406329D01*
X3706765Y7429429D01*
X3700804Y7453227D01*
X3697204Y7477496D01*
X3696000Y7502000D01*
X3696000Y8012000D01*
X3697204Y8036504D01*
X3700804Y8060773D01*
X3706765Y8084571D01*
X3715030Y8107671D01*
X3725520Y8129849D01*
X3738133Y8150893D01*
X3752747Y8170598D01*
X3769223Y8188777D01*
X3787402Y8205253D01*
X3807107Y8219867D01*
X3828151Y8232480D01*
X3850329Y8242970D01*
X3873429Y8251235D01*
X3897227Y8257196D01*
X3921496Y8260796D01*
X3946000Y8262000D01*
X4456000Y8262000D01*
X4480504Y8260796D01*
X4480504Y8260796D01*
G37*
D17*
X4201000Y7757000D03*
D12*
G36*
X7119626Y9506699D02*
X7125693Y9505799D01*
X7131643Y9504309D01*
X7137418Y9502242D01*
X7142962Y9499620D01*
X7148223Y9496467D01*
X7153150Y9492813D01*
X7157694Y9488694D01*
X7161813Y9484150D01*
X7165467Y9479223D01*
X7168620Y9473962D01*
X7171242Y9468418D01*
X7173309Y9462643D01*
X7174799Y9456693D01*
X7175699Y9450626D01*
X7176000Y9444500D01*
X7176000Y9319500D01*
X7175699Y9313374D01*
X7174799Y9307307D01*
X7173309Y9301357D01*
X7171242Y9295582D01*
X7168620Y9290038D01*
X7165467Y9284777D01*
X7161813Y9279850D01*
X7157694Y9275306D01*
X7153150Y9271187D01*
X7148223Y9267533D01*
X7142962Y9264380D01*
X7137418Y9261758D01*
X7131643Y9259691D01*
X7125693Y9258201D01*
X7119626Y9257301D01*
X7113500Y9257000D01*
X6413500Y9257000D01*
X6407374Y9257301D01*
X6401307Y9258201D01*
X6395357Y9259691D01*
X6389582Y9261758D01*
X6384038Y9264380D01*
X6378777Y9267533D01*
X6373850Y9271187D01*
X6369306Y9275306D01*
X6365187Y9279850D01*
X6361533Y9284777D01*
X6358380Y9290038D01*
X6355758Y9295582D01*
X6353691Y9301357D01*
X6352201Y9307307D01*
X6351301Y9313374D01*
X6351000Y9319500D01*
X6351000Y9444500D01*
X6351301Y9450626D01*
X6352201Y9456693D01*
X6353691Y9462643D01*
X6355758Y9468418D01*
X6358380Y9473962D01*
X6361533Y9479223D01*
X6365187Y9484150D01*
X6369306Y9488694D01*
X6373850Y9492813D01*
X6378777Y9496467D01*
X6384038Y9499620D01*
X6389582Y9502242D01*
X6395357Y9504309D01*
X6401307Y9505799D01*
X6407374Y9506699D01*
X6413500Y9507000D01*
X7113500Y9507000D01*
X7119626Y9506699D01*
X7119626Y9506699D01*
G37*
D18*
X6763500Y9382000D03*
D12*
G36*
X7119626Y9006699D02*
X7125693Y9005799D01*
X7131643Y9004309D01*
X7137418Y9002242D01*
X7142962Y8999620D01*
X7148223Y8996467D01*
X7153150Y8992813D01*
X7157694Y8988694D01*
X7161813Y8984150D01*
X7165467Y8979223D01*
X7168620Y8973962D01*
X7171242Y8968418D01*
X7173309Y8962643D01*
X7174799Y8956693D01*
X7175699Y8950626D01*
X7176000Y8944500D01*
X7176000Y8819500D01*
X7175699Y8813374D01*
X7174799Y8807307D01*
X7173309Y8801357D01*
X7171242Y8795582D01*
X7168620Y8790038D01*
X7165467Y8784777D01*
X7161813Y8779850D01*
X7157694Y8775306D01*
X7153150Y8771187D01*
X7148223Y8767533D01*
X7142962Y8764380D01*
X7137418Y8761758D01*
X7131643Y8759691D01*
X7125693Y8758201D01*
X7119626Y8757301D01*
X7113500Y8757000D01*
X6413500Y8757000D01*
X6407374Y8757301D01*
X6401307Y8758201D01*
X6395357Y8759691D01*
X6389582Y8761758D01*
X6384038Y8764380D01*
X6378777Y8767533D01*
X6373850Y8771187D01*
X6369306Y8775306D01*
X6365187Y8779850D01*
X6361533Y8784777D01*
X6358380Y8790038D01*
X6355758Y8795582D01*
X6353691Y8801357D01*
X6352201Y8807307D01*
X6351301Y8813374D01*
X6351000Y8819500D01*
X6351000Y8944500D01*
X6351301Y8950626D01*
X6352201Y8956693D01*
X6353691Y8962643D01*
X6355758Y8968418D01*
X6358380Y8973962D01*
X6361533Y8979223D01*
X6365187Y8984150D01*
X6369306Y8988694D01*
X6373850Y8992813D01*
X6378777Y8996467D01*
X6384038Y8999620D01*
X6389582Y9002242D01*
X6395357Y9004309D01*
X6401307Y9005799D01*
X6407374Y9006699D01*
X6413500Y9007000D01*
X7113500Y9007000D01*
X7119626Y9006699D01*
X7119626Y9006699D01*
G37*
D18*
X6763500Y8882000D03*
D12*
G36*
X7119626Y8506699D02*
X7125693Y8505799D01*
X7131643Y8504309D01*
X7137418Y8502242D01*
X7142962Y8499620D01*
X7148223Y8496467D01*
X7153150Y8492813D01*
X7157694Y8488694D01*
X7161813Y8484150D01*
X7165467Y8479223D01*
X7168620Y8473962D01*
X7171242Y8468418D01*
X7173309Y8462643D01*
X7174799Y8456693D01*
X7175699Y8450626D01*
X7176000Y8444500D01*
X7176000Y8319500D01*
X7175699Y8313374D01*
X7174799Y8307307D01*
X7173309Y8301357D01*
X7171242Y8295582D01*
X7168620Y8290038D01*
X7165467Y8284777D01*
X7161813Y8279850D01*
X7157694Y8275306D01*
X7153150Y8271187D01*
X7148223Y8267533D01*
X7142962Y8264380D01*
X7137418Y8261758D01*
X7131643Y8259691D01*
X7125693Y8258201D01*
X7119626Y8257301D01*
X7113500Y8257000D01*
X6413500Y8257000D01*
X6407374Y8257301D01*
X6401307Y8258201D01*
X6395357Y8259691D01*
X6389582Y8261758D01*
X6384038Y8264380D01*
X6378777Y8267533D01*
X6373850Y8271187D01*
X6369306Y8275306D01*
X6365187Y8279850D01*
X6361533Y8284777D01*
X6358380Y8290038D01*
X6355758Y8295582D01*
X6353691Y8301357D01*
X6352201Y8307307D01*
X6351301Y8313374D01*
X6351000Y8319500D01*
X6351000Y8444500D01*
X6351301Y8450626D01*
X6352201Y8456693D01*
X6353691Y8462643D01*
X6355758Y8468418D01*
X6358380Y8473962D01*
X6361533Y8479223D01*
X6365187Y8484150D01*
X6369306Y8488694D01*
X6373850Y8492813D01*
X6378777Y8496467D01*
X6384038Y8499620D01*
X6389582Y8502242D01*
X6395357Y8504309D01*
X6401307Y8505799D01*
X6407374Y8506699D01*
X6413500Y8507000D01*
X7113500Y8507000D01*
X7119626Y8506699D01*
X7119626Y8506699D01*
G37*
D18*
X6763500Y8382000D03*
D12*
G36*
X7119626Y8006699D02*
X7125693Y8005799D01*
X7131643Y8004309D01*
X7137418Y8002242D01*
X7142962Y7999620D01*
X7148223Y7996467D01*
X7153150Y7992813D01*
X7157694Y7988694D01*
X7161813Y7984150D01*
X7165467Y7979223D01*
X7168620Y7973962D01*
X7171242Y7968418D01*
X7173309Y7962643D01*
X7174799Y7956693D01*
X7175699Y7950626D01*
X7176000Y7944500D01*
X7176000Y7819500D01*
X7175699Y7813374D01*
X7174799Y7807307D01*
X7173309Y7801357D01*
X7171242Y7795582D01*
X7168620Y7790038D01*
X7165467Y7784777D01*
X7161813Y7779850D01*
X7157694Y7775306D01*
X7153150Y7771187D01*
X7148223Y7767533D01*
X7142962Y7764380D01*
X7137418Y7761758D01*
X7131643Y7759691D01*
X7125693Y7758201D01*
X7119626Y7757301D01*
X7113500Y7757000D01*
X6413500Y7757000D01*
X6407374Y7757301D01*
X6401307Y7758201D01*
X6395357Y7759691D01*
X6389582Y7761758D01*
X6384038Y7764380D01*
X6378777Y7767533D01*
X6373850Y7771187D01*
X6369306Y7775306D01*
X6365187Y7779850D01*
X6361533Y7784777D01*
X6358380Y7790038D01*
X6355758Y7795582D01*
X6353691Y7801357D01*
X6352201Y7807307D01*
X6351301Y7813374D01*
X6351000Y7819500D01*
X6351000Y7944500D01*
X6351301Y7950626D01*
X6352201Y7956693D01*
X6353691Y7962643D01*
X6355758Y7968418D01*
X6358380Y7973962D01*
X6361533Y7979223D01*
X6365187Y7984150D01*
X6369306Y7988694D01*
X6373850Y7992813D01*
X6378777Y7996467D01*
X6384038Y7999620D01*
X6389582Y8002242D01*
X6395357Y8004309D01*
X6401307Y8005799D01*
X6407374Y8006699D01*
X6413500Y8007000D01*
X7113500Y8007000D01*
X7119626Y8006699D01*
X7119626Y8006699D01*
G37*
D18*
X6763500Y7882000D03*
D12*
G36*
X7119626Y7506699D02*
X7125693Y7505799D01*
X7131643Y7504309D01*
X7137418Y7502242D01*
X7142962Y7499620D01*
X7148223Y7496467D01*
X7153150Y7492813D01*
X7157694Y7488694D01*
X7161813Y7484150D01*
X7165467Y7479223D01*
X7168620Y7473962D01*
X7171242Y7468418D01*
X7173309Y7462643D01*
X7174799Y7456693D01*
X7175699Y7450626D01*
X7176000Y7444500D01*
X7176000Y7319500D01*
X7175699Y7313374D01*
X7174799Y7307307D01*
X7173309Y7301357D01*
X7171242Y7295582D01*
X7168620Y7290038D01*
X7165467Y7284777D01*
X7161813Y7279850D01*
X7157694Y7275306D01*
X7153150Y7271187D01*
X7148223Y7267533D01*
X7142962Y7264380D01*
X7137418Y7261758D01*
X7131643Y7259691D01*
X7125693Y7258201D01*
X7119626Y7257301D01*
X7113500Y7257000D01*
X6413500Y7257000D01*
X6407374Y7257301D01*
X6401307Y7258201D01*
X6395357Y7259691D01*
X6389582Y7261758D01*
X6384038Y7264380D01*
X6378777Y7267533D01*
X6373850Y7271187D01*
X6369306Y7275306D01*
X6365187Y7279850D01*
X6361533Y7284777D01*
X6358380Y7290038D01*
X6355758Y7295582D01*
X6353691Y7301357D01*
X6352201Y7307307D01*
X6351301Y7313374D01*
X6351000Y7319500D01*
X6351000Y7444500D01*
X6351301Y7450626D01*
X6352201Y7456693D01*
X6353691Y7462643D01*
X6355758Y7468418D01*
X6358380Y7473962D01*
X6361533Y7479223D01*
X6365187Y7484150D01*
X6369306Y7488694D01*
X6373850Y7492813D01*
X6378777Y7496467D01*
X6384038Y7499620D01*
X6389582Y7502242D01*
X6395357Y7504309D01*
X6401307Y7505799D01*
X6407374Y7506699D01*
X6413500Y7507000D01*
X7113500Y7507000D01*
X7119626Y7506699D01*
X7119626Y7506699D01*
G37*
D18*
X6763500Y7382000D03*
D12*
G36*
X5894626Y6856699D02*
X5900693Y6855799D01*
X5906643Y6854309D01*
X5912418Y6852242D01*
X5917962Y6849620D01*
X5923223Y6846467D01*
X5928150Y6842813D01*
X5932694Y6838694D01*
X5936813Y6834150D01*
X5940467Y6829223D01*
X5943620Y6823962D01*
X5946242Y6818418D01*
X5948309Y6812643D01*
X5949799Y6806693D01*
X5950699Y6800626D01*
X5951000Y6794500D01*
X5951000Y6094500D01*
X5950699Y6088374D01*
X5949799Y6082307D01*
X5948309Y6076357D01*
X5946242Y6070582D01*
X5943620Y6065038D01*
X5940467Y6059777D01*
X5936813Y6054850D01*
X5932694Y6050306D01*
X5928150Y6046187D01*
X5923223Y6042533D01*
X5917962Y6039380D01*
X5912418Y6036758D01*
X5906643Y6034691D01*
X5900693Y6033201D01*
X5894626Y6032301D01*
X5888500Y6032000D01*
X5763500Y6032000D01*
X5757374Y6032301D01*
X5751307Y6033201D01*
X5745357Y6034691D01*
X5739582Y6036758D01*
X5734038Y6039380D01*
X5728777Y6042533D01*
X5723850Y6046187D01*
X5719306Y6050306D01*
X5715187Y6054850D01*
X5711533Y6059777D01*
X5708380Y6065038D01*
X5705758Y6070582D01*
X5703691Y6076357D01*
X5702201Y6082307D01*
X5701301Y6088374D01*
X5701000Y6094500D01*
X5701000Y6794500D01*
X5701301Y6800626D01*
X5702201Y6806693D01*
X5703691Y6812643D01*
X5705758Y6818418D01*
X5708380Y6823962D01*
X5711533Y6829223D01*
X5715187Y6834150D01*
X5719306Y6838694D01*
X5723850Y6842813D01*
X5728777Y6846467D01*
X5734038Y6849620D01*
X5739582Y6852242D01*
X5745357Y6854309D01*
X5751307Y6855799D01*
X5757374Y6856699D01*
X5763500Y6857000D01*
X5888500Y6857000D01*
X5894626Y6856699D01*
X5894626Y6856699D01*
G37*
D18*
X5826000Y6444500D03*
D12*
G36*
X5394626Y6856699D02*
X5400693Y6855799D01*
X5406643Y6854309D01*
X5412418Y6852242D01*
X5417962Y6849620D01*
X5423223Y6846467D01*
X5428150Y6842813D01*
X5432694Y6838694D01*
X5436813Y6834150D01*
X5440467Y6829223D01*
X5443620Y6823962D01*
X5446242Y6818418D01*
X5448309Y6812643D01*
X5449799Y6806693D01*
X5450699Y6800626D01*
X5451000Y6794500D01*
X5451000Y6094500D01*
X5450699Y6088374D01*
X5449799Y6082307D01*
X5448309Y6076357D01*
X5446242Y6070582D01*
X5443620Y6065038D01*
X5440467Y6059777D01*
X5436813Y6054850D01*
X5432694Y6050306D01*
X5428150Y6046187D01*
X5423223Y6042533D01*
X5417962Y6039380D01*
X5412418Y6036758D01*
X5406643Y6034691D01*
X5400693Y6033201D01*
X5394626Y6032301D01*
X5388500Y6032000D01*
X5263500Y6032000D01*
X5257374Y6032301D01*
X5251307Y6033201D01*
X5245357Y6034691D01*
X5239582Y6036758D01*
X5234038Y6039380D01*
X5228777Y6042533D01*
X5223850Y6046187D01*
X5219306Y6050306D01*
X5215187Y6054850D01*
X5211533Y6059777D01*
X5208380Y6065038D01*
X5205758Y6070582D01*
X5203691Y6076357D01*
X5202201Y6082307D01*
X5201301Y6088374D01*
X5201000Y6094500D01*
X5201000Y6794500D01*
X5201301Y6800626D01*
X5202201Y6806693D01*
X5203691Y6812643D01*
X5205758Y6818418D01*
X5208380Y6823962D01*
X5211533Y6829223D01*
X5215187Y6834150D01*
X5219306Y6838694D01*
X5223850Y6842813D01*
X5228777Y6846467D01*
X5234038Y6849620D01*
X5239582Y6852242D01*
X5245357Y6854309D01*
X5251307Y6855799D01*
X5257374Y6856699D01*
X5263500Y6857000D01*
X5388500Y6857000D01*
X5394626Y6856699D01*
X5394626Y6856699D01*
G37*
D18*
X5326000Y6444500D03*
D12*
G36*
X4894626Y6856699D02*
X4900693Y6855799D01*
X4906643Y6854309D01*
X4912418Y6852242D01*
X4917962Y6849620D01*
X4923223Y6846467D01*
X4928150Y6842813D01*
X4932694Y6838694D01*
X4936813Y6834150D01*
X4940467Y6829223D01*
X4943620Y6823962D01*
X4946242Y6818418D01*
X4948309Y6812643D01*
X4949799Y6806693D01*
X4950699Y6800626D01*
X4951000Y6794500D01*
X4951000Y6094500D01*
X4950699Y6088374D01*
X4949799Y6082307D01*
X4948309Y6076357D01*
X4946242Y6070582D01*
X4943620Y6065038D01*
X4940467Y6059777D01*
X4936813Y6054850D01*
X4932694Y6050306D01*
X4928150Y6046187D01*
X4923223Y6042533D01*
X4917962Y6039380D01*
X4912418Y6036758D01*
X4906643Y6034691D01*
X4900693Y6033201D01*
X4894626Y6032301D01*
X4888500Y6032000D01*
X4763500Y6032000D01*
X4757374Y6032301D01*
X4751307Y6033201D01*
X4745357Y6034691D01*
X4739582Y6036758D01*
X4734038Y6039380D01*
X4728777Y6042533D01*
X4723850Y6046187D01*
X4719306Y6050306D01*
X4715187Y6054850D01*
X4711533Y6059777D01*
X4708380Y6065038D01*
X4705758Y6070582D01*
X4703691Y6076357D01*
X4702201Y6082307D01*
X4701301Y6088374D01*
X4701000Y6094500D01*
X4701000Y6794500D01*
X4701301Y6800626D01*
X4702201Y6806693D01*
X4703691Y6812643D01*
X4705758Y6818418D01*
X4708380Y6823962D01*
X4711533Y6829223D01*
X4715187Y6834150D01*
X4719306Y6838694D01*
X4723850Y6842813D01*
X4728777Y6846467D01*
X4734038Y6849620D01*
X4739582Y6852242D01*
X4745357Y6854309D01*
X4751307Y6855799D01*
X4757374Y6856699D01*
X4763500Y6857000D01*
X4888500Y6857000D01*
X4894626Y6856699D01*
X4894626Y6856699D01*
G37*
D18*
X4826000Y6444500D03*
D12*
G36*
X4394626Y6856699D02*
X4400693Y6855799D01*
X4406643Y6854309D01*
X4412418Y6852242D01*
X4417962Y6849620D01*
X4423223Y6846467D01*
X4428150Y6842813D01*
X4432694Y6838694D01*
X4436813Y6834150D01*
X4440467Y6829223D01*
X4443620Y6823962D01*
X4446242Y6818418D01*
X4448309Y6812643D01*
X4449799Y6806693D01*
X4450699Y6800626D01*
X4451000Y6794500D01*
X4451000Y6094500D01*
X4450699Y6088374D01*
X4449799Y6082307D01*
X4448309Y6076357D01*
X4446242Y6070582D01*
X4443620Y6065038D01*
X4440467Y6059777D01*
X4436813Y6054850D01*
X4432694Y6050306D01*
X4428150Y6046187D01*
X4423223Y6042533D01*
X4417962Y6039380D01*
X4412418Y6036758D01*
X4406643Y6034691D01*
X4400693Y6033201D01*
X4394626Y6032301D01*
X4388500Y6032000D01*
X4263500Y6032000D01*
X4257374Y6032301D01*
X4251307Y6033201D01*
X4245357Y6034691D01*
X4239582Y6036758D01*
X4234038Y6039380D01*
X4228777Y6042533D01*
X4223850Y6046187D01*
X4219306Y6050306D01*
X4215187Y6054850D01*
X4211533Y6059777D01*
X4208380Y6065038D01*
X4205758Y6070582D01*
X4203691Y6076357D01*
X4202201Y6082307D01*
X4201301Y6088374D01*
X4201000Y6094500D01*
X4201000Y6794500D01*
X4201301Y6800626D01*
X4202201Y6806693D01*
X4203691Y6812643D01*
X4205758Y6818418D01*
X4208380Y6823962D01*
X4211533Y6829223D01*
X4215187Y6834150D01*
X4219306Y6838694D01*
X4223850Y6842813D01*
X4228777Y6846467D01*
X4234038Y6849620D01*
X4239582Y6852242D01*
X4245357Y6854309D01*
X4251307Y6855799D01*
X4257374Y6856699D01*
X4263500Y6857000D01*
X4388500Y6857000D01*
X4394626Y6856699D01*
X4394626Y6856699D01*
G37*
D18*
X4326000Y6444500D03*
D12*
G36*
X3894626Y6856699D02*
X3900693Y6855799D01*
X3906643Y6854309D01*
X3912418Y6852242D01*
X3917962Y6849620D01*
X3923223Y6846467D01*
X3928150Y6842813D01*
X3932694Y6838694D01*
X3936813Y6834150D01*
X3940467Y6829223D01*
X3943620Y6823962D01*
X3946242Y6818418D01*
X3948309Y6812643D01*
X3949799Y6806693D01*
X3950699Y6800626D01*
X3951000Y6794500D01*
X3951000Y6094500D01*
X3950699Y6088374D01*
X3949799Y6082307D01*
X3948309Y6076357D01*
X3946242Y6070582D01*
X3943620Y6065038D01*
X3940467Y6059777D01*
X3936813Y6054850D01*
X3932694Y6050306D01*
X3928150Y6046187D01*
X3923223Y6042533D01*
X3917962Y6039380D01*
X3912418Y6036758D01*
X3906643Y6034691D01*
X3900693Y6033201D01*
X3894626Y6032301D01*
X3888500Y6032000D01*
X3763500Y6032000D01*
X3757374Y6032301D01*
X3751307Y6033201D01*
X3745357Y6034691D01*
X3739582Y6036758D01*
X3734038Y6039380D01*
X3728777Y6042533D01*
X3723850Y6046187D01*
X3719306Y6050306D01*
X3715187Y6054850D01*
X3711533Y6059777D01*
X3708380Y6065038D01*
X3705758Y6070582D01*
X3703691Y6076357D01*
X3702201Y6082307D01*
X3701301Y6088374D01*
X3701000Y6094500D01*
X3701000Y6794500D01*
X3701301Y6800626D01*
X3702201Y6806693D01*
X3703691Y6812643D01*
X3705758Y6818418D01*
X3708380Y6823962D01*
X3711533Y6829223D01*
X3715187Y6834150D01*
X3719306Y6838694D01*
X3723850Y6842813D01*
X3728777Y6846467D01*
X3734038Y6849620D01*
X3739582Y6852242D01*
X3745357Y6854309D01*
X3751307Y6855799D01*
X3757374Y6856699D01*
X3763500Y6857000D01*
X3888500Y6857000D01*
X3894626Y6856699D01*
X3894626Y6856699D01*
G37*
D18*
X3826000Y6444500D03*
D12*
G36*
X3244626Y7506699D02*
X3250693Y7505799D01*
X3256643Y7504309D01*
X3262418Y7502242D01*
X3267962Y7499620D01*
X3273223Y7496467D01*
X3278150Y7492813D01*
X3282694Y7488694D01*
X3286813Y7484150D01*
X3290467Y7479223D01*
X3293620Y7473962D01*
X3296242Y7468418D01*
X3298309Y7462643D01*
X3299799Y7456693D01*
X3300699Y7450626D01*
X3301000Y7444500D01*
X3301000Y7319500D01*
X3300699Y7313374D01*
X3299799Y7307307D01*
X3298309Y7301357D01*
X3296242Y7295582D01*
X3293620Y7290038D01*
X3290467Y7284777D01*
X3286813Y7279850D01*
X3282694Y7275306D01*
X3278150Y7271187D01*
X3273223Y7267533D01*
X3267962Y7264380D01*
X3262418Y7261758D01*
X3256643Y7259691D01*
X3250693Y7258201D01*
X3244626Y7257301D01*
X3238500Y7257000D01*
X2538500Y7257000D01*
X2532374Y7257301D01*
X2526307Y7258201D01*
X2520357Y7259691D01*
X2514582Y7261758D01*
X2509038Y7264380D01*
X2503777Y7267533D01*
X2498850Y7271187D01*
X2494306Y7275306D01*
X2490187Y7279850D01*
X2486533Y7284777D01*
X2483380Y7290038D01*
X2480758Y7295582D01*
X2478691Y7301357D01*
X2477201Y7307307D01*
X2476301Y7313374D01*
X2476000Y7319500D01*
X2476000Y7444500D01*
X2476301Y7450626D01*
X2477201Y7456693D01*
X2478691Y7462643D01*
X2480758Y7468418D01*
X2483380Y7473962D01*
X2486533Y7479223D01*
X2490187Y7484150D01*
X2494306Y7488694D01*
X2498850Y7492813D01*
X2503777Y7496467D01*
X2509038Y7499620D01*
X2514582Y7502242D01*
X2520357Y7504309D01*
X2526307Y7505799D01*
X2532374Y7506699D01*
X2538500Y7507000D01*
X3238500Y7507000D01*
X3244626Y7506699D01*
X3244626Y7506699D01*
G37*
D18*
X2888500Y7382000D03*
D12*
G36*
X3244626Y8006699D02*
X3250693Y8005799D01*
X3256643Y8004309D01*
X3262418Y8002242D01*
X3267962Y7999620D01*
X3273223Y7996467D01*
X3278150Y7992813D01*
X3282694Y7988694D01*
X3286813Y7984150D01*
X3290467Y7979223D01*
X3293620Y7973962D01*
X3296242Y7968418D01*
X3298309Y7962643D01*
X3299799Y7956693D01*
X3300699Y7950626D01*
X3301000Y7944500D01*
X3301000Y7819500D01*
X3300699Y7813374D01*
X3299799Y7807307D01*
X3298309Y7801357D01*
X3296242Y7795582D01*
X3293620Y7790038D01*
X3290467Y7784777D01*
X3286813Y7779850D01*
X3282694Y7775306D01*
X3278150Y7771187D01*
X3273223Y7767533D01*
X3267962Y7764380D01*
X3262418Y7761758D01*
X3256643Y7759691D01*
X3250693Y7758201D01*
X3244626Y7757301D01*
X3238500Y7757000D01*
X2538500Y7757000D01*
X2532374Y7757301D01*
X2526307Y7758201D01*
X2520357Y7759691D01*
X2514582Y7761758D01*
X2509038Y7764380D01*
X2503777Y7767533D01*
X2498850Y7771187D01*
X2494306Y7775306D01*
X2490187Y7779850D01*
X2486533Y7784777D01*
X2483380Y7790038D01*
X2480758Y7795582D01*
X2478691Y7801357D01*
X2477201Y7807307D01*
X2476301Y7813374D01*
X2476000Y7819500D01*
X2476000Y7944500D01*
X2476301Y7950626D01*
X2477201Y7956693D01*
X2478691Y7962643D01*
X2480758Y7968418D01*
X2483380Y7973962D01*
X2486533Y7979223D01*
X2490187Y7984150D01*
X2494306Y7988694D01*
X2498850Y7992813D01*
X2503777Y7996467D01*
X2509038Y7999620D01*
X2514582Y8002242D01*
X2520357Y8004309D01*
X2526307Y8005799D01*
X2532374Y8006699D01*
X2538500Y8007000D01*
X3238500Y8007000D01*
X3244626Y8006699D01*
X3244626Y8006699D01*
G37*
D18*
X2888500Y7882000D03*
D12*
G36*
X3244626Y8506699D02*
X3250693Y8505799D01*
X3256643Y8504309D01*
X3262418Y8502242D01*
X3267962Y8499620D01*
X3273223Y8496467D01*
X3278150Y8492813D01*
X3282694Y8488694D01*
X3286813Y8484150D01*
X3290467Y8479223D01*
X3293620Y8473962D01*
X3296242Y8468418D01*
X3298309Y8462643D01*
X3299799Y8456693D01*
X3300699Y8450626D01*
X3301000Y8444500D01*
X3301000Y8319500D01*
X3300699Y8313374D01*
X3299799Y8307307D01*
X3298309Y8301357D01*
X3296242Y8295582D01*
X3293620Y8290038D01*
X3290467Y8284777D01*
X3286813Y8279850D01*
X3282694Y8275306D01*
X3278150Y8271187D01*
X3273223Y8267533D01*
X3267962Y8264380D01*
X3262418Y8261758D01*
X3256643Y8259691D01*
X3250693Y8258201D01*
X3244626Y8257301D01*
X3238500Y8257000D01*
X2538500Y8257000D01*
X2532374Y8257301D01*
X2526307Y8258201D01*
X2520357Y8259691D01*
X2514582Y8261758D01*
X2509038Y8264380D01*
X2503777Y8267533D01*
X2498850Y8271187D01*
X2494306Y8275306D01*
X2490187Y8279850D01*
X2486533Y8284777D01*
X2483380Y8290038D01*
X2480758Y8295582D01*
X2478691Y8301357D01*
X2477201Y8307307D01*
X2476301Y8313374D01*
X2476000Y8319500D01*
X2476000Y8444500D01*
X2476301Y8450626D01*
X2477201Y8456693D01*
X2478691Y8462643D01*
X2480758Y8468418D01*
X2483380Y8473962D01*
X2486533Y8479223D01*
X2490187Y8484150D01*
X2494306Y8488694D01*
X2498850Y8492813D01*
X2503777Y8496467D01*
X2509038Y8499620D01*
X2514582Y8502242D01*
X2520357Y8504309D01*
X2526307Y8505799D01*
X2532374Y8506699D01*
X2538500Y8507000D01*
X3238500Y8507000D01*
X3244626Y8506699D01*
X3244626Y8506699D01*
G37*
D18*
X2888500Y8382000D03*
D12*
G36*
X3244626Y9006699D02*
X3250693Y9005799D01*
X3256643Y9004309D01*
X3262418Y9002242D01*
X3267962Y8999620D01*
X3273223Y8996467D01*
X3278150Y8992813D01*
X3282694Y8988694D01*
X3286813Y8984150D01*
X3290467Y8979223D01*
X3293620Y8973962D01*
X3296242Y8968418D01*
X3298309Y8962643D01*
X3299799Y8956693D01*
X3300699Y8950626D01*
X3301000Y8944500D01*
X3301000Y8819500D01*
X3300699Y8813374D01*
X3299799Y8807307D01*
X3298309Y8801357D01*
X3296242Y8795582D01*
X3293620Y8790038D01*
X3290467Y8784777D01*
X3286813Y8779850D01*
X3282694Y8775306D01*
X3278150Y8771187D01*
X3273223Y8767533D01*
X3267962Y8764380D01*
X3262418Y8761758D01*
X3256643Y8759691D01*
X3250693Y8758201D01*
X3244626Y8757301D01*
X3238500Y8757000D01*
X2538500Y8757000D01*
X2532374Y8757301D01*
X2526307Y8758201D01*
X2520357Y8759691D01*
X2514582Y8761758D01*
X2509038Y8764380D01*
X2503777Y8767533D01*
X2498850Y8771187D01*
X2494306Y8775306D01*
X2490187Y8779850D01*
X2486533Y8784777D01*
X2483380Y8790038D01*
X2480758Y8795582D01*
X2478691Y8801357D01*
X2477201Y8807307D01*
X2476301Y8813374D01*
X2476000Y8819500D01*
X2476000Y8944500D01*
X2476301Y8950626D01*
X2477201Y8956693D01*
X2478691Y8962643D01*
X2480758Y8968418D01*
X2483380Y8973962D01*
X2486533Y8979223D01*
X2490187Y8984150D01*
X2494306Y8988694D01*
X2498850Y8992813D01*
X2503777Y8996467D01*
X2509038Y8999620D01*
X2514582Y9002242D01*
X2520357Y9004309D01*
X2526307Y9005799D01*
X2532374Y9006699D01*
X2538500Y9007000D01*
X3238500Y9007000D01*
X3244626Y9006699D01*
X3244626Y9006699D01*
G37*
D18*
X2888500Y8882000D03*
D12*
G36*
X3244626Y9506699D02*
X3250693Y9505799D01*
X3256643Y9504309D01*
X3262418Y9502242D01*
X3267962Y9499620D01*
X3273223Y9496467D01*
X3278150Y9492813D01*
X3282694Y9488694D01*
X3286813Y9484150D01*
X3290467Y9479223D01*
X3293620Y9473962D01*
X3296242Y9468418D01*
X3298309Y9462643D01*
X3299799Y9456693D01*
X3300699Y9450626D01*
X3301000Y9444500D01*
X3301000Y9319500D01*
X3300699Y9313374D01*
X3299799Y9307307D01*
X3298309Y9301357D01*
X3296242Y9295582D01*
X3293620Y9290038D01*
X3290467Y9284777D01*
X3286813Y9279850D01*
X3282694Y9275306D01*
X3278150Y9271187D01*
X3273223Y9267533D01*
X3267962Y9264380D01*
X3262418Y9261758D01*
X3256643Y9259691D01*
X3250693Y9258201D01*
X3244626Y9257301D01*
X3238500Y9257000D01*
X2538500Y9257000D01*
X2532374Y9257301D01*
X2526307Y9258201D01*
X2520357Y9259691D01*
X2514582Y9261758D01*
X2509038Y9264380D01*
X2503777Y9267533D01*
X2498850Y9271187D01*
X2494306Y9275306D01*
X2490187Y9279850D01*
X2486533Y9284777D01*
X2483380Y9290038D01*
X2480758Y9295582D01*
X2478691Y9301357D01*
X2477201Y9307307D01*
X2476301Y9313374D01*
X2476000Y9319500D01*
X2476000Y9444500D01*
X2476301Y9450626D01*
X2477201Y9456693D01*
X2478691Y9462643D01*
X2480758Y9468418D01*
X2483380Y9473962D01*
X2486533Y9479223D01*
X2490187Y9484150D01*
X2494306Y9488694D01*
X2498850Y9492813D01*
X2503777Y9496467D01*
X2509038Y9499620D01*
X2514582Y9502242D01*
X2520357Y9504309D01*
X2526307Y9505799D01*
X2532374Y9506699D01*
X2538500Y9507000D01*
X3238500Y9507000D01*
X3244626Y9506699D01*
X3244626Y9506699D01*
G37*
D18*
X2888500Y9382000D03*
D12*
G36*
X3894626Y10731699D02*
X3900693Y10730799D01*
X3906643Y10729309D01*
X3912418Y10727242D01*
X3917962Y10724620D01*
X3923223Y10721467D01*
X3928150Y10717813D01*
X3932694Y10713694D01*
X3936813Y10709150D01*
X3940467Y10704223D01*
X3943620Y10698962D01*
X3946242Y10693418D01*
X3948309Y10687643D01*
X3949799Y10681693D01*
X3950699Y10675626D01*
X3951000Y10669500D01*
X3951000Y9969500D01*
X3950699Y9963374D01*
X3949799Y9957307D01*
X3948309Y9951357D01*
X3946242Y9945582D01*
X3943620Y9940038D01*
X3940467Y9934777D01*
X3936813Y9929850D01*
X3932694Y9925306D01*
X3928150Y9921187D01*
X3923223Y9917533D01*
X3917962Y9914380D01*
X3912418Y9911758D01*
X3906643Y9909691D01*
X3900693Y9908201D01*
X3894626Y9907301D01*
X3888500Y9907000D01*
X3763500Y9907000D01*
X3757374Y9907301D01*
X3751307Y9908201D01*
X3745357Y9909691D01*
X3739582Y9911758D01*
X3734038Y9914380D01*
X3728777Y9917533D01*
X3723850Y9921187D01*
X3719306Y9925306D01*
X3715187Y9929850D01*
X3711533Y9934777D01*
X3708380Y9940038D01*
X3705758Y9945582D01*
X3703691Y9951357D01*
X3702201Y9957307D01*
X3701301Y9963374D01*
X3701000Y9969500D01*
X3701000Y10669500D01*
X3701301Y10675626D01*
X3702201Y10681693D01*
X3703691Y10687643D01*
X3705758Y10693418D01*
X3708380Y10698962D01*
X3711533Y10704223D01*
X3715187Y10709150D01*
X3719306Y10713694D01*
X3723850Y10717813D01*
X3728777Y10721467D01*
X3734038Y10724620D01*
X3739582Y10727242D01*
X3745357Y10729309D01*
X3751307Y10730799D01*
X3757374Y10731699D01*
X3763500Y10732000D01*
X3888500Y10732000D01*
X3894626Y10731699D01*
X3894626Y10731699D01*
G37*
D18*
X3826000Y10319500D03*
D12*
G36*
X4394626Y10731699D02*
X4400693Y10730799D01*
X4406643Y10729309D01*
X4412418Y10727242D01*
X4417962Y10724620D01*
X4423223Y10721467D01*
X4428150Y10717813D01*
X4432694Y10713694D01*
X4436813Y10709150D01*
X4440467Y10704223D01*
X4443620Y10698962D01*
X4446242Y10693418D01*
X4448309Y10687643D01*
X4449799Y10681693D01*
X4450699Y10675626D01*
X4451000Y10669500D01*
X4451000Y9969500D01*
X4450699Y9963374D01*
X4449799Y9957307D01*
X4448309Y9951357D01*
X4446242Y9945582D01*
X4443620Y9940038D01*
X4440467Y9934777D01*
X4436813Y9929850D01*
X4432694Y9925306D01*
X4428150Y9921187D01*
X4423223Y9917533D01*
X4417962Y9914380D01*
X4412418Y9911758D01*
X4406643Y9909691D01*
X4400693Y9908201D01*
X4394626Y9907301D01*
X4388500Y9907000D01*
X4263500Y9907000D01*
X4257374Y9907301D01*
X4251307Y9908201D01*
X4245357Y9909691D01*
X4239582Y9911758D01*
X4234038Y9914380D01*
X4228777Y9917533D01*
X4223850Y9921187D01*
X4219306Y9925306D01*
X4215187Y9929850D01*
X4211533Y9934777D01*
X4208380Y9940038D01*
X4205758Y9945582D01*
X4203691Y9951357D01*
X4202201Y9957307D01*
X4201301Y9963374D01*
X4201000Y9969500D01*
X4201000Y10669500D01*
X4201301Y10675626D01*
X4202201Y10681693D01*
X4203691Y10687643D01*
X4205758Y10693418D01*
X4208380Y10698962D01*
X4211533Y10704223D01*
X4215187Y10709150D01*
X4219306Y10713694D01*
X4223850Y10717813D01*
X4228777Y10721467D01*
X4234038Y10724620D01*
X4239582Y10727242D01*
X4245357Y10729309D01*
X4251307Y10730799D01*
X4257374Y10731699D01*
X4263500Y10732000D01*
X4388500Y10732000D01*
X4394626Y10731699D01*
X4394626Y10731699D01*
G37*
D18*
X4326000Y10319500D03*
D12*
G36*
X4894626Y10731699D02*
X4900693Y10730799D01*
X4906643Y10729309D01*
X4912418Y10727242D01*
X4917962Y10724620D01*
X4923223Y10721467D01*
X4928150Y10717813D01*
X4932694Y10713694D01*
X4936813Y10709150D01*
X4940467Y10704223D01*
X4943620Y10698962D01*
X4946242Y10693418D01*
X4948309Y10687643D01*
X4949799Y10681693D01*
X4950699Y10675626D01*
X4951000Y10669500D01*
X4951000Y9969500D01*
X4950699Y9963374D01*
X4949799Y9957307D01*
X4948309Y9951357D01*
X4946242Y9945582D01*
X4943620Y9940038D01*
X4940467Y9934777D01*
X4936813Y9929850D01*
X4932694Y9925306D01*
X4928150Y9921187D01*
X4923223Y9917533D01*
X4917962Y9914380D01*
X4912418Y9911758D01*
X4906643Y9909691D01*
X4900693Y9908201D01*
X4894626Y9907301D01*
X4888500Y9907000D01*
X4763500Y9907000D01*
X4757374Y9907301D01*
X4751307Y9908201D01*
X4745357Y9909691D01*
X4739582Y9911758D01*
X4734038Y9914380D01*
X4728777Y9917533D01*
X4723850Y9921187D01*
X4719306Y9925306D01*
X4715187Y9929850D01*
X4711533Y9934777D01*
X4708380Y9940038D01*
X4705758Y9945582D01*
X4703691Y9951357D01*
X4702201Y9957307D01*
X4701301Y9963374D01*
X4701000Y9969500D01*
X4701000Y10669500D01*
X4701301Y10675626D01*
X4702201Y10681693D01*
X4703691Y10687643D01*
X4705758Y10693418D01*
X4708380Y10698962D01*
X4711533Y10704223D01*
X4715187Y10709150D01*
X4719306Y10713694D01*
X4723850Y10717813D01*
X4728777Y10721467D01*
X4734038Y10724620D01*
X4739582Y10727242D01*
X4745357Y10729309D01*
X4751307Y10730799D01*
X4757374Y10731699D01*
X4763500Y10732000D01*
X4888500Y10732000D01*
X4894626Y10731699D01*
X4894626Y10731699D01*
G37*
D18*
X4826000Y10319500D03*
D12*
G36*
X5394626Y10731699D02*
X5400693Y10730799D01*
X5406643Y10729309D01*
X5412418Y10727242D01*
X5417962Y10724620D01*
X5423223Y10721467D01*
X5428150Y10717813D01*
X5432694Y10713694D01*
X5436813Y10709150D01*
X5440467Y10704223D01*
X5443620Y10698962D01*
X5446242Y10693418D01*
X5448309Y10687643D01*
X5449799Y10681693D01*
X5450699Y10675626D01*
X5451000Y10669500D01*
X5451000Y9969500D01*
X5450699Y9963374D01*
X5449799Y9957307D01*
X5448309Y9951357D01*
X5446242Y9945582D01*
X5443620Y9940038D01*
X5440467Y9934777D01*
X5436813Y9929850D01*
X5432694Y9925306D01*
X5428150Y9921187D01*
X5423223Y9917533D01*
X5417962Y9914380D01*
X5412418Y9911758D01*
X5406643Y9909691D01*
X5400693Y9908201D01*
X5394626Y9907301D01*
X5388500Y9907000D01*
X5263500Y9907000D01*
X5257374Y9907301D01*
X5251307Y9908201D01*
X5245357Y9909691D01*
X5239582Y9911758D01*
X5234038Y9914380D01*
X5228777Y9917533D01*
X5223850Y9921187D01*
X5219306Y9925306D01*
X5215187Y9929850D01*
X5211533Y9934777D01*
X5208380Y9940038D01*
X5205758Y9945582D01*
X5203691Y9951357D01*
X5202201Y9957307D01*
X5201301Y9963374D01*
X5201000Y9969500D01*
X5201000Y10669500D01*
X5201301Y10675626D01*
X5202201Y10681693D01*
X5203691Y10687643D01*
X5205758Y10693418D01*
X5208380Y10698962D01*
X5211533Y10704223D01*
X5215187Y10709150D01*
X5219306Y10713694D01*
X5223850Y10717813D01*
X5228777Y10721467D01*
X5234038Y10724620D01*
X5239582Y10727242D01*
X5245357Y10729309D01*
X5251307Y10730799D01*
X5257374Y10731699D01*
X5263500Y10732000D01*
X5388500Y10732000D01*
X5394626Y10731699D01*
X5394626Y10731699D01*
G37*
D18*
X5326000Y10319500D03*
D12*
G36*
X5894626Y10731699D02*
X5900693Y10730799D01*
X5906643Y10729309D01*
X5912418Y10727242D01*
X5917962Y10724620D01*
X5923223Y10721467D01*
X5928150Y10717813D01*
X5932694Y10713694D01*
X5936813Y10709150D01*
X5940467Y10704223D01*
X5943620Y10698962D01*
X5946242Y10693418D01*
X5948309Y10687643D01*
X5949799Y10681693D01*
X5950699Y10675626D01*
X5951000Y10669500D01*
X5951000Y9969500D01*
X5950699Y9963374D01*
X5949799Y9957307D01*
X5948309Y9951357D01*
X5946242Y9945582D01*
X5943620Y9940038D01*
X5940467Y9934777D01*
X5936813Y9929850D01*
X5932694Y9925306D01*
X5928150Y9921187D01*
X5923223Y9917533D01*
X5917962Y9914380D01*
X5912418Y9911758D01*
X5906643Y9909691D01*
X5900693Y9908201D01*
X5894626Y9907301D01*
X5888500Y9907000D01*
X5763500Y9907000D01*
X5757374Y9907301D01*
X5751307Y9908201D01*
X5745357Y9909691D01*
X5739582Y9911758D01*
X5734038Y9914380D01*
X5728777Y9917533D01*
X5723850Y9921187D01*
X5719306Y9925306D01*
X5715187Y9929850D01*
X5711533Y9934777D01*
X5708380Y9940038D01*
X5705758Y9945582D01*
X5703691Y9951357D01*
X5702201Y9957307D01*
X5701301Y9963374D01*
X5701000Y9969500D01*
X5701000Y10669500D01*
X5701301Y10675626D01*
X5702201Y10681693D01*
X5703691Y10687643D01*
X5705758Y10693418D01*
X5708380Y10698962D01*
X5711533Y10704223D01*
X5715187Y10709150D01*
X5719306Y10713694D01*
X5723850Y10717813D01*
X5728777Y10721467D01*
X5734038Y10724620D01*
X5739582Y10727242D01*
X5745357Y10729309D01*
X5751307Y10730799D01*
X5757374Y10731699D01*
X5763500Y10732000D01*
X5888500Y10732000D01*
X5894626Y10731699D01*
X5894626Y10731699D01*
G37*
D18*
X5826000Y10319500D03*
G04 #@! TD*
D19*
G04 #@! TO.C,Q2*
X-11287000Y21082000D03*
X-9287000Y20132000D03*
X-9287000Y22032000D03*
G04 #@! TD*
G04 #@! TO.C,Q1*
X11033000Y22032000D03*
X11033000Y20132000D03*
X9033000Y21082000D03*
G04 #@! TD*
D20*
G04 #@! TO.C,U5*
X8806000Y-193000D03*
X8806000Y-2093000D03*
X11006000Y-2093000D03*
X11006000Y-1143000D03*
X11006000Y-193000D03*
G04 #@! TD*
G04 #@! TO.C,U10*
X-9695000Y-26228000D03*
X-9695000Y-27178000D03*
X-9695000Y-28128000D03*
X-11895000Y-28128000D03*
X-11895000Y-26228000D03*
G04 #@! TD*
G04 #@! TO.C,U2*
X8806000Y-12512000D03*
X8806000Y-14412000D03*
X11006000Y-14412000D03*
X11006000Y-13462000D03*
X11006000Y-12512000D03*
G04 #@! TD*
G04 #@! TO.C,U4*
X-9822000Y-12512000D03*
X-9822000Y-13462000D03*
X-9822000Y-14412000D03*
X-12022000Y-14412000D03*
X-12022000Y-12512000D03*
G04 #@! TD*
G04 #@! TO.C,U6*
X-12149000Y950000D03*
X-12149000Y-950000D03*
X-9949000Y-950000D03*
X-9949000Y0D03*
X-9949000Y950000D03*
G04 #@! TD*
G04 #@! TO.C,U7*
X10752000Y-39690000D03*
X10752000Y-40640000D03*
X10752000Y-41590000D03*
X8552000Y-41590000D03*
X8552000Y-39690000D03*
G04 #@! TD*
G04 #@! TO.C,U8*
X-11895000Y-39817000D03*
X-11895000Y-41717000D03*
X-9695000Y-41717000D03*
X-9695000Y-40767000D03*
X-9695000Y-39817000D03*
G04 #@! TD*
G04 #@! TO.C,U9*
X10752000Y-26228000D03*
X10752000Y-27178000D03*
X10752000Y-28128000D03*
X8552000Y-28128000D03*
X8552000Y-26228000D03*
G04 #@! TD*
D12*
G04 #@! TO.C,R1*
G36*
X-15152309Y17364947D02*
X-15131074Y17361797D01*
X-15110250Y17356581D01*
X-15090038Y17349349D01*
X-15070632Y17340170D01*
X-15052219Y17329134D01*
X-15034976Y17316346D01*
X-15019070Y17301930D01*
X-15004654Y17286024D01*
X-14991866Y17268781D01*
X-14980830Y17250368D01*
X-14971651Y17230962D01*
X-14964419Y17210750D01*
X-14959203Y17189926D01*
X-14956053Y17168691D01*
X-14955000Y17147250D01*
X-14955000Y16634750D01*
X-14956053Y16613309D01*
X-14959203Y16592074D01*
X-14964419Y16571250D01*
X-14971651Y16551038D01*
X-14980830Y16531632D01*
X-14991866Y16513219D01*
X-15004654Y16495976D01*
X-15019070Y16480070D01*
X-15034976Y16465654D01*
X-15052219Y16452866D01*
X-15070632Y16441830D01*
X-15090038Y16432651D01*
X-15110250Y16425419D01*
X-15131074Y16420203D01*
X-15152309Y16417053D01*
X-15173750Y16416000D01*
X-15611250Y16416000D01*
X-15632691Y16417053D01*
X-15653926Y16420203D01*
X-15674750Y16425419D01*
X-15694962Y16432651D01*
X-15714368Y16441830D01*
X-15732781Y16452866D01*
X-15750024Y16465654D01*
X-15765930Y16480070D01*
X-15780346Y16495976D01*
X-15793134Y16513219D01*
X-15804170Y16531632D01*
X-15813349Y16551038D01*
X-15820581Y16571250D01*
X-15825797Y16592074D01*
X-15828947Y16613309D01*
X-15830000Y16634750D01*
X-15830000Y17147250D01*
X-15828947Y17168691D01*
X-15825797Y17189926D01*
X-15820581Y17210750D01*
X-15813349Y17230962D01*
X-15804170Y17250368D01*
X-15793134Y17268781D01*
X-15780346Y17286024D01*
X-15765930Y17301930D01*
X-15750024Y17316346D01*
X-15732781Y17329134D01*
X-15714368Y17340170D01*
X-15694962Y17349349D01*
X-15674750Y17356581D01*
X-15653926Y17361797D01*
X-15632691Y17364947D01*
X-15611250Y17366000D01*
X-15173750Y17366000D01*
X-15152309Y17364947D01*
X-15152309Y17364947D01*
G37*
D14*
X-15392500Y16891000D03*
D12*
G36*
X-13577309Y17364947D02*
X-13556074Y17361797D01*
X-13535250Y17356581D01*
X-13515038Y17349349D01*
X-13495632Y17340170D01*
X-13477219Y17329134D01*
X-13459976Y17316346D01*
X-13444070Y17301930D01*
X-13429654Y17286024D01*
X-13416866Y17268781D01*
X-13405830Y17250368D01*
X-13396651Y17230962D01*
X-13389419Y17210750D01*
X-13384203Y17189926D01*
X-13381053Y17168691D01*
X-13380000Y17147250D01*
X-13380000Y16634750D01*
X-13381053Y16613309D01*
X-13384203Y16592074D01*
X-13389419Y16571250D01*
X-13396651Y16551038D01*
X-13405830Y16531632D01*
X-13416866Y16513219D01*
X-13429654Y16495976D01*
X-13444070Y16480070D01*
X-13459976Y16465654D01*
X-13477219Y16452866D01*
X-13495632Y16441830D01*
X-13515038Y16432651D01*
X-13535250Y16425419D01*
X-13556074Y16420203D01*
X-13577309Y16417053D01*
X-13598750Y16416000D01*
X-14036250Y16416000D01*
X-14057691Y16417053D01*
X-14078926Y16420203D01*
X-14099750Y16425419D01*
X-14119962Y16432651D01*
X-14139368Y16441830D01*
X-14157781Y16452866D01*
X-14175024Y16465654D01*
X-14190930Y16480070D01*
X-14205346Y16495976D01*
X-14218134Y16513219D01*
X-14229170Y16531632D01*
X-14238349Y16551038D01*
X-14245581Y16571250D01*
X-14250797Y16592074D01*
X-14253947Y16613309D01*
X-14255000Y16634750D01*
X-14255000Y17147250D01*
X-14253947Y17168691D01*
X-14250797Y17189926D01*
X-14245581Y17210750D01*
X-14238349Y17230962D01*
X-14229170Y17250368D01*
X-14218134Y17268781D01*
X-14205346Y17286024D01*
X-14190930Y17301930D01*
X-14175024Y17316346D01*
X-14157781Y17329134D01*
X-14139368Y17340170D01*
X-14119962Y17349349D01*
X-14099750Y17356581D01*
X-14078926Y17361797D01*
X-14057691Y17364947D01*
X-14036250Y17366000D01*
X-13598750Y17366000D01*
X-13577309Y17364947D01*
X-13577309Y17364947D01*
G37*
D14*
X-13817500Y16891000D03*
G04 #@! TD*
D12*
G04 #@! TO.C,R8*
G36*
X-13577309Y41367947D02*
X-13556074Y41364797D01*
X-13535250Y41359581D01*
X-13515038Y41352349D01*
X-13495632Y41343170D01*
X-13477219Y41332134D01*
X-13459976Y41319346D01*
X-13444070Y41304930D01*
X-13429654Y41289024D01*
X-13416866Y41271781D01*
X-13405830Y41253368D01*
X-13396651Y41233962D01*
X-13389419Y41213750D01*
X-13384203Y41192926D01*
X-13381053Y41171691D01*
X-13380000Y41150250D01*
X-13380000Y40637750D01*
X-13381053Y40616309D01*
X-13384203Y40595074D01*
X-13389419Y40574250D01*
X-13396651Y40554038D01*
X-13405830Y40534632D01*
X-13416866Y40516219D01*
X-13429654Y40498976D01*
X-13444070Y40483070D01*
X-13459976Y40468654D01*
X-13477219Y40455866D01*
X-13495632Y40444830D01*
X-13515038Y40435651D01*
X-13535250Y40428419D01*
X-13556074Y40423203D01*
X-13577309Y40420053D01*
X-13598750Y40419000D01*
X-14036250Y40419000D01*
X-14057691Y40420053D01*
X-14078926Y40423203D01*
X-14099750Y40428419D01*
X-14119962Y40435651D01*
X-14139368Y40444830D01*
X-14157781Y40455866D01*
X-14175024Y40468654D01*
X-14190930Y40483070D01*
X-14205346Y40498976D01*
X-14218134Y40516219D01*
X-14229170Y40534632D01*
X-14238349Y40554038D01*
X-14245581Y40574250D01*
X-14250797Y40595074D01*
X-14253947Y40616309D01*
X-14255000Y40637750D01*
X-14255000Y41150250D01*
X-14253947Y41171691D01*
X-14250797Y41192926D01*
X-14245581Y41213750D01*
X-14238349Y41233962D01*
X-14229170Y41253368D01*
X-14218134Y41271781D01*
X-14205346Y41289024D01*
X-14190930Y41304930D01*
X-14175024Y41319346D01*
X-14157781Y41332134D01*
X-14139368Y41343170D01*
X-14119962Y41352349D01*
X-14099750Y41359581D01*
X-14078926Y41364797D01*
X-14057691Y41367947D01*
X-14036250Y41369000D01*
X-13598750Y41369000D01*
X-13577309Y41367947D01*
X-13577309Y41367947D01*
G37*
D14*
X-13817500Y40894000D03*
D12*
G36*
X-15152309Y41367947D02*
X-15131074Y41364797D01*
X-15110250Y41359581D01*
X-15090038Y41352349D01*
X-15070632Y41343170D01*
X-15052219Y41332134D01*
X-15034976Y41319346D01*
X-15019070Y41304930D01*
X-15004654Y41289024D01*
X-14991866Y41271781D01*
X-14980830Y41253368D01*
X-14971651Y41233962D01*
X-14964419Y41213750D01*
X-14959203Y41192926D01*
X-14956053Y41171691D01*
X-14955000Y41150250D01*
X-14955000Y40637750D01*
X-14956053Y40616309D01*
X-14959203Y40595074D01*
X-14964419Y40574250D01*
X-14971651Y40554038D01*
X-14980830Y40534632D01*
X-14991866Y40516219D01*
X-15004654Y40498976D01*
X-15019070Y40483070D01*
X-15034976Y40468654D01*
X-15052219Y40455866D01*
X-15070632Y40444830D01*
X-15090038Y40435651D01*
X-15110250Y40428419D01*
X-15131074Y40423203D01*
X-15152309Y40420053D01*
X-15173750Y40419000D01*
X-15611250Y40419000D01*
X-15632691Y40420053D01*
X-15653926Y40423203D01*
X-15674750Y40428419D01*
X-15694962Y40435651D01*
X-15714368Y40444830D01*
X-15732781Y40455866D01*
X-15750024Y40468654D01*
X-15765930Y40483070D01*
X-15780346Y40498976D01*
X-15793134Y40516219D01*
X-15804170Y40534632D01*
X-15813349Y40554038D01*
X-15820581Y40574250D01*
X-15825797Y40595074D01*
X-15828947Y40616309D01*
X-15830000Y40637750D01*
X-15830000Y41150250D01*
X-15828947Y41171691D01*
X-15825797Y41192926D01*
X-15820581Y41213750D01*
X-15813349Y41233962D01*
X-15804170Y41253368D01*
X-15793134Y41271781D01*
X-15780346Y41289024D01*
X-15765930Y41304930D01*
X-15750024Y41319346D01*
X-15732781Y41332134D01*
X-15714368Y41343170D01*
X-15694962Y41352349D01*
X-15674750Y41359581D01*
X-15653926Y41364797D01*
X-15632691Y41367947D01*
X-15611250Y41369000D01*
X-15173750Y41369000D01*
X-15152309Y41367947D01*
X-15152309Y41367947D01*
G37*
D14*
X-15392500Y40894000D03*
G04 #@! TD*
D12*
G04 #@! TO.C,R9*
G36*
X6742691Y44542947D02*
X6763926Y44539797D01*
X6784750Y44534581D01*
X6804962Y44527349D01*
X6824368Y44518170D01*
X6842781Y44507134D01*
X6860024Y44494346D01*
X6875930Y44479930D01*
X6890346Y44464024D01*
X6903134Y44446781D01*
X6914170Y44428368D01*
X6923349Y44408962D01*
X6930581Y44388750D01*
X6935797Y44367926D01*
X6938947Y44346691D01*
X6940000Y44325250D01*
X6940000Y43812750D01*
X6938947Y43791309D01*
X6935797Y43770074D01*
X6930581Y43749250D01*
X6923349Y43729038D01*
X6914170Y43709632D01*
X6903134Y43691219D01*
X6890346Y43673976D01*
X6875930Y43658070D01*
X6860024Y43643654D01*
X6842781Y43630866D01*
X6824368Y43619830D01*
X6804962Y43610651D01*
X6784750Y43603419D01*
X6763926Y43598203D01*
X6742691Y43595053D01*
X6721250Y43594000D01*
X6283750Y43594000D01*
X6262309Y43595053D01*
X6241074Y43598203D01*
X6220250Y43603419D01*
X6200038Y43610651D01*
X6180632Y43619830D01*
X6162219Y43630866D01*
X6144976Y43643654D01*
X6129070Y43658070D01*
X6114654Y43673976D01*
X6101866Y43691219D01*
X6090830Y43709632D01*
X6081651Y43729038D01*
X6074419Y43749250D01*
X6069203Y43770074D01*
X6066053Y43791309D01*
X6065000Y43812750D01*
X6065000Y44325250D01*
X6066053Y44346691D01*
X6069203Y44367926D01*
X6074419Y44388750D01*
X6081651Y44408962D01*
X6090830Y44428368D01*
X6101866Y44446781D01*
X6114654Y44464024D01*
X6129070Y44479930D01*
X6144976Y44494346D01*
X6162219Y44507134D01*
X6180632Y44518170D01*
X6200038Y44527349D01*
X6220250Y44534581D01*
X6241074Y44539797D01*
X6262309Y44542947D01*
X6283750Y44544000D01*
X6721250Y44544000D01*
X6742691Y44542947D01*
X6742691Y44542947D01*
G37*
D14*
X6502500Y44069000D03*
D12*
G36*
X5167691Y44542947D02*
X5188926Y44539797D01*
X5209750Y44534581D01*
X5229962Y44527349D01*
X5249368Y44518170D01*
X5267781Y44507134D01*
X5285024Y44494346D01*
X5300930Y44479930D01*
X5315346Y44464024D01*
X5328134Y44446781D01*
X5339170Y44428368D01*
X5348349Y44408962D01*
X5355581Y44388750D01*
X5360797Y44367926D01*
X5363947Y44346691D01*
X5365000Y44325250D01*
X5365000Y43812750D01*
X5363947Y43791309D01*
X5360797Y43770074D01*
X5355581Y43749250D01*
X5348349Y43729038D01*
X5339170Y43709632D01*
X5328134Y43691219D01*
X5315346Y43673976D01*
X5300930Y43658070D01*
X5285024Y43643654D01*
X5267781Y43630866D01*
X5249368Y43619830D01*
X5229962Y43610651D01*
X5209750Y43603419D01*
X5188926Y43598203D01*
X5167691Y43595053D01*
X5146250Y43594000D01*
X4708750Y43594000D01*
X4687309Y43595053D01*
X4666074Y43598203D01*
X4645250Y43603419D01*
X4625038Y43610651D01*
X4605632Y43619830D01*
X4587219Y43630866D01*
X4569976Y43643654D01*
X4554070Y43658070D01*
X4539654Y43673976D01*
X4526866Y43691219D01*
X4515830Y43709632D01*
X4506651Y43729038D01*
X4499419Y43749250D01*
X4494203Y43770074D01*
X4491053Y43791309D01*
X4490000Y43812750D01*
X4490000Y44325250D01*
X4491053Y44346691D01*
X4494203Y44367926D01*
X4499419Y44388750D01*
X4506651Y44408962D01*
X4515830Y44428368D01*
X4526866Y44446781D01*
X4539654Y44464024D01*
X4554070Y44479930D01*
X4569976Y44494346D01*
X4587219Y44507134D01*
X4605632Y44518170D01*
X4625038Y44527349D01*
X4645250Y44534581D01*
X4666074Y44539797D01*
X4687309Y44542947D01*
X4708750Y44544000D01*
X5146250Y44544000D01*
X5167691Y44542947D01*
X5167691Y44542947D01*
G37*
D14*
X4927500Y44069000D03*
G04 #@! TD*
D12*
G04 #@! TO.C,R20*
G36*
X-15152309Y-3209053D02*
X-15131074Y-3212203D01*
X-15110250Y-3217419D01*
X-15090038Y-3224651D01*
X-15070632Y-3233830D01*
X-15052219Y-3244866D01*
X-15034976Y-3257654D01*
X-15019070Y-3272070D01*
X-15004654Y-3287976D01*
X-14991866Y-3305219D01*
X-14980830Y-3323632D01*
X-14971651Y-3343038D01*
X-14964419Y-3363250D01*
X-14959203Y-3384074D01*
X-14956053Y-3405309D01*
X-14955000Y-3426750D01*
X-14955000Y-3939250D01*
X-14956053Y-3960691D01*
X-14959203Y-3981926D01*
X-14964419Y-4002750D01*
X-14971651Y-4022962D01*
X-14980830Y-4042368D01*
X-14991866Y-4060781D01*
X-15004654Y-4078024D01*
X-15019070Y-4093930D01*
X-15034976Y-4108346D01*
X-15052219Y-4121134D01*
X-15070632Y-4132170D01*
X-15090038Y-4141349D01*
X-15110250Y-4148581D01*
X-15131074Y-4153797D01*
X-15152309Y-4156947D01*
X-15173750Y-4158000D01*
X-15611250Y-4158000D01*
X-15632691Y-4156947D01*
X-15653926Y-4153797D01*
X-15674750Y-4148581D01*
X-15694962Y-4141349D01*
X-15714368Y-4132170D01*
X-15732781Y-4121134D01*
X-15750024Y-4108346D01*
X-15765930Y-4093930D01*
X-15780346Y-4078024D01*
X-15793134Y-4060781D01*
X-15804170Y-4042368D01*
X-15813349Y-4022962D01*
X-15820581Y-4002750D01*
X-15825797Y-3981926D01*
X-15828947Y-3960691D01*
X-15830000Y-3939250D01*
X-15830000Y-3426750D01*
X-15828947Y-3405309D01*
X-15825797Y-3384074D01*
X-15820581Y-3363250D01*
X-15813349Y-3343038D01*
X-15804170Y-3323632D01*
X-15793134Y-3305219D01*
X-15780346Y-3287976D01*
X-15765930Y-3272070D01*
X-15750024Y-3257654D01*
X-15732781Y-3244866D01*
X-15714368Y-3233830D01*
X-15694962Y-3224651D01*
X-15674750Y-3217419D01*
X-15653926Y-3212203D01*
X-15632691Y-3209053D01*
X-15611250Y-3208000D01*
X-15173750Y-3208000D01*
X-15152309Y-3209053D01*
X-15152309Y-3209053D01*
G37*
D14*
X-15392500Y-3683000D03*
D12*
G36*
X-13577309Y-3209053D02*
X-13556074Y-3212203D01*
X-13535250Y-3217419D01*
X-13515038Y-3224651D01*
X-13495632Y-3233830D01*
X-13477219Y-3244866D01*
X-13459976Y-3257654D01*
X-13444070Y-3272070D01*
X-13429654Y-3287976D01*
X-13416866Y-3305219D01*
X-13405830Y-3323632D01*
X-13396651Y-3343038D01*
X-13389419Y-3363250D01*
X-13384203Y-3384074D01*
X-13381053Y-3405309D01*
X-13380000Y-3426750D01*
X-13380000Y-3939250D01*
X-13381053Y-3960691D01*
X-13384203Y-3981926D01*
X-13389419Y-4002750D01*
X-13396651Y-4022962D01*
X-13405830Y-4042368D01*
X-13416866Y-4060781D01*
X-13429654Y-4078024D01*
X-13444070Y-4093930D01*
X-13459976Y-4108346D01*
X-13477219Y-4121134D01*
X-13495632Y-4132170D01*
X-13515038Y-4141349D01*
X-13535250Y-4148581D01*
X-13556074Y-4153797D01*
X-13577309Y-4156947D01*
X-13598750Y-4158000D01*
X-14036250Y-4158000D01*
X-14057691Y-4156947D01*
X-14078926Y-4153797D01*
X-14099750Y-4148581D01*
X-14119962Y-4141349D01*
X-14139368Y-4132170D01*
X-14157781Y-4121134D01*
X-14175024Y-4108346D01*
X-14190930Y-4093930D01*
X-14205346Y-4078024D01*
X-14218134Y-4060781D01*
X-14229170Y-4042368D01*
X-14238349Y-4022962D01*
X-14245581Y-4002750D01*
X-14250797Y-3981926D01*
X-14253947Y-3960691D01*
X-14255000Y-3939250D01*
X-14255000Y-3426750D01*
X-14253947Y-3405309D01*
X-14250797Y-3384074D01*
X-14245581Y-3363250D01*
X-14238349Y-3343038D01*
X-14229170Y-3323632D01*
X-14218134Y-3305219D01*
X-14205346Y-3287976D01*
X-14190930Y-3272070D01*
X-14175024Y-3257654D01*
X-14157781Y-3244866D01*
X-14139368Y-3233830D01*
X-14119962Y-3224651D01*
X-14099750Y-3217419D01*
X-14078926Y-3212203D01*
X-14057691Y-3209053D01*
X-14036250Y-3208000D01*
X-13598750Y-3208000D01*
X-13577309Y-3209053D01*
X-13577309Y-3209053D01*
G37*
D14*
X-13817500Y-3683000D03*
G04 #@! TD*
D12*
G04 #@! TO.C,R11*
G36*
X5167691Y41748947D02*
X5188926Y41745797D01*
X5209750Y41740581D01*
X5229962Y41733349D01*
X5249368Y41724170D01*
X5267781Y41713134D01*
X5285024Y41700346D01*
X5300930Y41685930D01*
X5315346Y41670024D01*
X5328134Y41652781D01*
X5339170Y41634368D01*
X5348349Y41614962D01*
X5355581Y41594750D01*
X5360797Y41573926D01*
X5363947Y41552691D01*
X5365000Y41531250D01*
X5365000Y41018750D01*
X5363947Y40997309D01*
X5360797Y40976074D01*
X5355581Y40955250D01*
X5348349Y40935038D01*
X5339170Y40915632D01*
X5328134Y40897219D01*
X5315346Y40879976D01*
X5300930Y40864070D01*
X5285024Y40849654D01*
X5267781Y40836866D01*
X5249368Y40825830D01*
X5229962Y40816651D01*
X5209750Y40809419D01*
X5188926Y40804203D01*
X5167691Y40801053D01*
X5146250Y40800000D01*
X4708750Y40800000D01*
X4687309Y40801053D01*
X4666074Y40804203D01*
X4645250Y40809419D01*
X4625038Y40816651D01*
X4605632Y40825830D01*
X4587219Y40836866D01*
X4569976Y40849654D01*
X4554070Y40864070D01*
X4539654Y40879976D01*
X4526866Y40897219D01*
X4515830Y40915632D01*
X4506651Y40935038D01*
X4499419Y40955250D01*
X4494203Y40976074D01*
X4491053Y40997309D01*
X4490000Y41018750D01*
X4490000Y41531250D01*
X4491053Y41552691D01*
X4494203Y41573926D01*
X4499419Y41594750D01*
X4506651Y41614962D01*
X4515830Y41634368D01*
X4526866Y41652781D01*
X4539654Y41670024D01*
X4554070Y41685930D01*
X4569976Y41700346D01*
X4587219Y41713134D01*
X4605632Y41724170D01*
X4625038Y41733349D01*
X4645250Y41740581D01*
X4666074Y41745797D01*
X4687309Y41748947D01*
X4708750Y41750000D01*
X5146250Y41750000D01*
X5167691Y41748947D01*
X5167691Y41748947D01*
G37*
D14*
X4927500Y41275000D03*
D12*
G36*
X6742691Y41748947D02*
X6763926Y41745797D01*
X6784750Y41740581D01*
X6804962Y41733349D01*
X6824368Y41724170D01*
X6842781Y41713134D01*
X6860024Y41700346D01*
X6875930Y41685930D01*
X6890346Y41670024D01*
X6903134Y41652781D01*
X6914170Y41634368D01*
X6923349Y41614962D01*
X6930581Y41594750D01*
X6935797Y41573926D01*
X6938947Y41552691D01*
X6940000Y41531250D01*
X6940000Y41018750D01*
X6938947Y40997309D01*
X6935797Y40976074D01*
X6930581Y40955250D01*
X6923349Y40935038D01*
X6914170Y40915632D01*
X6903134Y40897219D01*
X6890346Y40879976D01*
X6875930Y40864070D01*
X6860024Y40849654D01*
X6842781Y40836866D01*
X6824368Y40825830D01*
X6804962Y40816651D01*
X6784750Y40809419D01*
X6763926Y40804203D01*
X6742691Y40801053D01*
X6721250Y40800000D01*
X6283750Y40800000D01*
X6262309Y40801053D01*
X6241074Y40804203D01*
X6220250Y40809419D01*
X6200038Y40816651D01*
X6180632Y40825830D01*
X6162219Y40836866D01*
X6144976Y40849654D01*
X6129070Y40864070D01*
X6114654Y40879976D01*
X6101866Y40897219D01*
X6090830Y40915632D01*
X6081651Y40935038D01*
X6074419Y40955250D01*
X6069203Y40976074D01*
X6066053Y40997309D01*
X6065000Y41018750D01*
X6065000Y41531250D01*
X6066053Y41552691D01*
X6069203Y41573926D01*
X6074419Y41594750D01*
X6081651Y41614962D01*
X6090830Y41634368D01*
X6101866Y41652781D01*
X6114654Y41670024D01*
X6129070Y41685930D01*
X6144976Y41700346D01*
X6162219Y41713134D01*
X6180632Y41724170D01*
X6200038Y41733349D01*
X6220250Y41740581D01*
X6241074Y41745797D01*
X6262309Y41748947D01*
X6283750Y41750000D01*
X6721250Y41750000D01*
X6742691Y41748947D01*
X6742691Y41748947D01*
G37*
D14*
X6502500Y41275000D03*
G04 #@! TD*
D12*
G04 #@! TO.C,R12*
G36*
X-13577309Y35779947D02*
X-13556074Y35776797D01*
X-13535250Y35771581D01*
X-13515038Y35764349D01*
X-13495632Y35755170D01*
X-13477219Y35744134D01*
X-13459976Y35731346D01*
X-13444070Y35716930D01*
X-13429654Y35701024D01*
X-13416866Y35683781D01*
X-13405830Y35665368D01*
X-13396651Y35645962D01*
X-13389419Y35625750D01*
X-13384203Y35604926D01*
X-13381053Y35583691D01*
X-13380000Y35562250D01*
X-13380000Y35049750D01*
X-13381053Y35028309D01*
X-13384203Y35007074D01*
X-13389419Y34986250D01*
X-13396651Y34966038D01*
X-13405830Y34946632D01*
X-13416866Y34928219D01*
X-13429654Y34910976D01*
X-13444070Y34895070D01*
X-13459976Y34880654D01*
X-13477219Y34867866D01*
X-13495632Y34856830D01*
X-13515038Y34847651D01*
X-13535250Y34840419D01*
X-13556074Y34835203D01*
X-13577309Y34832053D01*
X-13598750Y34831000D01*
X-14036250Y34831000D01*
X-14057691Y34832053D01*
X-14078926Y34835203D01*
X-14099750Y34840419D01*
X-14119962Y34847651D01*
X-14139368Y34856830D01*
X-14157781Y34867866D01*
X-14175024Y34880654D01*
X-14190930Y34895070D01*
X-14205346Y34910976D01*
X-14218134Y34928219D01*
X-14229170Y34946632D01*
X-14238349Y34966038D01*
X-14245581Y34986250D01*
X-14250797Y35007074D01*
X-14253947Y35028309D01*
X-14255000Y35049750D01*
X-14255000Y35562250D01*
X-14253947Y35583691D01*
X-14250797Y35604926D01*
X-14245581Y35625750D01*
X-14238349Y35645962D01*
X-14229170Y35665368D01*
X-14218134Y35683781D01*
X-14205346Y35701024D01*
X-14190930Y35716930D01*
X-14175024Y35731346D01*
X-14157781Y35744134D01*
X-14139368Y35755170D01*
X-14119962Y35764349D01*
X-14099750Y35771581D01*
X-14078926Y35776797D01*
X-14057691Y35779947D01*
X-14036250Y35781000D01*
X-13598750Y35781000D01*
X-13577309Y35779947D01*
X-13577309Y35779947D01*
G37*
D14*
X-13817500Y35306000D03*
D12*
G36*
X-15152309Y35779947D02*
X-15131074Y35776797D01*
X-15110250Y35771581D01*
X-15090038Y35764349D01*
X-15070632Y35755170D01*
X-15052219Y35744134D01*
X-15034976Y35731346D01*
X-15019070Y35716930D01*
X-15004654Y35701024D01*
X-14991866Y35683781D01*
X-14980830Y35665368D01*
X-14971651Y35645962D01*
X-14964419Y35625750D01*
X-14959203Y35604926D01*
X-14956053Y35583691D01*
X-14955000Y35562250D01*
X-14955000Y35049750D01*
X-14956053Y35028309D01*
X-14959203Y35007074D01*
X-14964419Y34986250D01*
X-14971651Y34966038D01*
X-14980830Y34946632D01*
X-14991866Y34928219D01*
X-15004654Y34910976D01*
X-15019070Y34895070D01*
X-15034976Y34880654D01*
X-15052219Y34867866D01*
X-15070632Y34856830D01*
X-15090038Y34847651D01*
X-15110250Y34840419D01*
X-15131074Y34835203D01*
X-15152309Y34832053D01*
X-15173750Y34831000D01*
X-15611250Y34831000D01*
X-15632691Y34832053D01*
X-15653926Y34835203D01*
X-15674750Y34840419D01*
X-15694962Y34847651D01*
X-15714368Y34856830D01*
X-15732781Y34867866D01*
X-15750024Y34880654D01*
X-15765930Y34895070D01*
X-15780346Y34910976D01*
X-15793134Y34928219D01*
X-15804170Y34946632D01*
X-15813349Y34966038D01*
X-15820581Y34986250D01*
X-15825797Y35007074D01*
X-15828947Y35028309D01*
X-15830000Y35049750D01*
X-15830000Y35562250D01*
X-15828947Y35583691D01*
X-15825797Y35604926D01*
X-15820581Y35625750D01*
X-15813349Y35645962D01*
X-15804170Y35665368D01*
X-15793134Y35683781D01*
X-15780346Y35701024D01*
X-15765930Y35716930D01*
X-15750024Y35731346D01*
X-15732781Y35744134D01*
X-15714368Y35755170D01*
X-15694962Y35764349D01*
X-15674750Y35771581D01*
X-15653926Y35776797D01*
X-15632691Y35779947D01*
X-15611250Y35781000D01*
X-15173750Y35781000D01*
X-15152309Y35779947D01*
X-15152309Y35779947D01*
G37*
D14*
X-15392500Y35306000D03*
G04 #@! TD*
D12*
G04 #@! TO.C,R13*
G36*
X6742691Y38954947D02*
X6763926Y38951797D01*
X6784750Y38946581D01*
X6804962Y38939349D01*
X6824368Y38930170D01*
X6842781Y38919134D01*
X6860024Y38906346D01*
X6875930Y38891930D01*
X6890346Y38876024D01*
X6903134Y38858781D01*
X6914170Y38840368D01*
X6923349Y38820962D01*
X6930581Y38800750D01*
X6935797Y38779926D01*
X6938947Y38758691D01*
X6940000Y38737250D01*
X6940000Y38224750D01*
X6938947Y38203309D01*
X6935797Y38182074D01*
X6930581Y38161250D01*
X6923349Y38141038D01*
X6914170Y38121632D01*
X6903134Y38103219D01*
X6890346Y38085976D01*
X6875930Y38070070D01*
X6860024Y38055654D01*
X6842781Y38042866D01*
X6824368Y38031830D01*
X6804962Y38022651D01*
X6784750Y38015419D01*
X6763926Y38010203D01*
X6742691Y38007053D01*
X6721250Y38006000D01*
X6283750Y38006000D01*
X6262309Y38007053D01*
X6241074Y38010203D01*
X6220250Y38015419D01*
X6200038Y38022651D01*
X6180632Y38031830D01*
X6162219Y38042866D01*
X6144976Y38055654D01*
X6129070Y38070070D01*
X6114654Y38085976D01*
X6101866Y38103219D01*
X6090830Y38121632D01*
X6081651Y38141038D01*
X6074419Y38161250D01*
X6069203Y38182074D01*
X6066053Y38203309D01*
X6065000Y38224750D01*
X6065000Y38737250D01*
X6066053Y38758691D01*
X6069203Y38779926D01*
X6074419Y38800750D01*
X6081651Y38820962D01*
X6090830Y38840368D01*
X6101866Y38858781D01*
X6114654Y38876024D01*
X6129070Y38891930D01*
X6144976Y38906346D01*
X6162219Y38919134D01*
X6180632Y38930170D01*
X6200038Y38939349D01*
X6220250Y38946581D01*
X6241074Y38951797D01*
X6262309Y38954947D01*
X6283750Y38956000D01*
X6721250Y38956000D01*
X6742691Y38954947D01*
X6742691Y38954947D01*
G37*
D14*
X6502500Y38481000D03*
D12*
G36*
X5167691Y38954947D02*
X5188926Y38951797D01*
X5209750Y38946581D01*
X5229962Y38939349D01*
X5249368Y38930170D01*
X5267781Y38919134D01*
X5285024Y38906346D01*
X5300930Y38891930D01*
X5315346Y38876024D01*
X5328134Y38858781D01*
X5339170Y38840368D01*
X5348349Y38820962D01*
X5355581Y38800750D01*
X5360797Y38779926D01*
X5363947Y38758691D01*
X5365000Y38737250D01*
X5365000Y38224750D01*
X5363947Y38203309D01*
X5360797Y38182074D01*
X5355581Y38161250D01*
X5348349Y38141038D01*
X5339170Y38121632D01*
X5328134Y38103219D01*
X5315346Y38085976D01*
X5300930Y38070070D01*
X5285024Y38055654D01*
X5267781Y38042866D01*
X5249368Y38031830D01*
X5229962Y38022651D01*
X5209750Y38015419D01*
X5188926Y38010203D01*
X5167691Y38007053D01*
X5146250Y38006000D01*
X4708750Y38006000D01*
X4687309Y38007053D01*
X4666074Y38010203D01*
X4645250Y38015419D01*
X4625038Y38022651D01*
X4605632Y38031830D01*
X4587219Y38042866D01*
X4569976Y38055654D01*
X4554070Y38070070D01*
X4539654Y38085976D01*
X4526866Y38103219D01*
X4515830Y38121632D01*
X4506651Y38141038D01*
X4499419Y38161250D01*
X4494203Y38182074D01*
X4491053Y38203309D01*
X4490000Y38224750D01*
X4490000Y38737250D01*
X4491053Y38758691D01*
X4494203Y38779926D01*
X4499419Y38800750D01*
X4506651Y38820962D01*
X4515830Y38840368D01*
X4526866Y38858781D01*
X4539654Y38876024D01*
X4554070Y38891930D01*
X4569976Y38906346D01*
X4587219Y38919134D01*
X4605632Y38930170D01*
X4625038Y38939349D01*
X4645250Y38946581D01*
X4666074Y38951797D01*
X4687309Y38954947D01*
X4708750Y38956000D01*
X5146250Y38956000D01*
X5167691Y38954947D01*
X5167691Y38954947D01*
G37*
D14*
X4927500Y38481000D03*
G04 #@! TD*
D12*
G04 #@! TO.C,R14*
G36*
X-13577309Y20158947D02*
X-13556074Y20155797D01*
X-13535250Y20150581D01*
X-13515038Y20143349D01*
X-13495632Y20134170D01*
X-13477219Y20123134D01*
X-13459976Y20110346D01*
X-13444070Y20095930D01*
X-13429654Y20080024D01*
X-13416866Y20062781D01*
X-13405830Y20044368D01*
X-13396651Y20024962D01*
X-13389419Y20004750D01*
X-13384203Y19983926D01*
X-13381053Y19962691D01*
X-13380000Y19941250D01*
X-13380000Y19428750D01*
X-13381053Y19407309D01*
X-13384203Y19386074D01*
X-13389419Y19365250D01*
X-13396651Y19345038D01*
X-13405830Y19325632D01*
X-13416866Y19307219D01*
X-13429654Y19289976D01*
X-13444070Y19274070D01*
X-13459976Y19259654D01*
X-13477219Y19246866D01*
X-13495632Y19235830D01*
X-13515038Y19226651D01*
X-13535250Y19219419D01*
X-13556074Y19214203D01*
X-13577309Y19211053D01*
X-13598750Y19210000D01*
X-14036250Y19210000D01*
X-14057691Y19211053D01*
X-14078926Y19214203D01*
X-14099750Y19219419D01*
X-14119962Y19226651D01*
X-14139368Y19235830D01*
X-14157781Y19246866D01*
X-14175024Y19259654D01*
X-14190930Y19274070D01*
X-14205346Y19289976D01*
X-14218134Y19307219D01*
X-14229170Y19325632D01*
X-14238349Y19345038D01*
X-14245581Y19365250D01*
X-14250797Y19386074D01*
X-14253947Y19407309D01*
X-14255000Y19428750D01*
X-14255000Y19941250D01*
X-14253947Y19962691D01*
X-14250797Y19983926D01*
X-14245581Y20004750D01*
X-14238349Y20024962D01*
X-14229170Y20044368D01*
X-14218134Y20062781D01*
X-14205346Y20080024D01*
X-14190930Y20095930D01*
X-14175024Y20110346D01*
X-14157781Y20123134D01*
X-14139368Y20134170D01*
X-14119962Y20143349D01*
X-14099750Y20150581D01*
X-14078926Y20155797D01*
X-14057691Y20158947D01*
X-14036250Y20160000D01*
X-13598750Y20160000D01*
X-13577309Y20158947D01*
X-13577309Y20158947D01*
G37*
D14*
X-13817500Y19685000D03*
D12*
G36*
X-15152309Y20158947D02*
X-15131074Y20155797D01*
X-15110250Y20150581D01*
X-15090038Y20143349D01*
X-15070632Y20134170D01*
X-15052219Y20123134D01*
X-15034976Y20110346D01*
X-15019070Y20095930D01*
X-15004654Y20080024D01*
X-14991866Y20062781D01*
X-14980830Y20044368D01*
X-14971651Y20024962D01*
X-14964419Y20004750D01*
X-14959203Y19983926D01*
X-14956053Y19962691D01*
X-14955000Y19941250D01*
X-14955000Y19428750D01*
X-14956053Y19407309D01*
X-14959203Y19386074D01*
X-14964419Y19365250D01*
X-14971651Y19345038D01*
X-14980830Y19325632D01*
X-14991866Y19307219D01*
X-15004654Y19289976D01*
X-15019070Y19274070D01*
X-15034976Y19259654D01*
X-15052219Y19246866D01*
X-15070632Y19235830D01*
X-15090038Y19226651D01*
X-15110250Y19219419D01*
X-15131074Y19214203D01*
X-15152309Y19211053D01*
X-15173750Y19210000D01*
X-15611250Y19210000D01*
X-15632691Y19211053D01*
X-15653926Y19214203D01*
X-15674750Y19219419D01*
X-15694962Y19226651D01*
X-15714368Y19235830D01*
X-15732781Y19246866D01*
X-15750024Y19259654D01*
X-15765930Y19274070D01*
X-15780346Y19289976D01*
X-15793134Y19307219D01*
X-15804170Y19325632D01*
X-15813349Y19345038D01*
X-15820581Y19365250D01*
X-15825797Y19386074D01*
X-15828947Y19407309D01*
X-15830000Y19428750D01*
X-15830000Y19941250D01*
X-15828947Y19962691D01*
X-15825797Y19983926D01*
X-15820581Y20004750D01*
X-15813349Y20024962D01*
X-15804170Y20044368D01*
X-15793134Y20062781D01*
X-15780346Y20080024D01*
X-15765930Y20095930D01*
X-15750024Y20110346D01*
X-15732781Y20123134D01*
X-15714368Y20134170D01*
X-15694962Y20143349D01*
X-15674750Y20150581D01*
X-15653926Y20155797D01*
X-15632691Y20158947D01*
X-15611250Y20160000D01*
X-15173750Y20160000D01*
X-15152309Y20158947D01*
X-15152309Y20158947D01*
G37*
D14*
X-15392500Y19685000D03*
G04 #@! TD*
D12*
G04 #@! TO.C,R15*
G36*
X-15127309Y25873947D02*
X-15106074Y25870797D01*
X-15085250Y25865581D01*
X-15065038Y25858349D01*
X-15045632Y25849170D01*
X-15027219Y25838134D01*
X-15009976Y25825346D01*
X-14994070Y25810930D01*
X-14979654Y25795024D01*
X-14966866Y25777781D01*
X-14955830Y25759368D01*
X-14946651Y25739962D01*
X-14939419Y25719750D01*
X-14934203Y25698926D01*
X-14931053Y25677691D01*
X-14930000Y25656250D01*
X-14930000Y25143750D01*
X-14931053Y25122309D01*
X-14934203Y25101074D01*
X-14939419Y25080250D01*
X-14946651Y25060038D01*
X-14955830Y25040632D01*
X-14966866Y25022219D01*
X-14979654Y25004976D01*
X-14994070Y24989070D01*
X-15009976Y24974654D01*
X-15027219Y24961866D01*
X-15045632Y24950830D01*
X-15065038Y24941651D01*
X-15085250Y24934419D01*
X-15106074Y24929203D01*
X-15127309Y24926053D01*
X-15148750Y24925000D01*
X-15586250Y24925000D01*
X-15607691Y24926053D01*
X-15628926Y24929203D01*
X-15649750Y24934419D01*
X-15669962Y24941651D01*
X-15689368Y24950830D01*
X-15707781Y24961866D01*
X-15725024Y24974654D01*
X-15740930Y24989070D01*
X-15755346Y25004976D01*
X-15768134Y25022219D01*
X-15779170Y25040632D01*
X-15788349Y25060038D01*
X-15795581Y25080250D01*
X-15800797Y25101074D01*
X-15803947Y25122309D01*
X-15805000Y25143750D01*
X-15805000Y25656250D01*
X-15803947Y25677691D01*
X-15800797Y25698926D01*
X-15795581Y25719750D01*
X-15788349Y25739962D01*
X-15779170Y25759368D01*
X-15768134Y25777781D01*
X-15755346Y25795024D01*
X-15740930Y25810930D01*
X-15725024Y25825346D01*
X-15707781Y25838134D01*
X-15689368Y25849170D01*
X-15669962Y25858349D01*
X-15649750Y25865581D01*
X-15628926Y25870797D01*
X-15607691Y25873947D01*
X-15586250Y25875000D01*
X-15148750Y25875000D01*
X-15127309Y25873947D01*
X-15127309Y25873947D01*
G37*
D14*
X-15367500Y25400000D03*
D12*
G36*
X-13552309Y25873947D02*
X-13531074Y25870797D01*
X-13510250Y25865581D01*
X-13490038Y25858349D01*
X-13470632Y25849170D01*
X-13452219Y25838134D01*
X-13434976Y25825346D01*
X-13419070Y25810930D01*
X-13404654Y25795024D01*
X-13391866Y25777781D01*
X-13380830Y25759368D01*
X-13371651Y25739962D01*
X-13364419Y25719750D01*
X-13359203Y25698926D01*
X-13356053Y25677691D01*
X-13355000Y25656250D01*
X-13355000Y25143750D01*
X-13356053Y25122309D01*
X-13359203Y25101074D01*
X-13364419Y25080250D01*
X-13371651Y25060038D01*
X-13380830Y25040632D01*
X-13391866Y25022219D01*
X-13404654Y25004976D01*
X-13419070Y24989070D01*
X-13434976Y24974654D01*
X-13452219Y24961866D01*
X-13470632Y24950830D01*
X-13490038Y24941651D01*
X-13510250Y24934419D01*
X-13531074Y24929203D01*
X-13552309Y24926053D01*
X-13573750Y24925000D01*
X-14011250Y24925000D01*
X-14032691Y24926053D01*
X-14053926Y24929203D01*
X-14074750Y24934419D01*
X-14094962Y24941651D01*
X-14114368Y24950830D01*
X-14132781Y24961866D01*
X-14150024Y24974654D01*
X-14165930Y24989070D01*
X-14180346Y25004976D01*
X-14193134Y25022219D01*
X-14204170Y25040632D01*
X-14213349Y25060038D01*
X-14220581Y25080250D01*
X-14225797Y25101074D01*
X-14228947Y25122309D01*
X-14230000Y25143750D01*
X-14230000Y25656250D01*
X-14228947Y25677691D01*
X-14225797Y25698926D01*
X-14220581Y25719750D01*
X-14213349Y25739962D01*
X-14204170Y25759368D01*
X-14193134Y25777781D01*
X-14180346Y25795024D01*
X-14165930Y25810930D01*
X-14150024Y25825346D01*
X-14132781Y25838134D01*
X-14114368Y25849170D01*
X-14094962Y25858349D01*
X-14074750Y25865581D01*
X-14053926Y25870797D01*
X-14032691Y25873947D01*
X-14011250Y25875000D01*
X-13573750Y25875000D01*
X-13552309Y25873947D01*
X-13552309Y25873947D01*
G37*
D14*
X-13792500Y25400000D03*
G04 #@! TD*
D12*
G04 #@! TO.C,R16*
G36*
X-15279309Y-16798053D02*
X-15258074Y-16801203D01*
X-15237250Y-16806419D01*
X-15217038Y-16813651D01*
X-15197632Y-16822830D01*
X-15179219Y-16833866D01*
X-15161976Y-16846654D01*
X-15146070Y-16861070D01*
X-15131654Y-16876976D01*
X-15118866Y-16894219D01*
X-15107830Y-16912632D01*
X-15098651Y-16932038D01*
X-15091419Y-16952250D01*
X-15086203Y-16973074D01*
X-15083053Y-16994309D01*
X-15082000Y-17015750D01*
X-15082000Y-17528250D01*
X-15083053Y-17549691D01*
X-15086203Y-17570926D01*
X-15091419Y-17591750D01*
X-15098651Y-17611962D01*
X-15107830Y-17631368D01*
X-15118866Y-17649781D01*
X-15131654Y-17667024D01*
X-15146070Y-17682930D01*
X-15161976Y-17697346D01*
X-15179219Y-17710134D01*
X-15197632Y-17721170D01*
X-15217038Y-17730349D01*
X-15237250Y-17737581D01*
X-15258074Y-17742797D01*
X-15279309Y-17745947D01*
X-15300750Y-17747000D01*
X-15738250Y-17747000D01*
X-15759691Y-17745947D01*
X-15780926Y-17742797D01*
X-15801750Y-17737581D01*
X-15821962Y-17730349D01*
X-15841368Y-17721170D01*
X-15859781Y-17710134D01*
X-15877024Y-17697346D01*
X-15892930Y-17682930D01*
X-15907346Y-17667024D01*
X-15920134Y-17649781D01*
X-15931170Y-17631368D01*
X-15940349Y-17611962D01*
X-15947581Y-17591750D01*
X-15952797Y-17570926D01*
X-15955947Y-17549691D01*
X-15957000Y-17528250D01*
X-15957000Y-17015750D01*
X-15955947Y-16994309D01*
X-15952797Y-16973074D01*
X-15947581Y-16952250D01*
X-15940349Y-16932038D01*
X-15931170Y-16912632D01*
X-15920134Y-16894219D01*
X-15907346Y-16876976D01*
X-15892930Y-16861070D01*
X-15877024Y-16846654D01*
X-15859781Y-16833866D01*
X-15841368Y-16822830D01*
X-15821962Y-16813651D01*
X-15801750Y-16806419D01*
X-15780926Y-16801203D01*
X-15759691Y-16798053D01*
X-15738250Y-16797000D01*
X-15300750Y-16797000D01*
X-15279309Y-16798053D01*
X-15279309Y-16798053D01*
G37*
D14*
X-15519500Y-17272000D03*
D12*
G36*
X-13704309Y-16798053D02*
X-13683074Y-16801203D01*
X-13662250Y-16806419D01*
X-13642038Y-16813651D01*
X-13622632Y-16822830D01*
X-13604219Y-16833866D01*
X-13586976Y-16846654D01*
X-13571070Y-16861070D01*
X-13556654Y-16876976D01*
X-13543866Y-16894219D01*
X-13532830Y-16912632D01*
X-13523651Y-16932038D01*
X-13516419Y-16952250D01*
X-13511203Y-16973074D01*
X-13508053Y-16994309D01*
X-13507000Y-17015750D01*
X-13507000Y-17528250D01*
X-13508053Y-17549691D01*
X-13511203Y-17570926D01*
X-13516419Y-17591750D01*
X-13523651Y-17611962D01*
X-13532830Y-17631368D01*
X-13543866Y-17649781D01*
X-13556654Y-17667024D01*
X-13571070Y-17682930D01*
X-13586976Y-17697346D01*
X-13604219Y-17710134D01*
X-13622632Y-17721170D01*
X-13642038Y-17730349D01*
X-13662250Y-17737581D01*
X-13683074Y-17742797D01*
X-13704309Y-17745947D01*
X-13725750Y-17747000D01*
X-14163250Y-17747000D01*
X-14184691Y-17745947D01*
X-14205926Y-17742797D01*
X-14226750Y-17737581D01*
X-14246962Y-17730349D01*
X-14266368Y-17721170D01*
X-14284781Y-17710134D01*
X-14302024Y-17697346D01*
X-14317930Y-17682930D01*
X-14332346Y-17667024D01*
X-14345134Y-17649781D01*
X-14356170Y-17631368D01*
X-14365349Y-17611962D01*
X-14372581Y-17591750D01*
X-14377797Y-17570926D01*
X-14380947Y-17549691D01*
X-14382000Y-17528250D01*
X-14382000Y-17015750D01*
X-14380947Y-16994309D01*
X-14377797Y-16973074D01*
X-14372581Y-16952250D01*
X-14365349Y-16932038D01*
X-14356170Y-16912632D01*
X-14345134Y-16894219D01*
X-14332346Y-16876976D01*
X-14317930Y-16861070D01*
X-14302024Y-16846654D01*
X-14284781Y-16833866D01*
X-14266368Y-16822830D01*
X-14246962Y-16813651D01*
X-14226750Y-16806419D01*
X-14205926Y-16801203D01*
X-14184691Y-16798053D01*
X-14163250Y-16797000D01*
X-13725750Y-16797000D01*
X-13704309Y-16798053D01*
X-13704309Y-16798053D01*
G37*
D14*
X-13944500Y-17272000D03*
G04 #@! TD*
D12*
G04 #@! TO.C,R17*
G36*
X-6084309Y-16798053D02*
X-6063074Y-16801203D01*
X-6042250Y-16806419D01*
X-6022038Y-16813651D01*
X-6002632Y-16822830D01*
X-5984219Y-16833866D01*
X-5966976Y-16846654D01*
X-5951070Y-16861070D01*
X-5936654Y-16876976D01*
X-5923866Y-16894219D01*
X-5912830Y-16912632D01*
X-5903651Y-16932038D01*
X-5896419Y-16952250D01*
X-5891203Y-16973074D01*
X-5888053Y-16994309D01*
X-5887000Y-17015750D01*
X-5887000Y-17528250D01*
X-5888053Y-17549691D01*
X-5891203Y-17570926D01*
X-5896419Y-17591750D01*
X-5903651Y-17611962D01*
X-5912830Y-17631368D01*
X-5923866Y-17649781D01*
X-5936654Y-17667024D01*
X-5951070Y-17682930D01*
X-5966976Y-17697346D01*
X-5984219Y-17710134D01*
X-6002632Y-17721170D01*
X-6022038Y-17730349D01*
X-6042250Y-17737581D01*
X-6063074Y-17742797D01*
X-6084309Y-17745947D01*
X-6105750Y-17747000D01*
X-6543250Y-17747000D01*
X-6564691Y-17745947D01*
X-6585926Y-17742797D01*
X-6606750Y-17737581D01*
X-6626962Y-17730349D01*
X-6646368Y-17721170D01*
X-6664781Y-17710134D01*
X-6682024Y-17697346D01*
X-6697930Y-17682930D01*
X-6712346Y-17667024D01*
X-6725134Y-17649781D01*
X-6736170Y-17631368D01*
X-6745349Y-17611962D01*
X-6752581Y-17591750D01*
X-6757797Y-17570926D01*
X-6760947Y-17549691D01*
X-6762000Y-17528250D01*
X-6762000Y-17015750D01*
X-6760947Y-16994309D01*
X-6757797Y-16973074D01*
X-6752581Y-16952250D01*
X-6745349Y-16932038D01*
X-6736170Y-16912632D01*
X-6725134Y-16894219D01*
X-6712346Y-16876976D01*
X-6697930Y-16861070D01*
X-6682024Y-16846654D01*
X-6664781Y-16833866D01*
X-6646368Y-16822830D01*
X-6626962Y-16813651D01*
X-6606750Y-16806419D01*
X-6585926Y-16801203D01*
X-6564691Y-16798053D01*
X-6543250Y-16797000D01*
X-6105750Y-16797000D01*
X-6084309Y-16798053D01*
X-6084309Y-16798053D01*
G37*
D14*
X-6324500Y-17272000D03*
D12*
G36*
X-7659309Y-16798053D02*
X-7638074Y-16801203D01*
X-7617250Y-16806419D01*
X-7597038Y-16813651D01*
X-7577632Y-16822830D01*
X-7559219Y-16833866D01*
X-7541976Y-16846654D01*
X-7526070Y-16861070D01*
X-7511654Y-16876976D01*
X-7498866Y-16894219D01*
X-7487830Y-16912632D01*
X-7478651Y-16932038D01*
X-7471419Y-16952250D01*
X-7466203Y-16973074D01*
X-7463053Y-16994309D01*
X-7462000Y-17015750D01*
X-7462000Y-17528250D01*
X-7463053Y-17549691D01*
X-7466203Y-17570926D01*
X-7471419Y-17591750D01*
X-7478651Y-17611962D01*
X-7487830Y-17631368D01*
X-7498866Y-17649781D01*
X-7511654Y-17667024D01*
X-7526070Y-17682930D01*
X-7541976Y-17697346D01*
X-7559219Y-17710134D01*
X-7577632Y-17721170D01*
X-7597038Y-17730349D01*
X-7617250Y-17737581D01*
X-7638074Y-17742797D01*
X-7659309Y-17745947D01*
X-7680750Y-17747000D01*
X-8118250Y-17747000D01*
X-8139691Y-17745947D01*
X-8160926Y-17742797D01*
X-8181750Y-17737581D01*
X-8201962Y-17730349D01*
X-8221368Y-17721170D01*
X-8239781Y-17710134D01*
X-8257024Y-17697346D01*
X-8272930Y-17682930D01*
X-8287346Y-17667024D01*
X-8300134Y-17649781D01*
X-8311170Y-17631368D01*
X-8320349Y-17611962D01*
X-8327581Y-17591750D01*
X-8332797Y-17570926D01*
X-8335947Y-17549691D01*
X-8337000Y-17528250D01*
X-8337000Y-17015750D01*
X-8335947Y-16994309D01*
X-8332797Y-16973074D01*
X-8327581Y-16952250D01*
X-8320349Y-16932038D01*
X-8311170Y-16912632D01*
X-8300134Y-16894219D01*
X-8287346Y-16876976D01*
X-8272930Y-16861070D01*
X-8257024Y-16846654D01*
X-8239781Y-16833866D01*
X-8221368Y-16822830D01*
X-8201962Y-16813651D01*
X-8181750Y-16806419D01*
X-8160926Y-16801203D01*
X-8139691Y-16798053D01*
X-8118250Y-16797000D01*
X-7680750Y-16797000D01*
X-7659309Y-16798053D01*
X-7659309Y-16798053D01*
G37*
D14*
X-7899500Y-17272000D03*
G04 #@! TD*
D12*
G04 #@! TO.C,R18*
G36*
X5040691Y-3336053D02*
X5061926Y-3339203D01*
X5082750Y-3344419D01*
X5102962Y-3351651D01*
X5122368Y-3360830D01*
X5140781Y-3371866D01*
X5158024Y-3384654D01*
X5173930Y-3399070D01*
X5188346Y-3414976D01*
X5201134Y-3432219D01*
X5212170Y-3450632D01*
X5221349Y-3470038D01*
X5228581Y-3490250D01*
X5233797Y-3511074D01*
X5236947Y-3532309D01*
X5238000Y-3553750D01*
X5238000Y-4066250D01*
X5236947Y-4087691D01*
X5233797Y-4108926D01*
X5228581Y-4129750D01*
X5221349Y-4149962D01*
X5212170Y-4169368D01*
X5201134Y-4187781D01*
X5188346Y-4205024D01*
X5173930Y-4220930D01*
X5158024Y-4235346D01*
X5140781Y-4248134D01*
X5122368Y-4259170D01*
X5102962Y-4268349D01*
X5082750Y-4275581D01*
X5061926Y-4280797D01*
X5040691Y-4283947D01*
X5019250Y-4285000D01*
X4581750Y-4285000D01*
X4560309Y-4283947D01*
X4539074Y-4280797D01*
X4518250Y-4275581D01*
X4498038Y-4268349D01*
X4478632Y-4259170D01*
X4460219Y-4248134D01*
X4442976Y-4235346D01*
X4427070Y-4220930D01*
X4412654Y-4205024D01*
X4399866Y-4187781D01*
X4388830Y-4169368D01*
X4379651Y-4149962D01*
X4372419Y-4129750D01*
X4367203Y-4108926D01*
X4364053Y-4087691D01*
X4363000Y-4066250D01*
X4363000Y-3553750D01*
X4364053Y-3532309D01*
X4367203Y-3511074D01*
X4372419Y-3490250D01*
X4379651Y-3470038D01*
X4388830Y-3450632D01*
X4399866Y-3432219D01*
X4412654Y-3414976D01*
X4427070Y-3399070D01*
X4442976Y-3384654D01*
X4460219Y-3371866D01*
X4478632Y-3360830D01*
X4498038Y-3351651D01*
X4518250Y-3344419D01*
X4539074Y-3339203D01*
X4560309Y-3336053D01*
X4581750Y-3335000D01*
X5019250Y-3335000D01*
X5040691Y-3336053D01*
X5040691Y-3336053D01*
G37*
D14*
X4800500Y-3810000D03*
D12*
G36*
X6615691Y-3336053D02*
X6636926Y-3339203D01*
X6657750Y-3344419D01*
X6677962Y-3351651D01*
X6697368Y-3360830D01*
X6715781Y-3371866D01*
X6733024Y-3384654D01*
X6748930Y-3399070D01*
X6763346Y-3414976D01*
X6776134Y-3432219D01*
X6787170Y-3450632D01*
X6796349Y-3470038D01*
X6803581Y-3490250D01*
X6808797Y-3511074D01*
X6811947Y-3532309D01*
X6813000Y-3553750D01*
X6813000Y-4066250D01*
X6811947Y-4087691D01*
X6808797Y-4108926D01*
X6803581Y-4129750D01*
X6796349Y-4149962D01*
X6787170Y-4169368D01*
X6776134Y-4187781D01*
X6763346Y-4205024D01*
X6748930Y-4220930D01*
X6733024Y-4235346D01*
X6715781Y-4248134D01*
X6697368Y-4259170D01*
X6677962Y-4268349D01*
X6657750Y-4275581D01*
X6636926Y-4280797D01*
X6615691Y-4283947D01*
X6594250Y-4285000D01*
X6156750Y-4285000D01*
X6135309Y-4283947D01*
X6114074Y-4280797D01*
X6093250Y-4275581D01*
X6073038Y-4268349D01*
X6053632Y-4259170D01*
X6035219Y-4248134D01*
X6017976Y-4235346D01*
X6002070Y-4220930D01*
X5987654Y-4205024D01*
X5974866Y-4187781D01*
X5963830Y-4169368D01*
X5954651Y-4149962D01*
X5947419Y-4129750D01*
X5942203Y-4108926D01*
X5939053Y-4087691D01*
X5938000Y-4066250D01*
X5938000Y-3553750D01*
X5939053Y-3532309D01*
X5942203Y-3511074D01*
X5947419Y-3490250D01*
X5954651Y-3470038D01*
X5963830Y-3450632D01*
X5974866Y-3432219D01*
X5987654Y-3414976D01*
X6002070Y-3399070D01*
X6017976Y-3384654D01*
X6035219Y-3371866D01*
X6053632Y-3360830D01*
X6073038Y-3351651D01*
X6093250Y-3344419D01*
X6114074Y-3339203D01*
X6135309Y-3336053D01*
X6156750Y-3335000D01*
X6594250Y-3335000D01*
X6615691Y-3336053D01*
X6615691Y-3336053D01*
G37*
D14*
X6375500Y-3810000D03*
G04 #@! TD*
D12*
G04 #@! TO.C,R7*
G36*
X-7088309Y47451947D02*
X-7067074Y47448797D01*
X-7046250Y47443581D01*
X-7026038Y47436349D01*
X-7006632Y47427170D01*
X-6988219Y47416134D01*
X-6970976Y47403346D01*
X-6955070Y47388930D01*
X-6940654Y47373024D01*
X-6927866Y47355781D01*
X-6916830Y47337368D01*
X-6907651Y47317962D01*
X-6900419Y47297750D01*
X-6895203Y47276926D01*
X-6892053Y47255691D01*
X-6891000Y47234250D01*
X-6891000Y46796750D01*
X-6892053Y46775309D01*
X-6895203Y46754074D01*
X-6900419Y46733250D01*
X-6907651Y46713038D01*
X-6916830Y46693632D01*
X-6927866Y46675219D01*
X-6940654Y46657976D01*
X-6955070Y46642070D01*
X-6970976Y46627654D01*
X-6988219Y46614866D01*
X-7006632Y46603830D01*
X-7026038Y46594651D01*
X-7046250Y46587419D01*
X-7067074Y46582203D01*
X-7088309Y46579053D01*
X-7109750Y46578000D01*
X-7622250Y46578000D01*
X-7643691Y46579053D01*
X-7664926Y46582203D01*
X-7685750Y46587419D01*
X-7705962Y46594651D01*
X-7725368Y46603830D01*
X-7743781Y46614866D01*
X-7761024Y46627654D01*
X-7776930Y46642070D01*
X-7791346Y46657976D01*
X-7804134Y46675219D01*
X-7815170Y46693632D01*
X-7824349Y46713038D01*
X-7831581Y46733250D01*
X-7836797Y46754074D01*
X-7839947Y46775309D01*
X-7841000Y46796750D01*
X-7841000Y47234250D01*
X-7839947Y47255691D01*
X-7836797Y47276926D01*
X-7831581Y47297750D01*
X-7824349Y47317962D01*
X-7815170Y47337368D01*
X-7804134Y47355781D01*
X-7791346Y47373024D01*
X-7776930Y47388930D01*
X-7761024Y47403346D01*
X-7743781Y47416134D01*
X-7725368Y47427170D01*
X-7705962Y47436349D01*
X-7685750Y47443581D01*
X-7664926Y47448797D01*
X-7643691Y47451947D01*
X-7622250Y47453000D01*
X-7109750Y47453000D01*
X-7088309Y47451947D01*
X-7088309Y47451947D01*
G37*
D14*
X-7366000Y47015500D03*
D12*
G36*
X-7088309Y45876947D02*
X-7067074Y45873797D01*
X-7046250Y45868581D01*
X-7026038Y45861349D01*
X-7006632Y45852170D01*
X-6988219Y45841134D01*
X-6970976Y45828346D01*
X-6955070Y45813930D01*
X-6940654Y45798024D01*
X-6927866Y45780781D01*
X-6916830Y45762368D01*
X-6907651Y45742962D01*
X-6900419Y45722750D01*
X-6895203Y45701926D01*
X-6892053Y45680691D01*
X-6891000Y45659250D01*
X-6891000Y45221750D01*
X-6892053Y45200309D01*
X-6895203Y45179074D01*
X-6900419Y45158250D01*
X-6907651Y45138038D01*
X-6916830Y45118632D01*
X-6927866Y45100219D01*
X-6940654Y45082976D01*
X-6955070Y45067070D01*
X-6970976Y45052654D01*
X-6988219Y45039866D01*
X-7006632Y45028830D01*
X-7026038Y45019651D01*
X-7046250Y45012419D01*
X-7067074Y45007203D01*
X-7088309Y45004053D01*
X-7109750Y45003000D01*
X-7622250Y45003000D01*
X-7643691Y45004053D01*
X-7664926Y45007203D01*
X-7685750Y45012419D01*
X-7705962Y45019651D01*
X-7725368Y45028830D01*
X-7743781Y45039866D01*
X-7761024Y45052654D01*
X-7776930Y45067070D01*
X-7791346Y45082976D01*
X-7804134Y45100219D01*
X-7815170Y45118632D01*
X-7824349Y45138038D01*
X-7831581Y45158250D01*
X-7836797Y45179074D01*
X-7839947Y45200309D01*
X-7841000Y45221750D01*
X-7841000Y45659250D01*
X-7839947Y45680691D01*
X-7836797Y45701926D01*
X-7831581Y45722750D01*
X-7824349Y45742962D01*
X-7815170Y45762368D01*
X-7804134Y45780781D01*
X-7791346Y45798024D01*
X-7776930Y45813930D01*
X-7761024Y45828346D01*
X-7743781Y45841134D01*
X-7725368Y45852170D01*
X-7705962Y45861349D01*
X-7685750Y45868581D01*
X-7664926Y45873797D01*
X-7643691Y45876947D01*
X-7622250Y45878000D01*
X-7109750Y45878000D01*
X-7088309Y45876947D01*
X-7088309Y45876947D01*
G37*
D14*
X-7366000Y45440500D03*
G04 #@! TD*
D12*
G04 #@! TO.C,R3*
G36*
X15759691Y17364947D02*
X15780926Y17361797D01*
X15801750Y17356581D01*
X15821962Y17349349D01*
X15841368Y17340170D01*
X15859781Y17329134D01*
X15877024Y17316346D01*
X15892930Y17301930D01*
X15907346Y17286024D01*
X15920134Y17268781D01*
X15931170Y17250368D01*
X15940349Y17230962D01*
X15947581Y17210750D01*
X15952797Y17189926D01*
X15955947Y17168691D01*
X15957000Y17147250D01*
X15957000Y16634750D01*
X15955947Y16613309D01*
X15952797Y16592074D01*
X15947581Y16571250D01*
X15940349Y16551038D01*
X15931170Y16531632D01*
X15920134Y16513219D01*
X15907346Y16495976D01*
X15892930Y16480070D01*
X15877024Y16465654D01*
X15859781Y16452866D01*
X15841368Y16441830D01*
X15821962Y16432651D01*
X15801750Y16425419D01*
X15780926Y16420203D01*
X15759691Y16417053D01*
X15738250Y16416000D01*
X15300750Y16416000D01*
X15279309Y16417053D01*
X15258074Y16420203D01*
X15237250Y16425419D01*
X15217038Y16432651D01*
X15197632Y16441830D01*
X15179219Y16452866D01*
X15161976Y16465654D01*
X15146070Y16480070D01*
X15131654Y16495976D01*
X15118866Y16513219D01*
X15107830Y16531632D01*
X15098651Y16551038D01*
X15091419Y16571250D01*
X15086203Y16592074D01*
X15083053Y16613309D01*
X15082000Y16634750D01*
X15082000Y17147250D01*
X15083053Y17168691D01*
X15086203Y17189926D01*
X15091419Y17210750D01*
X15098651Y17230962D01*
X15107830Y17250368D01*
X15118866Y17268781D01*
X15131654Y17286024D01*
X15146070Y17301930D01*
X15161976Y17316346D01*
X15179219Y17329134D01*
X15197632Y17340170D01*
X15217038Y17349349D01*
X15237250Y17356581D01*
X15258074Y17361797D01*
X15279309Y17364947D01*
X15300750Y17366000D01*
X15738250Y17366000D01*
X15759691Y17364947D01*
X15759691Y17364947D01*
G37*
D14*
X15519500Y16891000D03*
D12*
G36*
X14184691Y17364947D02*
X14205926Y17361797D01*
X14226750Y17356581D01*
X14246962Y17349349D01*
X14266368Y17340170D01*
X14284781Y17329134D01*
X14302024Y17316346D01*
X14317930Y17301930D01*
X14332346Y17286024D01*
X14345134Y17268781D01*
X14356170Y17250368D01*
X14365349Y17230962D01*
X14372581Y17210750D01*
X14377797Y17189926D01*
X14380947Y17168691D01*
X14382000Y17147250D01*
X14382000Y16634750D01*
X14380947Y16613309D01*
X14377797Y16592074D01*
X14372581Y16571250D01*
X14365349Y16551038D01*
X14356170Y16531632D01*
X14345134Y16513219D01*
X14332346Y16495976D01*
X14317930Y16480070D01*
X14302024Y16465654D01*
X14284781Y16452866D01*
X14266368Y16441830D01*
X14246962Y16432651D01*
X14226750Y16425419D01*
X14205926Y16420203D01*
X14184691Y16417053D01*
X14163250Y16416000D01*
X13725750Y16416000D01*
X13704309Y16417053D01*
X13683074Y16420203D01*
X13662250Y16425419D01*
X13642038Y16432651D01*
X13622632Y16441830D01*
X13604219Y16452866D01*
X13586976Y16465654D01*
X13571070Y16480070D01*
X13556654Y16495976D01*
X13543866Y16513219D01*
X13532830Y16531632D01*
X13523651Y16551038D01*
X13516419Y16571250D01*
X13511203Y16592074D01*
X13508053Y16613309D01*
X13507000Y16634750D01*
X13507000Y17147250D01*
X13508053Y17168691D01*
X13511203Y17189926D01*
X13516419Y17210750D01*
X13523651Y17230962D01*
X13532830Y17250368D01*
X13543866Y17268781D01*
X13556654Y17286024D01*
X13571070Y17301930D01*
X13586976Y17316346D01*
X13604219Y17329134D01*
X13622632Y17340170D01*
X13642038Y17349349D01*
X13662250Y17356581D01*
X13683074Y17361797D01*
X13704309Y17364947D01*
X13725750Y17366000D01*
X14163250Y17366000D01*
X14184691Y17364947D01*
X14184691Y17364947D01*
G37*
D14*
X13944500Y16891000D03*
G04 #@! TD*
D12*
G04 #@! TO.C,R4*
G36*
X15759691Y25873947D02*
X15780926Y25870797D01*
X15801750Y25865581D01*
X15821962Y25858349D01*
X15841368Y25849170D01*
X15859781Y25838134D01*
X15877024Y25825346D01*
X15892930Y25810930D01*
X15907346Y25795024D01*
X15920134Y25777781D01*
X15931170Y25759368D01*
X15940349Y25739962D01*
X15947581Y25719750D01*
X15952797Y25698926D01*
X15955947Y25677691D01*
X15957000Y25656250D01*
X15957000Y25143750D01*
X15955947Y25122309D01*
X15952797Y25101074D01*
X15947581Y25080250D01*
X15940349Y25060038D01*
X15931170Y25040632D01*
X15920134Y25022219D01*
X15907346Y25004976D01*
X15892930Y24989070D01*
X15877024Y24974654D01*
X15859781Y24961866D01*
X15841368Y24950830D01*
X15821962Y24941651D01*
X15801750Y24934419D01*
X15780926Y24929203D01*
X15759691Y24926053D01*
X15738250Y24925000D01*
X15300750Y24925000D01*
X15279309Y24926053D01*
X15258074Y24929203D01*
X15237250Y24934419D01*
X15217038Y24941651D01*
X15197632Y24950830D01*
X15179219Y24961866D01*
X15161976Y24974654D01*
X15146070Y24989070D01*
X15131654Y25004976D01*
X15118866Y25022219D01*
X15107830Y25040632D01*
X15098651Y25060038D01*
X15091419Y25080250D01*
X15086203Y25101074D01*
X15083053Y25122309D01*
X15082000Y25143750D01*
X15082000Y25656250D01*
X15083053Y25677691D01*
X15086203Y25698926D01*
X15091419Y25719750D01*
X15098651Y25739962D01*
X15107830Y25759368D01*
X15118866Y25777781D01*
X15131654Y25795024D01*
X15146070Y25810930D01*
X15161976Y25825346D01*
X15179219Y25838134D01*
X15197632Y25849170D01*
X15217038Y25858349D01*
X15237250Y25865581D01*
X15258074Y25870797D01*
X15279309Y25873947D01*
X15300750Y25875000D01*
X15738250Y25875000D01*
X15759691Y25873947D01*
X15759691Y25873947D01*
G37*
D14*
X15519500Y25400000D03*
D12*
G36*
X14184691Y25873947D02*
X14205926Y25870797D01*
X14226750Y25865581D01*
X14246962Y25858349D01*
X14266368Y25849170D01*
X14284781Y25838134D01*
X14302024Y25825346D01*
X14317930Y25810930D01*
X14332346Y25795024D01*
X14345134Y25777781D01*
X14356170Y25759368D01*
X14365349Y25739962D01*
X14372581Y25719750D01*
X14377797Y25698926D01*
X14380947Y25677691D01*
X14382000Y25656250D01*
X14382000Y25143750D01*
X14380947Y25122309D01*
X14377797Y25101074D01*
X14372581Y25080250D01*
X14365349Y25060038D01*
X14356170Y25040632D01*
X14345134Y25022219D01*
X14332346Y25004976D01*
X14317930Y24989070D01*
X14302024Y24974654D01*
X14284781Y24961866D01*
X14266368Y24950830D01*
X14246962Y24941651D01*
X14226750Y24934419D01*
X14205926Y24929203D01*
X14184691Y24926053D01*
X14163250Y24925000D01*
X13725750Y24925000D01*
X13704309Y24926053D01*
X13683074Y24929203D01*
X13662250Y24934419D01*
X13642038Y24941651D01*
X13622632Y24950830D01*
X13604219Y24961866D01*
X13586976Y24974654D01*
X13571070Y24989070D01*
X13556654Y25004976D01*
X13543866Y25022219D01*
X13532830Y25040632D01*
X13523651Y25060038D01*
X13516419Y25080250D01*
X13511203Y25101074D01*
X13508053Y25122309D01*
X13507000Y25143750D01*
X13507000Y25656250D01*
X13508053Y25677691D01*
X13511203Y25698926D01*
X13516419Y25719750D01*
X13523651Y25739962D01*
X13532830Y25759368D01*
X13543866Y25777781D01*
X13556654Y25795024D01*
X13571070Y25810930D01*
X13586976Y25825346D01*
X13604219Y25838134D01*
X13622632Y25849170D01*
X13642038Y25858349D01*
X13662250Y25865581D01*
X13683074Y25870797D01*
X13704309Y25873947D01*
X13725750Y25875000D01*
X14163250Y25875000D01*
X14184691Y25873947D01*
X14184691Y25873947D01*
G37*
D14*
X13944500Y25400000D03*
G04 #@! TD*
D12*
G04 #@! TO.C,R5*
G36*
X5167691Y-16798053D02*
X5188926Y-16801203D01*
X5209750Y-16806419D01*
X5229962Y-16813651D01*
X5249368Y-16822830D01*
X5267781Y-16833866D01*
X5285024Y-16846654D01*
X5300930Y-16861070D01*
X5315346Y-16876976D01*
X5328134Y-16894219D01*
X5339170Y-16912632D01*
X5348349Y-16932038D01*
X5355581Y-16952250D01*
X5360797Y-16973074D01*
X5363947Y-16994309D01*
X5365000Y-17015750D01*
X5365000Y-17528250D01*
X5363947Y-17549691D01*
X5360797Y-17570926D01*
X5355581Y-17591750D01*
X5348349Y-17611962D01*
X5339170Y-17631368D01*
X5328134Y-17649781D01*
X5315346Y-17667024D01*
X5300930Y-17682930D01*
X5285024Y-17697346D01*
X5267781Y-17710134D01*
X5249368Y-17721170D01*
X5229962Y-17730349D01*
X5209750Y-17737581D01*
X5188926Y-17742797D01*
X5167691Y-17745947D01*
X5146250Y-17747000D01*
X4708750Y-17747000D01*
X4687309Y-17745947D01*
X4666074Y-17742797D01*
X4645250Y-17737581D01*
X4625038Y-17730349D01*
X4605632Y-17721170D01*
X4587219Y-17710134D01*
X4569976Y-17697346D01*
X4554070Y-17682930D01*
X4539654Y-17667024D01*
X4526866Y-17649781D01*
X4515830Y-17631368D01*
X4506651Y-17611962D01*
X4499419Y-17591750D01*
X4494203Y-17570926D01*
X4491053Y-17549691D01*
X4490000Y-17528250D01*
X4490000Y-17015750D01*
X4491053Y-16994309D01*
X4494203Y-16973074D01*
X4499419Y-16952250D01*
X4506651Y-16932038D01*
X4515830Y-16912632D01*
X4526866Y-16894219D01*
X4539654Y-16876976D01*
X4554070Y-16861070D01*
X4569976Y-16846654D01*
X4587219Y-16833866D01*
X4605632Y-16822830D01*
X4625038Y-16813651D01*
X4645250Y-16806419D01*
X4666074Y-16801203D01*
X4687309Y-16798053D01*
X4708750Y-16797000D01*
X5146250Y-16797000D01*
X5167691Y-16798053D01*
X5167691Y-16798053D01*
G37*
D14*
X4927500Y-17272000D03*
D12*
G36*
X6742691Y-16798053D02*
X6763926Y-16801203D01*
X6784750Y-16806419D01*
X6804962Y-16813651D01*
X6824368Y-16822830D01*
X6842781Y-16833866D01*
X6860024Y-16846654D01*
X6875930Y-16861070D01*
X6890346Y-16876976D01*
X6903134Y-16894219D01*
X6914170Y-16912632D01*
X6923349Y-16932038D01*
X6930581Y-16952250D01*
X6935797Y-16973074D01*
X6938947Y-16994309D01*
X6940000Y-17015750D01*
X6940000Y-17528250D01*
X6938947Y-17549691D01*
X6935797Y-17570926D01*
X6930581Y-17591750D01*
X6923349Y-17611962D01*
X6914170Y-17631368D01*
X6903134Y-17649781D01*
X6890346Y-17667024D01*
X6875930Y-17682930D01*
X6860024Y-17697346D01*
X6842781Y-17710134D01*
X6824368Y-17721170D01*
X6804962Y-17730349D01*
X6784750Y-17737581D01*
X6763926Y-17742797D01*
X6742691Y-17745947D01*
X6721250Y-17747000D01*
X6283750Y-17747000D01*
X6262309Y-17745947D01*
X6241074Y-17742797D01*
X6220250Y-17737581D01*
X6200038Y-17730349D01*
X6180632Y-17721170D01*
X6162219Y-17710134D01*
X6144976Y-17697346D01*
X6129070Y-17682930D01*
X6114654Y-17667024D01*
X6101866Y-17649781D01*
X6090830Y-17631368D01*
X6081651Y-17611962D01*
X6074419Y-17591750D01*
X6069203Y-17570926D01*
X6066053Y-17549691D01*
X6065000Y-17528250D01*
X6065000Y-17015750D01*
X6066053Y-16994309D01*
X6069203Y-16973074D01*
X6074419Y-16952250D01*
X6081651Y-16932038D01*
X6090830Y-16912632D01*
X6101866Y-16894219D01*
X6114654Y-16876976D01*
X6129070Y-16861070D01*
X6144976Y-16846654D01*
X6162219Y-16833866D01*
X6180632Y-16822830D01*
X6200038Y-16813651D01*
X6220250Y-16806419D01*
X6241074Y-16801203D01*
X6262309Y-16798053D01*
X6283750Y-16797000D01*
X6721250Y-16797000D01*
X6742691Y-16798053D01*
X6742691Y-16798053D01*
G37*
D14*
X6502500Y-17272000D03*
G04 #@! TD*
D12*
G04 #@! TO.C,R6*
G36*
X14235691Y-16798053D02*
X14256926Y-16801203D01*
X14277750Y-16806419D01*
X14297962Y-16813651D01*
X14317368Y-16822830D01*
X14335781Y-16833866D01*
X14353024Y-16846654D01*
X14368930Y-16861070D01*
X14383346Y-16876976D01*
X14396134Y-16894219D01*
X14407170Y-16912632D01*
X14416349Y-16932038D01*
X14423581Y-16952250D01*
X14428797Y-16973074D01*
X14431947Y-16994309D01*
X14433000Y-17015750D01*
X14433000Y-17528250D01*
X14431947Y-17549691D01*
X14428797Y-17570926D01*
X14423581Y-17591750D01*
X14416349Y-17611962D01*
X14407170Y-17631368D01*
X14396134Y-17649781D01*
X14383346Y-17667024D01*
X14368930Y-17682930D01*
X14353024Y-17697346D01*
X14335781Y-17710134D01*
X14317368Y-17721170D01*
X14297962Y-17730349D01*
X14277750Y-17737581D01*
X14256926Y-17742797D01*
X14235691Y-17745947D01*
X14214250Y-17747000D01*
X13776750Y-17747000D01*
X13755309Y-17745947D01*
X13734074Y-17742797D01*
X13713250Y-17737581D01*
X13693038Y-17730349D01*
X13673632Y-17721170D01*
X13655219Y-17710134D01*
X13637976Y-17697346D01*
X13622070Y-17682930D01*
X13607654Y-17667024D01*
X13594866Y-17649781D01*
X13583830Y-17631368D01*
X13574651Y-17611962D01*
X13567419Y-17591750D01*
X13562203Y-17570926D01*
X13559053Y-17549691D01*
X13558000Y-17528250D01*
X13558000Y-17015750D01*
X13559053Y-16994309D01*
X13562203Y-16973074D01*
X13567419Y-16952250D01*
X13574651Y-16932038D01*
X13583830Y-16912632D01*
X13594866Y-16894219D01*
X13607654Y-16876976D01*
X13622070Y-16861070D01*
X13637976Y-16846654D01*
X13655219Y-16833866D01*
X13673632Y-16822830D01*
X13693038Y-16813651D01*
X13713250Y-16806419D01*
X13734074Y-16801203D01*
X13755309Y-16798053D01*
X13776750Y-16797000D01*
X14214250Y-16797000D01*
X14235691Y-16798053D01*
X14235691Y-16798053D01*
G37*
D14*
X13995500Y-17272000D03*
D12*
G36*
X12660691Y-16798053D02*
X12681926Y-16801203D01*
X12702750Y-16806419D01*
X12722962Y-16813651D01*
X12742368Y-16822830D01*
X12760781Y-16833866D01*
X12778024Y-16846654D01*
X12793930Y-16861070D01*
X12808346Y-16876976D01*
X12821134Y-16894219D01*
X12832170Y-16912632D01*
X12841349Y-16932038D01*
X12848581Y-16952250D01*
X12853797Y-16973074D01*
X12856947Y-16994309D01*
X12858000Y-17015750D01*
X12858000Y-17528250D01*
X12856947Y-17549691D01*
X12853797Y-17570926D01*
X12848581Y-17591750D01*
X12841349Y-17611962D01*
X12832170Y-17631368D01*
X12821134Y-17649781D01*
X12808346Y-17667024D01*
X12793930Y-17682930D01*
X12778024Y-17697346D01*
X12760781Y-17710134D01*
X12742368Y-17721170D01*
X12722962Y-17730349D01*
X12702750Y-17737581D01*
X12681926Y-17742797D01*
X12660691Y-17745947D01*
X12639250Y-17747000D01*
X12201750Y-17747000D01*
X12180309Y-17745947D01*
X12159074Y-17742797D01*
X12138250Y-17737581D01*
X12118038Y-17730349D01*
X12098632Y-17721170D01*
X12080219Y-17710134D01*
X12062976Y-17697346D01*
X12047070Y-17682930D01*
X12032654Y-17667024D01*
X12019866Y-17649781D01*
X12008830Y-17631368D01*
X11999651Y-17611962D01*
X11992419Y-17591750D01*
X11987203Y-17570926D01*
X11984053Y-17549691D01*
X11983000Y-17528250D01*
X11983000Y-17015750D01*
X11984053Y-16994309D01*
X11987203Y-16973074D01*
X11992419Y-16952250D01*
X11999651Y-16932038D01*
X12008830Y-16912632D01*
X12019866Y-16894219D01*
X12032654Y-16876976D01*
X12047070Y-16861070D01*
X12062976Y-16846654D01*
X12080219Y-16833866D01*
X12098632Y-16822830D01*
X12118038Y-16813651D01*
X12138250Y-16806419D01*
X12159074Y-16801203D01*
X12180309Y-16798053D01*
X12201750Y-16797000D01*
X12639250Y-16797000D01*
X12660691Y-16798053D01*
X12660691Y-16798053D01*
G37*
D14*
X12420500Y-17272000D03*
G04 #@! TD*
D12*
G04 #@! TO.C,R21*
G36*
X-7659309Y-3336053D02*
X-7638074Y-3339203D01*
X-7617250Y-3344419D01*
X-7597038Y-3351651D01*
X-7577632Y-3360830D01*
X-7559219Y-3371866D01*
X-7541976Y-3384654D01*
X-7526070Y-3399070D01*
X-7511654Y-3414976D01*
X-7498866Y-3432219D01*
X-7487830Y-3450632D01*
X-7478651Y-3470038D01*
X-7471419Y-3490250D01*
X-7466203Y-3511074D01*
X-7463053Y-3532309D01*
X-7462000Y-3553750D01*
X-7462000Y-4066250D01*
X-7463053Y-4087691D01*
X-7466203Y-4108926D01*
X-7471419Y-4129750D01*
X-7478651Y-4149962D01*
X-7487830Y-4169368D01*
X-7498866Y-4187781D01*
X-7511654Y-4205024D01*
X-7526070Y-4220930D01*
X-7541976Y-4235346D01*
X-7559219Y-4248134D01*
X-7577632Y-4259170D01*
X-7597038Y-4268349D01*
X-7617250Y-4275581D01*
X-7638074Y-4280797D01*
X-7659309Y-4283947D01*
X-7680750Y-4285000D01*
X-8118250Y-4285000D01*
X-8139691Y-4283947D01*
X-8160926Y-4280797D01*
X-8181750Y-4275581D01*
X-8201962Y-4268349D01*
X-8221368Y-4259170D01*
X-8239781Y-4248134D01*
X-8257024Y-4235346D01*
X-8272930Y-4220930D01*
X-8287346Y-4205024D01*
X-8300134Y-4187781D01*
X-8311170Y-4169368D01*
X-8320349Y-4149962D01*
X-8327581Y-4129750D01*
X-8332797Y-4108926D01*
X-8335947Y-4087691D01*
X-8337000Y-4066250D01*
X-8337000Y-3553750D01*
X-8335947Y-3532309D01*
X-8332797Y-3511074D01*
X-8327581Y-3490250D01*
X-8320349Y-3470038D01*
X-8311170Y-3450632D01*
X-8300134Y-3432219D01*
X-8287346Y-3414976D01*
X-8272930Y-3399070D01*
X-8257024Y-3384654D01*
X-8239781Y-3371866D01*
X-8221368Y-3360830D01*
X-8201962Y-3351651D01*
X-8181750Y-3344419D01*
X-8160926Y-3339203D01*
X-8139691Y-3336053D01*
X-8118250Y-3335000D01*
X-7680750Y-3335000D01*
X-7659309Y-3336053D01*
X-7659309Y-3336053D01*
G37*
D14*
X-7899500Y-3810000D03*
D12*
G36*
X-6084309Y-3336053D02*
X-6063074Y-3339203D01*
X-6042250Y-3344419D01*
X-6022038Y-3351651D01*
X-6002632Y-3360830D01*
X-5984219Y-3371866D01*
X-5966976Y-3384654D01*
X-5951070Y-3399070D01*
X-5936654Y-3414976D01*
X-5923866Y-3432219D01*
X-5912830Y-3450632D01*
X-5903651Y-3470038D01*
X-5896419Y-3490250D01*
X-5891203Y-3511074D01*
X-5888053Y-3532309D01*
X-5887000Y-3553750D01*
X-5887000Y-4066250D01*
X-5888053Y-4087691D01*
X-5891203Y-4108926D01*
X-5896419Y-4129750D01*
X-5903651Y-4149962D01*
X-5912830Y-4169368D01*
X-5923866Y-4187781D01*
X-5936654Y-4205024D01*
X-5951070Y-4220930D01*
X-5966976Y-4235346D01*
X-5984219Y-4248134D01*
X-6002632Y-4259170D01*
X-6022038Y-4268349D01*
X-6042250Y-4275581D01*
X-6063074Y-4280797D01*
X-6084309Y-4283947D01*
X-6105750Y-4285000D01*
X-6543250Y-4285000D01*
X-6564691Y-4283947D01*
X-6585926Y-4280797D01*
X-6606750Y-4275581D01*
X-6626962Y-4268349D01*
X-6646368Y-4259170D01*
X-6664781Y-4248134D01*
X-6682024Y-4235346D01*
X-6697930Y-4220930D01*
X-6712346Y-4205024D01*
X-6725134Y-4187781D01*
X-6736170Y-4169368D01*
X-6745349Y-4149962D01*
X-6752581Y-4129750D01*
X-6757797Y-4108926D01*
X-6760947Y-4087691D01*
X-6762000Y-4066250D01*
X-6762000Y-3553750D01*
X-6760947Y-3532309D01*
X-6757797Y-3511074D01*
X-6752581Y-3490250D01*
X-6745349Y-3470038D01*
X-6736170Y-3450632D01*
X-6725134Y-3432219D01*
X-6712346Y-3414976D01*
X-6697930Y-3399070D01*
X-6682024Y-3384654D01*
X-6664781Y-3371866D01*
X-6646368Y-3360830D01*
X-6626962Y-3351651D01*
X-6606750Y-3344419D01*
X-6585926Y-3339203D01*
X-6564691Y-3336053D01*
X-6543250Y-3335000D01*
X-6105750Y-3335000D01*
X-6084309Y-3336053D01*
X-6084309Y-3336053D01*
G37*
D14*
X-6324500Y-3810000D03*
G04 #@! TD*
D12*
G04 #@! TO.C,R29*
G36*
X-6084309Y-30387053D02*
X-6063074Y-30390203D01*
X-6042250Y-30395419D01*
X-6022038Y-30402651D01*
X-6002632Y-30411830D01*
X-5984219Y-30422866D01*
X-5966976Y-30435654D01*
X-5951070Y-30450070D01*
X-5936654Y-30465976D01*
X-5923866Y-30483219D01*
X-5912830Y-30501632D01*
X-5903651Y-30521038D01*
X-5896419Y-30541250D01*
X-5891203Y-30562074D01*
X-5888053Y-30583309D01*
X-5887000Y-30604750D01*
X-5887000Y-31117250D01*
X-5888053Y-31138691D01*
X-5891203Y-31159926D01*
X-5896419Y-31180750D01*
X-5903651Y-31200962D01*
X-5912830Y-31220368D01*
X-5923866Y-31238781D01*
X-5936654Y-31256024D01*
X-5951070Y-31271930D01*
X-5966976Y-31286346D01*
X-5984219Y-31299134D01*
X-6002632Y-31310170D01*
X-6022038Y-31319349D01*
X-6042250Y-31326581D01*
X-6063074Y-31331797D01*
X-6084309Y-31334947D01*
X-6105750Y-31336000D01*
X-6543250Y-31336000D01*
X-6564691Y-31334947D01*
X-6585926Y-31331797D01*
X-6606750Y-31326581D01*
X-6626962Y-31319349D01*
X-6646368Y-31310170D01*
X-6664781Y-31299134D01*
X-6682024Y-31286346D01*
X-6697930Y-31271930D01*
X-6712346Y-31256024D01*
X-6725134Y-31238781D01*
X-6736170Y-31220368D01*
X-6745349Y-31200962D01*
X-6752581Y-31180750D01*
X-6757797Y-31159926D01*
X-6760947Y-31138691D01*
X-6762000Y-31117250D01*
X-6762000Y-30604750D01*
X-6760947Y-30583309D01*
X-6757797Y-30562074D01*
X-6752581Y-30541250D01*
X-6745349Y-30521038D01*
X-6736170Y-30501632D01*
X-6725134Y-30483219D01*
X-6712346Y-30465976D01*
X-6697930Y-30450070D01*
X-6682024Y-30435654D01*
X-6664781Y-30422866D01*
X-6646368Y-30411830D01*
X-6626962Y-30402651D01*
X-6606750Y-30395419D01*
X-6585926Y-30390203D01*
X-6564691Y-30387053D01*
X-6543250Y-30386000D01*
X-6105750Y-30386000D01*
X-6084309Y-30387053D01*
X-6084309Y-30387053D01*
G37*
D14*
X-6324500Y-30861000D03*
D12*
G36*
X-7659309Y-30387053D02*
X-7638074Y-30390203D01*
X-7617250Y-30395419D01*
X-7597038Y-30402651D01*
X-7577632Y-30411830D01*
X-7559219Y-30422866D01*
X-7541976Y-30435654D01*
X-7526070Y-30450070D01*
X-7511654Y-30465976D01*
X-7498866Y-30483219D01*
X-7487830Y-30501632D01*
X-7478651Y-30521038D01*
X-7471419Y-30541250D01*
X-7466203Y-30562074D01*
X-7463053Y-30583309D01*
X-7462000Y-30604750D01*
X-7462000Y-31117250D01*
X-7463053Y-31138691D01*
X-7466203Y-31159926D01*
X-7471419Y-31180750D01*
X-7478651Y-31200962D01*
X-7487830Y-31220368D01*
X-7498866Y-31238781D01*
X-7511654Y-31256024D01*
X-7526070Y-31271930D01*
X-7541976Y-31286346D01*
X-7559219Y-31299134D01*
X-7577632Y-31310170D01*
X-7597038Y-31319349D01*
X-7617250Y-31326581D01*
X-7638074Y-31331797D01*
X-7659309Y-31334947D01*
X-7680750Y-31336000D01*
X-8118250Y-31336000D01*
X-8139691Y-31334947D01*
X-8160926Y-31331797D01*
X-8181750Y-31326581D01*
X-8201962Y-31319349D01*
X-8221368Y-31310170D01*
X-8239781Y-31299134D01*
X-8257024Y-31286346D01*
X-8272930Y-31271930D01*
X-8287346Y-31256024D01*
X-8300134Y-31238781D01*
X-8311170Y-31220368D01*
X-8320349Y-31200962D01*
X-8327581Y-31180750D01*
X-8332797Y-31159926D01*
X-8335947Y-31138691D01*
X-8337000Y-31117250D01*
X-8337000Y-30604750D01*
X-8335947Y-30583309D01*
X-8332797Y-30562074D01*
X-8327581Y-30541250D01*
X-8320349Y-30521038D01*
X-8311170Y-30501632D01*
X-8300134Y-30483219D01*
X-8287346Y-30465976D01*
X-8272930Y-30450070D01*
X-8257024Y-30435654D01*
X-8239781Y-30422866D01*
X-8221368Y-30411830D01*
X-8201962Y-30402651D01*
X-8181750Y-30395419D01*
X-8160926Y-30390203D01*
X-8139691Y-30387053D01*
X-8118250Y-30386000D01*
X-7680750Y-30386000D01*
X-7659309Y-30387053D01*
X-7659309Y-30387053D01*
G37*
D14*
X-7899500Y-30861000D03*
G04 #@! TD*
D12*
G04 #@! TO.C,R28*
G36*
X-15279309Y-30387053D02*
X-15258074Y-30390203D01*
X-15237250Y-30395419D01*
X-15217038Y-30402651D01*
X-15197632Y-30411830D01*
X-15179219Y-30422866D01*
X-15161976Y-30435654D01*
X-15146070Y-30450070D01*
X-15131654Y-30465976D01*
X-15118866Y-30483219D01*
X-15107830Y-30501632D01*
X-15098651Y-30521038D01*
X-15091419Y-30541250D01*
X-15086203Y-30562074D01*
X-15083053Y-30583309D01*
X-15082000Y-30604750D01*
X-15082000Y-31117250D01*
X-15083053Y-31138691D01*
X-15086203Y-31159926D01*
X-15091419Y-31180750D01*
X-15098651Y-31200962D01*
X-15107830Y-31220368D01*
X-15118866Y-31238781D01*
X-15131654Y-31256024D01*
X-15146070Y-31271930D01*
X-15161976Y-31286346D01*
X-15179219Y-31299134D01*
X-15197632Y-31310170D01*
X-15217038Y-31319349D01*
X-15237250Y-31326581D01*
X-15258074Y-31331797D01*
X-15279309Y-31334947D01*
X-15300750Y-31336000D01*
X-15738250Y-31336000D01*
X-15759691Y-31334947D01*
X-15780926Y-31331797D01*
X-15801750Y-31326581D01*
X-15821962Y-31319349D01*
X-15841368Y-31310170D01*
X-15859781Y-31299134D01*
X-15877024Y-31286346D01*
X-15892930Y-31271930D01*
X-15907346Y-31256024D01*
X-15920134Y-31238781D01*
X-15931170Y-31220368D01*
X-15940349Y-31200962D01*
X-15947581Y-31180750D01*
X-15952797Y-31159926D01*
X-15955947Y-31138691D01*
X-15957000Y-31117250D01*
X-15957000Y-30604750D01*
X-15955947Y-30583309D01*
X-15952797Y-30562074D01*
X-15947581Y-30541250D01*
X-15940349Y-30521038D01*
X-15931170Y-30501632D01*
X-15920134Y-30483219D01*
X-15907346Y-30465976D01*
X-15892930Y-30450070D01*
X-15877024Y-30435654D01*
X-15859781Y-30422866D01*
X-15841368Y-30411830D01*
X-15821962Y-30402651D01*
X-15801750Y-30395419D01*
X-15780926Y-30390203D01*
X-15759691Y-30387053D01*
X-15738250Y-30386000D01*
X-15300750Y-30386000D01*
X-15279309Y-30387053D01*
X-15279309Y-30387053D01*
G37*
D14*
X-15519500Y-30861000D03*
D12*
G36*
X-13704309Y-30387053D02*
X-13683074Y-30390203D01*
X-13662250Y-30395419D01*
X-13642038Y-30402651D01*
X-13622632Y-30411830D01*
X-13604219Y-30422866D01*
X-13586976Y-30435654D01*
X-13571070Y-30450070D01*
X-13556654Y-30465976D01*
X-13543866Y-30483219D01*
X-13532830Y-30501632D01*
X-13523651Y-30521038D01*
X-13516419Y-30541250D01*
X-13511203Y-30562074D01*
X-13508053Y-30583309D01*
X-13507000Y-30604750D01*
X-13507000Y-31117250D01*
X-13508053Y-31138691D01*
X-13511203Y-31159926D01*
X-13516419Y-31180750D01*
X-13523651Y-31200962D01*
X-13532830Y-31220368D01*
X-13543866Y-31238781D01*
X-13556654Y-31256024D01*
X-13571070Y-31271930D01*
X-13586976Y-31286346D01*
X-13604219Y-31299134D01*
X-13622632Y-31310170D01*
X-13642038Y-31319349D01*
X-13662250Y-31326581D01*
X-13683074Y-31331797D01*
X-13704309Y-31334947D01*
X-13725750Y-31336000D01*
X-14163250Y-31336000D01*
X-14184691Y-31334947D01*
X-14205926Y-31331797D01*
X-14226750Y-31326581D01*
X-14246962Y-31319349D01*
X-14266368Y-31310170D01*
X-14284781Y-31299134D01*
X-14302024Y-31286346D01*
X-14317930Y-31271930D01*
X-14332346Y-31256024D01*
X-14345134Y-31238781D01*
X-14356170Y-31220368D01*
X-14365349Y-31200962D01*
X-14372581Y-31180750D01*
X-14377797Y-31159926D01*
X-14380947Y-31138691D01*
X-14382000Y-31117250D01*
X-14382000Y-30604750D01*
X-14380947Y-30583309D01*
X-14377797Y-30562074D01*
X-14372581Y-30541250D01*
X-14365349Y-30521038D01*
X-14356170Y-30501632D01*
X-14345134Y-30483219D01*
X-14332346Y-30465976D01*
X-14317930Y-30450070D01*
X-14302024Y-30435654D01*
X-14284781Y-30422866D01*
X-14266368Y-30411830D01*
X-14246962Y-30402651D01*
X-14226750Y-30395419D01*
X-14205926Y-30390203D01*
X-14184691Y-30387053D01*
X-14163250Y-30386000D01*
X-13725750Y-30386000D01*
X-13704309Y-30387053D01*
X-13704309Y-30387053D01*
G37*
D14*
X-13944500Y-30861000D03*
G04 #@! TD*
D12*
G04 #@! TO.C,R27*
G36*
X14235691Y-30387053D02*
X14256926Y-30390203D01*
X14277750Y-30395419D01*
X14297962Y-30402651D01*
X14317368Y-30411830D01*
X14335781Y-30422866D01*
X14353024Y-30435654D01*
X14368930Y-30450070D01*
X14383346Y-30465976D01*
X14396134Y-30483219D01*
X14407170Y-30501632D01*
X14416349Y-30521038D01*
X14423581Y-30541250D01*
X14428797Y-30562074D01*
X14431947Y-30583309D01*
X14433000Y-30604750D01*
X14433000Y-31117250D01*
X14431947Y-31138691D01*
X14428797Y-31159926D01*
X14423581Y-31180750D01*
X14416349Y-31200962D01*
X14407170Y-31220368D01*
X14396134Y-31238781D01*
X14383346Y-31256024D01*
X14368930Y-31271930D01*
X14353024Y-31286346D01*
X14335781Y-31299134D01*
X14317368Y-31310170D01*
X14297962Y-31319349D01*
X14277750Y-31326581D01*
X14256926Y-31331797D01*
X14235691Y-31334947D01*
X14214250Y-31336000D01*
X13776750Y-31336000D01*
X13755309Y-31334947D01*
X13734074Y-31331797D01*
X13713250Y-31326581D01*
X13693038Y-31319349D01*
X13673632Y-31310170D01*
X13655219Y-31299134D01*
X13637976Y-31286346D01*
X13622070Y-31271930D01*
X13607654Y-31256024D01*
X13594866Y-31238781D01*
X13583830Y-31220368D01*
X13574651Y-31200962D01*
X13567419Y-31180750D01*
X13562203Y-31159926D01*
X13559053Y-31138691D01*
X13558000Y-31117250D01*
X13558000Y-30604750D01*
X13559053Y-30583309D01*
X13562203Y-30562074D01*
X13567419Y-30541250D01*
X13574651Y-30521038D01*
X13583830Y-30501632D01*
X13594866Y-30483219D01*
X13607654Y-30465976D01*
X13622070Y-30450070D01*
X13637976Y-30435654D01*
X13655219Y-30422866D01*
X13673632Y-30411830D01*
X13693038Y-30402651D01*
X13713250Y-30395419D01*
X13734074Y-30390203D01*
X13755309Y-30387053D01*
X13776750Y-30386000D01*
X14214250Y-30386000D01*
X14235691Y-30387053D01*
X14235691Y-30387053D01*
G37*
D14*
X13995500Y-30861000D03*
D12*
G36*
X12660691Y-30387053D02*
X12681926Y-30390203D01*
X12702750Y-30395419D01*
X12722962Y-30402651D01*
X12742368Y-30411830D01*
X12760781Y-30422866D01*
X12778024Y-30435654D01*
X12793930Y-30450070D01*
X12808346Y-30465976D01*
X12821134Y-30483219D01*
X12832170Y-30501632D01*
X12841349Y-30521038D01*
X12848581Y-30541250D01*
X12853797Y-30562074D01*
X12856947Y-30583309D01*
X12858000Y-30604750D01*
X12858000Y-31117250D01*
X12856947Y-31138691D01*
X12853797Y-31159926D01*
X12848581Y-31180750D01*
X12841349Y-31200962D01*
X12832170Y-31220368D01*
X12821134Y-31238781D01*
X12808346Y-31256024D01*
X12793930Y-31271930D01*
X12778024Y-31286346D01*
X12760781Y-31299134D01*
X12742368Y-31310170D01*
X12722962Y-31319349D01*
X12702750Y-31326581D01*
X12681926Y-31331797D01*
X12660691Y-31334947D01*
X12639250Y-31336000D01*
X12201750Y-31336000D01*
X12180309Y-31334947D01*
X12159074Y-31331797D01*
X12138250Y-31326581D01*
X12118038Y-31319349D01*
X12098632Y-31310170D01*
X12080219Y-31299134D01*
X12062976Y-31286346D01*
X12047070Y-31271930D01*
X12032654Y-31256024D01*
X12019866Y-31238781D01*
X12008830Y-31220368D01*
X11999651Y-31200962D01*
X11992419Y-31180750D01*
X11987203Y-31159926D01*
X11984053Y-31138691D01*
X11983000Y-31117250D01*
X11983000Y-30604750D01*
X11984053Y-30583309D01*
X11987203Y-30562074D01*
X11992419Y-30541250D01*
X11999651Y-30521038D01*
X12008830Y-30501632D01*
X12019866Y-30483219D01*
X12032654Y-30465976D01*
X12047070Y-30450070D01*
X12062976Y-30435654D01*
X12080219Y-30422866D01*
X12098632Y-30411830D01*
X12118038Y-30402651D01*
X12138250Y-30395419D01*
X12159074Y-30390203D01*
X12180309Y-30387053D01*
X12201750Y-30386000D01*
X12639250Y-30386000D01*
X12660691Y-30387053D01*
X12660691Y-30387053D01*
G37*
D14*
X12420500Y-30861000D03*
G04 #@! TD*
D12*
G04 #@! TO.C,R26*
G36*
X5167691Y-30387053D02*
X5188926Y-30390203D01*
X5209750Y-30395419D01*
X5229962Y-30402651D01*
X5249368Y-30411830D01*
X5267781Y-30422866D01*
X5285024Y-30435654D01*
X5300930Y-30450070D01*
X5315346Y-30465976D01*
X5328134Y-30483219D01*
X5339170Y-30501632D01*
X5348349Y-30521038D01*
X5355581Y-30541250D01*
X5360797Y-30562074D01*
X5363947Y-30583309D01*
X5365000Y-30604750D01*
X5365000Y-31117250D01*
X5363947Y-31138691D01*
X5360797Y-31159926D01*
X5355581Y-31180750D01*
X5348349Y-31200962D01*
X5339170Y-31220368D01*
X5328134Y-31238781D01*
X5315346Y-31256024D01*
X5300930Y-31271930D01*
X5285024Y-31286346D01*
X5267781Y-31299134D01*
X5249368Y-31310170D01*
X5229962Y-31319349D01*
X5209750Y-31326581D01*
X5188926Y-31331797D01*
X5167691Y-31334947D01*
X5146250Y-31336000D01*
X4708750Y-31336000D01*
X4687309Y-31334947D01*
X4666074Y-31331797D01*
X4645250Y-31326581D01*
X4625038Y-31319349D01*
X4605632Y-31310170D01*
X4587219Y-31299134D01*
X4569976Y-31286346D01*
X4554070Y-31271930D01*
X4539654Y-31256024D01*
X4526866Y-31238781D01*
X4515830Y-31220368D01*
X4506651Y-31200962D01*
X4499419Y-31180750D01*
X4494203Y-31159926D01*
X4491053Y-31138691D01*
X4490000Y-31117250D01*
X4490000Y-30604750D01*
X4491053Y-30583309D01*
X4494203Y-30562074D01*
X4499419Y-30541250D01*
X4506651Y-30521038D01*
X4515830Y-30501632D01*
X4526866Y-30483219D01*
X4539654Y-30465976D01*
X4554070Y-30450070D01*
X4569976Y-30435654D01*
X4587219Y-30422866D01*
X4605632Y-30411830D01*
X4625038Y-30402651D01*
X4645250Y-30395419D01*
X4666074Y-30390203D01*
X4687309Y-30387053D01*
X4708750Y-30386000D01*
X5146250Y-30386000D01*
X5167691Y-30387053D01*
X5167691Y-30387053D01*
G37*
D14*
X4927500Y-30861000D03*
D12*
G36*
X6742691Y-30387053D02*
X6763926Y-30390203D01*
X6784750Y-30395419D01*
X6804962Y-30402651D01*
X6824368Y-30411830D01*
X6842781Y-30422866D01*
X6860024Y-30435654D01*
X6875930Y-30450070D01*
X6890346Y-30465976D01*
X6903134Y-30483219D01*
X6914170Y-30501632D01*
X6923349Y-30521038D01*
X6930581Y-30541250D01*
X6935797Y-30562074D01*
X6938947Y-30583309D01*
X6940000Y-30604750D01*
X6940000Y-31117250D01*
X6938947Y-31138691D01*
X6935797Y-31159926D01*
X6930581Y-31180750D01*
X6923349Y-31200962D01*
X6914170Y-31220368D01*
X6903134Y-31238781D01*
X6890346Y-31256024D01*
X6875930Y-31271930D01*
X6860024Y-31286346D01*
X6842781Y-31299134D01*
X6824368Y-31310170D01*
X6804962Y-31319349D01*
X6784750Y-31326581D01*
X6763926Y-31331797D01*
X6742691Y-31334947D01*
X6721250Y-31336000D01*
X6283750Y-31336000D01*
X6262309Y-31334947D01*
X6241074Y-31331797D01*
X6220250Y-31326581D01*
X6200038Y-31319349D01*
X6180632Y-31310170D01*
X6162219Y-31299134D01*
X6144976Y-31286346D01*
X6129070Y-31271930D01*
X6114654Y-31256024D01*
X6101866Y-31238781D01*
X6090830Y-31220368D01*
X6081651Y-31200962D01*
X6074419Y-31180750D01*
X6069203Y-31159926D01*
X6066053Y-31138691D01*
X6065000Y-31117250D01*
X6065000Y-30604750D01*
X6066053Y-30583309D01*
X6069203Y-30562074D01*
X6074419Y-30541250D01*
X6081651Y-30521038D01*
X6090830Y-30501632D01*
X6101866Y-30483219D01*
X6114654Y-30465976D01*
X6129070Y-30450070D01*
X6144976Y-30435654D01*
X6162219Y-30422866D01*
X6180632Y-30411830D01*
X6200038Y-30402651D01*
X6220250Y-30395419D01*
X6241074Y-30390203D01*
X6262309Y-30387053D01*
X6283750Y-30386000D01*
X6721250Y-30386000D01*
X6742691Y-30387053D01*
X6742691Y-30387053D01*
G37*
D14*
X6502500Y-30861000D03*
G04 #@! TD*
D12*
G04 #@! TO.C,R25*
G36*
X-6084309Y-43976053D02*
X-6063074Y-43979203D01*
X-6042250Y-43984419D01*
X-6022038Y-43991651D01*
X-6002632Y-44000830D01*
X-5984219Y-44011866D01*
X-5966976Y-44024654D01*
X-5951070Y-44039070D01*
X-5936654Y-44054976D01*
X-5923866Y-44072219D01*
X-5912830Y-44090632D01*
X-5903651Y-44110038D01*
X-5896419Y-44130250D01*
X-5891203Y-44151074D01*
X-5888053Y-44172309D01*
X-5887000Y-44193750D01*
X-5887000Y-44706250D01*
X-5888053Y-44727691D01*
X-5891203Y-44748926D01*
X-5896419Y-44769750D01*
X-5903651Y-44789962D01*
X-5912830Y-44809368D01*
X-5923866Y-44827781D01*
X-5936654Y-44845024D01*
X-5951070Y-44860930D01*
X-5966976Y-44875346D01*
X-5984219Y-44888134D01*
X-6002632Y-44899170D01*
X-6022038Y-44908349D01*
X-6042250Y-44915581D01*
X-6063074Y-44920797D01*
X-6084309Y-44923947D01*
X-6105750Y-44925000D01*
X-6543250Y-44925000D01*
X-6564691Y-44923947D01*
X-6585926Y-44920797D01*
X-6606750Y-44915581D01*
X-6626962Y-44908349D01*
X-6646368Y-44899170D01*
X-6664781Y-44888134D01*
X-6682024Y-44875346D01*
X-6697930Y-44860930D01*
X-6712346Y-44845024D01*
X-6725134Y-44827781D01*
X-6736170Y-44809368D01*
X-6745349Y-44789962D01*
X-6752581Y-44769750D01*
X-6757797Y-44748926D01*
X-6760947Y-44727691D01*
X-6762000Y-44706250D01*
X-6762000Y-44193750D01*
X-6760947Y-44172309D01*
X-6757797Y-44151074D01*
X-6752581Y-44130250D01*
X-6745349Y-44110038D01*
X-6736170Y-44090632D01*
X-6725134Y-44072219D01*
X-6712346Y-44054976D01*
X-6697930Y-44039070D01*
X-6682024Y-44024654D01*
X-6664781Y-44011866D01*
X-6646368Y-44000830D01*
X-6626962Y-43991651D01*
X-6606750Y-43984419D01*
X-6585926Y-43979203D01*
X-6564691Y-43976053D01*
X-6543250Y-43975000D01*
X-6105750Y-43975000D01*
X-6084309Y-43976053D01*
X-6084309Y-43976053D01*
G37*
D14*
X-6324500Y-44450000D03*
D12*
G36*
X-7659309Y-43976053D02*
X-7638074Y-43979203D01*
X-7617250Y-43984419D01*
X-7597038Y-43991651D01*
X-7577632Y-44000830D01*
X-7559219Y-44011866D01*
X-7541976Y-44024654D01*
X-7526070Y-44039070D01*
X-7511654Y-44054976D01*
X-7498866Y-44072219D01*
X-7487830Y-44090632D01*
X-7478651Y-44110038D01*
X-7471419Y-44130250D01*
X-7466203Y-44151074D01*
X-7463053Y-44172309D01*
X-7462000Y-44193750D01*
X-7462000Y-44706250D01*
X-7463053Y-44727691D01*
X-7466203Y-44748926D01*
X-7471419Y-44769750D01*
X-7478651Y-44789962D01*
X-7487830Y-44809368D01*
X-7498866Y-44827781D01*
X-7511654Y-44845024D01*
X-7526070Y-44860930D01*
X-7541976Y-44875346D01*
X-7559219Y-44888134D01*
X-7577632Y-44899170D01*
X-7597038Y-44908349D01*
X-7617250Y-44915581D01*
X-7638074Y-44920797D01*
X-7659309Y-44923947D01*
X-7680750Y-44925000D01*
X-8118250Y-44925000D01*
X-8139691Y-44923947D01*
X-8160926Y-44920797D01*
X-8181750Y-44915581D01*
X-8201962Y-44908349D01*
X-8221368Y-44899170D01*
X-8239781Y-44888134D01*
X-8257024Y-44875346D01*
X-8272930Y-44860930D01*
X-8287346Y-44845024D01*
X-8300134Y-44827781D01*
X-8311170Y-44809368D01*
X-8320349Y-44789962D01*
X-8327581Y-44769750D01*
X-8332797Y-44748926D01*
X-8335947Y-44727691D01*
X-8337000Y-44706250D01*
X-8337000Y-44193750D01*
X-8335947Y-44172309D01*
X-8332797Y-44151074D01*
X-8327581Y-44130250D01*
X-8320349Y-44110038D01*
X-8311170Y-44090632D01*
X-8300134Y-44072219D01*
X-8287346Y-44054976D01*
X-8272930Y-44039070D01*
X-8257024Y-44024654D01*
X-8239781Y-44011866D01*
X-8221368Y-44000830D01*
X-8201962Y-43991651D01*
X-8181750Y-43984419D01*
X-8160926Y-43979203D01*
X-8139691Y-43976053D01*
X-8118250Y-43975000D01*
X-7680750Y-43975000D01*
X-7659309Y-43976053D01*
X-7659309Y-43976053D01*
G37*
D14*
X-7899500Y-44450000D03*
G04 #@! TD*
D12*
G04 #@! TO.C,R24*
G36*
X-15279309Y-43976053D02*
X-15258074Y-43979203D01*
X-15237250Y-43984419D01*
X-15217038Y-43991651D01*
X-15197632Y-44000830D01*
X-15179219Y-44011866D01*
X-15161976Y-44024654D01*
X-15146070Y-44039070D01*
X-15131654Y-44054976D01*
X-15118866Y-44072219D01*
X-15107830Y-44090632D01*
X-15098651Y-44110038D01*
X-15091419Y-44130250D01*
X-15086203Y-44151074D01*
X-15083053Y-44172309D01*
X-15082000Y-44193750D01*
X-15082000Y-44706250D01*
X-15083053Y-44727691D01*
X-15086203Y-44748926D01*
X-15091419Y-44769750D01*
X-15098651Y-44789962D01*
X-15107830Y-44809368D01*
X-15118866Y-44827781D01*
X-15131654Y-44845024D01*
X-15146070Y-44860930D01*
X-15161976Y-44875346D01*
X-15179219Y-44888134D01*
X-15197632Y-44899170D01*
X-15217038Y-44908349D01*
X-15237250Y-44915581D01*
X-15258074Y-44920797D01*
X-15279309Y-44923947D01*
X-15300750Y-44925000D01*
X-15738250Y-44925000D01*
X-15759691Y-44923947D01*
X-15780926Y-44920797D01*
X-15801750Y-44915581D01*
X-15821962Y-44908349D01*
X-15841368Y-44899170D01*
X-15859781Y-44888134D01*
X-15877024Y-44875346D01*
X-15892930Y-44860930D01*
X-15907346Y-44845024D01*
X-15920134Y-44827781D01*
X-15931170Y-44809368D01*
X-15940349Y-44789962D01*
X-15947581Y-44769750D01*
X-15952797Y-44748926D01*
X-15955947Y-44727691D01*
X-15957000Y-44706250D01*
X-15957000Y-44193750D01*
X-15955947Y-44172309D01*
X-15952797Y-44151074D01*
X-15947581Y-44130250D01*
X-15940349Y-44110038D01*
X-15931170Y-44090632D01*
X-15920134Y-44072219D01*
X-15907346Y-44054976D01*
X-15892930Y-44039070D01*
X-15877024Y-44024654D01*
X-15859781Y-44011866D01*
X-15841368Y-44000830D01*
X-15821962Y-43991651D01*
X-15801750Y-43984419D01*
X-15780926Y-43979203D01*
X-15759691Y-43976053D01*
X-15738250Y-43975000D01*
X-15300750Y-43975000D01*
X-15279309Y-43976053D01*
X-15279309Y-43976053D01*
G37*
D14*
X-15519500Y-44450000D03*
D12*
G36*
X-13704309Y-43976053D02*
X-13683074Y-43979203D01*
X-13662250Y-43984419D01*
X-13642038Y-43991651D01*
X-13622632Y-44000830D01*
X-13604219Y-44011866D01*
X-13586976Y-44024654D01*
X-13571070Y-44039070D01*
X-13556654Y-44054976D01*
X-13543866Y-44072219D01*
X-13532830Y-44090632D01*
X-13523651Y-44110038D01*
X-13516419Y-44130250D01*
X-13511203Y-44151074D01*
X-13508053Y-44172309D01*
X-13507000Y-44193750D01*
X-13507000Y-44706250D01*
X-13508053Y-44727691D01*
X-13511203Y-44748926D01*
X-13516419Y-44769750D01*
X-13523651Y-44789962D01*
X-13532830Y-44809368D01*
X-13543866Y-44827781D01*
X-13556654Y-44845024D01*
X-13571070Y-44860930D01*
X-13586976Y-44875346D01*
X-13604219Y-44888134D01*
X-13622632Y-44899170D01*
X-13642038Y-44908349D01*
X-13662250Y-44915581D01*
X-13683074Y-44920797D01*
X-13704309Y-44923947D01*
X-13725750Y-44925000D01*
X-14163250Y-44925000D01*
X-14184691Y-44923947D01*
X-14205926Y-44920797D01*
X-14226750Y-44915581D01*
X-14246962Y-44908349D01*
X-14266368Y-44899170D01*
X-14284781Y-44888134D01*
X-14302024Y-44875346D01*
X-14317930Y-44860930D01*
X-14332346Y-44845024D01*
X-14345134Y-44827781D01*
X-14356170Y-44809368D01*
X-14365349Y-44789962D01*
X-14372581Y-44769750D01*
X-14377797Y-44748926D01*
X-14380947Y-44727691D01*
X-14382000Y-44706250D01*
X-14382000Y-44193750D01*
X-14380947Y-44172309D01*
X-14377797Y-44151074D01*
X-14372581Y-44130250D01*
X-14365349Y-44110038D01*
X-14356170Y-44090632D01*
X-14345134Y-44072219D01*
X-14332346Y-44054976D01*
X-14317930Y-44039070D01*
X-14302024Y-44024654D01*
X-14284781Y-44011866D01*
X-14266368Y-44000830D01*
X-14246962Y-43991651D01*
X-14226750Y-43984419D01*
X-14205926Y-43979203D01*
X-14184691Y-43976053D01*
X-14163250Y-43975000D01*
X-13725750Y-43975000D01*
X-13704309Y-43976053D01*
X-13704309Y-43976053D01*
G37*
D14*
X-13944500Y-44450000D03*
G04 #@! TD*
D12*
G04 #@! TO.C,R23*
G36*
X14235691Y-43976053D02*
X14256926Y-43979203D01*
X14277750Y-43984419D01*
X14297962Y-43991651D01*
X14317368Y-44000830D01*
X14335781Y-44011866D01*
X14353024Y-44024654D01*
X14368930Y-44039070D01*
X14383346Y-44054976D01*
X14396134Y-44072219D01*
X14407170Y-44090632D01*
X14416349Y-44110038D01*
X14423581Y-44130250D01*
X14428797Y-44151074D01*
X14431947Y-44172309D01*
X14433000Y-44193750D01*
X14433000Y-44706250D01*
X14431947Y-44727691D01*
X14428797Y-44748926D01*
X14423581Y-44769750D01*
X14416349Y-44789962D01*
X14407170Y-44809368D01*
X14396134Y-44827781D01*
X14383346Y-44845024D01*
X14368930Y-44860930D01*
X14353024Y-44875346D01*
X14335781Y-44888134D01*
X14317368Y-44899170D01*
X14297962Y-44908349D01*
X14277750Y-44915581D01*
X14256926Y-44920797D01*
X14235691Y-44923947D01*
X14214250Y-44925000D01*
X13776750Y-44925000D01*
X13755309Y-44923947D01*
X13734074Y-44920797D01*
X13713250Y-44915581D01*
X13693038Y-44908349D01*
X13673632Y-44899170D01*
X13655219Y-44888134D01*
X13637976Y-44875346D01*
X13622070Y-44860930D01*
X13607654Y-44845024D01*
X13594866Y-44827781D01*
X13583830Y-44809368D01*
X13574651Y-44789962D01*
X13567419Y-44769750D01*
X13562203Y-44748926D01*
X13559053Y-44727691D01*
X13558000Y-44706250D01*
X13558000Y-44193750D01*
X13559053Y-44172309D01*
X13562203Y-44151074D01*
X13567419Y-44130250D01*
X13574651Y-44110038D01*
X13583830Y-44090632D01*
X13594866Y-44072219D01*
X13607654Y-44054976D01*
X13622070Y-44039070D01*
X13637976Y-44024654D01*
X13655219Y-44011866D01*
X13673632Y-44000830D01*
X13693038Y-43991651D01*
X13713250Y-43984419D01*
X13734074Y-43979203D01*
X13755309Y-43976053D01*
X13776750Y-43975000D01*
X14214250Y-43975000D01*
X14235691Y-43976053D01*
X14235691Y-43976053D01*
G37*
D14*
X13995500Y-44450000D03*
D12*
G36*
X12660691Y-43976053D02*
X12681926Y-43979203D01*
X12702750Y-43984419D01*
X12722962Y-43991651D01*
X12742368Y-44000830D01*
X12760781Y-44011866D01*
X12778024Y-44024654D01*
X12793930Y-44039070D01*
X12808346Y-44054976D01*
X12821134Y-44072219D01*
X12832170Y-44090632D01*
X12841349Y-44110038D01*
X12848581Y-44130250D01*
X12853797Y-44151074D01*
X12856947Y-44172309D01*
X12858000Y-44193750D01*
X12858000Y-44706250D01*
X12856947Y-44727691D01*
X12853797Y-44748926D01*
X12848581Y-44769750D01*
X12841349Y-44789962D01*
X12832170Y-44809368D01*
X12821134Y-44827781D01*
X12808346Y-44845024D01*
X12793930Y-44860930D01*
X12778024Y-44875346D01*
X12760781Y-44888134D01*
X12742368Y-44899170D01*
X12722962Y-44908349D01*
X12702750Y-44915581D01*
X12681926Y-44920797D01*
X12660691Y-44923947D01*
X12639250Y-44925000D01*
X12201750Y-44925000D01*
X12180309Y-44923947D01*
X12159074Y-44920797D01*
X12138250Y-44915581D01*
X12118038Y-44908349D01*
X12098632Y-44899170D01*
X12080219Y-44888134D01*
X12062976Y-44875346D01*
X12047070Y-44860930D01*
X12032654Y-44845024D01*
X12019866Y-44827781D01*
X12008830Y-44809368D01*
X11999651Y-44789962D01*
X11992419Y-44769750D01*
X11987203Y-44748926D01*
X11984053Y-44727691D01*
X11983000Y-44706250D01*
X11983000Y-44193750D01*
X11984053Y-44172309D01*
X11987203Y-44151074D01*
X11992419Y-44130250D01*
X11999651Y-44110038D01*
X12008830Y-44090632D01*
X12019866Y-44072219D01*
X12032654Y-44054976D01*
X12047070Y-44039070D01*
X12062976Y-44024654D01*
X12080219Y-44011866D01*
X12098632Y-44000830D01*
X12118038Y-43991651D01*
X12138250Y-43984419D01*
X12159074Y-43979203D01*
X12180309Y-43976053D01*
X12201750Y-43975000D01*
X12639250Y-43975000D01*
X12660691Y-43976053D01*
X12660691Y-43976053D01*
G37*
D14*
X12420500Y-44450000D03*
G04 #@! TD*
D12*
G04 #@! TO.C,R22*
G36*
X5167691Y-43976053D02*
X5188926Y-43979203D01*
X5209750Y-43984419D01*
X5229962Y-43991651D01*
X5249368Y-44000830D01*
X5267781Y-44011866D01*
X5285024Y-44024654D01*
X5300930Y-44039070D01*
X5315346Y-44054976D01*
X5328134Y-44072219D01*
X5339170Y-44090632D01*
X5348349Y-44110038D01*
X5355581Y-44130250D01*
X5360797Y-44151074D01*
X5363947Y-44172309D01*
X5365000Y-44193750D01*
X5365000Y-44706250D01*
X5363947Y-44727691D01*
X5360797Y-44748926D01*
X5355581Y-44769750D01*
X5348349Y-44789962D01*
X5339170Y-44809368D01*
X5328134Y-44827781D01*
X5315346Y-44845024D01*
X5300930Y-44860930D01*
X5285024Y-44875346D01*
X5267781Y-44888134D01*
X5249368Y-44899170D01*
X5229962Y-44908349D01*
X5209750Y-44915581D01*
X5188926Y-44920797D01*
X5167691Y-44923947D01*
X5146250Y-44925000D01*
X4708750Y-44925000D01*
X4687309Y-44923947D01*
X4666074Y-44920797D01*
X4645250Y-44915581D01*
X4625038Y-44908349D01*
X4605632Y-44899170D01*
X4587219Y-44888134D01*
X4569976Y-44875346D01*
X4554070Y-44860930D01*
X4539654Y-44845024D01*
X4526866Y-44827781D01*
X4515830Y-44809368D01*
X4506651Y-44789962D01*
X4499419Y-44769750D01*
X4494203Y-44748926D01*
X4491053Y-44727691D01*
X4490000Y-44706250D01*
X4490000Y-44193750D01*
X4491053Y-44172309D01*
X4494203Y-44151074D01*
X4499419Y-44130250D01*
X4506651Y-44110038D01*
X4515830Y-44090632D01*
X4526866Y-44072219D01*
X4539654Y-44054976D01*
X4554070Y-44039070D01*
X4569976Y-44024654D01*
X4587219Y-44011866D01*
X4605632Y-44000830D01*
X4625038Y-43991651D01*
X4645250Y-43984419D01*
X4666074Y-43979203D01*
X4687309Y-43976053D01*
X4708750Y-43975000D01*
X5146250Y-43975000D01*
X5167691Y-43976053D01*
X5167691Y-43976053D01*
G37*
D14*
X4927500Y-44450000D03*
D12*
G36*
X6742691Y-43976053D02*
X6763926Y-43979203D01*
X6784750Y-43984419D01*
X6804962Y-43991651D01*
X6824368Y-44000830D01*
X6842781Y-44011866D01*
X6860024Y-44024654D01*
X6875930Y-44039070D01*
X6890346Y-44054976D01*
X6903134Y-44072219D01*
X6914170Y-44090632D01*
X6923349Y-44110038D01*
X6930581Y-44130250D01*
X6935797Y-44151074D01*
X6938947Y-44172309D01*
X6940000Y-44193750D01*
X6940000Y-44706250D01*
X6938947Y-44727691D01*
X6935797Y-44748926D01*
X6930581Y-44769750D01*
X6923349Y-44789962D01*
X6914170Y-44809368D01*
X6903134Y-44827781D01*
X6890346Y-44845024D01*
X6875930Y-44860930D01*
X6860024Y-44875346D01*
X6842781Y-44888134D01*
X6824368Y-44899170D01*
X6804962Y-44908349D01*
X6784750Y-44915581D01*
X6763926Y-44920797D01*
X6742691Y-44923947D01*
X6721250Y-44925000D01*
X6283750Y-44925000D01*
X6262309Y-44923947D01*
X6241074Y-44920797D01*
X6220250Y-44915581D01*
X6200038Y-44908349D01*
X6180632Y-44899170D01*
X6162219Y-44888134D01*
X6144976Y-44875346D01*
X6129070Y-44860930D01*
X6114654Y-44845024D01*
X6101866Y-44827781D01*
X6090830Y-44809368D01*
X6081651Y-44789962D01*
X6074419Y-44769750D01*
X6069203Y-44748926D01*
X6066053Y-44727691D01*
X6065000Y-44706250D01*
X6065000Y-44193750D01*
X6066053Y-44172309D01*
X6069203Y-44151074D01*
X6074419Y-44130250D01*
X6081651Y-44110038D01*
X6090830Y-44090632D01*
X6101866Y-44072219D01*
X6114654Y-44054976D01*
X6129070Y-44039070D01*
X6144976Y-44024654D01*
X6162219Y-44011866D01*
X6180632Y-44000830D01*
X6200038Y-43991651D01*
X6220250Y-43984419D01*
X6241074Y-43979203D01*
X6262309Y-43976053D01*
X6283750Y-43975000D01*
X6721250Y-43975000D01*
X6742691Y-43976053D01*
X6742691Y-43976053D01*
G37*
D14*
X6502500Y-44450000D03*
G04 #@! TD*
D12*
G04 #@! TO.C,R10*
G36*
X-15152309Y38573947D02*
X-15131074Y38570797D01*
X-15110250Y38565581D01*
X-15090038Y38558349D01*
X-15070632Y38549170D01*
X-15052219Y38538134D01*
X-15034976Y38525346D01*
X-15019070Y38510930D01*
X-15004654Y38495024D01*
X-14991866Y38477781D01*
X-14980830Y38459368D01*
X-14971651Y38439962D01*
X-14964419Y38419750D01*
X-14959203Y38398926D01*
X-14956053Y38377691D01*
X-14955000Y38356250D01*
X-14955000Y37843750D01*
X-14956053Y37822309D01*
X-14959203Y37801074D01*
X-14964419Y37780250D01*
X-14971651Y37760038D01*
X-14980830Y37740632D01*
X-14991866Y37722219D01*
X-15004654Y37704976D01*
X-15019070Y37689070D01*
X-15034976Y37674654D01*
X-15052219Y37661866D01*
X-15070632Y37650830D01*
X-15090038Y37641651D01*
X-15110250Y37634419D01*
X-15131074Y37629203D01*
X-15152309Y37626053D01*
X-15173750Y37625000D01*
X-15611250Y37625000D01*
X-15632691Y37626053D01*
X-15653926Y37629203D01*
X-15674750Y37634419D01*
X-15694962Y37641651D01*
X-15714368Y37650830D01*
X-15732781Y37661866D01*
X-15750024Y37674654D01*
X-15765930Y37689070D01*
X-15780346Y37704976D01*
X-15793134Y37722219D01*
X-15804170Y37740632D01*
X-15813349Y37760038D01*
X-15820581Y37780250D01*
X-15825797Y37801074D01*
X-15828947Y37822309D01*
X-15830000Y37843750D01*
X-15830000Y38356250D01*
X-15828947Y38377691D01*
X-15825797Y38398926D01*
X-15820581Y38419750D01*
X-15813349Y38439962D01*
X-15804170Y38459368D01*
X-15793134Y38477781D01*
X-15780346Y38495024D01*
X-15765930Y38510930D01*
X-15750024Y38525346D01*
X-15732781Y38538134D01*
X-15714368Y38549170D01*
X-15694962Y38558349D01*
X-15674750Y38565581D01*
X-15653926Y38570797D01*
X-15632691Y38573947D01*
X-15611250Y38575000D01*
X-15173750Y38575000D01*
X-15152309Y38573947D01*
X-15152309Y38573947D01*
G37*
D14*
X-15392500Y38100000D03*
D12*
G36*
X-13577309Y38573947D02*
X-13556074Y38570797D01*
X-13535250Y38565581D01*
X-13515038Y38558349D01*
X-13495632Y38549170D01*
X-13477219Y38538134D01*
X-13459976Y38525346D01*
X-13444070Y38510930D01*
X-13429654Y38495024D01*
X-13416866Y38477781D01*
X-13405830Y38459368D01*
X-13396651Y38439962D01*
X-13389419Y38419750D01*
X-13384203Y38398926D01*
X-13381053Y38377691D01*
X-13380000Y38356250D01*
X-13380000Y37843750D01*
X-13381053Y37822309D01*
X-13384203Y37801074D01*
X-13389419Y37780250D01*
X-13396651Y37760038D01*
X-13405830Y37740632D01*
X-13416866Y37722219D01*
X-13429654Y37704976D01*
X-13444070Y37689070D01*
X-13459976Y37674654D01*
X-13477219Y37661866D01*
X-13495632Y37650830D01*
X-13515038Y37641651D01*
X-13535250Y37634419D01*
X-13556074Y37629203D01*
X-13577309Y37626053D01*
X-13598750Y37625000D01*
X-14036250Y37625000D01*
X-14057691Y37626053D01*
X-14078926Y37629203D01*
X-14099750Y37634419D01*
X-14119962Y37641651D01*
X-14139368Y37650830D01*
X-14157781Y37661866D01*
X-14175024Y37674654D01*
X-14190930Y37689070D01*
X-14205346Y37704976D01*
X-14218134Y37722219D01*
X-14229170Y37740632D01*
X-14238349Y37760038D01*
X-14245581Y37780250D01*
X-14250797Y37801074D01*
X-14253947Y37822309D01*
X-14255000Y37843750D01*
X-14255000Y38356250D01*
X-14253947Y38377691D01*
X-14250797Y38398926D01*
X-14245581Y38419750D01*
X-14238349Y38439962D01*
X-14229170Y38459368D01*
X-14218134Y38477781D01*
X-14205346Y38495024D01*
X-14190930Y38510930D01*
X-14175024Y38525346D01*
X-14157781Y38538134D01*
X-14139368Y38549170D01*
X-14119962Y38558349D01*
X-14099750Y38565581D01*
X-14078926Y38570797D01*
X-14057691Y38573947D01*
X-14036250Y38575000D01*
X-13598750Y38575000D01*
X-13577309Y38573947D01*
X-13577309Y38573947D01*
G37*
D14*
X-13817500Y38100000D03*
G04 #@! TD*
D12*
G04 #@! TO.C,R19*
G36*
X12660691Y-3336053D02*
X12681926Y-3339203D01*
X12702750Y-3344419D01*
X12722962Y-3351651D01*
X12742368Y-3360830D01*
X12760781Y-3371866D01*
X12778024Y-3384654D01*
X12793930Y-3399070D01*
X12808346Y-3414976D01*
X12821134Y-3432219D01*
X12832170Y-3450632D01*
X12841349Y-3470038D01*
X12848581Y-3490250D01*
X12853797Y-3511074D01*
X12856947Y-3532309D01*
X12858000Y-3553750D01*
X12858000Y-4066250D01*
X12856947Y-4087691D01*
X12853797Y-4108926D01*
X12848581Y-4129750D01*
X12841349Y-4149962D01*
X12832170Y-4169368D01*
X12821134Y-4187781D01*
X12808346Y-4205024D01*
X12793930Y-4220930D01*
X12778024Y-4235346D01*
X12760781Y-4248134D01*
X12742368Y-4259170D01*
X12722962Y-4268349D01*
X12702750Y-4275581D01*
X12681926Y-4280797D01*
X12660691Y-4283947D01*
X12639250Y-4285000D01*
X12201750Y-4285000D01*
X12180309Y-4283947D01*
X12159074Y-4280797D01*
X12138250Y-4275581D01*
X12118038Y-4268349D01*
X12098632Y-4259170D01*
X12080219Y-4248134D01*
X12062976Y-4235346D01*
X12047070Y-4220930D01*
X12032654Y-4205024D01*
X12019866Y-4187781D01*
X12008830Y-4169368D01*
X11999651Y-4149962D01*
X11992419Y-4129750D01*
X11987203Y-4108926D01*
X11984053Y-4087691D01*
X11983000Y-4066250D01*
X11983000Y-3553750D01*
X11984053Y-3532309D01*
X11987203Y-3511074D01*
X11992419Y-3490250D01*
X11999651Y-3470038D01*
X12008830Y-3450632D01*
X12019866Y-3432219D01*
X12032654Y-3414976D01*
X12047070Y-3399070D01*
X12062976Y-3384654D01*
X12080219Y-3371866D01*
X12098632Y-3360830D01*
X12118038Y-3351651D01*
X12138250Y-3344419D01*
X12159074Y-3339203D01*
X12180309Y-3336053D01*
X12201750Y-3335000D01*
X12639250Y-3335000D01*
X12660691Y-3336053D01*
X12660691Y-3336053D01*
G37*
D14*
X12420500Y-3810000D03*
D12*
G36*
X14235691Y-3336053D02*
X14256926Y-3339203D01*
X14277750Y-3344419D01*
X14297962Y-3351651D01*
X14317368Y-3360830D01*
X14335781Y-3371866D01*
X14353024Y-3384654D01*
X14368930Y-3399070D01*
X14383346Y-3414976D01*
X14396134Y-3432219D01*
X14407170Y-3450632D01*
X14416349Y-3470038D01*
X14423581Y-3490250D01*
X14428797Y-3511074D01*
X14431947Y-3532309D01*
X14433000Y-3553750D01*
X14433000Y-4066250D01*
X14431947Y-4087691D01*
X14428797Y-4108926D01*
X14423581Y-4129750D01*
X14416349Y-4149962D01*
X14407170Y-4169368D01*
X14396134Y-4187781D01*
X14383346Y-4205024D01*
X14368930Y-4220930D01*
X14353024Y-4235346D01*
X14335781Y-4248134D01*
X14317368Y-4259170D01*
X14297962Y-4268349D01*
X14277750Y-4275581D01*
X14256926Y-4280797D01*
X14235691Y-4283947D01*
X14214250Y-4285000D01*
X13776750Y-4285000D01*
X13755309Y-4283947D01*
X13734074Y-4280797D01*
X13713250Y-4275581D01*
X13693038Y-4268349D01*
X13673632Y-4259170D01*
X13655219Y-4248134D01*
X13637976Y-4235346D01*
X13622070Y-4220930D01*
X13607654Y-4205024D01*
X13594866Y-4187781D01*
X13583830Y-4169368D01*
X13574651Y-4149962D01*
X13567419Y-4129750D01*
X13562203Y-4108926D01*
X13559053Y-4087691D01*
X13558000Y-4066250D01*
X13558000Y-3553750D01*
X13559053Y-3532309D01*
X13562203Y-3511074D01*
X13567419Y-3490250D01*
X13574651Y-3470038D01*
X13583830Y-3450632D01*
X13594866Y-3432219D01*
X13607654Y-3414976D01*
X13622070Y-3399070D01*
X13637976Y-3384654D01*
X13655219Y-3371866D01*
X13673632Y-3360830D01*
X13693038Y-3351651D01*
X13713250Y-3344419D01*
X13734074Y-3339203D01*
X13755309Y-3336053D01*
X13776750Y-3335000D01*
X14214250Y-3335000D01*
X14235691Y-3336053D01*
X14235691Y-3336053D01*
G37*
D14*
X13995500Y-3810000D03*
G04 #@! TD*
M02*
