G04 #@! TF.GenerationSoftware,KiCad,Pcbnew,5.0.2-bee76a0~70~ubuntu18.04.1*
G04 #@! TF.CreationDate,2019-01-02T16:22:13+08:00*
G04 #@! TF.ProjectId,Divider,44697669-6465-4722-9e6b-696361645f70,rev?*
G04 #@! TF.SameCoordinates,PX8d9ee20PY6422c40*
G04 #@! TF.FileFunction,Soldermask,Bot*
G04 #@! TF.FilePolarity,Negative*
%FSLAX46Y46*%
G04 Gerber Fmt 4.6, Leading zero omitted, Abs format (unit mm)*
G04 Created by KiCad (PCBNEW 5.0.2-bee76a0~70~ubuntu18.04.1) date Wed Jan  2 16:22:13 2019*
%MOMM*%
%LPD*%
G01*
G04 APERTURE LIST*
%ADD10C,0.100000*%
G04 APERTURE END LIST*
D10*
G36*
X-5982409Y-43928085D02*
X-5948431Y-43938393D01*
X-5917113Y-43955133D01*
X-5889661Y-43977661D01*
X-5867133Y-44005113D01*
X-5850393Y-44036431D01*
X-5840085Y-44070409D01*
X-5836000Y-44111890D01*
X-5836000Y-44788110D01*
X-5840085Y-44829591D01*
X-5850393Y-44863569D01*
X-5867133Y-44894887D01*
X-5889661Y-44922339D01*
X-5917113Y-44944867D01*
X-5948431Y-44961607D01*
X-5982409Y-44971915D01*
X-6023890Y-44976000D01*
X-6625110Y-44976000D01*
X-6666591Y-44971915D01*
X-6700569Y-44961607D01*
X-6731887Y-44944867D01*
X-6759339Y-44922339D01*
X-6781867Y-44894887D01*
X-6798607Y-44863569D01*
X-6808915Y-44829591D01*
X-6813000Y-44788110D01*
X-6813000Y-44111890D01*
X-6808915Y-44070409D01*
X-6798607Y-44036431D01*
X-6781867Y-44005113D01*
X-6759339Y-43977661D01*
X-6731887Y-43955133D01*
X-6700569Y-43938393D01*
X-6666591Y-43928085D01*
X-6625110Y-43924000D01*
X-6023890Y-43924000D01*
X-5982409Y-43928085D01*
X-5982409Y-43928085D01*
G37*
G36*
X12762591Y-43928085D02*
X12796569Y-43938393D01*
X12827887Y-43955133D01*
X12855339Y-43977661D01*
X12877867Y-44005113D01*
X12894607Y-44036431D01*
X12904915Y-44070409D01*
X12909000Y-44111890D01*
X12909000Y-44788110D01*
X12904915Y-44829591D01*
X12894607Y-44863569D01*
X12877867Y-44894887D01*
X12855339Y-44922339D01*
X12827887Y-44944867D01*
X12796569Y-44961607D01*
X12762591Y-44971915D01*
X12721110Y-44976000D01*
X12119890Y-44976000D01*
X12078409Y-44971915D01*
X12044431Y-44961607D01*
X12013113Y-44944867D01*
X11985661Y-44922339D01*
X11963133Y-44894887D01*
X11946393Y-44863569D01*
X11936085Y-44829591D01*
X11932000Y-44788110D01*
X11932000Y-44111890D01*
X11936085Y-44070409D01*
X11946393Y-44036431D01*
X11963133Y-44005113D01*
X11985661Y-43977661D01*
X12013113Y-43955133D01*
X12044431Y-43938393D01*
X12078409Y-43928085D01*
X12119890Y-43924000D01*
X12721110Y-43924000D01*
X12762591Y-43928085D01*
X12762591Y-43928085D01*
G37*
G36*
X6844591Y-43928085D02*
X6878569Y-43938393D01*
X6909887Y-43955133D01*
X6937339Y-43977661D01*
X6959867Y-44005113D01*
X6976607Y-44036431D01*
X6986915Y-44070409D01*
X6991000Y-44111890D01*
X6991000Y-44788110D01*
X6986915Y-44829591D01*
X6976607Y-44863569D01*
X6959867Y-44894887D01*
X6937339Y-44922339D01*
X6909887Y-44944867D01*
X6878569Y-44961607D01*
X6844591Y-44971915D01*
X6803110Y-44976000D01*
X6201890Y-44976000D01*
X6160409Y-44971915D01*
X6126431Y-44961607D01*
X6095113Y-44944867D01*
X6067661Y-44922339D01*
X6045133Y-44894887D01*
X6028393Y-44863569D01*
X6018085Y-44829591D01*
X6014000Y-44788110D01*
X6014000Y-44111890D01*
X6018085Y-44070409D01*
X6028393Y-44036431D01*
X6045133Y-44005113D01*
X6067661Y-43977661D01*
X6095113Y-43955133D01*
X6126431Y-43938393D01*
X6160409Y-43928085D01*
X6201890Y-43924000D01*
X6803110Y-43924000D01*
X6844591Y-43928085D01*
X6844591Y-43928085D01*
G37*
G36*
X5269591Y-43928085D02*
X5303569Y-43938393D01*
X5334887Y-43955133D01*
X5362339Y-43977661D01*
X5384867Y-44005113D01*
X5401607Y-44036431D01*
X5411915Y-44070409D01*
X5416000Y-44111890D01*
X5416000Y-44788110D01*
X5411915Y-44829591D01*
X5401607Y-44863569D01*
X5384867Y-44894887D01*
X5362339Y-44922339D01*
X5334887Y-44944867D01*
X5303569Y-44961607D01*
X5269591Y-44971915D01*
X5228110Y-44976000D01*
X4626890Y-44976000D01*
X4585409Y-44971915D01*
X4551431Y-44961607D01*
X4520113Y-44944867D01*
X4492661Y-44922339D01*
X4470133Y-44894887D01*
X4453393Y-44863569D01*
X4443085Y-44829591D01*
X4439000Y-44788110D01*
X4439000Y-44111890D01*
X4443085Y-44070409D01*
X4453393Y-44036431D01*
X4470133Y-44005113D01*
X4492661Y-43977661D01*
X4520113Y-43955133D01*
X4551431Y-43938393D01*
X4585409Y-43928085D01*
X4626890Y-43924000D01*
X5228110Y-43924000D01*
X5269591Y-43928085D01*
X5269591Y-43928085D01*
G37*
G36*
X14337591Y-43928085D02*
X14371569Y-43938393D01*
X14402887Y-43955133D01*
X14430339Y-43977661D01*
X14452867Y-44005113D01*
X14469607Y-44036431D01*
X14479915Y-44070409D01*
X14484000Y-44111890D01*
X14484000Y-44788110D01*
X14479915Y-44829591D01*
X14469607Y-44863569D01*
X14452867Y-44894887D01*
X14430339Y-44922339D01*
X14402887Y-44944867D01*
X14371569Y-44961607D01*
X14337591Y-44971915D01*
X14296110Y-44976000D01*
X13694890Y-44976000D01*
X13653409Y-44971915D01*
X13619431Y-44961607D01*
X13588113Y-44944867D01*
X13560661Y-44922339D01*
X13538133Y-44894887D01*
X13521393Y-44863569D01*
X13511085Y-44829591D01*
X13507000Y-44788110D01*
X13507000Y-44111890D01*
X13511085Y-44070409D01*
X13521393Y-44036431D01*
X13538133Y-44005113D01*
X13560661Y-43977661D01*
X13588113Y-43955133D01*
X13619431Y-43938393D01*
X13653409Y-43928085D01*
X13694890Y-43924000D01*
X14296110Y-43924000D01*
X14337591Y-43928085D01*
X14337591Y-43928085D01*
G37*
G36*
X-15177409Y-43928085D02*
X-15143431Y-43938393D01*
X-15112113Y-43955133D01*
X-15084661Y-43977661D01*
X-15062133Y-44005113D01*
X-15045393Y-44036431D01*
X-15035085Y-44070409D01*
X-15031000Y-44111890D01*
X-15031000Y-44788110D01*
X-15035085Y-44829591D01*
X-15045393Y-44863569D01*
X-15062133Y-44894887D01*
X-15084661Y-44922339D01*
X-15112113Y-44944867D01*
X-15143431Y-44961607D01*
X-15177409Y-44971915D01*
X-15218890Y-44976000D01*
X-15820110Y-44976000D01*
X-15861591Y-44971915D01*
X-15895569Y-44961607D01*
X-15926887Y-44944867D01*
X-15954339Y-44922339D01*
X-15976867Y-44894887D01*
X-15993607Y-44863569D01*
X-16003915Y-44829591D01*
X-16008000Y-44788110D01*
X-16008000Y-44111890D01*
X-16003915Y-44070409D01*
X-15993607Y-44036431D01*
X-15976867Y-44005113D01*
X-15954339Y-43977661D01*
X-15926887Y-43955133D01*
X-15895569Y-43938393D01*
X-15861591Y-43928085D01*
X-15820110Y-43924000D01*
X-15218890Y-43924000D01*
X-15177409Y-43928085D01*
X-15177409Y-43928085D01*
G37*
G36*
X-7557409Y-43928085D02*
X-7523431Y-43938393D01*
X-7492113Y-43955133D01*
X-7464661Y-43977661D01*
X-7442133Y-44005113D01*
X-7425393Y-44036431D01*
X-7415085Y-44070409D01*
X-7411000Y-44111890D01*
X-7411000Y-44788110D01*
X-7415085Y-44829591D01*
X-7425393Y-44863569D01*
X-7442133Y-44894887D01*
X-7464661Y-44922339D01*
X-7492113Y-44944867D01*
X-7523431Y-44961607D01*
X-7557409Y-44971915D01*
X-7598890Y-44976000D01*
X-8200110Y-44976000D01*
X-8241591Y-44971915D01*
X-8275569Y-44961607D01*
X-8306887Y-44944867D01*
X-8334339Y-44922339D01*
X-8356867Y-44894887D01*
X-8373607Y-44863569D01*
X-8383915Y-44829591D01*
X-8388000Y-44788110D01*
X-8388000Y-44111890D01*
X-8383915Y-44070409D01*
X-8373607Y-44036431D01*
X-8356867Y-44005113D01*
X-8334339Y-43977661D01*
X-8306887Y-43955133D01*
X-8275569Y-43938393D01*
X-8241591Y-43928085D01*
X-8200110Y-43924000D01*
X-7598890Y-43924000D01*
X-7557409Y-43928085D01*
X-7557409Y-43928085D01*
G37*
G36*
X-13602409Y-43928085D02*
X-13568431Y-43938393D01*
X-13537113Y-43955133D01*
X-13509661Y-43977661D01*
X-13487133Y-44005113D01*
X-13470393Y-44036431D01*
X-13460085Y-44070409D01*
X-13456000Y-44111890D01*
X-13456000Y-44788110D01*
X-13460085Y-44829591D01*
X-13470393Y-44863569D01*
X-13487133Y-44894887D01*
X-13509661Y-44922339D01*
X-13537113Y-44944867D01*
X-13568431Y-44961607D01*
X-13602409Y-44971915D01*
X-13643890Y-44976000D01*
X-14245110Y-44976000D01*
X-14286591Y-44971915D01*
X-14320569Y-44961607D01*
X-14351887Y-44944867D01*
X-14379339Y-44922339D01*
X-14401867Y-44894887D01*
X-14418607Y-44863569D01*
X-14428915Y-44829591D01*
X-14433000Y-44788110D01*
X-14433000Y-44111890D01*
X-14428915Y-44070409D01*
X-14418607Y-44036431D01*
X-14401867Y-44005113D01*
X-14379339Y-43977661D01*
X-14351887Y-43955133D01*
X-14320569Y-43938393D01*
X-14286591Y-43928085D01*
X-14245110Y-43924000D01*
X-13643890Y-43924000D01*
X-13602409Y-43928085D01*
X-13602409Y-43928085D01*
G37*
G36*
X-11314000Y-42093000D02*
X-12476000Y-42093000D01*
X-12476000Y-41341000D01*
X-11314000Y-41341000D01*
X-11314000Y-42093000D01*
X-11314000Y-42093000D01*
G37*
G36*
X-9114000Y-42093000D02*
X-10276000Y-42093000D01*
X-10276000Y-39441000D01*
X-9114000Y-39441000D01*
X-9114000Y-42093000D01*
X-9114000Y-42093000D01*
G37*
G36*
X13706820Y-39301313D02*
X13706823Y-39301314D01*
X13706824Y-39301314D01*
X13867238Y-39349975D01*
X13867240Y-39349976D01*
X13867243Y-39349977D01*
X14015078Y-39428995D01*
X14144659Y-39535341D01*
X14251005Y-39664922D01*
X14330023Y-39812756D01*
X14330023Y-39812757D01*
X14330025Y-39812761D01*
X14366492Y-39932977D01*
X14378687Y-39973179D01*
X14391000Y-40098196D01*
X14391000Y-41181803D01*
X14378687Y-41306821D01*
X14378686Y-41306824D01*
X14378686Y-41306825D01*
X14360360Y-41367239D01*
X14330023Y-41467244D01*
X14251005Y-41615078D01*
X14144659Y-41744659D01*
X14015078Y-41851005D01*
X13867244Y-41930023D01*
X13867241Y-41930024D01*
X13867239Y-41930025D01*
X13706825Y-41978686D01*
X13706824Y-41978686D01*
X13706821Y-41978687D01*
X13540000Y-41995117D01*
X13373180Y-41978687D01*
X13373177Y-41978686D01*
X13373176Y-41978686D01*
X13212762Y-41930025D01*
X13212760Y-41930024D01*
X13212757Y-41930023D01*
X13064923Y-41851005D01*
X12935342Y-41744659D01*
X12828996Y-41615078D01*
X12749978Y-41467244D01*
X12719642Y-41367239D01*
X12701315Y-41306825D01*
X12701315Y-41306824D01*
X12701314Y-41306821D01*
X12689001Y-41181804D01*
X12689000Y-40098197D01*
X12701313Y-39973180D01*
X12701314Y-39973176D01*
X12749975Y-39812762D01*
X12749976Y-39812760D01*
X12749977Y-39812757D01*
X12828995Y-39664922D01*
X12935341Y-39535341D01*
X13064922Y-39428995D01*
X13212756Y-39349977D01*
X13212759Y-39349976D01*
X13212761Y-39349975D01*
X13373175Y-39301314D01*
X13373176Y-39301314D01*
X13373179Y-39301313D01*
X13540000Y-39284883D01*
X13706820Y-39301313D01*
X13706820Y-39301313D01*
G37*
G36*
X-6613180Y-39301313D02*
X-6613177Y-39301314D01*
X-6613176Y-39301314D01*
X-6452762Y-39349975D01*
X-6452760Y-39349976D01*
X-6452757Y-39349977D01*
X-6304922Y-39428995D01*
X-6175341Y-39535341D01*
X-6068995Y-39664922D01*
X-5989977Y-39812756D01*
X-5989977Y-39812757D01*
X-5989975Y-39812761D01*
X-5953508Y-39932977D01*
X-5941313Y-39973179D01*
X-5929000Y-40098196D01*
X-5929000Y-41181803D01*
X-5941313Y-41306821D01*
X-5941314Y-41306824D01*
X-5941314Y-41306825D01*
X-5959640Y-41367239D01*
X-5989977Y-41467244D01*
X-6068995Y-41615078D01*
X-6175341Y-41744659D01*
X-6304922Y-41851005D01*
X-6452756Y-41930023D01*
X-6452759Y-41930024D01*
X-6452761Y-41930025D01*
X-6613175Y-41978686D01*
X-6613176Y-41978686D01*
X-6613179Y-41978687D01*
X-6780000Y-41995117D01*
X-6946820Y-41978687D01*
X-6946823Y-41978686D01*
X-6946824Y-41978686D01*
X-7107238Y-41930025D01*
X-7107240Y-41930024D01*
X-7107243Y-41930023D01*
X-7255077Y-41851005D01*
X-7384658Y-41744659D01*
X-7491004Y-41615078D01*
X-7570022Y-41467244D01*
X-7600358Y-41367239D01*
X-7618685Y-41306825D01*
X-7618685Y-41306824D01*
X-7618686Y-41306821D01*
X-7630999Y-41181804D01*
X-7631000Y-40098197D01*
X-7618687Y-39973180D01*
X-7618686Y-39973176D01*
X-7570025Y-39812762D01*
X-7570024Y-39812760D01*
X-7570023Y-39812757D01*
X-7491005Y-39664922D01*
X-7384659Y-39535341D01*
X-7255078Y-39428995D01*
X-7107244Y-39349977D01*
X-7107241Y-39349976D01*
X-7107239Y-39349975D01*
X-6946825Y-39301314D01*
X-6946824Y-39301314D01*
X-6946821Y-39301313D01*
X-6780000Y-39284883D01*
X-6613180Y-39301313D01*
X-6613180Y-39301313D01*
G37*
G36*
X5397024Y-39300590D02*
X5548011Y-39346392D01*
X5687161Y-39420768D01*
X5722750Y-39449975D01*
X5809133Y-39520867D01*
X5809134Y-39520869D01*
X5809136Y-39520870D01*
X5909230Y-39642835D01*
X5983608Y-39781988D01*
X6029410Y-39932975D01*
X6041000Y-40050654D01*
X6041000Y-41229346D01*
X6029410Y-41347025D01*
X5983608Y-41498012D01*
X5909230Y-41637165D01*
X5809133Y-41759133D01*
X5687165Y-41859230D01*
X5548012Y-41933608D01*
X5397025Y-41979410D01*
X5240000Y-41994875D01*
X5082976Y-41979410D01*
X4931989Y-41933608D01*
X4792836Y-41859230D01*
X4670868Y-41759133D01*
X4570771Y-41637165D01*
X4496393Y-41498012D01*
X4450591Y-41347025D01*
X4439001Y-41229346D01*
X4439000Y-40050655D01*
X4450590Y-39932976D01*
X4496392Y-39781989D01*
X4570768Y-39642839D01*
X4670865Y-39520870D01*
X4670867Y-39520867D01*
X4670869Y-39520866D01*
X4670870Y-39520864D01*
X4792835Y-39420770D01*
X4931988Y-39346392D01*
X5082975Y-39300590D01*
X5240000Y-39285125D01*
X5397024Y-39300590D01*
X5397024Y-39300590D01*
G37*
G36*
X-14922976Y-39300590D02*
X-14771989Y-39346392D01*
X-14632839Y-39420768D01*
X-14597250Y-39449975D01*
X-14510867Y-39520867D01*
X-14510866Y-39520869D01*
X-14510864Y-39520870D01*
X-14410770Y-39642835D01*
X-14336392Y-39781988D01*
X-14290590Y-39932975D01*
X-14279000Y-40050654D01*
X-14279000Y-41229346D01*
X-14290590Y-41347025D01*
X-14336392Y-41498012D01*
X-14410770Y-41637165D01*
X-14510867Y-41759133D01*
X-14632835Y-41859230D01*
X-14771988Y-41933608D01*
X-14922975Y-41979410D01*
X-15080000Y-41994875D01*
X-15237024Y-41979410D01*
X-15388011Y-41933608D01*
X-15527164Y-41859230D01*
X-15649132Y-41759133D01*
X-15749229Y-41637165D01*
X-15823607Y-41498012D01*
X-15869409Y-41347025D01*
X-15880999Y-41229346D01*
X-15881000Y-40050655D01*
X-15869410Y-39932976D01*
X-15823608Y-39781989D01*
X-15749232Y-39642839D01*
X-15649135Y-39520870D01*
X-15649133Y-39520867D01*
X-15649131Y-39520866D01*
X-15649130Y-39520864D01*
X-15527165Y-39420770D01*
X-15388012Y-39346392D01*
X-15237025Y-39300590D01*
X-15080000Y-39285125D01*
X-14922976Y-39300590D01*
X-14922976Y-39300590D01*
G37*
G36*
X9133000Y-41966000D02*
X7971000Y-41966000D01*
X7971000Y-41214000D01*
X9133000Y-41214000D01*
X9133000Y-41966000D01*
X9133000Y-41966000D01*
G37*
G36*
X11333000Y-41966000D02*
X10171000Y-41966000D01*
X10171000Y-39314000D01*
X11333000Y-39314000D01*
X11333000Y-41966000D01*
X11333000Y-41966000D01*
G37*
G36*
X16806820Y-39401313D02*
X16806823Y-39401314D01*
X16806824Y-39401314D01*
X16967238Y-39449975D01*
X16967240Y-39449976D01*
X16967243Y-39449977D01*
X17115078Y-39528995D01*
X17244659Y-39635341D01*
X17351005Y-39764922D01*
X17430023Y-39912756D01*
X17430023Y-39912757D01*
X17430025Y-39912761D01*
X17471855Y-40050656D01*
X17478687Y-40073179D01*
X17491000Y-40198196D01*
X17491000Y-41081803D01*
X17478687Y-41206820D01*
X17478686Y-41206822D01*
X17478686Y-41206825D01*
X17430025Y-41367239D01*
X17430023Y-41367244D01*
X17351005Y-41515078D01*
X17244659Y-41644659D01*
X17115078Y-41751005D01*
X16967244Y-41830023D01*
X16967241Y-41830024D01*
X16967239Y-41830025D01*
X16806825Y-41878686D01*
X16806824Y-41878686D01*
X16806821Y-41878687D01*
X16640000Y-41895117D01*
X16473180Y-41878687D01*
X16473177Y-41878686D01*
X16473176Y-41878686D01*
X16312762Y-41830025D01*
X16312760Y-41830024D01*
X16312757Y-41830023D01*
X16164923Y-41751005D01*
X16035342Y-41644659D01*
X15928996Y-41515078D01*
X15849978Y-41367244D01*
X15843845Y-41347025D01*
X15801315Y-41206825D01*
X15801315Y-41206824D01*
X15801314Y-41206821D01*
X15789000Y-41081803D01*
X15789000Y-40198197D01*
X15801313Y-40073180D01*
X15801314Y-40073176D01*
X15849975Y-39912762D01*
X15849976Y-39912760D01*
X15849977Y-39912757D01*
X15928995Y-39764922D01*
X16035341Y-39635341D01*
X16164922Y-39528995D01*
X16312756Y-39449977D01*
X16312759Y-39449976D01*
X16312761Y-39449975D01*
X16473175Y-39401314D01*
X16473176Y-39401314D01*
X16473179Y-39401313D01*
X16640000Y-39384883D01*
X16806820Y-39401313D01*
X16806820Y-39401313D01*
G37*
G36*
X-3513180Y-39401313D02*
X-3513177Y-39401314D01*
X-3513176Y-39401314D01*
X-3352762Y-39449975D01*
X-3352760Y-39449976D01*
X-3352757Y-39449977D01*
X-3204922Y-39528995D01*
X-3075341Y-39635341D01*
X-2968995Y-39764922D01*
X-2889977Y-39912756D01*
X-2889977Y-39912757D01*
X-2889975Y-39912761D01*
X-2848145Y-40050656D01*
X-2841313Y-40073179D01*
X-2829000Y-40198196D01*
X-2829000Y-41081803D01*
X-2841313Y-41206820D01*
X-2841314Y-41206822D01*
X-2841314Y-41206825D01*
X-2889975Y-41367239D01*
X-2889977Y-41367244D01*
X-2968995Y-41515078D01*
X-3075341Y-41644659D01*
X-3204922Y-41751005D01*
X-3352756Y-41830023D01*
X-3352759Y-41830024D01*
X-3352761Y-41830025D01*
X-3513175Y-41878686D01*
X-3513176Y-41878686D01*
X-3513179Y-41878687D01*
X-3680000Y-41895117D01*
X-3846820Y-41878687D01*
X-3846823Y-41878686D01*
X-3846824Y-41878686D01*
X-4007238Y-41830025D01*
X-4007240Y-41830024D01*
X-4007243Y-41830023D01*
X-4155077Y-41751005D01*
X-4284658Y-41644659D01*
X-4391004Y-41515078D01*
X-4470022Y-41367244D01*
X-4476155Y-41347025D01*
X-4518685Y-41206825D01*
X-4518685Y-41206824D01*
X-4518686Y-41206821D01*
X-4531000Y-41081803D01*
X-4531000Y-40198197D01*
X-4518687Y-40073180D01*
X-4518686Y-40073176D01*
X-4470025Y-39912762D01*
X-4470024Y-39912760D01*
X-4470023Y-39912757D01*
X-4391005Y-39764922D01*
X-4284659Y-39635341D01*
X-4155078Y-39528995D01*
X-4007244Y-39449977D01*
X-4007241Y-39449976D01*
X-4007239Y-39449975D01*
X-3846825Y-39401314D01*
X-3846824Y-39401314D01*
X-3846821Y-39401313D01*
X-3680000Y-39384883D01*
X-3513180Y-39401313D01*
X-3513180Y-39401313D01*
G37*
G36*
X-11314000Y-40193000D02*
X-12476000Y-40193000D01*
X-12476000Y-39441000D01*
X-11314000Y-39441000D01*
X-11314000Y-40193000D01*
X-11314000Y-40193000D01*
G37*
G36*
X9133000Y-40066000D02*
X7971000Y-40066000D01*
X7971000Y-39314000D01*
X9133000Y-39314000D01*
X9133000Y-40066000D01*
X9133000Y-40066000D01*
G37*
G36*
X16318000Y-36511000D02*
X14416000Y-36511000D01*
X14416000Y-34609000D01*
X16318000Y-34609000D01*
X16318000Y-36511000D01*
X16318000Y-36511000D01*
G37*
G36*
X18184396Y-34645546D02*
X18357466Y-34717234D01*
X18513230Y-34821312D01*
X18645688Y-34953770D01*
X18749766Y-35109534D01*
X18821454Y-35282604D01*
X18858000Y-35466333D01*
X18858000Y-35653667D01*
X18821454Y-35837396D01*
X18749766Y-36010466D01*
X18645688Y-36166230D01*
X18513230Y-36298688D01*
X18357466Y-36402766D01*
X18184396Y-36474454D01*
X18000667Y-36511000D01*
X17813333Y-36511000D01*
X17629604Y-36474454D01*
X17456534Y-36402766D01*
X17300770Y-36298688D01*
X17168312Y-36166230D01*
X17064234Y-36010466D01*
X16992546Y-35837396D01*
X16956000Y-35653667D01*
X16956000Y-35466333D01*
X16992546Y-35282604D01*
X17064234Y-35109534D01*
X17168312Y-34953770D01*
X17300770Y-34821312D01*
X17456534Y-34717234D01*
X17629604Y-34645546D01*
X17813333Y-34609000D01*
X18000667Y-34609000D01*
X18184396Y-34645546D01*
X18184396Y-34645546D01*
G37*
G36*
X-2135604Y-34645546D02*
X-1962534Y-34717234D01*
X-1806770Y-34821312D01*
X-1674312Y-34953770D01*
X-1570234Y-35109534D01*
X-1498546Y-35282604D01*
X-1462000Y-35466333D01*
X-1462000Y-35653667D01*
X-1498546Y-35837396D01*
X-1570234Y-36010466D01*
X-1674312Y-36166230D01*
X-1806770Y-36298688D01*
X-1962534Y-36402766D01*
X-2135604Y-36474454D01*
X-2319333Y-36511000D01*
X-2506667Y-36511000D01*
X-2690396Y-36474454D01*
X-2863466Y-36402766D01*
X-3019230Y-36298688D01*
X-3151688Y-36166230D01*
X-3255766Y-36010466D01*
X-3327454Y-35837396D01*
X-3364000Y-35653667D01*
X-3364000Y-35466333D01*
X-3327454Y-35282604D01*
X-3255766Y-35109534D01*
X-3151688Y-34953770D01*
X-3019230Y-34821312D01*
X-2863466Y-34717234D01*
X-2690396Y-34645546D01*
X-2506667Y-34609000D01*
X-2319333Y-34609000D01*
X-2135604Y-34645546D01*
X-2135604Y-34645546D01*
G37*
G36*
X-4002000Y-36511000D02*
X-5904000Y-36511000D01*
X-5904000Y-34609000D01*
X-4002000Y-34609000D01*
X-4002000Y-36511000D01*
X-4002000Y-36511000D01*
G37*
G36*
X-13602409Y-30339085D02*
X-13568431Y-30349393D01*
X-13537113Y-30366133D01*
X-13509661Y-30388661D01*
X-13487133Y-30416113D01*
X-13470393Y-30447431D01*
X-13460085Y-30481409D01*
X-13456000Y-30522890D01*
X-13456000Y-31199110D01*
X-13460085Y-31240591D01*
X-13470393Y-31274569D01*
X-13487133Y-31305887D01*
X-13509661Y-31333339D01*
X-13537113Y-31355867D01*
X-13568431Y-31372607D01*
X-13602409Y-31382915D01*
X-13643890Y-31387000D01*
X-14245110Y-31387000D01*
X-14286591Y-31382915D01*
X-14320569Y-31372607D01*
X-14351887Y-31355867D01*
X-14379339Y-31333339D01*
X-14401867Y-31305887D01*
X-14418607Y-31274569D01*
X-14428915Y-31240591D01*
X-14433000Y-31199110D01*
X-14433000Y-30522890D01*
X-14428915Y-30481409D01*
X-14418607Y-30447431D01*
X-14401867Y-30416113D01*
X-14379339Y-30388661D01*
X-14351887Y-30366133D01*
X-14320569Y-30349393D01*
X-14286591Y-30339085D01*
X-14245110Y-30335000D01*
X-13643890Y-30335000D01*
X-13602409Y-30339085D01*
X-13602409Y-30339085D01*
G37*
G36*
X-5982409Y-30339085D02*
X-5948431Y-30349393D01*
X-5917113Y-30366133D01*
X-5889661Y-30388661D01*
X-5867133Y-30416113D01*
X-5850393Y-30447431D01*
X-5840085Y-30481409D01*
X-5836000Y-30522890D01*
X-5836000Y-31199110D01*
X-5840085Y-31240591D01*
X-5850393Y-31274569D01*
X-5867133Y-31305887D01*
X-5889661Y-31333339D01*
X-5917113Y-31355867D01*
X-5948431Y-31372607D01*
X-5982409Y-31382915D01*
X-6023890Y-31387000D01*
X-6625110Y-31387000D01*
X-6666591Y-31382915D01*
X-6700569Y-31372607D01*
X-6731887Y-31355867D01*
X-6759339Y-31333339D01*
X-6781867Y-31305887D01*
X-6798607Y-31274569D01*
X-6808915Y-31240591D01*
X-6813000Y-31199110D01*
X-6813000Y-30522890D01*
X-6808915Y-30481409D01*
X-6798607Y-30447431D01*
X-6781867Y-30416113D01*
X-6759339Y-30388661D01*
X-6731887Y-30366133D01*
X-6700569Y-30349393D01*
X-6666591Y-30339085D01*
X-6625110Y-30335000D01*
X-6023890Y-30335000D01*
X-5982409Y-30339085D01*
X-5982409Y-30339085D01*
G37*
G36*
X-7557409Y-30339085D02*
X-7523431Y-30349393D01*
X-7492113Y-30366133D01*
X-7464661Y-30388661D01*
X-7442133Y-30416113D01*
X-7425393Y-30447431D01*
X-7415085Y-30481409D01*
X-7411000Y-30522890D01*
X-7411000Y-31199110D01*
X-7415085Y-31240591D01*
X-7425393Y-31274569D01*
X-7442133Y-31305887D01*
X-7464661Y-31333339D01*
X-7492113Y-31355867D01*
X-7523431Y-31372607D01*
X-7557409Y-31382915D01*
X-7598890Y-31387000D01*
X-8200110Y-31387000D01*
X-8241591Y-31382915D01*
X-8275569Y-31372607D01*
X-8306887Y-31355867D01*
X-8334339Y-31333339D01*
X-8356867Y-31305887D01*
X-8373607Y-31274569D01*
X-8383915Y-31240591D01*
X-8388000Y-31199110D01*
X-8388000Y-30522890D01*
X-8383915Y-30481409D01*
X-8373607Y-30447431D01*
X-8356867Y-30416113D01*
X-8334339Y-30388661D01*
X-8306887Y-30366133D01*
X-8275569Y-30349393D01*
X-8241591Y-30339085D01*
X-8200110Y-30335000D01*
X-7598890Y-30335000D01*
X-7557409Y-30339085D01*
X-7557409Y-30339085D01*
G37*
G36*
X-15177409Y-30339085D02*
X-15143431Y-30349393D01*
X-15112113Y-30366133D01*
X-15084661Y-30388661D01*
X-15062133Y-30416113D01*
X-15045393Y-30447431D01*
X-15035085Y-30481409D01*
X-15031000Y-30522890D01*
X-15031000Y-31199110D01*
X-15035085Y-31240591D01*
X-15045393Y-31274569D01*
X-15062133Y-31305887D01*
X-15084661Y-31333339D01*
X-15112113Y-31355867D01*
X-15143431Y-31372607D01*
X-15177409Y-31382915D01*
X-15218890Y-31387000D01*
X-15820110Y-31387000D01*
X-15861591Y-31382915D01*
X-15895569Y-31372607D01*
X-15926887Y-31355867D01*
X-15954339Y-31333339D01*
X-15976867Y-31305887D01*
X-15993607Y-31274569D01*
X-16003915Y-31240591D01*
X-16008000Y-31199110D01*
X-16008000Y-30522890D01*
X-16003915Y-30481409D01*
X-15993607Y-30447431D01*
X-15976867Y-30416113D01*
X-15954339Y-30388661D01*
X-15926887Y-30366133D01*
X-15895569Y-30349393D01*
X-15861591Y-30339085D01*
X-15820110Y-30335000D01*
X-15218890Y-30335000D01*
X-15177409Y-30339085D01*
X-15177409Y-30339085D01*
G37*
G36*
X5269591Y-30339085D02*
X5303569Y-30349393D01*
X5334887Y-30366133D01*
X5362339Y-30388661D01*
X5384867Y-30416113D01*
X5401607Y-30447431D01*
X5411915Y-30481409D01*
X5416000Y-30522890D01*
X5416000Y-31199110D01*
X5411915Y-31240591D01*
X5401607Y-31274569D01*
X5384867Y-31305887D01*
X5362339Y-31333339D01*
X5334887Y-31355867D01*
X5303569Y-31372607D01*
X5269591Y-31382915D01*
X5228110Y-31387000D01*
X4626890Y-31387000D01*
X4585409Y-31382915D01*
X4551431Y-31372607D01*
X4520113Y-31355867D01*
X4492661Y-31333339D01*
X4470133Y-31305887D01*
X4453393Y-31274569D01*
X4443085Y-31240591D01*
X4439000Y-31199110D01*
X4439000Y-30522890D01*
X4443085Y-30481409D01*
X4453393Y-30447431D01*
X4470133Y-30416113D01*
X4492661Y-30388661D01*
X4520113Y-30366133D01*
X4551431Y-30349393D01*
X4585409Y-30339085D01*
X4626890Y-30335000D01*
X5228110Y-30335000D01*
X5269591Y-30339085D01*
X5269591Y-30339085D01*
G37*
G36*
X6844591Y-30339085D02*
X6878569Y-30349393D01*
X6909887Y-30366133D01*
X6937339Y-30388661D01*
X6959867Y-30416113D01*
X6976607Y-30447431D01*
X6986915Y-30481409D01*
X6991000Y-30522890D01*
X6991000Y-31199110D01*
X6986915Y-31240591D01*
X6976607Y-31274569D01*
X6959867Y-31305887D01*
X6937339Y-31333339D01*
X6909887Y-31355867D01*
X6878569Y-31372607D01*
X6844591Y-31382915D01*
X6803110Y-31387000D01*
X6201890Y-31387000D01*
X6160409Y-31382915D01*
X6126431Y-31372607D01*
X6095113Y-31355867D01*
X6067661Y-31333339D01*
X6045133Y-31305887D01*
X6028393Y-31274569D01*
X6018085Y-31240591D01*
X6014000Y-31199110D01*
X6014000Y-30522890D01*
X6018085Y-30481409D01*
X6028393Y-30447431D01*
X6045133Y-30416113D01*
X6067661Y-30388661D01*
X6095113Y-30366133D01*
X6126431Y-30349393D01*
X6160409Y-30339085D01*
X6201890Y-30335000D01*
X6803110Y-30335000D01*
X6844591Y-30339085D01*
X6844591Y-30339085D01*
G37*
G36*
X12762591Y-30339085D02*
X12796569Y-30349393D01*
X12827887Y-30366133D01*
X12855339Y-30388661D01*
X12877867Y-30416113D01*
X12894607Y-30447431D01*
X12904915Y-30481409D01*
X12909000Y-30522890D01*
X12909000Y-31199110D01*
X12904915Y-31240591D01*
X12894607Y-31274569D01*
X12877867Y-31305887D01*
X12855339Y-31333339D01*
X12827887Y-31355867D01*
X12796569Y-31372607D01*
X12762591Y-31382915D01*
X12721110Y-31387000D01*
X12119890Y-31387000D01*
X12078409Y-31382915D01*
X12044431Y-31372607D01*
X12013113Y-31355867D01*
X11985661Y-31333339D01*
X11963133Y-31305887D01*
X11946393Y-31274569D01*
X11936085Y-31240591D01*
X11932000Y-31199110D01*
X11932000Y-30522890D01*
X11936085Y-30481409D01*
X11946393Y-30447431D01*
X11963133Y-30416113D01*
X11985661Y-30388661D01*
X12013113Y-30366133D01*
X12044431Y-30349393D01*
X12078409Y-30339085D01*
X12119890Y-30335000D01*
X12721110Y-30335000D01*
X12762591Y-30339085D01*
X12762591Y-30339085D01*
G37*
G36*
X14337591Y-30339085D02*
X14371569Y-30349393D01*
X14402887Y-30366133D01*
X14430339Y-30388661D01*
X14452867Y-30416113D01*
X14469607Y-30447431D01*
X14479915Y-30481409D01*
X14484000Y-30522890D01*
X14484000Y-31199110D01*
X14479915Y-31240591D01*
X14469607Y-31274569D01*
X14452867Y-31305887D01*
X14430339Y-31333339D01*
X14402887Y-31355867D01*
X14371569Y-31372607D01*
X14337591Y-31382915D01*
X14296110Y-31387000D01*
X13694890Y-31387000D01*
X13653409Y-31382915D01*
X13619431Y-31372607D01*
X13588113Y-31355867D01*
X13560661Y-31333339D01*
X13538133Y-31305887D01*
X13521393Y-31274569D01*
X13511085Y-31240591D01*
X13507000Y-31199110D01*
X13507000Y-30522890D01*
X13511085Y-30481409D01*
X13521393Y-30447431D01*
X13538133Y-30416113D01*
X13560661Y-30388661D01*
X13588113Y-30366133D01*
X13619431Y-30349393D01*
X13653409Y-30339085D01*
X13694890Y-30335000D01*
X14296110Y-30335000D01*
X14337591Y-30339085D01*
X14337591Y-30339085D01*
G37*
G36*
X9133000Y-28504000D02*
X7971000Y-28504000D01*
X7971000Y-27752000D01*
X9133000Y-27752000D01*
X9133000Y-28504000D01*
X9133000Y-28504000D01*
G37*
G36*
X11333000Y-28504000D02*
X10171000Y-28504000D01*
X10171000Y-25852000D01*
X11333000Y-25852000D01*
X11333000Y-28504000D01*
X11333000Y-28504000D01*
G37*
G36*
X-11314000Y-28504000D02*
X-12476000Y-28504000D01*
X-12476000Y-27752000D01*
X-11314000Y-27752000D01*
X-11314000Y-28504000D01*
X-11314000Y-28504000D01*
G37*
G36*
X-9114000Y-28504000D02*
X-10276000Y-28504000D01*
X-10276000Y-25852000D01*
X-9114000Y-25852000D01*
X-9114000Y-28504000D01*
X-9114000Y-28504000D01*
G37*
G36*
X13706820Y-25712313D02*
X13706823Y-25712314D01*
X13706824Y-25712314D01*
X13867238Y-25760975D01*
X13867240Y-25760976D01*
X13867243Y-25760977D01*
X14015078Y-25839995D01*
X14144659Y-25946341D01*
X14251005Y-26075922D01*
X14330023Y-26223756D01*
X14330023Y-26223757D01*
X14330025Y-26223761D01*
X14366492Y-26343977D01*
X14378687Y-26384179D01*
X14391000Y-26509196D01*
X14391000Y-27592803D01*
X14378687Y-27717821D01*
X14378686Y-27717824D01*
X14378686Y-27717825D01*
X14360360Y-27778239D01*
X14330023Y-27878244D01*
X14251005Y-28026078D01*
X14144659Y-28155659D01*
X14015078Y-28262005D01*
X13867244Y-28341023D01*
X13867241Y-28341024D01*
X13867239Y-28341025D01*
X13706825Y-28389686D01*
X13706824Y-28389686D01*
X13706821Y-28389687D01*
X13540000Y-28406117D01*
X13373180Y-28389687D01*
X13373177Y-28389686D01*
X13373176Y-28389686D01*
X13212762Y-28341025D01*
X13212760Y-28341024D01*
X13212757Y-28341023D01*
X13064923Y-28262005D01*
X12935342Y-28155659D01*
X12828996Y-28026078D01*
X12749978Y-27878244D01*
X12719642Y-27778239D01*
X12701315Y-27717825D01*
X12701315Y-27717824D01*
X12701314Y-27717821D01*
X12689001Y-27592804D01*
X12689000Y-26509197D01*
X12701313Y-26384180D01*
X12701314Y-26384176D01*
X12749975Y-26223762D01*
X12749976Y-26223760D01*
X12749977Y-26223757D01*
X12828995Y-26075922D01*
X12935341Y-25946341D01*
X13064922Y-25839995D01*
X13212756Y-25760977D01*
X13212759Y-25760976D01*
X13212761Y-25760975D01*
X13373175Y-25712314D01*
X13373176Y-25712314D01*
X13373179Y-25712313D01*
X13540000Y-25695883D01*
X13706820Y-25712313D01*
X13706820Y-25712313D01*
G37*
G36*
X-6613180Y-25712313D02*
X-6613177Y-25712314D01*
X-6613176Y-25712314D01*
X-6452762Y-25760975D01*
X-6452760Y-25760976D01*
X-6452757Y-25760977D01*
X-6304922Y-25839995D01*
X-6175341Y-25946341D01*
X-6068995Y-26075922D01*
X-5989977Y-26223756D01*
X-5989977Y-26223757D01*
X-5989975Y-26223761D01*
X-5953508Y-26343977D01*
X-5941313Y-26384179D01*
X-5929000Y-26509196D01*
X-5929000Y-27592803D01*
X-5941313Y-27717821D01*
X-5941314Y-27717824D01*
X-5941314Y-27717825D01*
X-5959640Y-27778239D01*
X-5989977Y-27878244D01*
X-6068995Y-28026078D01*
X-6175341Y-28155659D01*
X-6304922Y-28262005D01*
X-6452756Y-28341023D01*
X-6452759Y-28341024D01*
X-6452761Y-28341025D01*
X-6613175Y-28389686D01*
X-6613176Y-28389686D01*
X-6613179Y-28389687D01*
X-6780000Y-28406117D01*
X-6946820Y-28389687D01*
X-6946823Y-28389686D01*
X-6946824Y-28389686D01*
X-7107238Y-28341025D01*
X-7107240Y-28341024D01*
X-7107243Y-28341023D01*
X-7255077Y-28262005D01*
X-7384658Y-28155659D01*
X-7491004Y-28026078D01*
X-7570022Y-27878244D01*
X-7600358Y-27778239D01*
X-7618685Y-27717825D01*
X-7618685Y-27717824D01*
X-7618686Y-27717821D01*
X-7630999Y-27592804D01*
X-7631000Y-26509197D01*
X-7618687Y-26384180D01*
X-7618686Y-26384176D01*
X-7570025Y-26223762D01*
X-7570024Y-26223760D01*
X-7570023Y-26223757D01*
X-7491005Y-26075922D01*
X-7384659Y-25946341D01*
X-7255078Y-25839995D01*
X-7107244Y-25760977D01*
X-7107241Y-25760976D01*
X-7107239Y-25760975D01*
X-6946825Y-25712314D01*
X-6946824Y-25712314D01*
X-6946821Y-25712313D01*
X-6780000Y-25695883D01*
X-6613180Y-25712313D01*
X-6613180Y-25712313D01*
G37*
G36*
X5397024Y-25711590D02*
X5548011Y-25757392D01*
X5687161Y-25831768D01*
X5722750Y-25860975D01*
X5809133Y-25931867D01*
X5809134Y-25931869D01*
X5809136Y-25931870D01*
X5909230Y-26053835D01*
X5983608Y-26192988D01*
X6029410Y-26343975D01*
X6041000Y-26461654D01*
X6041000Y-27640346D01*
X6029410Y-27758025D01*
X5983608Y-27909012D01*
X5909230Y-28048165D01*
X5809133Y-28170133D01*
X5687165Y-28270230D01*
X5548012Y-28344608D01*
X5397025Y-28390410D01*
X5240000Y-28405875D01*
X5082976Y-28390410D01*
X4931989Y-28344608D01*
X4792836Y-28270230D01*
X4670868Y-28170133D01*
X4570771Y-28048165D01*
X4496393Y-27909012D01*
X4450591Y-27758025D01*
X4439001Y-27640346D01*
X4439000Y-26461655D01*
X4450590Y-26343976D01*
X4496392Y-26192989D01*
X4570768Y-26053839D01*
X4670865Y-25931870D01*
X4670867Y-25931867D01*
X4670869Y-25931866D01*
X4670870Y-25931864D01*
X4792835Y-25831770D01*
X4931988Y-25757392D01*
X5082975Y-25711590D01*
X5240000Y-25696125D01*
X5397024Y-25711590D01*
X5397024Y-25711590D01*
G37*
G36*
X-14922976Y-25711590D02*
X-14771989Y-25757392D01*
X-14632839Y-25831768D01*
X-14597250Y-25860975D01*
X-14510867Y-25931867D01*
X-14510866Y-25931869D01*
X-14510864Y-25931870D01*
X-14410770Y-26053835D01*
X-14336392Y-26192988D01*
X-14290590Y-26343975D01*
X-14279000Y-26461654D01*
X-14279000Y-27640346D01*
X-14290590Y-27758025D01*
X-14336392Y-27909012D01*
X-14410770Y-28048165D01*
X-14510867Y-28170133D01*
X-14632835Y-28270230D01*
X-14771988Y-28344608D01*
X-14922975Y-28390410D01*
X-15080000Y-28405875D01*
X-15237024Y-28390410D01*
X-15388011Y-28344608D01*
X-15527164Y-28270230D01*
X-15649132Y-28170133D01*
X-15749229Y-28048165D01*
X-15823607Y-27909012D01*
X-15869409Y-27758025D01*
X-15880999Y-27640346D01*
X-15881000Y-26461655D01*
X-15869410Y-26343976D01*
X-15823608Y-26192989D01*
X-15749232Y-26053839D01*
X-15649135Y-25931870D01*
X-15649133Y-25931867D01*
X-15649131Y-25931866D01*
X-15649130Y-25931864D01*
X-15527165Y-25831770D01*
X-15388012Y-25757392D01*
X-15237025Y-25711590D01*
X-15080000Y-25696125D01*
X-14922976Y-25711590D01*
X-14922976Y-25711590D01*
G37*
G36*
X16806820Y-25812313D02*
X16806823Y-25812314D01*
X16806824Y-25812314D01*
X16967238Y-25860975D01*
X16967240Y-25860976D01*
X16967243Y-25860977D01*
X17115078Y-25939995D01*
X17244659Y-26046341D01*
X17351005Y-26175922D01*
X17430023Y-26323756D01*
X17430023Y-26323757D01*
X17430025Y-26323761D01*
X17471855Y-26461656D01*
X17478687Y-26484179D01*
X17491000Y-26609196D01*
X17491000Y-27492803D01*
X17478687Y-27617820D01*
X17478686Y-27617822D01*
X17478686Y-27617825D01*
X17430025Y-27778239D01*
X17430023Y-27778244D01*
X17351005Y-27926078D01*
X17244659Y-28055659D01*
X17115078Y-28162005D01*
X16967244Y-28241023D01*
X16967241Y-28241024D01*
X16967239Y-28241025D01*
X16806825Y-28289686D01*
X16806824Y-28289686D01*
X16806821Y-28289687D01*
X16640000Y-28306117D01*
X16473180Y-28289687D01*
X16473177Y-28289686D01*
X16473176Y-28289686D01*
X16312762Y-28241025D01*
X16312760Y-28241024D01*
X16312757Y-28241023D01*
X16164923Y-28162005D01*
X16035342Y-28055659D01*
X15928996Y-27926078D01*
X15849978Y-27778244D01*
X15843845Y-27758025D01*
X15801315Y-27617825D01*
X15801315Y-27617824D01*
X15801314Y-27617821D01*
X15789000Y-27492803D01*
X15789000Y-26609197D01*
X15801313Y-26484180D01*
X15801314Y-26484176D01*
X15849975Y-26323762D01*
X15849976Y-26323760D01*
X15849977Y-26323757D01*
X15928995Y-26175922D01*
X16035341Y-26046341D01*
X16164922Y-25939995D01*
X16312756Y-25860977D01*
X16312759Y-25860976D01*
X16312761Y-25860975D01*
X16473175Y-25812314D01*
X16473176Y-25812314D01*
X16473179Y-25812313D01*
X16640000Y-25795883D01*
X16806820Y-25812313D01*
X16806820Y-25812313D01*
G37*
G36*
X-3513180Y-25812313D02*
X-3513177Y-25812314D01*
X-3513176Y-25812314D01*
X-3352762Y-25860975D01*
X-3352760Y-25860976D01*
X-3352757Y-25860977D01*
X-3204922Y-25939995D01*
X-3075341Y-26046341D01*
X-2968995Y-26175922D01*
X-2889977Y-26323756D01*
X-2889977Y-26323757D01*
X-2889975Y-26323761D01*
X-2848145Y-26461656D01*
X-2841313Y-26484179D01*
X-2829000Y-26609196D01*
X-2829000Y-27492803D01*
X-2841313Y-27617820D01*
X-2841314Y-27617822D01*
X-2841314Y-27617825D01*
X-2889975Y-27778239D01*
X-2889977Y-27778244D01*
X-2968995Y-27926078D01*
X-3075341Y-28055659D01*
X-3204922Y-28162005D01*
X-3352756Y-28241023D01*
X-3352759Y-28241024D01*
X-3352761Y-28241025D01*
X-3513175Y-28289686D01*
X-3513176Y-28289686D01*
X-3513179Y-28289687D01*
X-3680000Y-28306117D01*
X-3846820Y-28289687D01*
X-3846823Y-28289686D01*
X-3846824Y-28289686D01*
X-4007238Y-28241025D01*
X-4007240Y-28241024D01*
X-4007243Y-28241023D01*
X-4155077Y-28162005D01*
X-4284658Y-28055659D01*
X-4391004Y-27926078D01*
X-4470022Y-27778244D01*
X-4476155Y-27758025D01*
X-4518685Y-27617825D01*
X-4518685Y-27617824D01*
X-4518686Y-27617821D01*
X-4531000Y-27492803D01*
X-4531000Y-26609197D01*
X-4518687Y-26484180D01*
X-4518686Y-26484176D01*
X-4470025Y-26323762D01*
X-4470024Y-26323760D01*
X-4470023Y-26323757D01*
X-4391005Y-26175922D01*
X-4284659Y-26046341D01*
X-4155078Y-25939995D01*
X-4007244Y-25860977D01*
X-4007241Y-25860976D01*
X-4007239Y-25860975D01*
X-3846825Y-25812314D01*
X-3846824Y-25812314D01*
X-3846821Y-25812313D01*
X-3680000Y-25795883D01*
X-3513180Y-25812313D01*
X-3513180Y-25812313D01*
G37*
G36*
X-11314000Y-26604000D02*
X-12476000Y-26604000D01*
X-12476000Y-25852000D01*
X-11314000Y-25852000D01*
X-11314000Y-26604000D01*
X-11314000Y-26604000D01*
G37*
G36*
X9133000Y-26604000D02*
X7971000Y-26604000D01*
X7971000Y-25852000D01*
X9133000Y-25852000D01*
X9133000Y-26604000D01*
X9133000Y-26604000D01*
G37*
G36*
X16318000Y-22922000D02*
X14416000Y-22922000D01*
X14416000Y-21020000D01*
X16318000Y-21020000D01*
X16318000Y-22922000D01*
X16318000Y-22922000D01*
G37*
G36*
X-4002000Y-22922000D02*
X-5904000Y-22922000D01*
X-5904000Y-21020000D01*
X-4002000Y-21020000D01*
X-4002000Y-22922000D01*
X-4002000Y-22922000D01*
G37*
G36*
X-2135604Y-21056546D02*
X-1962534Y-21128234D01*
X-1806770Y-21232312D01*
X-1674312Y-21364770D01*
X-1570234Y-21520534D01*
X-1498546Y-21693604D01*
X-1462000Y-21877333D01*
X-1462000Y-22064667D01*
X-1498546Y-22248396D01*
X-1570234Y-22421466D01*
X-1674312Y-22577230D01*
X-1806770Y-22709688D01*
X-1962534Y-22813766D01*
X-2135604Y-22885454D01*
X-2319333Y-22922000D01*
X-2506667Y-22922000D01*
X-2690396Y-22885454D01*
X-2863466Y-22813766D01*
X-3019230Y-22709688D01*
X-3151688Y-22577230D01*
X-3255766Y-22421466D01*
X-3327454Y-22248396D01*
X-3364000Y-22064667D01*
X-3364000Y-21877333D01*
X-3327454Y-21693604D01*
X-3255766Y-21520534D01*
X-3151688Y-21364770D01*
X-3019230Y-21232312D01*
X-2863466Y-21128234D01*
X-2690396Y-21056546D01*
X-2506667Y-21020000D01*
X-2319333Y-21020000D01*
X-2135604Y-21056546D01*
X-2135604Y-21056546D01*
G37*
G36*
X18184396Y-21056546D02*
X18357466Y-21128234D01*
X18513230Y-21232312D01*
X18645688Y-21364770D01*
X18749766Y-21520534D01*
X18821454Y-21693604D01*
X18858000Y-21877333D01*
X18858000Y-22064667D01*
X18821454Y-22248396D01*
X18749766Y-22421466D01*
X18645688Y-22577230D01*
X18513230Y-22709688D01*
X18357466Y-22813766D01*
X18184396Y-22885454D01*
X18000667Y-22922000D01*
X17813333Y-22922000D01*
X17629604Y-22885454D01*
X17456534Y-22813766D01*
X17300770Y-22709688D01*
X17168312Y-22577230D01*
X17064234Y-22421466D01*
X16992546Y-22248396D01*
X16956000Y-22064667D01*
X16956000Y-21877333D01*
X16992546Y-21693604D01*
X17064234Y-21520534D01*
X17168312Y-21364770D01*
X17300770Y-21232312D01*
X17456534Y-21128234D01*
X17629604Y-21056546D01*
X17813333Y-21020000D01*
X18000667Y-21020000D01*
X18184396Y-21056546D01*
X18184396Y-21056546D01*
G37*
G36*
X12762591Y-16750085D02*
X12796569Y-16760393D01*
X12827887Y-16777133D01*
X12855339Y-16799661D01*
X12877867Y-16827113D01*
X12894607Y-16858431D01*
X12904915Y-16892409D01*
X12909000Y-16933890D01*
X12909000Y-17610110D01*
X12904915Y-17651591D01*
X12894607Y-17685569D01*
X12877867Y-17716887D01*
X12855339Y-17744339D01*
X12827887Y-17766867D01*
X12796569Y-17783607D01*
X12762591Y-17793915D01*
X12721110Y-17798000D01*
X12119890Y-17798000D01*
X12078409Y-17793915D01*
X12044431Y-17783607D01*
X12013113Y-17766867D01*
X11985661Y-17744339D01*
X11963133Y-17716887D01*
X11946393Y-17685569D01*
X11936085Y-17651591D01*
X11932000Y-17610110D01*
X11932000Y-16933890D01*
X11936085Y-16892409D01*
X11946393Y-16858431D01*
X11963133Y-16827113D01*
X11985661Y-16799661D01*
X12013113Y-16777133D01*
X12044431Y-16760393D01*
X12078409Y-16750085D01*
X12119890Y-16746000D01*
X12721110Y-16746000D01*
X12762591Y-16750085D01*
X12762591Y-16750085D01*
G37*
G36*
X5269591Y-16750085D02*
X5303569Y-16760393D01*
X5334887Y-16777133D01*
X5362339Y-16799661D01*
X5384867Y-16827113D01*
X5401607Y-16858431D01*
X5411915Y-16892409D01*
X5416000Y-16933890D01*
X5416000Y-17610110D01*
X5411915Y-17651591D01*
X5401607Y-17685569D01*
X5384867Y-17716887D01*
X5362339Y-17744339D01*
X5334887Y-17766867D01*
X5303569Y-17783607D01*
X5269591Y-17793915D01*
X5228110Y-17798000D01*
X4626890Y-17798000D01*
X4585409Y-17793915D01*
X4551431Y-17783607D01*
X4520113Y-17766867D01*
X4492661Y-17744339D01*
X4470133Y-17716887D01*
X4453393Y-17685569D01*
X4443085Y-17651591D01*
X4439000Y-17610110D01*
X4439000Y-16933890D01*
X4443085Y-16892409D01*
X4453393Y-16858431D01*
X4470133Y-16827113D01*
X4492661Y-16799661D01*
X4520113Y-16777133D01*
X4551431Y-16760393D01*
X4585409Y-16750085D01*
X4626890Y-16746000D01*
X5228110Y-16746000D01*
X5269591Y-16750085D01*
X5269591Y-16750085D01*
G37*
G36*
X-15177409Y-16750085D02*
X-15143431Y-16760393D01*
X-15112113Y-16777133D01*
X-15084661Y-16799661D01*
X-15062133Y-16827113D01*
X-15045393Y-16858431D01*
X-15035085Y-16892409D01*
X-15031000Y-16933890D01*
X-15031000Y-17610110D01*
X-15035085Y-17651591D01*
X-15045393Y-17685569D01*
X-15062133Y-17716887D01*
X-15084661Y-17744339D01*
X-15112113Y-17766867D01*
X-15143431Y-17783607D01*
X-15177409Y-17793915D01*
X-15218890Y-17798000D01*
X-15820110Y-17798000D01*
X-15861591Y-17793915D01*
X-15895569Y-17783607D01*
X-15926887Y-17766867D01*
X-15954339Y-17744339D01*
X-15976867Y-17716887D01*
X-15993607Y-17685569D01*
X-16003915Y-17651591D01*
X-16008000Y-17610110D01*
X-16008000Y-16933890D01*
X-16003915Y-16892409D01*
X-15993607Y-16858431D01*
X-15976867Y-16827113D01*
X-15954339Y-16799661D01*
X-15926887Y-16777133D01*
X-15895569Y-16760393D01*
X-15861591Y-16750085D01*
X-15820110Y-16746000D01*
X-15218890Y-16746000D01*
X-15177409Y-16750085D01*
X-15177409Y-16750085D01*
G37*
G36*
X-13602409Y-16750085D02*
X-13568431Y-16760393D01*
X-13537113Y-16777133D01*
X-13509661Y-16799661D01*
X-13487133Y-16827113D01*
X-13470393Y-16858431D01*
X-13460085Y-16892409D01*
X-13456000Y-16933890D01*
X-13456000Y-17610110D01*
X-13460085Y-17651591D01*
X-13470393Y-17685569D01*
X-13487133Y-17716887D01*
X-13509661Y-17744339D01*
X-13537113Y-17766867D01*
X-13568431Y-17783607D01*
X-13602409Y-17793915D01*
X-13643890Y-17798000D01*
X-14245110Y-17798000D01*
X-14286591Y-17793915D01*
X-14320569Y-17783607D01*
X-14351887Y-17766867D01*
X-14379339Y-17744339D01*
X-14401867Y-17716887D01*
X-14418607Y-17685569D01*
X-14428915Y-17651591D01*
X-14433000Y-17610110D01*
X-14433000Y-16933890D01*
X-14428915Y-16892409D01*
X-14418607Y-16858431D01*
X-14401867Y-16827113D01*
X-14379339Y-16799661D01*
X-14351887Y-16777133D01*
X-14320569Y-16760393D01*
X-14286591Y-16750085D01*
X-14245110Y-16746000D01*
X-13643890Y-16746000D01*
X-13602409Y-16750085D01*
X-13602409Y-16750085D01*
G37*
G36*
X-5982409Y-16750085D02*
X-5948431Y-16760393D01*
X-5917113Y-16777133D01*
X-5889661Y-16799661D01*
X-5867133Y-16827113D01*
X-5850393Y-16858431D01*
X-5840085Y-16892409D01*
X-5836000Y-16933890D01*
X-5836000Y-17610110D01*
X-5840085Y-17651591D01*
X-5850393Y-17685569D01*
X-5867133Y-17716887D01*
X-5889661Y-17744339D01*
X-5917113Y-17766867D01*
X-5948431Y-17783607D01*
X-5982409Y-17793915D01*
X-6023890Y-17798000D01*
X-6625110Y-17798000D01*
X-6666591Y-17793915D01*
X-6700569Y-17783607D01*
X-6731887Y-17766867D01*
X-6759339Y-17744339D01*
X-6781867Y-17716887D01*
X-6798607Y-17685569D01*
X-6808915Y-17651591D01*
X-6813000Y-17610110D01*
X-6813000Y-16933890D01*
X-6808915Y-16892409D01*
X-6798607Y-16858431D01*
X-6781867Y-16827113D01*
X-6759339Y-16799661D01*
X-6731887Y-16777133D01*
X-6700569Y-16760393D01*
X-6666591Y-16750085D01*
X-6625110Y-16746000D01*
X-6023890Y-16746000D01*
X-5982409Y-16750085D01*
X-5982409Y-16750085D01*
G37*
G36*
X14337591Y-16750085D02*
X14371569Y-16760393D01*
X14402887Y-16777133D01*
X14430339Y-16799661D01*
X14452867Y-16827113D01*
X14469607Y-16858431D01*
X14479915Y-16892409D01*
X14484000Y-16933890D01*
X14484000Y-17610110D01*
X14479915Y-17651591D01*
X14469607Y-17685569D01*
X14452867Y-17716887D01*
X14430339Y-17744339D01*
X14402887Y-17766867D01*
X14371569Y-17783607D01*
X14337591Y-17793915D01*
X14296110Y-17798000D01*
X13694890Y-17798000D01*
X13653409Y-17793915D01*
X13619431Y-17783607D01*
X13588113Y-17766867D01*
X13560661Y-17744339D01*
X13538133Y-17716887D01*
X13521393Y-17685569D01*
X13511085Y-17651591D01*
X13507000Y-17610110D01*
X13507000Y-16933890D01*
X13511085Y-16892409D01*
X13521393Y-16858431D01*
X13538133Y-16827113D01*
X13560661Y-16799661D01*
X13588113Y-16777133D01*
X13619431Y-16760393D01*
X13653409Y-16750085D01*
X13694890Y-16746000D01*
X14296110Y-16746000D01*
X14337591Y-16750085D01*
X14337591Y-16750085D01*
G37*
G36*
X6844591Y-16750085D02*
X6878569Y-16760393D01*
X6909887Y-16777133D01*
X6937339Y-16799661D01*
X6959867Y-16827113D01*
X6976607Y-16858431D01*
X6986915Y-16892409D01*
X6991000Y-16933890D01*
X6991000Y-17610110D01*
X6986915Y-17651591D01*
X6976607Y-17685569D01*
X6959867Y-17716887D01*
X6937339Y-17744339D01*
X6909887Y-17766867D01*
X6878569Y-17783607D01*
X6844591Y-17793915D01*
X6803110Y-17798000D01*
X6201890Y-17798000D01*
X6160409Y-17793915D01*
X6126431Y-17783607D01*
X6095113Y-17766867D01*
X6067661Y-17744339D01*
X6045133Y-17716887D01*
X6028393Y-17685569D01*
X6018085Y-17651591D01*
X6014000Y-17610110D01*
X6014000Y-16933890D01*
X6018085Y-16892409D01*
X6028393Y-16858431D01*
X6045133Y-16827113D01*
X6067661Y-16799661D01*
X6095113Y-16777133D01*
X6126431Y-16760393D01*
X6160409Y-16750085D01*
X6201890Y-16746000D01*
X6803110Y-16746000D01*
X6844591Y-16750085D01*
X6844591Y-16750085D01*
G37*
G36*
X-7557409Y-16750085D02*
X-7523431Y-16760393D01*
X-7492113Y-16777133D01*
X-7464661Y-16799661D01*
X-7442133Y-16827113D01*
X-7425393Y-16858431D01*
X-7415085Y-16892409D01*
X-7411000Y-16933890D01*
X-7411000Y-17610110D01*
X-7415085Y-17651591D01*
X-7425393Y-17685569D01*
X-7442133Y-17716887D01*
X-7464661Y-17744339D01*
X-7492113Y-17766867D01*
X-7523431Y-17783607D01*
X-7557409Y-17793915D01*
X-7598890Y-17798000D01*
X-8200110Y-17798000D01*
X-8241591Y-17793915D01*
X-8275569Y-17783607D01*
X-8306887Y-17766867D01*
X-8334339Y-17744339D01*
X-8356867Y-17716887D01*
X-8373607Y-17685569D01*
X-8383915Y-17651591D01*
X-8388000Y-17610110D01*
X-8388000Y-16933890D01*
X-8383915Y-16892409D01*
X-8373607Y-16858431D01*
X-8356867Y-16827113D01*
X-8334339Y-16799661D01*
X-8306887Y-16777133D01*
X-8275569Y-16760393D01*
X-8241591Y-16750085D01*
X-8200110Y-16746000D01*
X-7598890Y-16746000D01*
X-7557409Y-16750085D01*
X-7557409Y-16750085D01*
G37*
G36*
X-6613180Y-12123313D02*
X-6613177Y-12123314D01*
X-6613176Y-12123314D01*
X-6452762Y-12171975D01*
X-6452760Y-12171976D01*
X-6452757Y-12171977D01*
X-6304922Y-12250995D01*
X-6175341Y-12357341D01*
X-6068995Y-12486922D01*
X-5989977Y-12634756D01*
X-5989977Y-12634757D01*
X-5989975Y-12634761D01*
X-5953508Y-12754977D01*
X-5941313Y-12795179D01*
X-5929000Y-12920196D01*
X-5929000Y-14003803D01*
X-5941313Y-14128821D01*
X-5941314Y-14128824D01*
X-5941314Y-14128825D01*
X-5959640Y-14189239D01*
X-5989977Y-14289244D01*
X-6068995Y-14437078D01*
X-6175341Y-14566659D01*
X-6304922Y-14673005D01*
X-6452756Y-14752023D01*
X-6452759Y-14752024D01*
X-6452761Y-14752025D01*
X-6613175Y-14800686D01*
X-6613176Y-14800686D01*
X-6613179Y-14800687D01*
X-6780000Y-14817117D01*
X-6946820Y-14800687D01*
X-6946823Y-14800686D01*
X-6946824Y-14800686D01*
X-7107238Y-14752025D01*
X-7107240Y-14752024D01*
X-7107243Y-14752023D01*
X-7255077Y-14673005D01*
X-7384658Y-14566659D01*
X-7491004Y-14437078D01*
X-7570022Y-14289244D01*
X-7600358Y-14189239D01*
X-7618685Y-14128825D01*
X-7618685Y-14128824D01*
X-7618686Y-14128821D01*
X-7630999Y-14003804D01*
X-7631000Y-12920197D01*
X-7618687Y-12795180D01*
X-7618686Y-12795176D01*
X-7570025Y-12634762D01*
X-7570024Y-12634760D01*
X-7570023Y-12634757D01*
X-7491005Y-12486922D01*
X-7384659Y-12357341D01*
X-7255078Y-12250995D01*
X-7107244Y-12171977D01*
X-7107241Y-12171976D01*
X-7107239Y-12171975D01*
X-6946825Y-12123314D01*
X-6946824Y-12123314D01*
X-6946821Y-12123313D01*
X-6780000Y-12106883D01*
X-6613180Y-12123313D01*
X-6613180Y-12123313D01*
G37*
G36*
X13706820Y-12123313D02*
X13706823Y-12123314D01*
X13706824Y-12123314D01*
X13867238Y-12171975D01*
X13867240Y-12171976D01*
X13867243Y-12171977D01*
X14015078Y-12250995D01*
X14144659Y-12357341D01*
X14251005Y-12486922D01*
X14330023Y-12634756D01*
X14330023Y-12634757D01*
X14330025Y-12634761D01*
X14366492Y-12754977D01*
X14378687Y-12795179D01*
X14391000Y-12920196D01*
X14391000Y-14003803D01*
X14378687Y-14128821D01*
X14378686Y-14128824D01*
X14378686Y-14128825D01*
X14360360Y-14189239D01*
X14330023Y-14289244D01*
X14251005Y-14437078D01*
X14144659Y-14566659D01*
X14015078Y-14673005D01*
X13867244Y-14752023D01*
X13867241Y-14752024D01*
X13867239Y-14752025D01*
X13706825Y-14800686D01*
X13706824Y-14800686D01*
X13706821Y-14800687D01*
X13540000Y-14817117D01*
X13373180Y-14800687D01*
X13373177Y-14800686D01*
X13373176Y-14800686D01*
X13212762Y-14752025D01*
X13212760Y-14752024D01*
X13212757Y-14752023D01*
X13064923Y-14673005D01*
X12935342Y-14566659D01*
X12828996Y-14437078D01*
X12749978Y-14289244D01*
X12719642Y-14189239D01*
X12701315Y-14128825D01*
X12701315Y-14128824D01*
X12701314Y-14128821D01*
X12689001Y-14003804D01*
X12689000Y-12920197D01*
X12701313Y-12795180D01*
X12701314Y-12795176D01*
X12749975Y-12634762D01*
X12749976Y-12634760D01*
X12749977Y-12634757D01*
X12828995Y-12486922D01*
X12935341Y-12357341D01*
X13064922Y-12250995D01*
X13212756Y-12171977D01*
X13212759Y-12171976D01*
X13212761Y-12171975D01*
X13373175Y-12123314D01*
X13373176Y-12123314D01*
X13373179Y-12123313D01*
X13540000Y-12106883D01*
X13706820Y-12123313D01*
X13706820Y-12123313D01*
G37*
G36*
X5397024Y-12122590D02*
X5548011Y-12168392D01*
X5687161Y-12242768D01*
X5722750Y-12271975D01*
X5809133Y-12342867D01*
X5809134Y-12342869D01*
X5809136Y-12342870D01*
X5909230Y-12464835D01*
X5983608Y-12603988D01*
X6029410Y-12754975D01*
X6041000Y-12872654D01*
X6041000Y-14051346D01*
X6029410Y-14169025D01*
X5983608Y-14320012D01*
X5909230Y-14459165D01*
X5809133Y-14581133D01*
X5687165Y-14681230D01*
X5548012Y-14755608D01*
X5397025Y-14801410D01*
X5240000Y-14816875D01*
X5082976Y-14801410D01*
X4931989Y-14755608D01*
X4792836Y-14681230D01*
X4670868Y-14581133D01*
X4570771Y-14459165D01*
X4496393Y-14320012D01*
X4450591Y-14169025D01*
X4439001Y-14051346D01*
X4439000Y-12872655D01*
X4450590Y-12754976D01*
X4496392Y-12603989D01*
X4570768Y-12464839D01*
X4670865Y-12342870D01*
X4670867Y-12342867D01*
X4670869Y-12342866D01*
X4670870Y-12342864D01*
X4792835Y-12242770D01*
X4931988Y-12168392D01*
X5082975Y-12122590D01*
X5240000Y-12107125D01*
X5397024Y-12122590D01*
X5397024Y-12122590D01*
G37*
G36*
X-14922976Y-12122590D02*
X-14771989Y-12168392D01*
X-14632839Y-12242768D01*
X-14597250Y-12271975D01*
X-14510867Y-12342867D01*
X-14510866Y-12342869D01*
X-14510864Y-12342870D01*
X-14410770Y-12464835D01*
X-14336392Y-12603988D01*
X-14290590Y-12754975D01*
X-14279000Y-12872654D01*
X-14279000Y-14051346D01*
X-14290590Y-14169025D01*
X-14336392Y-14320012D01*
X-14410770Y-14459165D01*
X-14510867Y-14581133D01*
X-14632835Y-14681230D01*
X-14771988Y-14755608D01*
X-14922975Y-14801410D01*
X-15080000Y-14816875D01*
X-15237024Y-14801410D01*
X-15388011Y-14755608D01*
X-15527164Y-14681230D01*
X-15649132Y-14581133D01*
X-15749229Y-14459165D01*
X-15823607Y-14320012D01*
X-15869409Y-14169025D01*
X-15880999Y-14051346D01*
X-15881000Y-12872655D01*
X-15869410Y-12754976D01*
X-15823608Y-12603989D01*
X-15749232Y-12464839D01*
X-15649135Y-12342870D01*
X-15649133Y-12342867D01*
X-15649131Y-12342866D01*
X-15649130Y-12342864D01*
X-15527165Y-12242770D01*
X-15388012Y-12168392D01*
X-15237025Y-12122590D01*
X-15080000Y-12107125D01*
X-14922976Y-12122590D01*
X-14922976Y-12122590D01*
G37*
G36*
X-9241000Y-14788000D02*
X-10403000Y-14788000D01*
X-10403000Y-12136000D01*
X-9241000Y-12136000D01*
X-9241000Y-14788000D01*
X-9241000Y-14788000D01*
G37*
G36*
X9387000Y-14788000D02*
X8225000Y-14788000D01*
X8225000Y-14036000D01*
X9387000Y-14036000D01*
X9387000Y-14788000D01*
X9387000Y-14788000D01*
G37*
G36*
X11587000Y-14788000D02*
X10425000Y-14788000D01*
X10425000Y-12136000D01*
X11587000Y-12136000D01*
X11587000Y-14788000D01*
X11587000Y-14788000D01*
G37*
G36*
X-11441000Y-14788000D02*
X-12603000Y-14788000D01*
X-12603000Y-14036000D01*
X-11441000Y-14036000D01*
X-11441000Y-14788000D01*
X-11441000Y-14788000D01*
G37*
G36*
X16806820Y-12223313D02*
X16806823Y-12223314D01*
X16806824Y-12223314D01*
X16967238Y-12271975D01*
X16967240Y-12271976D01*
X16967243Y-12271977D01*
X17115078Y-12350995D01*
X17244659Y-12457341D01*
X17351005Y-12586922D01*
X17430023Y-12734756D01*
X17430023Y-12734757D01*
X17430025Y-12734761D01*
X17471855Y-12872656D01*
X17478687Y-12895179D01*
X17491000Y-13020196D01*
X17491000Y-13903803D01*
X17478687Y-14028820D01*
X17478686Y-14028822D01*
X17478686Y-14028825D01*
X17430025Y-14189239D01*
X17430023Y-14189244D01*
X17351005Y-14337078D01*
X17244659Y-14466659D01*
X17115078Y-14573005D01*
X16967244Y-14652023D01*
X16967241Y-14652024D01*
X16967239Y-14652025D01*
X16806825Y-14700686D01*
X16806824Y-14700686D01*
X16806821Y-14700687D01*
X16640000Y-14717117D01*
X16473180Y-14700687D01*
X16473177Y-14700686D01*
X16473176Y-14700686D01*
X16312762Y-14652025D01*
X16312760Y-14652024D01*
X16312757Y-14652023D01*
X16164923Y-14573005D01*
X16035342Y-14466659D01*
X15928996Y-14337078D01*
X15849978Y-14189244D01*
X15843845Y-14169025D01*
X15801315Y-14028825D01*
X15801315Y-14028824D01*
X15801314Y-14028821D01*
X15789000Y-13903803D01*
X15789000Y-13020197D01*
X15801313Y-12895180D01*
X15801314Y-12895176D01*
X15849975Y-12734762D01*
X15849976Y-12734760D01*
X15849977Y-12734757D01*
X15928995Y-12586922D01*
X16035341Y-12457341D01*
X16164922Y-12350995D01*
X16312756Y-12271977D01*
X16312759Y-12271976D01*
X16312761Y-12271975D01*
X16473175Y-12223314D01*
X16473176Y-12223314D01*
X16473179Y-12223313D01*
X16640000Y-12206883D01*
X16806820Y-12223313D01*
X16806820Y-12223313D01*
G37*
G36*
X-3513180Y-12223313D02*
X-3513177Y-12223314D01*
X-3513176Y-12223314D01*
X-3352762Y-12271975D01*
X-3352760Y-12271976D01*
X-3352757Y-12271977D01*
X-3204922Y-12350995D01*
X-3075341Y-12457341D01*
X-2968995Y-12586922D01*
X-2889977Y-12734756D01*
X-2889977Y-12734757D01*
X-2889975Y-12734761D01*
X-2848145Y-12872656D01*
X-2841313Y-12895179D01*
X-2829000Y-13020196D01*
X-2829000Y-13903803D01*
X-2841313Y-14028820D01*
X-2841314Y-14028822D01*
X-2841314Y-14028825D01*
X-2889975Y-14189239D01*
X-2889977Y-14189244D01*
X-2968995Y-14337078D01*
X-3075341Y-14466659D01*
X-3204922Y-14573005D01*
X-3352756Y-14652023D01*
X-3352759Y-14652024D01*
X-3352761Y-14652025D01*
X-3513175Y-14700686D01*
X-3513176Y-14700686D01*
X-3513179Y-14700687D01*
X-3680000Y-14717117D01*
X-3846820Y-14700687D01*
X-3846823Y-14700686D01*
X-3846824Y-14700686D01*
X-4007238Y-14652025D01*
X-4007240Y-14652024D01*
X-4007243Y-14652023D01*
X-4155077Y-14573005D01*
X-4284658Y-14466659D01*
X-4391004Y-14337078D01*
X-4470022Y-14189244D01*
X-4476155Y-14169025D01*
X-4518685Y-14028825D01*
X-4518685Y-14028824D01*
X-4518686Y-14028821D01*
X-4531000Y-13903803D01*
X-4531000Y-13020197D01*
X-4518687Y-12895180D01*
X-4518686Y-12895176D01*
X-4470025Y-12734762D01*
X-4470024Y-12734760D01*
X-4470023Y-12734757D01*
X-4391005Y-12586922D01*
X-4284659Y-12457341D01*
X-4155078Y-12350995D01*
X-4007244Y-12271977D01*
X-4007241Y-12271976D01*
X-4007239Y-12271975D01*
X-3846825Y-12223314D01*
X-3846824Y-12223314D01*
X-3846821Y-12223313D01*
X-3680000Y-12206883D01*
X-3513180Y-12223313D01*
X-3513180Y-12223313D01*
G37*
G36*
X9387000Y-12888000D02*
X8225000Y-12888000D01*
X8225000Y-12136000D01*
X9387000Y-12136000D01*
X9387000Y-12888000D01*
X9387000Y-12888000D01*
G37*
G36*
X-11441000Y-12888000D02*
X-12603000Y-12888000D01*
X-12603000Y-12136000D01*
X-11441000Y-12136000D01*
X-11441000Y-12888000D01*
X-11441000Y-12888000D01*
G37*
G36*
X-4002000Y-9333000D02*
X-5904000Y-9333000D01*
X-5904000Y-7431000D01*
X-4002000Y-7431000D01*
X-4002000Y-9333000D01*
X-4002000Y-9333000D01*
G37*
G36*
X18184396Y-7467546D02*
X18357466Y-7539234D01*
X18513230Y-7643312D01*
X18645688Y-7775770D01*
X18749766Y-7931534D01*
X18821454Y-8104604D01*
X18858000Y-8288333D01*
X18858000Y-8475667D01*
X18821454Y-8659396D01*
X18749766Y-8832466D01*
X18645688Y-8988230D01*
X18513230Y-9120688D01*
X18357466Y-9224766D01*
X18184396Y-9296454D01*
X18000667Y-9333000D01*
X17813333Y-9333000D01*
X17629604Y-9296454D01*
X17456534Y-9224766D01*
X17300770Y-9120688D01*
X17168312Y-8988230D01*
X17064234Y-8832466D01*
X16992546Y-8659396D01*
X16956000Y-8475667D01*
X16956000Y-8288333D01*
X16992546Y-8104604D01*
X17064234Y-7931534D01*
X17168312Y-7775770D01*
X17300770Y-7643312D01*
X17456534Y-7539234D01*
X17629604Y-7467546D01*
X17813333Y-7431000D01*
X18000667Y-7431000D01*
X18184396Y-7467546D01*
X18184396Y-7467546D01*
G37*
G36*
X16318000Y-9333000D02*
X14416000Y-9333000D01*
X14416000Y-7431000D01*
X16318000Y-7431000D01*
X16318000Y-9333000D01*
X16318000Y-9333000D01*
G37*
G36*
X-2135604Y-7467546D02*
X-1962534Y-7539234D01*
X-1806770Y-7643312D01*
X-1674312Y-7775770D01*
X-1570234Y-7931534D01*
X-1498546Y-8104604D01*
X-1462000Y-8288333D01*
X-1462000Y-8475667D01*
X-1498546Y-8659396D01*
X-1570234Y-8832466D01*
X-1674312Y-8988230D01*
X-1806770Y-9120688D01*
X-1962534Y-9224766D01*
X-2135604Y-9296454D01*
X-2319333Y-9333000D01*
X-2506667Y-9333000D01*
X-2690396Y-9296454D01*
X-2863466Y-9224766D01*
X-3019230Y-9120688D01*
X-3151688Y-8988230D01*
X-3255766Y-8832466D01*
X-3327454Y-8659396D01*
X-3364000Y-8475667D01*
X-3364000Y-8288333D01*
X-3327454Y-8104604D01*
X-3255766Y-7931534D01*
X-3151688Y-7775770D01*
X-3019230Y-7643312D01*
X-2863466Y-7539234D01*
X-2690396Y-7467546D01*
X-2506667Y-7431000D01*
X-2319333Y-7431000D01*
X-2135604Y-7467546D01*
X-2135604Y-7467546D01*
G37*
G36*
X14337591Y-3288085D02*
X14371569Y-3298393D01*
X14402887Y-3315133D01*
X14430339Y-3337661D01*
X14452867Y-3365113D01*
X14469607Y-3396431D01*
X14479915Y-3430409D01*
X14484000Y-3471890D01*
X14484000Y-4148110D01*
X14479915Y-4189591D01*
X14469607Y-4223569D01*
X14452867Y-4254887D01*
X14430339Y-4282339D01*
X14402887Y-4304867D01*
X14371569Y-4321607D01*
X14337591Y-4331915D01*
X14296110Y-4336000D01*
X13694890Y-4336000D01*
X13653409Y-4331915D01*
X13619431Y-4321607D01*
X13588113Y-4304867D01*
X13560661Y-4282339D01*
X13538133Y-4254887D01*
X13521393Y-4223569D01*
X13511085Y-4189591D01*
X13507000Y-4148110D01*
X13507000Y-3471890D01*
X13511085Y-3430409D01*
X13521393Y-3396431D01*
X13538133Y-3365113D01*
X13560661Y-3337661D01*
X13588113Y-3315133D01*
X13619431Y-3298393D01*
X13653409Y-3288085D01*
X13694890Y-3284000D01*
X14296110Y-3284000D01*
X14337591Y-3288085D01*
X14337591Y-3288085D01*
G37*
G36*
X12762591Y-3288085D02*
X12796569Y-3298393D01*
X12827887Y-3315133D01*
X12855339Y-3337661D01*
X12877867Y-3365113D01*
X12894607Y-3396431D01*
X12904915Y-3430409D01*
X12909000Y-3471890D01*
X12909000Y-4148110D01*
X12904915Y-4189591D01*
X12894607Y-4223569D01*
X12877867Y-4254887D01*
X12855339Y-4282339D01*
X12827887Y-4304867D01*
X12796569Y-4321607D01*
X12762591Y-4331915D01*
X12721110Y-4336000D01*
X12119890Y-4336000D01*
X12078409Y-4331915D01*
X12044431Y-4321607D01*
X12013113Y-4304867D01*
X11985661Y-4282339D01*
X11963133Y-4254887D01*
X11946393Y-4223569D01*
X11936085Y-4189591D01*
X11932000Y-4148110D01*
X11932000Y-3471890D01*
X11936085Y-3430409D01*
X11946393Y-3396431D01*
X11963133Y-3365113D01*
X11985661Y-3337661D01*
X12013113Y-3315133D01*
X12044431Y-3298393D01*
X12078409Y-3288085D01*
X12119890Y-3284000D01*
X12721110Y-3284000D01*
X12762591Y-3288085D01*
X12762591Y-3288085D01*
G37*
G36*
X6717591Y-3288085D02*
X6751569Y-3298393D01*
X6782887Y-3315133D01*
X6810339Y-3337661D01*
X6832867Y-3365113D01*
X6849607Y-3396431D01*
X6859915Y-3430409D01*
X6864000Y-3471890D01*
X6864000Y-4148110D01*
X6859915Y-4189591D01*
X6849607Y-4223569D01*
X6832867Y-4254887D01*
X6810339Y-4282339D01*
X6782887Y-4304867D01*
X6751569Y-4321607D01*
X6717591Y-4331915D01*
X6676110Y-4336000D01*
X6074890Y-4336000D01*
X6033409Y-4331915D01*
X5999431Y-4321607D01*
X5968113Y-4304867D01*
X5940661Y-4282339D01*
X5918133Y-4254887D01*
X5901393Y-4223569D01*
X5891085Y-4189591D01*
X5887000Y-4148110D01*
X5887000Y-3471890D01*
X5891085Y-3430409D01*
X5901393Y-3396431D01*
X5918133Y-3365113D01*
X5940661Y-3337661D01*
X5968113Y-3315133D01*
X5999431Y-3298393D01*
X6033409Y-3288085D01*
X6074890Y-3284000D01*
X6676110Y-3284000D01*
X6717591Y-3288085D01*
X6717591Y-3288085D01*
G37*
G36*
X-7557409Y-3288085D02*
X-7523431Y-3298393D01*
X-7492113Y-3315133D01*
X-7464661Y-3337661D01*
X-7442133Y-3365113D01*
X-7425393Y-3396431D01*
X-7415085Y-3430409D01*
X-7411000Y-3471890D01*
X-7411000Y-4148110D01*
X-7415085Y-4189591D01*
X-7425393Y-4223569D01*
X-7442133Y-4254887D01*
X-7464661Y-4282339D01*
X-7492113Y-4304867D01*
X-7523431Y-4321607D01*
X-7557409Y-4331915D01*
X-7598890Y-4336000D01*
X-8200110Y-4336000D01*
X-8241591Y-4331915D01*
X-8275569Y-4321607D01*
X-8306887Y-4304867D01*
X-8334339Y-4282339D01*
X-8356867Y-4254887D01*
X-8373607Y-4223569D01*
X-8383915Y-4189591D01*
X-8388000Y-4148110D01*
X-8388000Y-3471890D01*
X-8383915Y-3430409D01*
X-8373607Y-3396431D01*
X-8356867Y-3365113D01*
X-8334339Y-3337661D01*
X-8306887Y-3315133D01*
X-8275569Y-3298393D01*
X-8241591Y-3288085D01*
X-8200110Y-3284000D01*
X-7598890Y-3284000D01*
X-7557409Y-3288085D01*
X-7557409Y-3288085D01*
G37*
G36*
X-5982409Y-3288085D02*
X-5948431Y-3298393D01*
X-5917113Y-3315133D01*
X-5889661Y-3337661D01*
X-5867133Y-3365113D01*
X-5850393Y-3396431D01*
X-5840085Y-3430409D01*
X-5836000Y-3471890D01*
X-5836000Y-4148110D01*
X-5840085Y-4189591D01*
X-5850393Y-4223569D01*
X-5867133Y-4254887D01*
X-5889661Y-4282339D01*
X-5917113Y-4304867D01*
X-5948431Y-4321607D01*
X-5982409Y-4331915D01*
X-6023890Y-4336000D01*
X-6625110Y-4336000D01*
X-6666591Y-4331915D01*
X-6700569Y-4321607D01*
X-6731887Y-4304867D01*
X-6759339Y-4282339D01*
X-6781867Y-4254887D01*
X-6798607Y-4223569D01*
X-6808915Y-4189591D01*
X-6813000Y-4148110D01*
X-6813000Y-3471890D01*
X-6808915Y-3430409D01*
X-6798607Y-3396431D01*
X-6781867Y-3365113D01*
X-6759339Y-3337661D01*
X-6731887Y-3315133D01*
X-6700569Y-3298393D01*
X-6666591Y-3288085D01*
X-6625110Y-3284000D01*
X-6023890Y-3284000D01*
X-5982409Y-3288085D01*
X-5982409Y-3288085D01*
G37*
G36*
X5142591Y-3288085D02*
X5176569Y-3298393D01*
X5207887Y-3315133D01*
X5235339Y-3337661D01*
X5257867Y-3365113D01*
X5274607Y-3396431D01*
X5284915Y-3430409D01*
X5289000Y-3471890D01*
X5289000Y-4148110D01*
X5284915Y-4189591D01*
X5274607Y-4223569D01*
X5257867Y-4254887D01*
X5235339Y-4282339D01*
X5207887Y-4304867D01*
X5176569Y-4321607D01*
X5142591Y-4331915D01*
X5101110Y-4336000D01*
X4499890Y-4336000D01*
X4458409Y-4331915D01*
X4424431Y-4321607D01*
X4393113Y-4304867D01*
X4365661Y-4282339D01*
X4343133Y-4254887D01*
X4326393Y-4223569D01*
X4316085Y-4189591D01*
X4312000Y-4148110D01*
X4312000Y-3471890D01*
X4316085Y-3430409D01*
X4326393Y-3396431D01*
X4343133Y-3365113D01*
X4365661Y-3337661D01*
X4393113Y-3315133D01*
X4424431Y-3298393D01*
X4458409Y-3288085D01*
X4499890Y-3284000D01*
X5101110Y-3284000D01*
X5142591Y-3288085D01*
X5142591Y-3288085D01*
G37*
G36*
X-13475409Y-3161085D02*
X-13441431Y-3171393D01*
X-13410113Y-3188133D01*
X-13382661Y-3210661D01*
X-13360133Y-3238113D01*
X-13343393Y-3269431D01*
X-13333085Y-3303409D01*
X-13329000Y-3344890D01*
X-13329000Y-4021110D01*
X-13333085Y-4062591D01*
X-13343393Y-4096569D01*
X-13360133Y-4127887D01*
X-13382661Y-4155339D01*
X-13410113Y-4177867D01*
X-13441431Y-4194607D01*
X-13475409Y-4204915D01*
X-13516890Y-4209000D01*
X-14118110Y-4209000D01*
X-14159591Y-4204915D01*
X-14193569Y-4194607D01*
X-14224887Y-4177867D01*
X-14252339Y-4155339D01*
X-14274867Y-4127887D01*
X-14291607Y-4096569D01*
X-14301915Y-4062591D01*
X-14306000Y-4021110D01*
X-14306000Y-3344890D01*
X-14301915Y-3303409D01*
X-14291607Y-3269431D01*
X-14274867Y-3238113D01*
X-14252339Y-3210661D01*
X-14224887Y-3188133D01*
X-14193569Y-3171393D01*
X-14159591Y-3161085D01*
X-14118110Y-3157000D01*
X-13516890Y-3157000D01*
X-13475409Y-3161085D01*
X-13475409Y-3161085D01*
G37*
G36*
X-15050409Y-3161085D02*
X-15016431Y-3171393D01*
X-14985113Y-3188133D01*
X-14957661Y-3210661D01*
X-14935133Y-3238113D01*
X-14918393Y-3269431D01*
X-14908085Y-3303409D01*
X-14904000Y-3344890D01*
X-14904000Y-4021110D01*
X-14908085Y-4062591D01*
X-14918393Y-4096569D01*
X-14935133Y-4127887D01*
X-14957661Y-4155339D01*
X-14985113Y-4177867D01*
X-15016431Y-4194607D01*
X-15050409Y-4204915D01*
X-15091890Y-4209000D01*
X-15693110Y-4209000D01*
X-15734591Y-4204915D01*
X-15768569Y-4194607D01*
X-15799887Y-4177867D01*
X-15827339Y-4155339D01*
X-15849867Y-4127887D01*
X-15866607Y-4096569D01*
X-15876915Y-4062591D01*
X-15881000Y-4021110D01*
X-15881000Y-3344890D01*
X-15876915Y-3303409D01*
X-15866607Y-3269431D01*
X-15849867Y-3238113D01*
X-15827339Y-3210661D01*
X-15799887Y-3188133D01*
X-15768569Y-3171393D01*
X-15734591Y-3161085D01*
X-15693110Y-3157000D01*
X-15091890Y-3157000D01*
X-15050409Y-3161085D01*
X-15050409Y-3161085D01*
G37*
G36*
X11587000Y-2469000D02*
X10425000Y-2469000D01*
X10425000Y183000D01*
X11587000Y183000D01*
X11587000Y-2469000D01*
X11587000Y-2469000D01*
G37*
G36*
X9387000Y-2469000D02*
X8225000Y-2469000D01*
X8225000Y-1717000D01*
X9387000Y-1717000D01*
X9387000Y-2469000D01*
X9387000Y-2469000D01*
G37*
G36*
X13706820Y1338687D02*
X13706823Y1338686D01*
X13706824Y1338686D01*
X13867238Y1290025D01*
X13867240Y1290024D01*
X13867243Y1290023D01*
X14015078Y1211005D01*
X14144659Y1104659D01*
X14251005Y975078D01*
X14330023Y827244D01*
X14330023Y827243D01*
X14330025Y827239D01*
X14366492Y707023D01*
X14378687Y666821D01*
X14391000Y541804D01*
X14391000Y-541803D01*
X14378687Y-666821D01*
X14378686Y-666824D01*
X14378686Y-666825D01*
X14360360Y-727239D01*
X14330023Y-827244D01*
X14251005Y-975078D01*
X14144659Y-1104659D01*
X14015078Y-1211005D01*
X13867244Y-1290023D01*
X13867241Y-1290024D01*
X13867239Y-1290025D01*
X13706825Y-1338686D01*
X13706824Y-1338686D01*
X13706821Y-1338687D01*
X13540000Y-1355117D01*
X13373180Y-1338687D01*
X13373177Y-1338686D01*
X13373176Y-1338686D01*
X13212762Y-1290025D01*
X13212760Y-1290024D01*
X13212757Y-1290023D01*
X13064923Y-1211005D01*
X12935342Y-1104659D01*
X12828996Y-975078D01*
X12749978Y-827244D01*
X12719642Y-727239D01*
X12701315Y-666825D01*
X12701315Y-666824D01*
X12701314Y-666821D01*
X12689001Y-541804D01*
X12689000Y541803D01*
X12701313Y666820D01*
X12701314Y666824D01*
X12749975Y827238D01*
X12749976Y827240D01*
X12749977Y827243D01*
X12828995Y975078D01*
X12935341Y1104659D01*
X13064922Y1211005D01*
X13212756Y1290023D01*
X13212759Y1290024D01*
X13212761Y1290025D01*
X13373175Y1338686D01*
X13373176Y1338686D01*
X13373179Y1338687D01*
X13540000Y1355117D01*
X13706820Y1338687D01*
X13706820Y1338687D01*
G37*
G36*
X-6613180Y1338687D02*
X-6613177Y1338686D01*
X-6613176Y1338686D01*
X-6452762Y1290025D01*
X-6452760Y1290024D01*
X-6452757Y1290023D01*
X-6304922Y1211005D01*
X-6175341Y1104659D01*
X-6068995Y975078D01*
X-5989977Y827244D01*
X-5989977Y827243D01*
X-5989975Y827239D01*
X-5953508Y707023D01*
X-5941313Y666821D01*
X-5929000Y541804D01*
X-5929000Y-541803D01*
X-5941313Y-666821D01*
X-5941314Y-666824D01*
X-5941314Y-666825D01*
X-5959640Y-727239D01*
X-5989977Y-827244D01*
X-6068995Y-975078D01*
X-6175341Y-1104659D01*
X-6304922Y-1211005D01*
X-6452756Y-1290023D01*
X-6452759Y-1290024D01*
X-6452761Y-1290025D01*
X-6613175Y-1338686D01*
X-6613176Y-1338686D01*
X-6613179Y-1338687D01*
X-6780000Y-1355117D01*
X-6946820Y-1338687D01*
X-6946823Y-1338686D01*
X-6946824Y-1338686D01*
X-7107238Y-1290025D01*
X-7107240Y-1290024D01*
X-7107243Y-1290023D01*
X-7255077Y-1211005D01*
X-7384658Y-1104659D01*
X-7491004Y-975078D01*
X-7570022Y-827244D01*
X-7600358Y-727239D01*
X-7618685Y-666825D01*
X-7618685Y-666824D01*
X-7618686Y-666821D01*
X-7630999Y-541804D01*
X-7631000Y541803D01*
X-7618687Y666820D01*
X-7618686Y666824D01*
X-7570025Y827238D01*
X-7570024Y827240D01*
X-7570023Y827243D01*
X-7491005Y975078D01*
X-7384659Y1104659D01*
X-7255078Y1211005D01*
X-7107244Y1290023D01*
X-7107241Y1290024D01*
X-7107239Y1290025D01*
X-6946825Y1338686D01*
X-6946824Y1338686D01*
X-6946821Y1338687D01*
X-6780000Y1355117D01*
X-6613180Y1338687D01*
X-6613180Y1338687D01*
G37*
G36*
X5397024Y1339410D02*
X5548011Y1293608D01*
X5687161Y1219232D01*
X5722750Y1190025D01*
X5809133Y1119133D01*
X5809134Y1119131D01*
X5809136Y1119130D01*
X5909230Y997165D01*
X5983608Y858012D01*
X6029410Y707025D01*
X6041000Y589346D01*
X6041000Y-589346D01*
X6029410Y-707025D01*
X5983608Y-858012D01*
X5909230Y-997165D01*
X5809133Y-1119133D01*
X5687165Y-1219230D01*
X5548012Y-1293608D01*
X5397025Y-1339410D01*
X5240000Y-1354875D01*
X5082976Y-1339410D01*
X4931989Y-1293608D01*
X4792836Y-1219230D01*
X4670868Y-1119133D01*
X4570771Y-997165D01*
X4496393Y-858012D01*
X4450591Y-707025D01*
X4439001Y-589346D01*
X4439000Y589345D01*
X4450590Y707024D01*
X4496392Y858011D01*
X4570768Y997161D01*
X4670865Y1119130D01*
X4670867Y1119133D01*
X4670869Y1119134D01*
X4670870Y1119136D01*
X4792835Y1219230D01*
X4931988Y1293608D01*
X5082975Y1339410D01*
X5240000Y1354875D01*
X5397024Y1339410D01*
X5397024Y1339410D01*
G37*
G36*
X-14922976Y1339410D02*
X-14771989Y1293608D01*
X-14632839Y1219232D01*
X-14597250Y1190025D01*
X-14510867Y1119133D01*
X-14510866Y1119131D01*
X-14510864Y1119130D01*
X-14410770Y997165D01*
X-14336392Y858012D01*
X-14290590Y707025D01*
X-14279000Y589346D01*
X-14279000Y-589346D01*
X-14290590Y-707025D01*
X-14336392Y-858012D01*
X-14410770Y-997165D01*
X-14510867Y-1119133D01*
X-14632835Y-1219230D01*
X-14771988Y-1293608D01*
X-14922975Y-1339410D01*
X-15080000Y-1354875D01*
X-15237024Y-1339410D01*
X-15388011Y-1293608D01*
X-15527164Y-1219230D01*
X-15649132Y-1119133D01*
X-15749229Y-997165D01*
X-15823607Y-858012D01*
X-15869409Y-707025D01*
X-15880999Y-589346D01*
X-15881000Y589345D01*
X-15869410Y707024D01*
X-15823608Y858011D01*
X-15749232Y997161D01*
X-15649135Y1119130D01*
X-15649133Y1119133D01*
X-15649131Y1119134D01*
X-15649130Y1119136D01*
X-15527165Y1219230D01*
X-15388012Y1293608D01*
X-15237025Y1339410D01*
X-15080000Y1354875D01*
X-14922976Y1339410D01*
X-14922976Y1339410D01*
G37*
G36*
X-11568000Y-1326000D02*
X-12730000Y-1326000D01*
X-12730000Y-574000D01*
X-11568000Y-574000D01*
X-11568000Y-1326000D01*
X-11568000Y-1326000D01*
G37*
G36*
X-9368000Y-1326000D02*
X-10530000Y-1326000D01*
X-10530000Y1326000D01*
X-9368000Y1326000D01*
X-9368000Y-1326000D01*
X-9368000Y-1326000D01*
G37*
G36*
X16806820Y1238687D02*
X16806823Y1238686D01*
X16806824Y1238686D01*
X16967238Y1190025D01*
X16967240Y1190024D01*
X16967243Y1190023D01*
X17115078Y1111005D01*
X17244659Y1004659D01*
X17351005Y875078D01*
X17430023Y727244D01*
X17430023Y727243D01*
X17430025Y727239D01*
X17471855Y589344D01*
X17478687Y566821D01*
X17491000Y441804D01*
X17491000Y-441803D01*
X17478687Y-566820D01*
X17478686Y-566822D01*
X17478686Y-566825D01*
X17430025Y-727239D01*
X17430023Y-727244D01*
X17351005Y-875078D01*
X17244659Y-1004659D01*
X17115078Y-1111005D01*
X16967244Y-1190023D01*
X16967241Y-1190024D01*
X16967239Y-1190025D01*
X16806825Y-1238686D01*
X16806824Y-1238686D01*
X16806821Y-1238687D01*
X16640000Y-1255117D01*
X16473180Y-1238687D01*
X16473177Y-1238686D01*
X16473176Y-1238686D01*
X16312762Y-1190025D01*
X16312760Y-1190024D01*
X16312757Y-1190023D01*
X16164923Y-1111005D01*
X16035342Y-1004659D01*
X15928996Y-875078D01*
X15849978Y-727244D01*
X15843845Y-707025D01*
X15801315Y-566825D01*
X15801315Y-566824D01*
X15801314Y-566821D01*
X15789000Y-441803D01*
X15789000Y441803D01*
X15801313Y566820D01*
X15801314Y566824D01*
X15849975Y727238D01*
X15849976Y727240D01*
X15849977Y727243D01*
X15928995Y875078D01*
X16035341Y1004659D01*
X16164922Y1111005D01*
X16312756Y1190023D01*
X16312759Y1190024D01*
X16312761Y1190025D01*
X16473175Y1238686D01*
X16473176Y1238686D01*
X16473179Y1238687D01*
X16640000Y1255117D01*
X16806820Y1238687D01*
X16806820Y1238687D01*
G37*
G36*
X-3513180Y1238687D02*
X-3513177Y1238686D01*
X-3513176Y1238686D01*
X-3352762Y1190025D01*
X-3352760Y1190024D01*
X-3352757Y1190023D01*
X-3204922Y1111005D01*
X-3075341Y1004659D01*
X-2968995Y875078D01*
X-2889977Y727244D01*
X-2889977Y727243D01*
X-2889975Y727239D01*
X-2848145Y589344D01*
X-2841313Y566821D01*
X-2829000Y441804D01*
X-2829000Y-441803D01*
X-2841313Y-566820D01*
X-2841314Y-566822D01*
X-2841314Y-566825D01*
X-2889975Y-727239D01*
X-2889977Y-727244D01*
X-2968995Y-875078D01*
X-3075341Y-1004659D01*
X-3204922Y-1111005D01*
X-3352756Y-1190023D01*
X-3352759Y-1190024D01*
X-3352761Y-1190025D01*
X-3513175Y-1238686D01*
X-3513176Y-1238686D01*
X-3513179Y-1238687D01*
X-3680000Y-1255117D01*
X-3846820Y-1238687D01*
X-3846823Y-1238686D01*
X-3846824Y-1238686D01*
X-4007238Y-1190025D01*
X-4007240Y-1190024D01*
X-4007243Y-1190023D01*
X-4155077Y-1111005D01*
X-4284658Y-1004659D01*
X-4391004Y-875078D01*
X-4470022Y-727244D01*
X-4476155Y-707025D01*
X-4518685Y-566825D01*
X-4518685Y-566824D01*
X-4518686Y-566821D01*
X-4531000Y-441803D01*
X-4531000Y441803D01*
X-4518687Y566820D01*
X-4518686Y566824D01*
X-4470025Y727238D01*
X-4470024Y727240D01*
X-4470023Y727243D01*
X-4391005Y875078D01*
X-4284659Y1004659D01*
X-4155078Y1111005D01*
X-4007244Y1190023D01*
X-4007241Y1190024D01*
X-4007239Y1190025D01*
X-3846825Y1238686D01*
X-3846824Y1238686D01*
X-3846821Y1238687D01*
X-3680000Y1255117D01*
X-3513180Y1238687D01*
X-3513180Y1238687D01*
G37*
G36*
X9387000Y-569000D02*
X8225000Y-569000D01*
X8225000Y183000D01*
X9387000Y183000D01*
X9387000Y-569000D01*
X9387000Y-569000D01*
G37*
G36*
X-11568000Y574000D02*
X-12730000Y574000D01*
X-12730000Y1326000D01*
X-11568000Y1326000D01*
X-11568000Y574000D01*
X-11568000Y574000D01*
G37*
G36*
X3110591Y4077915D02*
X3144569Y4067607D01*
X3175887Y4050867D01*
X3203339Y4028339D01*
X3225867Y4000887D01*
X3242607Y3969569D01*
X3252915Y3935591D01*
X3257000Y3894110D01*
X3257000Y3217890D01*
X3252915Y3176409D01*
X3242607Y3142431D01*
X3225867Y3111113D01*
X3203339Y3083661D01*
X3175887Y3061133D01*
X3144569Y3044393D01*
X3110591Y3034085D01*
X3069110Y3030000D01*
X2467890Y3030000D01*
X2426409Y3034085D01*
X2392431Y3044393D01*
X2361113Y3061133D01*
X2333661Y3083661D01*
X2311133Y3111113D01*
X2294393Y3142431D01*
X2284085Y3176409D01*
X2280000Y3217890D01*
X2280000Y3894110D01*
X2284085Y3935591D01*
X2294393Y3969569D01*
X2311133Y4000887D01*
X2333661Y4028339D01*
X2361113Y4050867D01*
X2392431Y4067607D01*
X2426409Y4077915D01*
X2467890Y4082000D01*
X3069110Y4082000D01*
X3110591Y4077915D01*
X3110591Y4077915D01*
G37*
G36*
X4685591Y4077915D02*
X4719569Y4067607D01*
X4750887Y4050867D01*
X4778339Y4028339D01*
X4800867Y4000887D01*
X4817607Y3969569D01*
X4827915Y3935591D01*
X4832000Y3894110D01*
X4832000Y3217890D01*
X4827915Y3176409D01*
X4817607Y3142431D01*
X4800867Y3111113D01*
X4778339Y3083661D01*
X4750887Y3061133D01*
X4719569Y3044393D01*
X4685591Y3034085D01*
X4644110Y3030000D01*
X4042890Y3030000D01*
X4001409Y3034085D01*
X3967431Y3044393D01*
X3936113Y3061133D01*
X3908661Y3083661D01*
X3886133Y3111113D01*
X3869393Y3142431D01*
X3859085Y3176409D01*
X3855000Y3217890D01*
X3855000Y3894110D01*
X3859085Y3935591D01*
X3869393Y3969569D01*
X3886133Y4000887D01*
X3908661Y4028339D01*
X3936113Y4050867D01*
X3967431Y4067607D01*
X4001409Y4077915D01*
X4042890Y4082000D01*
X4644110Y4082000D01*
X4685591Y4077915D01*
X4685591Y4077915D01*
G37*
G36*
X18184396Y6121454D02*
X18357466Y6049766D01*
X18513230Y5945688D01*
X18645688Y5813230D01*
X18749766Y5657466D01*
X18821454Y5484396D01*
X18858000Y5300667D01*
X18858000Y5113333D01*
X18821454Y4929604D01*
X18749766Y4756534D01*
X18645688Y4600770D01*
X18513230Y4468312D01*
X18357466Y4364234D01*
X18184396Y4292546D01*
X18000667Y4256000D01*
X17813333Y4256000D01*
X17629604Y4292546D01*
X17456534Y4364234D01*
X17300770Y4468312D01*
X17168312Y4600770D01*
X17064234Y4756534D01*
X16992546Y4929604D01*
X16956000Y5113333D01*
X16956000Y5300667D01*
X16992546Y5484396D01*
X17064234Y5657466D01*
X17168312Y5813230D01*
X17300770Y5945688D01*
X17456534Y6049766D01*
X17629604Y6121454D01*
X17813333Y6158000D01*
X18000667Y6158000D01*
X18184396Y6121454D01*
X18184396Y6121454D01*
G37*
G36*
X-2135604Y6121454D02*
X-1962534Y6049766D01*
X-1806770Y5945688D01*
X-1674312Y5813230D01*
X-1570234Y5657466D01*
X-1498546Y5484396D01*
X-1462000Y5300667D01*
X-1462000Y5113333D01*
X-1498546Y4929604D01*
X-1570234Y4756534D01*
X-1674312Y4600770D01*
X-1806770Y4468312D01*
X-1962534Y4364234D01*
X-2135604Y4292546D01*
X-2319333Y4256000D01*
X-2506667Y4256000D01*
X-2690396Y4292546D01*
X-2863466Y4364234D01*
X-3019230Y4468312D01*
X-3151688Y4600770D01*
X-3255766Y4756534D01*
X-3327454Y4929604D01*
X-3364000Y5113333D01*
X-3364000Y5300667D01*
X-3327454Y5484396D01*
X-3255766Y5657466D01*
X-3151688Y5813230D01*
X-3019230Y5945688D01*
X-2863466Y6049766D01*
X-2690396Y6121454D01*
X-2506667Y6158000D01*
X-2319333Y6158000D01*
X-2135604Y6121454D01*
X-2135604Y6121454D01*
G37*
G36*
X-4002000Y4256000D02*
X-5904000Y4256000D01*
X-5904000Y6158000D01*
X-4002000Y6158000D01*
X-4002000Y4256000D01*
X-4002000Y4256000D01*
G37*
G36*
X16318000Y4256000D02*
X14416000Y4256000D01*
X14416000Y6158000D01*
X16318000Y6158000D01*
X16318000Y4256000D01*
X16318000Y4256000D01*
G37*
G36*
X-13485964Y7245211D02*
X-13412373Y7237963D01*
X-13310575Y7207083D01*
X-13242533Y7186443D01*
X-13127306Y7124852D01*
X-13086009Y7102778D01*
X-13075267Y7093962D01*
X-12948814Y6990186D01*
X-12875869Y6901301D01*
X-12836222Y6852991D01*
X-12836221Y6852989D01*
X-12752557Y6696467D01*
X-12752557Y6696466D01*
X-12701037Y6526627D01*
X-12683641Y6350000D01*
X-12701037Y6173373D01*
X-12716787Y6121453D01*
X-12752557Y6003533D01*
X-12826652Y5864913D01*
X-12836222Y5847009D01*
X-12863944Y5813230D01*
X-12948814Y5709814D01*
X-13050271Y5626552D01*
X-13086009Y5597222D01*
X-13086011Y5597221D01*
X-13242533Y5513557D01*
X-13299147Y5496384D01*
X-13412373Y5462037D01*
X-13478558Y5455518D01*
X-13544740Y5449000D01*
X-13633260Y5449000D01*
X-13699442Y5455518D01*
X-13765627Y5462037D01*
X-13878853Y5496384D01*
X-13935467Y5513557D01*
X-14091989Y5597221D01*
X-14091991Y5597222D01*
X-14127729Y5626552D01*
X-14229186Y5709814D01*
X-14314056Y5813230D01*
X-14341778Y5847009D01*
X-14351348Y5864913D01*
X-14425443Y6003533D01*
X-14461213Y6121453D01*
X-14476963Y6173373D01*
X-14494359Y6350000D01*
X-14476963Y6526627D01*
X-14425443Y6696466D01*
X-14425443Y6696467D01*
X-14341779Y6852989D01*
X-14341778Y6852991D01*
X-14302131Y6901301D01*
X-14229186Y6990186D01*
X-14102733Y7093962D01*
X-14091991Y7102778D01*
X-14050694Y7124852D01*
X-13935467Y7186443D01*
X-13867425Y7207083D01*
X-13765627Y7237963D01*
X-13692036Y7245211D01*
X-13633260Y7251000D01*
X-13544740Y7251000D01*
X-13485964Y7245211D01*
X-13485964Y7245211D01*
G37*
G36*
X-15228000Y5449000D02*
X-17030000Y5449000D01*
X-17030000Y7251000D01*
X-15228000Y7251000D01*
X-15228000Y5449000D01*
X-15228000Y5449000D01*
G37*
G36*
X3981357Y10781917D02*
X3986028Y10780500D01*
X3990330Y10778200D01*
X3996705Y10772969D01*
X4017080Y10759356D01*
X4039719Y10749980D01*
X4063753Y10745200D01*
X4088257Y10745201D01*
X4112291Y10749983D01*
X4134929Y10759361D01*
X4155295Y10772969D01*
X4161670Y10778200D01*
X4165972Y10780500D01*
X4170643Y10781917D01*
X4181641Y10783000D01*
X4470359Y10783000D01*
X4481357Y10781917D01*
X4486028Y10780500D01*
X4490330Y10778200D01*
X4496705Y10772969D01*
X4517080Y10759356D01*
X4539719Y10749980D01*
X4563753Y10745200D01*
X4588257Y10745201D01*
X4612291Y10749983D01*
X4634929Y10759361D01*
X4655295Y10772969D01*
X4661670Y10778200D01*
X4665972Y10780500D01*
X4670643Y10781917D01*
X4681641Y10783000D01*
X4970359Y10783000D01*
X4981357Y10781917D01*
X4986028Y10780500D01*
X4990330Y10778200D01*
X4996705Y10772969D01*
X5017080Y10759356D01*
X5039719Y10749980D01*
X5063753Y10745200D01*
X5088257Y10745201D01*
X5112291Y10749983D01*
X5134929Y10759361D01*
X5155295Y10772969D01*
X5161670Y10778200D01*
X5165972Y10780500D01*
X5170643Y10781917D01*
X5181641Y10783000D01*
X5470359Y10783000D01*
X5481357Y10781917D01*
X5486028Y10780500D01*
X5490330Y10778200D01*
X5496705Y10772969D01*
X5517080Y10759356D01*
X5539719Y10749980D01*
X5563753Y10745200D01*
X5588257Y10745201D01*
X5612291Y10749983D01*
X5634929Y10759361D01*
X5655295Y10772969D01*
X5661670Y10778200D01*
X5665972Y10780500D01*
X5670643Y10781917D01*
X5681641Y10783000D01*
X5970359Y10783000D01*
X5981357Y10781917D01*
X5986028Y10780500D01*
X5990330Y10778200D01*
X5994104Y10775104D01*
X5997200Y10771330D01*
X5999500Y10767028D01*
X6000917Y10762357D01*
X6002000Y10751359D01*
X6002000Y9887641D01*
X6000917Y9876643D01*
X5999500Y9871972D01*
X5997199Y9867667D01*
X5990557Y9859573D01*
X5976944Y9839198D01*
X5967568Y9816558D01*
X5962788Y9792525D01*
X5962790Y9768020D01*
X5967571Y9743987D01*
X5976950Y9721349D01*
X5990565Y9700975D01*
X6007893Y9683649D01*
X6028264Y9670038D01*
X6055469Y9655497D01*
X6079651Y9635651D01*
X6099497Y9611469D01*
X6114038Y9584264D01*
X6127652Y9563889D01*
X6144979Y9546562D01*
X6165353Y9532948D01*
X6187992Y9523570D01*
X6212025Y9518789D01*
X6236530Y9518789D01*
X6260563Y9523569D01*
X6283202Y9532946D01*
X6303573Y9546557D01*
X6311667Y9553199D01*
X6315972Y9555500D01*
X6320643Y9556917D01*
X6331641Y9558000D01*
X7195359Y9558000D01*
X7206357Y9556917D01*
X7211028Y9555500D01*
X7215330Y9553200D01*
X7219104Y9550104D01*
X7222200Y9546330D01*
X7224500Y9542028D01*
X7225917Y9537357D01*
X7227000Y9526359D01*
X7227000Y9237641D01*
X7225917Y9226643D01*
X7224500Y9221972D01*
X7222200Y9217670D01*
X7216969Y9211295D01*
X7203356Y9190920D01*
X7193980Y9168281D01*
X7189200Y9144247D01*
X7189201Y9119743D01*
X7193983Y9095709D01*
X7203361Y9073071D01*
X7216969Y9052705D01*
X7222200Y9046330D01*
X7224500Y9042028D01*
X7225917Y9037357D01*
X7227000Y9026359D01*
X7227000Y8737641D01*
X7225917Y8726643D01*
X7224500Y8721972D01*
X7222200Y8717670D01*
X7216969Y8711295D01*
X7203356Y8690920D01*
X7193980Y8668281D01*
X7189200Y8644247D01*
X7189201Y8619743D01*
X7193983Y8595709D01*
X7203361Y8573071D01*
X7216969Y8552705D01*
X7222200Y8546330D01*
X7224500Y8542028D01*
X7225917Y8537357D01*
X7227000Y8526359D01*
X7227000Y8237641D01*
X7225917Y8226643D01*
X7224500Y8221972D01*
X7222200Y8217670D01*
X7216969Y8211295D01*
X7203356Y8190920D01*
X7193980Y8168281D01*
X7189200Y8144247D01*
X7189201Y8119743D01*
X7193983Y8095709D01*
X7203361Y8073071D01*
X7216969Y8052705D01*
X7222200Y8046330D01*
X7224500Y8042028D01*
X7225917Y8037357D01*
X7227000Y8026359D01*
X7227000Y7737641D01*
X7225917Y7726643D01*
X7224500Y7721972D01*
X7222200Y7717670D01*
X7216969Y7711295D01*
X7203356Y7690920D01*
X7193980Y7668281D01*
X7189200Y7644247D01*
X7189201Y7619743D01*
X7193983Y7595709D01*
X7203361Y7573071D01*
X7216969Y7552705D01*
X7222200Y7546330D01*
X7224500Y7542028D01*
X7225917Y7537357D01*
X7227000Y7526359D01*
X7227000Y7237641D01*
X7225917Y7226643D01*
X7224500Y7221972D01*
X7222200Y7217670D01*
X7219104Y7213896D01*
X7215330Y7210800D01*
X7211028Y7208500D01*
X7206357Y7207083D01*
X7195359Y7206000D01*
X6331641Y7206000D01*
X6320643Y7207083D01*
X6315972Y7208500D01*
X6311667Y7210801D01*
X6303573Y7217443D01*
X6283198Y7231056D01*
X6260558Y7240432D01*
X6236525Y7245212D01*
X6212020Y7245210D01*
X6187987Y7240429D01*
X6165349Y7231050D01*
X6144975Y7217435D01*
X6127649Y7200107D01*
X6114038Y7179736D01*
X6099497Y7152531D01*
X6079651Y7128349D01*
X6055469Y7108503D01*
X6028264Y7093962D01*
X6007889Y7080348D01*
X5990562Y7063021D01*
X5976948Y7042647D01*
X5967570Y7020008D01*
X5962789Y6995975D01*
X5962789Y6971470D01*
X5967569Y6947437D01*
X5976946Y6924798D01*
X5990557Y6904427D01*
X5997199Y6896333D01*
X5999500Y6892028D01*
X6000917Y6887357D01*
X6002000Y6876359D01*
X6002000Y6012641D01*
X6000917Y6001643D01*
X5999500Y5996972D01*
X5997200Y5992670D01*
X5994104Y5988896D01*
X5990330Y5985800D01*
X5986028Y5983500D01*
X5981357Y5982083D01*
X5970359Y5981000D01*
X5681641Y5981000D01*
X5670643Y5982083D01*
X5665972Y5983500D01*
X5661670Y5985800D01*
X5655295Y5991031D01*
X5634920Y6004644D01*
X5612281Y6014020D01*
X5588247Y6018800D01*
X5563743Y6018799D01*
X5539709Y6014017D01*
X5517071Y6004639D01*
X5496705Y5991031D01*
X5490330Y5985800D01*
X5486028Y5983500D01*
X5481357Y5982083D01*
X5470359Y5981000D01*
X5181641Y5981000D01*
X5170643Y5982083D01*
X5165972Y5983500D01*
X5161670Y5985800D01*
X5155295Y5991031D01*
X5134920Y6004644D01*
X5112281Y6014020D01*
X5088247Y6018800D01*
X5063743Y6018799D01*
X5039709Y6014017D01*
X5017071Y6004639D01*
X4996705Y5991031D01*
X4990330Y5985800D01*
X4986028Y5983500D01*
X4981357Y5982083D01*
X4970359Y5981000D01*
X4681641Y5981000D01*
X4670643Y5982083D01*
X4665972Y5983500D01*
X4661670Y5985800D01*
X4655295Y5991031D01*
X4634920Y6004644D01*
X4612281Y6014020D01*
X4588247Y6018800D01*
X4563743Y6018799D01*
X4539709Y6014017D01*
X4517071Y6004639D01*
X4496705Y5991031D01*
X4490330Y5985800D01*
X4486028Y5983500D01*
X4481357Y5982083D01*
X4470359Y5981000D01*
X4181641Y5981000D01*
X4170643Y5982083D01*
X4165972Y5983500D01*
X4161670Y5985800D01*
X4155295Y5991031D01*
X4134920Y6004644D01*
X4112281Y6014020D01*
X4088247Y6018800D01*
X4063743Y6018799D01*
X4039709Y6014017D01*
X4017071Y6004639D01*
X3996705Y5991031D01*
X3990330Y5985800D01*
X3986028Y5983500D01*
X3981357Y5982083D01*
X3970359Y5981000D01*
X3681641Y5981000D01*
X3670643Y5982083D01*
X3665972Y5983500D01*
X3661670Y5985800D01*
X3657896Y5988896D01*
X3654800Y5992670D01*
X3652500Y5996972D01*
X3651083Y6001643D01*
X3650000Y6012641D01*
X3650000Y6876359D01*
X3651083Y6887357D01*
X3652500Y6892028D01*
X3654801Y6896333D01*
X3661443Y6904427D01*
X3675056Y6924802D01*
X3684432Y6947442D01*
X3689212Y6971475D01*
X3689210Y6995980D01*
X3684429Y7020013D01*
X3675050Y7042651D01*
X3661435Y7063025D01*
X3644107Y7080351D01*
X3623736Y7093962D01*
X3596531Y7108503D01*
X3572349Y7128349D01*
X3552503Y7152531D01*
X3537962Y7179736D01*
X3524348Y7200111D01*
X3507021Y7217438D01*
X3486647Y7231052D01*
X3464008Y7240430D01*
X3439975Y7245211D01*
X3415470Y7245211D01*
X3391437Y7240431D01*
X3368798Y7231054D01*
X3348427Y7217443D01*
X3340333Y7210801D01*
X3336028Y7208500D01*
X3331357Y7207083D01*
X3320359Y7206000D01*
X2456641Y7206000D01*
X2445643Y7207083D01*
X2440972Y7208500D01*
X2436670Y7210800D01*
X2432896Y7213896D01*
X2429800Y7217670D01*
X2427500Y7221972D01*
X2426083Y7226643D01*
X2425000Y7237641D01*
X2425000Y7526359D01*
X2426083Y7537357D01*
X2427500Y7542028D01*
X2429800Y7546330D01*
X2435031Y7552705D01*
X2448644Y7573080D01*
X2458020Y7595719D01*
X2462800Y7619753D01*
X2462799Y7644257D01*
X2458017Y7668291D01*
X2448639Y7690929D01*
X2435031Y7711295D01*
X2429800Y7717670D01*
X2427500Y7721972D01*
X2426083Y7726643D01*
X2425000Y7737641D01*
X2425000Y8026359D01*
X2426083Y8037357D01*
X2427500Y8042028D01*
X2429800Y8046330D01*
X2435031Y8052705D01*
X2448644Y8073080D01*
X2458020Y8095719D01*
X2462800Y8119753D01*
X2462799Y8144257D01*
X2458017Y8168291D01*
X2448639Y8190929D01*
X2435031Y8211295D01*
X2429800Y8217670D01*
X2427500Y8221972D01*
X2426083Y8226643D01*
X2425000Y8237641D01*
X2425000Y8526359D01*
X2426083Y8537357D01*
X2427500Y8542028D01*
X2429800Y8546330D01*
X2435031Y8552705D01*
X2448644Y8573080D01*
X2458020Y8595719D01*
X2462800Y8619753D01*
X2462799Y8644257D01*
X2458017Y8668291D01*
X2448639Y8690929D01*
X2435031Y8711295D01*
X2429800Y8717670D01*
X2427500Y8721972D01*
X2426083Y8726643D01*
X2425000Y8737641D01*
X2425000Y9026359D01*
X2426083Y9037357D01*
X2427500Y9042028D01*
X2429800Y9046330D01*
X2435031Y9052705D01*
X2448644Y9073080D01*
X2458020Y9095719D01*
X2462800Y9119753D01*
X2462799Y9144257D01*
X2458017Y9168291D01*
X2448639Y9190929D01*
X2435031Y9211295D01*
X2429800Y9217670D01*
X2427500Y9221972D01*
X2426083Y9226643D01*
X2425000Y9237641D01*
X2425000Y9526359D01*
X2426083Y9537357D01*
X2427500Y9542028D01*
X2429800Y9546330D01*
X2432896Y9550104D01*
X2436670Y9553200D01*
X2440972Y9555500D01*
X2445643Y9556917D01*
X2456641Y9558000D01*
X3320359Y9558000D01*
X3331357Y9556917D01*
X3336028Y9555500D01*
X3340333Y9553199D01*
X3348427Y9546557D01*
X3368802Y9532944D01*
X3391442Y9523568D01*
X3415475Y9518788D01*
X3439980Y9518790D01*
X3464013Y9523571D01*
X3486651Y9532950D01*
X3507025Y9546565D01*
X3524351Y9563893D01*
X3537962Y9584264D01*
X3552503Y9611469D01*
X3572349Y9635651D01*
X3596531Y9655497D01*
X3623736Y9670038D01*
X3644111Y9683652D01*
X3661438Y9700979D01*
X3675052Y9721353D01*
X3684430Y9743992D01*
X3689211Y9768025D01*
X3689211Y9792530D01*
X3684431Y9816563D01*
X3675054Y9839202D01*
X3661443Y9859573D01*
X3654801Y9867667D01*
X3652500Y9871972D01*
X3651083Y9876643D01*
X3650000Y9887641D01*
X3650000Y10751359D01*
X3651083Y10762357D01*
X3652500Y10767028D01*
X3654800Y10771330D01*
X3657896Y10775104D01*
X3661670Y10778200D01*
X3665972Y10780500D01*
X3670643Y10781917D01*
X3681641Y10783000D01*
X3970359Y10783000D01*
X3981357Y10781917D01*
X3981357Y10781917D01*
G37*
G36*
X-16018558Y9784482D02*
X-15952373Y9777963D01*
X-15840385Y9743992D01*
X-15782533Y9726443D01*
X-15701258Y9683000D01*
X-15626009Y9642778D01*
X-15617325Y9635651D01*
X-15488814Y9530186D01*
X-15405552Y9428729D01*
X-15376222Y9392991D01*
X-15376221Y9392989D01*
X-15292557Y9236467D01*
X-15278741Y9190920D01*
X-15241037Y9066627D01*
X-15223641Y8890000D01*
X-15241037Y8713373D01*
X-15262003Y8644257D01*
X-15292557Y8543533D01*
X-15322685Y8487168D01*
X-15376222Y8387009D01*
X-15405552Y8351271D01*
X-15488814Y8249814D01*
X-15560567Y8190929D01*
X-15626009Y8137222D01*
X-15626011Y8137221D01*
X-15782533Y8053557D01*
X-15820540Y8042028D01*
X-15952373Y8002037D01*
X-16018557Y7995519D01*
X-16084740Y7989000D01*
X-16173260Y7989000D01*
X-16239443Y7995519D01*
X-16305627Y8002037D01*
X-16437460Y8042028D01*
X-16475467Y8053557D01*
X-16631989Y8137221D01*
X-16631991Y8137222D01*
X-16697433Y8190929D01*
X-16769186Y8249814D01*
X-16852448Y8351271D01*
X-16881778Y8387009D01*
X-16935315Y8487168D01*
X-16965443Y8543533D01*
X-16995997Y8644257D01*
X-17016963Y8713373D01*
X-17034359Y8890000D01*
X-17016963Y9066627D01*
X-16979259Y9190920D01*
X-16965443Y9236467D01*
X-16881779Y9392989D01*
X-16881778Y9392991D01*
X-16852448Y9428729D01*
X-16769186Y9530186D01*
X-16640675Y9635651D01*
X-16631991Y9642778D01*
X-16556742Y9683000D01*
X-16475467Y9726443D01*
X-16417615Y9743992D01*
X-16305627Y9777963D01*
X-16239442Y9784482D01*
X-16173260Y9791000D01*
X-16084740Y9791000D01*
X-16018558Y9784482D01*
X-16018558Y9784482D01*
G37*
G36*
X-13478558Y9784482D02*
X-13412373Y9777963D01*
X-13300385Y9743992D01*
X-13242533Y9726443D01*
X-13161258Y9683000D01*
X-13086009Y9642778D01*
X-13077325Y9635651D01*
X-12948814Y9530186D01*
X-12865552Y9428729D01*
X-12836222Y9392991D01*
X-12836221Y9392989D01*
X-12752557Y9236467D01*
X-12738741Y9190920D01*
X-12701037Y9066627D01*
X-12683641Y8890000D01*
X-12701037Y8713373D01*
X-12722003Y8644257D01*
X-12752557Y8543533D01*
X-12782685Y8487168D01*
X-12836222Y8387009D01*
X-12865552Y8351271D01*
X-12948814Y8249814D01*
X-13020567Y8190929D01*
X-13086009Y8137222D01*
X-13086011Y8137221D01*
X-13242533Y8053557D01*
X-13280540Y8042028D01*
X-13412373Y8002037D01*
X-13478557Y7995519D01*
X-13544740Y7989000D01*
X-13633260Y7989000D01*
X-13699443Y7995519D01*
X-13765627Y8002037D01*
X-13897460Y8042028D01*
X-13935467Y8053557D01*
X-14091989Y8137221D01*
X-14091991Y8137222D01*
X-14157433Y8190929D01*
X-14229186Y8249814D01*
X-14312448Y8351271D01*
X-14341778Y8387009D01*
X-14395315Y8487168D01*
X-14425443Y8543533D01*
X-14455997Y8644257D01*
X-14476963Y8713373D01*
X-14494359Y8890000D01*
X-14476963Y9066627D01*
X-14439259Y9190920D01*
X-14425443Y9236467D01*
X-14341779Y9392989D01*
X-14341778Y9392991D01*
X-14312448Y9428729D01*
X-14229186Y9530186D01*
X-14100675Y9635651D01*
X-14091991Y9642778D01*
X-14016742Y9683000D01*
X-13935467Y9726443D01*
X-13877615Y9743992D01*
X-13765627Y9777963D01*
X-13699442Y9784482D01*
X-13633260Y9791000D01*
X-13544740Y9791000D01*
X-13478558Y9784482D01*
X-13478558Y9784482D01*
G37*
G36*
X-13478558Y12324482D02*
X-13412373Y12317963D01*
X-13299147Y12283616D01*
X-13242533Y12266443D01*
X-13103913Y12192348D01*
X-13086009Y12182778D01*
X-13050271Y12153448D01*
X-12948814Y12070186D01*
X-12865552Y11968729D01*
X-12836222Y11932991D01*
X-12836221Y11932989D01*
X-12752557Y11776467D01*
X-12752557Y11776466D01*
X-12701037Y11606627D01*
X-12683641Y11430000D01*
X-12701037Y11253373D01*
X-12735384Y11140147D01*
X-12752557Y11083533D01*
X-12826652Y10944913D01*
X-12836222Y10927009D01*
X-12865552Y10891271D01*
X-12948814Y10789814D01*
X-13043427Y10712168D01*
X-13086009Y10677222D01*
X-13086011Y10677221D01*
X-13242533Y10593557D01*
X-13299147Y10576384D01*
X-13412373Y10542037D01*
X-13478557Y10535519D01*
X-13544740Y10529000D01*
X-13633260Y10529000D01*
X-13699442Y10535518D01*
X-13765627Y10542037D01*
X-13878853Y10576384D01*
X-13935467Y10593557D01*
X-14091989Y10677221D01*
X-14091991Y10677222D01*
X-14134573Y10712168D01*
X-14229186Y10789814D01*
X-14312448Y10891271D01*
X-14341778Y10927009D01*
X-14351348Y10944913D01*
X-14425443Y11083533D01*
X-14442616Y11140147D01*
X-14476963Y11253373D01*
X-14494359Y11430000D01*
X-14476963Y11606627D01*
X-14425443Y11776466D01*
X-14425443Y11776467D01*
X-14341779Y11932989D01*
X-14341778Y11932991D01*
X-14312448Y11968729D01*
X-14229186Y12070186D01*
X-14127729Y12153448D01*
X-14091991Y12182778D01*
X-14074087Y12192348D01*
X-13935467Y12266443D01*
X-13878853Y12283616D01*
X-13765627Y12317963D01*
X-13699442Y12324482D01*
X-13633260Y12331000D01*
X-13544740Y12331000D01*
X-13478558Y12324482D01*
X-13478558Y12324482D01*
G37*
G36*
X-16018558Y12324482D02*
X-15952373Y12317963D01*
X-15839147Y12283616D01*
X-15782533Y12266443D01*
X-15643913Y12192348D01*
X-15626009Y12182778D01*
X-15590271Y12153448D01*
X-15488814Y12070186D01*
X-15405552Y11968729D01*
X-15376222Y11932991D01*
X-15376221Y11932989D01*
X-15292557Y11776467D01*
X-15292557Y11776466D01*
X-15241037Y11606627D01*
X-15223641Y11430000D01*
X-15241037Y11253373D01*
X-15275384Y11140147D01*
X-15292557Y11083533D01*
X-15366652Y10944913D01*
X-15376222Y10927009D01*
X-15405552Y10891271D01*
X-15488814Y10789814D01*
X-15583427Y10712168D01*
X-15626009Y10677222D01*
X-15626011Y10677221D01*
X-15782533Y10593557D01*
X-15839147Y10576384D01*
X-15952373Y10542037D01*
X-16018557Y10535519D01*
X-16084740Y10529000D01*
X-16173260Y10529000D01*
X-16239442Y10535518D01*
X-16305627Y10542037D01*
X-16418853Y10576384D01*
X-16475467Y10593557D01*
X-16631989Y10677221D01*
X-16631991Y10677222D01*
X-16674573Y10712168D01*
X-16769186Y10789814D01*
X-16852448Y10891271D01*
X-16881778Y10927009D01*
X-16891348Y10944913D01*
X-16965443Y11083533D01*
X-16982616Y11140147D01*
X-17016963Y11253373D01*
X-17034359Y11430000D01*
X-17016963Y11606627D01*
X-16965443Y11776466D01*
X-16965443Y11776467D01*
X-16881779Y11932989D01*
X-16881778Y11932991D01*
X-16852448Y11968729D01*
X-16769186Y12070186D01*
X-16667729Y12153448D01*
X-16631991Y12182778D01*
X-16614087Y12192348D01*
X-16475467Y12266443D01*
X-16418853Y12283616D01*
X-16305627Y12317963D01*
X-16239442Y12324482D01*
X-16173260Y12331000D01*
X-16084740Y12331000D01*
X-16018558Y12324482D01*
X-16018558Y12324482D01*
G37*
G36*
X-9593179Y14678687D02*
X-9593176Y14678686D01*
X-9593175Y14678686D01*
X-9432761Y14630025D01*
X-9432759Y14630024D01*
X-9432756Y14630023D01*
X-9284922Y14551005D01*
X-9155341Y14444659D01*
X-9048995Y14315078D01*
X-8969977Y14167244D01*
X-8921313Y14006821D01*
X-8904883Y13840000D01*
X-8921313Y13673179D01*
X-8969977Y13512756D01*
X-9048995Y13364922D01*
X-9155341Y13235341D01*
X-9284922Y13128995D01*
X-9432756Y13049977D01*
X-9432759Y13049976D01*
X-9432761Y13049975D01*
X-9593175Y13001314D01*
X-9593176Y13001314D01*
X-9593179Y13001313D01*
X-9718196Y12989000D01*
X-10601804Y12989000D01*
X-10726821Y13001313D01*
X-10726824Y13001314D01*
X-10726825Y13001314D01*
X-10887239Y13049975D01*
X-10887241Y13049976D01*
X-10887244Y13049977D01*
X-11035078Y13128995D01*
X-11164659Y13235341D01*
X-11271005Y13364922D01*
X-11350023Y13512756D01*
X-11398687Y13673179D01*
X-11415117Y13840000D01*
X-11398687Y14006821D01*
X-11350023Y14167244D01*
X-11271005Y14315078D01*
X-11164659Y14444659D01*
X-11035078Y14551005D01*
X-10887244Y14630023D01*
X-10887241Y14630024D01*
X-10887239Y14630025D01*
X-10726825Y14678686D01*
X-10726824Y14678686D01*
X-10726821Y14678687D01*
X-10601804Y14691000D01*
X-9718196Y14691000D01*
X-9593179Y14678687D01*
X-9593179Y14678687D01*
G37*
G36*
X10726821Y14678687D02*
X10726824Y14678686D01*
X10726825Y14678686D01*
X10887239Y14630025D01*
X10887241Y14630024D01*
X10887244Y14630023D01*
X11035078Y14551005D01*
X11164659Y14444659D01*
X11271005Y14315078D01*
X11350023Y14167244D01*
X11398687Y14006821D01*
X11415117Y13840000D01*
X11398687Y13673179D01*
X11350023Y13512756D01*
X11271005Y13364922D01*
X11164659Y13235341D01*
X11035078Y13128995D01*
X10887244Y13049977D01*
X10887241Y13049976D01*
X10887239Y13049975D01*
X10726825Y13001314D01*
X10726824Y13001314D01*
X10726821Y13001313D01*
X10601804Y12989000D01*
X9718196Y12989000D01*
X9593179Y13001313D01*
X9593176Y13001314D01*
X9593175Y13001314D01*
X9432761Y13049975D01*
X9432759Y13049976D01*
X9432756Y13049977D01*
X9284922Y13128995D01*
X9155341Y13235341D01*
X9048995Y13364922D01*
X8969977Y13512756D01*
X8921313Y13673179D01*
X8904883Y13840000D01*
X8921313Y14006821D01*
X8969977Y14167244D01*
X9048995Y14315078D01*
X9155341Y14444659D01*
X9284922Y14551005D01*
X9432756Y14630023D01*
X9432759Y14630024D01*
X9432761Y14630025D01*
X9593175Y14678686D01*
X9593176Y14678686D01*
X9593179Y14678687D01*
X9718196Y14691000D01*
X10601804Y14691000D01*
X10726821Y14678687D01*
X10726821Y14678687D01*
G37*
G36*
X2951000Y13953000D02*
X-2951000Y13953000D01*
X-2951000Y20455000D01*
X2951000Y20455000D01*
X2951000Y13953000D01*
X2951000Y13953000D01*
G37*
G36*
X10826821Y17778687D02*
X10826824Y17778686D01*
X10826825Y17778686D01*
X10987239Y17730025D01*
X10987241Y17730024D01*
X10987244Y17730023D01*
X11135078Y17651005D01*
X11264659Y17544659D01*
X11371005Y17415078D01*
X11450023Y17267244D01*
X11498687Y17106821D01*
X11515117Y16940000D01*
X11498687Y16773179D01*
X11450023Y16612756D01*
X11371005Y16464922D01*
X11264659Y16335341D01*
X11135078Y16228995D01*
X10987244Y16149977D01*
X10987241Y16149976D01*
X10987239Y16149975D01*
X10826825Y16101314D01*
X10826824Y16101314D01*
X10826821Y16101313D01*
X10701804Y16089000D01*
X9618196Y16089000D01*
X9493179Y16101313D01*
X9493176Y16101314D01*
X9493175Y16101314D01*
X9332761Y16149975D01*
X9332759Y16149976D01*
X9332756Y16149977D01*
X9184922Y16228995D01*
X9055341Y16335341D01*
X8948995Y16464922D01*
X8869977Y16612756D01*
X8821313Y16773179D01*
X8804883Y16940000D01*
X8821313Y17106821D01*
X8869977Y17267244D01*
X8948995Y17415078D01*
X9055341Y17544659D01*
X9184922Y17651005D01*
X9332756Y17730023D01*
X9332759Y17730024D01*
X9332761Y17730025D01*
X9493175Y17778686D01*
X9493176Y17778686D01*
X9493179Y17778687D01*
X9618196Y17791000D01*
X10701804Y17791000D01*
X10826821Y17778687D01*
X10826821Y17778687D01*
G37*
G36*
X-9493179Y17778687D02*
X-9493176Y17778686D01*
X-9493175Y17778686D01*
X-9332761Y17730025D01*
X-9332759Y17730024D01*
X-9332756Y17730023D01*
X-9184922Y17651005D01*
X-9055341Y17544659D01*
X-8948995Y17415078D01*
X-8869977Y17267244D01*
X-8821313Y17106821D01*
X-8804883Y16940000D01*
X-8821313Y16773179D01*
X-8869977Y16612756D01*
X-8948995Y16464922D01*
X-9055341Y16335341D01*
X-9184922Y16228995D01*
X-9332756Y16149977D01*
X-9332759Y16149976D01*
X-9332761Y16149975D01*
X-9493175Y16101314D01*
X-9493176Y16101314D01*
X-9493179Y16101313D01*
X-9618196Y16089000D01*
X-10701804Y16089000D01*
X-10826821Y16101313D01*
X-10826824Y16101314D01*
X-10826825Y16101314D01*
X-10987239Y16149975D01*
X-10987241Y16149976D01*
X-10987244Y16149977D01*
X-11135078Y16228995D01*
X-11264659Y16335341D01*
X-11371005Y16464922D01*
X-11450023Y16612756D01*
X-11498687Y16773179D01*
X-11515117Y16940000D01*
X-11498687Y17106821D01*
X-11450023Y17267244D01*
X-11371005Y17415078D01*
X-11264659Y17544659D01*
X-11135078Y17651005D01*
X-10987244Y17730023D01*
X-10987241Y17730024D01*
X-10987239Y17730025D01*
X-10826825Y17778686D01*
X-10826824Y17778686D01*
X-10826821Y17778687D01*
X-10701804Y17791000D01*
X-9618196Y17791000D01*
X-9493179Y17778687D01*
X-9493179Y17778687D01*
G37*
G36*
X15861591Y17412915D02*
X15895569Y17402607D01*
X15926887Y17385867D01*
X15954339Y17363339D01*
X15976867Y17335887D01*
X15993607Y17304569D01*
X16003915Y17270591D01*
X16008000Y17229110D01*
X16008000Y16552890D01*
X16003915Y16511409D01*
X15993607Y16477431D01*
X15976867Y16446113D01*
X15954339Y16418661D01*
X15926887Y16396133D01*
X15895569Y16379393D01*
X15861591Y16369085D01*
X15820110Y16365000D01*
X15218890Y16365000D01*
X15177409Y16369085D01*
X15143431Y16379393D01*
X15112113Y16396133D01*
X15084661Y16418661D01*
X15062133Y16446113D01*
X15045393Y16477431D01*
X15035085Y16511409D01*
X15031000Y16552890D01*
X15031000Y17229110D01*
X15035085Y17270591D01*
X15045393Y17304569D01*
X15062133Y17335887D01*
X15084661Y17363339D01*
X15112113Y17385867D01*
X15143431Y17402607D01*
X15177409Y17412915D01*
X15218890Y17417000D01*
X15820110Y17417000D01*
X15861591Y17412915D01*
X15861591Y17412915D01*
G37*
G36*
X14286591Y17412915D02*
X14320569Y17402607D01*
X14351887Y17385867D01*
X14379339Y17363339D01*
X14401867Y17335887D01*
X14418607Y17304569D01*
X14428915Y17270591D01*
X14433000Y17229110D01*
X14433000Y16552890D01*
X14428915Y16511409D01*
X14418607Y16477431D01*
X14401867Y16446113D01*
X14379339Y16418661D01*
X14351887Y16396133D01*
X14320569Y16379393D01*
X14286591Y16369085D01*
X14245110Y16365000D01*
X13643890Y16365000D01*
X13602409Y16369085D01*
X13568431Y16379393D01*
X13537113Y16396133D01*
X13509661Y16418661D01*
X13487133Y16446113D01*
X13470393Y16477431D01*
X13460085Y16511409D01*
X13456000Y16552890D01*
X13456000Y17229110D01*
X13460085Y17270591D01*
X13470393Y17304569D01*
X13487133Y17335887D01*
X13509661Y17363339D01*
X13537113Y17385867D01*
X13568431Y17402607D01*
X13602409Y17412915D01*
X13643890Y17417000D01*
X14245110Y17417000D01*
X14286591Y17412915D01*
X14286591Y17412915D01*
G37*
G36*
X-15050409Y17412915D02*
X-15016431Y17402607D01*
X-14985113Y17385867D01*
X-14957661Y17363339D01*
X-14935133Y17335887D01*
X-14918393Y17304569D01*
X-14908085Y17270591D01*
X-14904000Y17229110D01*
X-14904000Y16552890D01*
X-14908085Y16511409D01*
X-14918393Y16477431D01*
X-14935133Y16446113D01*
X-14957661Y16418661D01*
X-14985113Y16396133D01*
X-15016431Y16379393D01*
X-15050409Y16369085D01*
X-15091890Y16365000D01*
X-15693110Y16365000D01*
X-15734591Y16369085D01*
X-15768569Y16379393D01*
X-15799887Y16396133D01*
X-15827339Y16418661D01*
X-15849867Y16446113D01*
X-15866607Y16477431D01*
X-15876915Y16511409D01*
X-15881000Y16552890D01*
X-15881000Y17229110D01*
X-15876915Y17270591D01*
X-15866607Y17304569D01*
X-15849867Y17335887D01*
X-15827339Y17363339D01*
X-15799887Y17385867D01*
X-15768569Y17402607D01*
X-15734591Y17412915D01*
X-15693110Y17417000D01*
X-15091890Y17417000D01*
X-15050409Y17412915D01*
X-15050409Y17412915D01*
G37*
G36*
X-13475409Y17412915D02*
X-13441431Y17402607D01*
X-13410113Y17385867D01*
X-13382661Y17363339D01*
X-13360133Y17335887D01*
X-13343393Y17304569D01*
X-13333085Y17270591D01*
X-13329000Y17229110D01*
X-13329000Y16552890D01*
X-13333085Y16511409D01*
X-13343393Y16477431D01*
X-13360133Y16446113D01*
X-13382661Y16418661D01*
X-13410113Y16396133D01*
X-13441431Y16379393D01*
X-13475409Y16369085D01*
X-13516890Y16365000D01*
X-14118110Y16365000D01*
X-14159591Y16369085D01*
X-14193569Y16379393D01*
X-14224887Y16396133D01*
X-14252339Y16418661D01*
X-14274867Y16446113D01*
X-14291607Y16477431D01*
X-14301915Y16511409D01*
X-14306000Y16552890D01*
X-14306000Y17229110D01*
X-14301915Y17270591D01*
X-14291607Y17304569D01*
X-14274867Y17335887D01*
X-14252339Y17363339D01*
X-14224887Y17385867D01*
X-14193569Y17402607D01*
X-14159591Y17412915D01*
X-14118110Y17417000D01*
X-13516890Y17417000D01*
X-13475409Y17412915D01*
X-13475409Y17412915D01*
G37*
G36*
X-15050409Y20206915D02*
X-15016431Y20196607D01*
X-14985113Y20179867D01*
X-14957661Y20157339D01*
X-14935133Y20129887D01*
X-14918393Y20098569D01*
X-14908085Y20064591D01*
X-14904000Y20023110D01*
X-14904000Y19346890D01*
X-14908085Y19305409D01*
X-14918393Y19271431D01*
X-14935133Y19240113D01*
X-14957661Y19212661D01*
X-14985113Y19190133D01*
X-15016431Y19173393D01*
X-15050409Y19163085D01*
X-15091890Y19159000D01*
X-15693110Y19159000D01*
X-15734591Y19163085D01*
X-15768569Y19173393D01*
X-15799887Y19190133D01*
X-15827339Y19212661D01*
X-15849867Y19240113D01*
X-15866607Y19271431D01*
X-15876915Y19305409D01*
X-15881000Y19346890D01*
X-15881000Y20023110D01*
X-15876915Y20064591D01*
X-15866607Y20098569D01*
X-15849867Y20129887D01*
X-15827339Y20157339D01*
X-15799887Y20179867D01*
X-15768569Y20196607D01*
X-15734591Y20206915D01*
X-15693110Y20211000D01*
X-15091890Y20211000D01*
X-15050409Y20206915D01*
X-15050409Y20206915D01*
G37*
G36*
X-13475409Y20206915D02*
X-13441431Y20196607D01*
X-13410113Y20179867D01*
X-13382661Y20157339D01*
X-13360133Y20129887D01*
X-13343393Y20098569D01*
X-13333085Y20064591D01*
X-13329000Y20023110D01*
X-13329000Y19346890D01*
X-13333085Y19305409D01*
X-13343393Y19271431D01*
X-13360133Y19240113D01*
X-13382661Y19212661D01*
X-13410113Y19190133D01*
X-13441431Y19173393D01*
X-13475409Y19163085D01*
X-13516890Y19159000D01*
X-14118110Y19159000D01*
X-14159591Y19163085D01*
X-14193569Y19173393D01*
X-14224887Y19190133D01*
X-14252339Y19212661D01*
X-14274867Y19240113D01*
X-14291607Y19271431D01*
X-14301915Y19305409D01*
X-14306000Y19346890D01*
X-14306000Y20023110D01*
X-14301915Y20064591D01*
X-14291607Y20098569D01*
X-14274867Y20129887D01*
X-14252339Y20157339D01*
X-14224887Y20179867D01*
X-14193569Y20196607D01*
X-14159591Y20206915D01*
X-14118110Y20211000D01*
X-13516890Y20211000D01*
X-13475409Y20206915D01*
X-13475409Y20206915D01*
G37*
G36*
X-8786000Y19681000D02*
X-9788000Y19681000D01*
X-9788000Y20583000D01*
X-8786000Y20583000D01*
X-8786000Y19681000D01*
X-8786000Y19681000D01*
G37*
G36*
X11534000Y19681000D02*
X10532000Y19681000D01*
X10532000Y20583000D01*
X11534000Y20583000D01*
X11534000Y19681000D01*
X11534000Y19681000D01*
G37*
G36*
X-10786000Y20631000D02*
X-11788000Y20631000D01*
X-11788000Y21533000D01*
X-10786000Y21533000D01*
X-10786000Y20631000D01*
X-10786000Y20631000D01*
G37*
G36*
X9534000Y20631000D02*
X8532000Y20631000D01*
X8532000Y21533000D01*
X9534000Y21533000D01*
X9534000Y20631000D01*
X9534000Y20631000D01*
G37*
G36*
X11534000Y21581000D02*
X10532000Y21581000D01*
X10532000Y22483000D01*
X11534000Y22483000D01*
X11534000Y21581000D01*
X11534000Y21581000D01*
G37*
G36*
X-8786000Y21581000D02*
X-9788000Y21581000D01*
X-9788000Y22483000D01*
X-8786000Y22483000D01*
X-8786000Y21581000D01*
X-8786000Y21581000D01*
G37*
G36*
X-1629000Y22353000D02*
X-2931000Y22353000D01*
X-2931000Y24655000D01*
X-1629000Y24655000D01*
X-1629000Y22353000D01*
X-1629000Y22353000D01*
G37*
G36*
X651000Y22353000D02*
X-651000Y22353000D01*
X-651000Y24655000D01*
X651000Y24655000D01*
X651000Y22353000D01*
X651000Y22353000D01*
G37*
G36*
X2931000Y22353000D02*
X1629000Y22353000D01*
X1629000Y24655000D01*
X2931000Y24655000D01*
X2931000Y22353000D01*
X2931000Y22353000D01*
G37*
G36*
X10867025Y26029410D02*
X11018012Y25983608D01*
X11157165Y25909230D01*
X11279133Y25809133D01*
X11379230Y25687165D01*
X11453608Y25548012D01*
X11499410Y25397025D01*
X11514875Y25240000D01*
X11499410Y25082975D01*
X11453608Y24931988D01*
X11379230Y24792835D01*
X11279133Y24670867D01*
X11157165Y24570770D01*
X11018012Y24496392D01*
X10867025Y24450590D01*
X10749346Y24439000D01*
X9570654Y24439000D01*
X9452975Y24450590D01*
X9301988Y24496392D01*
X9162835Y24570770D01*
X9040867Y24670867D01*
X8940770Y24792835D01*
X8866392Y24931988D01*
X8820590Y25082975D01*
X8805125Y25240000D01*
X8820590Y25397025D01*
X8866392Y25548012D01*
X8940770Y25687165D01*
X9040867Y25809133D01*
X9162835Y25909230D01*
X9301988Y25983608D01*
X9452975Y26029410D01*
X9570654Y26041000D01*
X10749346Y26041000D01*
X10867025Y26029410D01*
X10867025Y26029410D01*
G37*
G36*
X-9452975Y26029410D02*
X-9301988Y25983608D01*
X-9162835Y25909230D01*
X-9040867Y25809133D01*
X-8940770Y25687165D01*
X-8866392Y25548012D01*
X-8820590Y25397025D01*
X-8805125Y25240000D01*
X-8820590Y25082975D01*
X-8866392Y24931988D01*
X-8940770Y24792835D01*
X-9040867Y24670867D01*
X-9162835Y24570770D01*
X-9301988Y24496392D01*
X-9452975Y24450590D01*
X-9570654Y24439000D01*
X-10749346Y24439000D01*
X-10867025Y24450590D01*
X-11018012Y24496392D01*
X-11157165Y24570770D01*
X-11279133Y24670867D01*
X-11379230Y24792835D01*
X-11453608Y24931988D01*
X-11499410Y25082975D01*
X-11514875Y25240000D01*
X-11499410Y25397025D01*
X-11453608Y25548012D01*
X-11379230Y25687165D01*
X-11279133Y25809133D01*
X-11157165Y25909230D01*
X-11018012Y25983608D01*
X-10867025Y26029410D01*
X-10749346Y26041000D01*
X-9570654Y26041000D01*
X-9452975Y26029410D01*
X-9452975Y26029410D01*
G37*
G36*
X-15025409Y25921915D02*
X-14991431Y25911607D01*
X-14960113Y25894867D01*
X-14932661Y25872339D01*
X-14910133Y25844887D01*
X-14893393Y25813569D01*
X-14883085Y25779591D01*
X-14879000Y25738110D01*
X-14879000Y25061890D01*
X-14883085Y25020409D01*
X-14893393Y24986431D01*
X-14910133Y24955113D01*
X-14932661Y24927661D01*
X-14960113Y24905133D01*
X-14991431Y24888393D01*
X-15025409Y24878085D01*
X-15066890Y24874000D01*
X-15668110Y24874000D01*
X-15709591Y24878085D01*
X-15743569Y24888393D01*
X-15774887Y24905133D01*
X-15802339Y24927661D01*
X-15824867Y24955113D01*
X-15841607Y24986431D01*
X-15851915Y25020409D01*
X-15856000Y25061890D01*
X-15856000Y25738110D01*
X-15851915Y25779591D01*
X-15841607Y25813569D01*
X-15824867Y25844887D01*
X-15802339Y25872339D01*
X-15774887Y25894867D01*
X-15743569Y25911607D01*
X-15709591Y25921915D01*
X-15668110Y25926000D01*
X-15066890Y25926000D01*
X-15025409Y25921915D01*
X-15025409Y25921915D01*
G37*
G36*
X-13450409Y25921915D02*
X-13416431Y25911607D01*
X-13385113Y25894867D01*
X-13357661Y25872339D01*
X-13335133Y25844887D01*
X-13318393Y25813569D01*
X-13308085Y25779591D01*
X-13304000Y25738110D01*
X-13304000Y25061890D01*
X-13308085Y25020409D01*
X-13318393Y24986431D01*
X-13335133Y24955113D01*
X-13357661Y24927661D01*
X-13385113Y24905133D01*
X-13416431Y24888393D01*
X-13450409Y24878085D01*
X-13491890Y24874000D01*
X-14093110Y24874000D01*
X-14134591Y24878085D01*
X-14168569Y24888393D01*
X-14199887Y24905133D01*
X-14227339Y24927661D01*
X-14249867Y24955113D01*
X-14266607Y24986431D01*
X-14276915Y25020409D01*
X-14281000Y25061890D01*
X-14281000Y25738110D01*
X-14276915Y25779591D01*
X-14266607Y25813569D01*
X-14249867Y25844887D01*
X-14227339Y25872339D01*
X-14199887Y25894867D01*
X-14168569Y25911607D01*
X-14134591Y25921915D01*
X-14093110Y25926000D01*
X-13491890Y25926000D01*
X-13450409Y25921915D01*
X-13450409Y25921915D01*
G37*
G36*
X14286591Y25921915D02*
X14320569Y25911607D01*
X14351887Y25894867D01*
X14379339Y25872339D01*
X14401867Y25844887D01*
X14418607Y25813569D01*
X14428915Y25779591D01*
X14433000Y25738110D01*
X14433000Y25061890D01*
X14428915Y25020409D01*
X14418607Y24986431D01*
X14401867Y24955113D01*
X14379339Y24927661D01*
X14351887Y24905133D01*
X14320569Y24888393D01*
X14286591Y24878085D01*
X14245110Y24874000D01*
X13643890Y24874000D01*
X13602409Y24878085D01*
X13568431Y24888393D01*
X13537113Y24905133D01*
X13509661Y24927661D01*
X13487133Y24955113D01*
X13470393Y24986431D01*
X13460085Y25020409D01*
X13456000Y25061890D01*
X13456000Y25738110D01*
X13460085Y25779591D01*
X13470393Y25813569D01*
X13487133Y25844887D01*
X13509661Y25872339D01*
X13537113Y25894867D01*
X13568431Y25911607D01*
X13602409Y25921915D01*
X13643890Y25926000D01*
X14245110Y25926000D01*
X14286591Y25921915D01*
X14286591Y25921915D01*
G37*
G36*
X-6134409Y25921915D02*
X-6100431Y25911607D01*
X-6069113Y25894867D01*
X-6041661Y25872339D01*
X-6019133Y25844887D01*
X-6002393Y25813569D01*
X-5992085Y25779591D01*
X-5988000Y25738110D01*
X-5988000Y25061890D01*
X-5992085Y25020409D01*
X-6002393Y24986431D01*
X-6019133Y24955113D01*
X-6041661Y24927661D01*
X-6069113Y24905133D01*
X-6100431Y24888393D01*
X-6134409Y24878085D01*
X-6175890Y24874000D01*
X-6777110Y24874000D01*
X-6818591Y24878085D01*
X-6852569Y24888393D01*
X-6883887Y24905133D01*
X-6911339Y24927661D01*
X-6933867Y24955113D01*
X-6950607Y24986431D01*
X-6960915Y25020409D01*
X-6965000Y25061890D01*
X-6965000Y25738110D01*
X-6960915Y25779591D01*
X-6950607Y25813569D01*
X-6933867Y25844887D01*
X-6911339Y25872339D01*
X-6883887Y25894867D01*
X-6852569Y25911607D01*
X-6818591Y25921915D01*
X-6777110Y25926000D01*
X-6175890Y25926000D01*
X-6134409Y25921915D01*
X-6134409Y25921915D01*
G37*
G36*
X5269591Y25921915D02*
X5303569Y25911607D01*
X5334887Y25894867D01*
X5362339Y25872339D01*
X5384867Y25844887D01*
X5401607Y25813569D01*
X5411915Y25779591D01*
X5416000Y25738110D01*
X5416000Y25061890D01*
X5411915Y25020409D01*
X5401607Y24986431D01*
X5384867Y24955113D01*
X5362339Y24927661D01*
X5334887Y24905133D01*
X5303569Y24888393D01*
X5269591Y24878085D01*
X5228110Y24874000D01*
X4626890Y24874000D01*
X4585409Y24878085D01*
X4551431Y24888393D01*
X4520113Y24905133D01*
X4492661Y24927661D01*
X4470133Y24955113D01*
X4453393Y24986431D01*
X4443085Y25020409D01*
X4439000Y25061890D01*
X4439000Y25738110D01*
X4443085Y25779591D01*
X4453393Y25813569D01*
X4470133Y25844887D01*
X4492661Y25872339D01*
X4520113Y25894867D01*
X4551431Y25911607D01*
X4585409Y25921915D01*
X4626890Y25926000D01*
X5228110Y25926000D01*
X5269591Y25921915D01*
X5269591Y25921915D01*
G37*
G36*
X6844591Y25921915D02*
X6878569Y25911607D01*
X6909887Y25894867D01*
X6937339Y25872339D01*
X6959867Y25844887D01*
X6976607Y25813569D01*
X6986915Y25779591D01*
X6991000Y25738110D01*
X6991000Y25061890D01*
X6986915Y25020409D01*
X6976607Y24986431D01*
X6959867Y24955113D01*
X6937339Y24927661D01*
X6909887Y24905133D01*
X6878569Y24888393D01*
X6844591Y24878085D01*
X6803110Y24874000D01*
X6201890Y24874000D01*
X6160409Y24878085D01*
X6126431Y24888393D01*
X6095113Y24905133D01*
X6067661Y24927661D01*
X6045133Y24955113D01*
X6028393Y24986431D01*
X6018085Y25020409D01*
X6014000Y25061890D01*
X6014000Y25738110D01*
X6018085Y25779591D01*
X6028393Y25813569D01*
X6045133Y25844887D01*
X6067661Y25872339D01*
X6095113Y25894867D01*
X6126431Y25911607D01*
X6160409Y25921915D01*
X6201890Y25926000D01*
X6803110Y25926000D01*
X6844591Y25921915D01*
X6844591Y25921915D01*
G37*
G36*
X15861591Y25921915D02*
X15895569Y25911607D01*
X15926887Y25894867D01*
X15954339Y25872339D01*
X15976867Y25844887D01*
X15993607Y25813569D01*
X16003915Y25779591D01*
X16008000Y25738110D01*
X16008000Y25061890D01*
X16003915Y25020409D01*
X15993607Y24986431D01*
X15976867Y24955113D01*
X15954339Y24927661D01*
X15926887Y24905133D01*
X15895569Y24888393D01*
X15861591Y24878085D01*
X15820110Y24874000D01*
X15218890Y24874000D01*
X15177409Y24878085D01*
X15143431Y24888393D01*
X15112113Y24905133D01*
X15084661Y24927661D01*
X15062133Y24955113D01*
X15045393Y24986431D01*
X15035085Y25020409D01*
X15031000Y25061890D01*
X15031000Y25738110D01*
X15035085Y25779591D01*
X15045393Y25813569D01*
X15062133Y25844887D01*
X15084661Y25872339D01*
X15112113Y25894867D01*
X15143431Y25911607D01*
X15177409Y25921915D01*
X15218890Y25926000D01*
X15820110Y25926000D01*
X15861591Y25921915D01*
X15861591Y25921915D01*
G37*
G36*
X-4559409Y25921915D02*
X-4525431Y25911607D01*
X-4494113Y25894867D01*
X-4466661Y25872339D01*
X-4444133Y25844887D01*
X-4427393Y25813569D01*
X-4417085Y25779591D01*
X-4413000Y25738110D01*
X-4413000Y25061890D01*
X-4417085Y25020409D01*
X-4427393Y24986431D01*
X-4444133Y24955113D01*
X-4466661Y24927661D01*
X-4494113Y24905133D01*
X-4525431Y24888393D01*
X-4559409Y24878085D01*
X-4600890Y24874000D01*
X-5202110Y24874000D01*
X-5243591Y24878085D01*
X-5277569Y24888393D01*
X-5308887Y24905133D01*
X-5336339Y24927661D01*
X-5358867Y24955113D01*
X-5375607Y24986431D01*
X-5385915Y25020409D01*
X-5390000Y25061890D01*
X-5390000Y25738110D01*
X-5385915Y25779591D01*
X-5375607Y25813569D01*
X-5358867Y25844887D01*
X-5336339Y25872339D01*
X-5308887Y25894867D01*
X-5277569Y25911607D01*
X-5243591Y25921915D01*
X-5202110Y25926000D01*
X-4600890Y25926000D01*
X-4559409Y25921915D01*
X-4559409Y25921915D01*
G37*
G36*
X-2942435Y29230011D02*
X-2751166Y29150785D01*
X-2579024Y29035763D01*
X-2432637Y28889376D01*
X-2317615Y28717234D01*
X-2238389Y28525965D01*
X-2198000Y28322916D01*
X-2198000Y28115884D01*
X-2238389Y27912835D01*
X-2317615Y27721566D01*
X-2432637Y27549424D01*
X-2579024Y27403037D01*
X-2751166Y27288015D01*
X-2942435Y27208789D01*
X-3145484Y27168400D01*
X-3352516Y27168400D01*
X-3555565Y27208789D01*
X-3746834Y27288015D01*
X-3918976Y27403037D01*
X-4065363Y27549424D01*
X-4180385Y27721566D01*
X-4259611Y27912835D01*
X-4300000Y28115884D01*
X-4300000Y28322916D01*
X-4259611Y28525965D01*
X-4180385Y28717234D01*
X-4065363Y28889376D01*
X-3918976Y29035763D01*
X-3746834Y29150785D01*
X-3555565Y29230011D01*
X-3352516Y29270400D01*
X-3145484Y29270400D01*
X-2942435Y29230011D01*
X-2942435Y29230011D01*
G37*
G36*
X3557565Y29230011D02*
X3748834Y29150785D01*
X3920976Y29035763D01*
X4067363Y28889376D01*
X4182385Y28717234D01*
X4261611Y28525965D01*
X4302000Y28322916D01*
X4302000Y28115884D01*
X4261611Y27912835D01*
X4182385Y27721566D01*
X4067363Y27549424D01*
X3920976Y27403037D01*
X3748834Y27288015D01*
X3557565Y27208789D01*
X3354516Y27168400D01*
X3147484Y27168400D01*
X2944435Y27208789D01*
X2753166Y27288015D01*
X2581024Y27403037D01*
X2434637Y27549424D01*
X2319615Y27721566D01*
X2240389Y27912835D01*
X2200000Y28115884D01*
X2200000Y28322916D01*
X2240389Y28525965D01*
X2319615Y28717234D01*
X2434637Y28889376D01*
X2581024Y29035763D01*
X2753166Y29150785D01*
X2944435Y29230011D01*
X3147484Y29270400D01*
X3354516Y29270400D01*
X3557565Y29230011D01*
X3557565Y29230011D01*
G37*
G36*
X-9454004Y29899949D02*
X-9420347Y29889739D01*
X-9389333Y29873162D01*
X-9362148Y29850852D01*
X-9339838Y29823667D01*
X-9323261Y29792653D01*
X-9313051Y29758996D01*
X-9309000Y29717862D01*
X-9309000Y27388138D01*
X-9313051Y27347004D01*
X-9323261Y27313347D01*
X-9339838Y27282333D01*
X-9362148Y27255148D01*
X-9389333Y27232838D01*
X-9420347Y27216261D01*
X-9454004Y27206051D01*
X-9495138Y27202000D01*
X-10824862Y27202000D01*
X-10865996Y27206051D01*
X-10899653Y27216261D01*
X-10930667Y27232838D01*
X-10957852Y27255148D01*
X-10980162Y27282333D01*
X-10996739Y27313347D01*
X-11006949Y27347004D01*
X-11011000Y27388138D01*
X-11011000Y29717862D01*
X-11006949Y29758996D01*
X-10996739Y29792653D01*
X-10980162Y29823667D01*
X-10957852Y29850852D01*
X-10930667Y29873162D01*
X-10899653Y29889739D01*
X-10865996Y29899949D01*
X-10824862Y29904000D01*
X-9495138Y29904000D01*
X-9454004Y29899949D01*
X-9454004Y29899949D01*
G37*
G36*
X10865996Y29899949D02*
X10899653Y29889739D01*
X10930667Y29873162D01*
X10957852Y29850852D01*
X10980162Y29823667D01*
X10996739Y29792653D01*
X11006949Y29758996D01*
X11011000Y29717862D01*
X11011000Y27388138D01*
X11006949Y27347004D01*
X10996739Y27313347D01*
X10980162Y27282333D01*
X10957852Y27255148D01*
X10930667Y27232838D01*
X10899653Y27216261D01*
X10865996Y27206051D01*
X10824862Y27202000D01*
X9495138Y27202000D01*
X9454004Y27206051D01*
X9420347Y27216261D01*
X9389333Y27232838D01*
X9362148Y27255148D01*
X9339838Y27282333D01*
X9323261Y27313347D01*
X9313051Y27347004D01*
X9309000Y27388138D01*
X9309000Y29717862D01*
X9313051Y29758996D01*
X9323261Y29792653D01*
X9339838Y29823667D01*
X9362148Y29850852D01*
X9389333Y29873162D01*
X9420347Y29889739D01*
X9454004Y29899949D01*
X9495138Y29904000D01*
X10824862Y29904000D01*
X10865996Y29899949D01*
X10865996Y29899949D01*
G37*
G36*
X-9454004Y33499949D02*
X-9420347Y33489739D01*
X-9389333Y33473162D01*
X-9362148Y33450852D01*
X-9339838Y33423667D01*
X-9323261Y33392653D01*
X-9313051Y33358996D01*
X-9309000Y33317862D01*
X-9309000Y30988138D01*
X-9313051Y30947004D01*
X-9323261Y30913347D01*
X-9339838Y30882333D01*
X-9362148Y30855148D01*
X-9389333Y30832838D01*
X-9420347Y30816261D01*
X-9454004Y30806051D01*
X-9495138Y30802000D01*
X-10824862Y30802000D01*
X-10865996Y30806051D01*
X-10899653Y30816261D01*
X-10930667Y30832838D01*
X-10957852Y30855148D01*
X-10980162Y30882333D01*
X-10996739Y30913347D01*
X-11006949Y30947004D01*
X-11011000Y30988138D01*
X-11011000Y33317862D01*
X-11006949Y33358996D01*
X-10996739Y33392653D01*
X-10980162Y33423667D01*
X-10957852Y33450852D01*
X-10930667Y33473162D01*
X-10899653Y33489739D01*
X-10865996Y33499949D01*
X-10824862Y33504000D01*
X-9495138Y33504000D01*
X-9454004Y33499949D01*
X-9454004Y33499949D01*
G37*
G36*
X10865996Y33499949D02*
X10899653Y33489739D01*
X10930667Y33473162D01*
X10957852Y33450852D01*
X10980162Y33423667D01*
X10996739Y33392653D01*
X11006949Y33358996D01*
X11011000Y33317862D01*
X11011000Y30988138D01*
X11006949Y30947004D01*
X10996739Y30913347D01*
X10980162Y30882333D01*
X10957852Y30855148D01*
X10930667Y30832838D01*
X10899653Y30816261D01*
X10865996Y30806051D01*
X10824862Y30802000D01*
X9495138Y30802000D01*
X9454004Y30806051D01*
X9420347Y30816261D01*
X9389333Y30832838D01*
X9362148Y30855148D01*
X9339838Y30882333D01*
X9323261Y30913347D01*
X9313051Y30947004D01*
X9309000Y30988138D01*
X9309000Y33317862D01*
X9313051Y33358996D01*
X9323261Y33392653D01*
X9339838Y33423667D01*
X9362148Y33450852D01*
X9389333Y33473162D01*
X9420347Y33489739D01*
X9454004Y33499949D01*
X9495138Y33504000D01*
X10824862Y33504000D01*
X10865996Y33499949D01*
X10865996Y33499949D01*
G37*
G36*
X3557565Y33730011D02*
X3748834Y33650785D01*
X3920976Y33535763D01*
X4067363Y33389376D01*
X4182385Y33217234D01*
X4261611Y33025965D01*
X4302000Y32822916D01*
X4302000Y32615884D01*
X4261611Y32412835D01*
X4182385Y32221566D01*
X4067363Y32049424D01*
X3920976Y31903037D01*
X3748834Y31788015D01*
X3557565Y31708789D01*
X3354516Y31668400D01*
X3147484Y31668400D01*
X2944435Y31708789D01*
X2753166Y31788015D01*
X2581024Y31903037D01*
X2434637Y32049424D01*
X2319615Y32221566D01*
X2240389Y32412835D01*
X2200000Y32615884D01*
X2200000Y32822916D01*
X2240389Y33025965D01*
X2319615Y33217234D01*
X2434637Y33389376D01*
X2581024Y33535763D01*
X2753166Y33650785D01*
X2944435Y33730011D01*
X3147484Y33770400D01*
X3354516Y33770400D01*
X3557565Y33730011D01*
X3557565Y33730011D01*
G37*
G36*
X-2942435Y33730011D02*
X-2751166Y33650785D01*
X-2579024Y33535763D01*
X-2432637Y33389376D01*
X-2317615Y33217234D01*
X-2238389Y33025965D01*
X-2198000Y32822916D01*
X-2198000Y32615884D01*
X-2238389Y32412835D01*
X-2317615Y32221566D01*
X-2432637Y32049424D01*
X-2579024Y31903037D01*
X-2751166Y31788015D01*
X-2942435Y31708789D01*
X-3145484Y31668400D01*
X-3352516Y31668400D01*
X-3555565Y31708789D01*
X-3746834Y31788015D01*
X-3918976Y31903037D01*
X-4065363Y32049424D01*
X-4180385Y32221566D01*
X-4259611Y32412835D01*
X-4300000Y32615884D01*
X-4300000Y32822916D01*
X-4259611Y33025965D01*
X-4180385Y33217234D01*
X-4065363Y33389376D01*
X-3918976Y33535763D01*
X-3746834Y33650785D01*
X-3555565Y33730011D01*
X-3352516Y33770400D01*
X-3145484Y33770400D01*
X-2942435Y33730011D01*
X-2942435Y33730011D01*
G37*
G36*
X-9848311Y37236294D02*
X-9704960Y37222175D01*
X-9459720Y37147782D01*
X-9459718Y37147781D01*
X-9233704Y37026974D01*
X-9035603Y36864397D01*
X-8873026Y36666296D01*
X-8873025Y36666294D01*
X-8752218Y36440280D01*
X-8677825Y36195040D01*
X-8652706Y35940000D01*
X-8677825Y35684960D01*
X-8752218Y35439720D01*
X-8752219Y35439718D01*
X-8873026Y35213704D01*
X-9035603Y35015603D01*
X-9233704Y34853026D01*
X-9233706Y34853025D01*
X-9459720Y34732218D01*
X-9704960Y34657825D01*
X-9848311Y34643706D01*
X-9896094Y34639000D01*
X-10423906Y34639000D01*
X-10471689Y34643706D01*
X-10615040Y34657825D01*
X-10860280Y34732218D01*
X-11086294Y34853025D01*
X-11086296Y34853026D01*
X-11284397Y35015603D01*
X-11446974Y35213704D01*
X-11567781Y35439718D01*
X-11567782Y35439720D01*
X-11642175Y35684960D01*
X-11667294Y35940000D01*
X-11642175Y36195040D01*
X-11567782Y36440280D01*
X-11446975Y36666294D01*
X-11446974Y36666296D01*
X-11284397Y36864397D01*
X-11086296Y37026974D01*
X-10860282Y37147781D01*
X-10860280Y37147782D01*
X-10615040Y37222175D01*
X-10471689Y37236294D01*
X-10423906Y37241000D01*
X-9896094Y37241000D01*
X-9848311Y37236294D01*
X-9848311Y37236294D01*
G37*
G36*
X10471689Y37236294D02*
X10615040Y37222175D01*
X10860280Y37147782D01*
X10860282Y37147781D01*
X11086296Y37026974D01*
X11284397Y36864397D01*
X11446974Y36666296D01*
X11446975Y36666294D01*
X11567782Y36440280D01*
X11642175Y36195040D01*
X11667294Y35940000D01*
X11642175Y35684960D01*
X11567782Y35439720D01*
X11567781Y35439718D01*
X11446974Y35213704D01*
X11284397Y35015603D01*
X11086296Y34853026D01*
X11086294Y34853025D01*
X10860280Y34732218D01*
X10615040Y34657825D01*
X10471689Y34643706D01*
X10423906Y34639000D01*
X9896094Y34639000D01*
X9848311Y34643706D01*
X9704960Y34657825D01*
X9459720Y34732218D01*
X9233706Y34853025D01*
X9233704Y34853026D01*
X9035603Y35015603D01*
X8873026Y35213704D01*
X8752219Y35439718D01*
X8752218Y35439720D01*
X8677825Y35684960D01*
X8652706Y35940000D01*
X8677825Y36195040D01*
X8752218Y36440280D01*
X8873025Y36666294D01*
X8873026Y36666296D01*
X9035603Y36864397D01*
X9233704Y37026974D01*
X9459718Y37147781D01*
X9459720Y37147782D01*
X9704960Y37222175D01*
X9848311Y37236294D01*
X9896094Y37241000D01*
X10423906Y37241000D01*
X10471689Y37236294D01*
X10471689Y37236294D01*
G37*
G36*
X-13475409Y35827915D02*
X-13441431Y35817607D01*
X-13410113Y35800867D01*
X-13382661Y35778339D01*
X-13360133Y35750887D01*
X-13343393Y35719569D01*
X-13333085Y35685591D01*
X-13329000Y35644110D01*
X-13329000Y34967890D01*
X-13333085Y34926409D01*
X-13343393Y34892431D01*
X-13360133Y34861113D01*
X-13382661Y34833661D01*
X-13410113Y34811133D01*
X-13441431Y34794393D01*
X-13475409Y34784085D01*
X-13516890Y34780000D01*
X-14118110Y34780000D01*
X-14159591Y34784085D01*
X-14193569Y34794393D01*
X-14224887Y34811133D01*
X-14252339Y34833661D01*
X-14274867Y34861113D01*
X-14291607Y34892431D01*
X-14301915Y34926409D01*
X-14306000Y34967890D01*
X-14306000Y35644110D01*
X-14301915Y35685591D01*
X-14291607Y35719569D01*
X-14274867Y35750887D01*
X-14252339Y35778339D01*
X-14224887Y35800867D01*
X-14193569Y35817607D01*
X-14159591Y35827915D01*
X-14118110Y35832000D01*
X-13516890Y35832000D01*
X-13475409Y35827915D01*
X-13475409Y35827915D01*
G37*
G36*
X-15050409Y35827915D02*
X-15016431Y35817607D01*
X-14985113Y35800867D01*
X-14957661Y35778339D01*
X-14935133Y35750887D01*
X-14918393Y35719569D01*
X-14908085Y35685591D01*
X-14904000Y35644110D01*
X-14904000Y34967890D01*
X-14908085Y34926409D01*
X-14918393Y34892431D01*
X-14935133Y34861113D01*
X-14957661Y34833661D01*
X-14985113Y34811133D01*
X-15016431Y34794393D01*
X-15050409Y34784085D01*
X-15091890Y34780000D01*
X-15693110Y34780000D01*
X-15734591Y34784085D01*
X-15768569Y34794393D01*
X-15799887Y34811133D01*
X-15827339Y34833661D01*
X-15849867Y34861113D01*
X-15866607Y34892431D01*
X-15876915Y34926409D01*
X-15881000Y34967890D01*
X-15881000Y35644110D01*
X-15876915Y35685591D01*
X-15866607Y35719569D01*
X-15849867Y35750887D01*
X-15827339Y35778339D01*
X-15799887Y35800867D01*
X-15768569Y35817607D01*
X-15734591Y35827915D01*
X-15693110Y35832000D01*
X-15091890Y35832000D01*
X-15050409Y35827915D01*
X-15050409Y35827915D01*
G37*
G36*
X-344000Y35167000D02*
X-2146000Y35167000D01*
X-2146000Y36969000D01*
X-344000Y36969000D01*
X-344000Y35167000D01*
X-344000Y35167000D01*
G37*
G36*
X1405443Y36962481D02*
X1471627Y36955963D01*
X1584853Y36921616D01*
X1641467Y36904443D01*
X1780087Y36830348D01*
X1797991Y36820778D01*
X1833729Y36791448D01*
X1935186Y36708186D01*
X2018448Y36606729D01*
X2047778Y36570991D01*
X2047779Y36570989D01*
X2131443Y36414467D01*
X2131443Y36414466D01*
X2182963Y36244627D01*
X2200359Y36068000D01*
X2182963Y35891373D01*
X2155508Y35800867D01*
X2131443Y35721533D01*
X2111894Y35684960D01*
X2047778Y35565009D01*
X2018448Y35529271D01*
X1935186Y35427814D01*
X1833729Y35344552D01*
X1797991Y35315222D01*
X1797989Y35315221D01*
X1641467Y35231557D01*
X1584853Y35214384D01*
X1471627Y35180037D01*
X1405442Y35173518D01*
X1339260Y35167000D01*
X1250740Y35167000D01*
X1184558Y35173518D01*
X1118373Y35180037D01*
X1005147Y35214384D01*
X948533Y35231557D01*
X792011Y35315221D01*
X792009Y35315222D01*
X756271Y35344552D01*
X654814Y35427814D01*
X571552Y35529271D01*
X542222Y35565009D01*
X478106Y35684960D01*
X458557Y35721533D01*
X434492Y35800867D01*
X407037Y35891373D01*
X389641Y36068000D01*
X407037Y36244627D01*
X458557Y36414466D01*
X458557Y36414467D01*
X542221Y36570989D01*
X542222Y36570991D01*
X571552Y36606729D01*
X654814Y36708186D01*
X756271Y36791448D01*
X792009Y36820778D01*
X809913Y36830348D01*
X948533Y36904443D01*
X1005147Y36921616D01*
X1118373Y36955963D01*
X1184557Y36962481D01*
X1250740Y36969000D01*
X1339260Y36969000D01*
X1405443Y36962481D01*
X1405443Y36962481D01*
G37*
G36*
X-15050409Y38621915D02*
X-15016431Y38611607D01*
X-14985113Y38594867D01*
X-14957661Y38572339D01*
X-14935133Y38544887D01*
X-14918393Y38513569D01*
X-14908085Y38479591D01*
X-14904000Y38438110D01*
X-14904000Y37761890D01*
X-14908085Y37720409D01*
X-14918393Y37686431D01*
X-14935133Y37655113D01*
X-14957661Y37627661D01*
X-14985113Y37605133D01*
X-15016431Y37588393D01*
X-15050409Y37578085D01*
X-15091890Y37574000D01*
X-15693110Y37574000D01*
X-15734591Y37578085D01*
X-15768569Y37588393D01*
X-15799887Y37605133D01*
X-15827339Y37627661D01*
X-15849867Y37655113D01*
X-15866607Y37686431D01*
X-15876915Y37720409D01*
X-15881000Y37761890D01*
X-15881000Y38438110D01*
X-15876915Y38479591D01*
X-15866607Y38513569D01*
X-15849867Y38544887D01*
X-15827339Y38572339D01*
X-15799887Y38594867D01*
X-15768569Y38611607D01*
X-15734591Y38621915D01*
X-15693110Y38626000D01*
X-15091890Y38626000D01*
X-15050409Y38621915D01*
X-15050409Y38621915D01*
G37*
G36*
X-13475409Y38621915D02*
X-13441431Y38611607D01*
X-13410113Y38594867D01*
X-13382661Y38572339D01*
X-13360133Y38544887D01*
X-13343393Y38513569D01*
X-13333085Y38479591D01*
X-13329000Y38438110D01*
X-13329000Y37761890D01*
X-13333085Y37720409D01*
X-13343393Y37686431D01*
X-13360133Y37655113D01*
X-13382661Y37627661D01*
X-13410113Y37605133D01*
X-13441431Y37588393D01*
X-13475409Y37578085D01*
X-13516890Y37574000D01*
X-14118110Y37574000D01*
X-14159591Y37578085D01*
X-14193569Y37588393D01*
X-14224887Y37605133D01*
X-14252339Y37627661D01*
X-14274867Y37655113D01*
X-14291607Y37686431D01*
X-14301915Y37720409D01*
X-14306000Y37761890D01*
X-14306000Y38438110D01*
X-14301915Y38479591D01*
X-14291607Y38513569D01*
X-14274867Y38544887D01*
X-14252339Y38572339D01*
X-14224887Y38594867D01*
X-14193569Y38611607D01*
X-14159591Y38621915D01*
X-14118110Y38626000D01*
X-13516890Y38626000D01*
X-13475409Y38621915D01*
X-13475409Y38621915D01*
G37*
G36*
X-1134558Y39502482D02*
X-1068373Y39495963D01*
X-955147Y39461616D01*
X-898533Y39444443D01*
X-759913Y39370348D01*
X-742009Y39360778D01*
X-738411Y39357825D01*
X-604814Y39248186D01*
X-521552Y39146729D01*
X-492222Y39110991D01*
X-492221Y39110989D01*
X-408557Y38954467D01*
X-408557Y38954466D01*
X-357037Y38784627D01*
X-339641Y38608000D01*
X-357037Y38431373D01*
X-372090Y38381750D01*
X-408557Y38261533D01*
X-467319Y38151599D01*
X-492222Y38105009D01*
X-521552Y38069271D01*
X-604814Y37967814D01*
X-706271Y37884552D01*
X-742009Y37855222D01*
X-742011Y37855221D01*
X-898533Y37771557D01*
X-955147Y37754384D01*
X-1068373Y37720037D01*
X-1134558Y37713518D01*
X-1200740Y37707000D01*
X-1289260Y37707000D01*
X-1355442Y37713518D01*
X-1421627Y37720037D01*
X-1534853Y37754384D01*
X-1591467Y37771557D01*
X-1747989Y37855221D01*
X-1747991Y37855222D01*
X-1783729Y37884552D01*
X-1885186Y37967814D01*
X-1968448Y38069271D01*
X-1997778Y38105009D01*
X-2022681Y38151599D01*
X-2081443Y38261533D01*
X-2117910Y38381750D01*
X-2132963Y38431373D01*
X-2150359Y38608000D01*
X-2132963Y38784627D01*
X-2081443Y38954466D01*
X-2081443Y38954467D01*
X-1997779Y39110989D01*
X-1997778Y39110991D01*
X-1968448Y39146729D01*
X-1885186Y39248186D01*
X-1751589Y39357825D01*
X-1747991Y39360778D01*
X-1730087Y39370348D01*
X-1591467Y39444443D01*
X-1534853Y39461616D01*
X-1421627Y39495963D01*
X-1355442Y39502482D01*
X-1289260Y39509000D01*
X-1200740Y39509000D01*
X-1134558Y39502482D01*
X-1134558Y39502482D01*
G37*
G36*
X1405442Y39502482D02*
X1471627Y39495963D01*
X1584853Y39461616D01*
X1641467Y39444443D01*
X1780087Y39370348D01*
X1797991Y39360778D01*
X1801589Y39357825D01*
X1935186Y39248186D01*
X2018448Y39146729D01*
X2047778Y39110991D01*
X2047779Y39110989D01*
X2131443Y38954467D01*
X2131443Y38954466D01*
X2182963Y38784627D01*
X2200359Y38608000D01*
X2182963Y38431373D01*
X2167910Y38381750D01*
X2131443Y38261533D01*
X2072681Y38151599D01*
X2047778Y38105009D01*
X2018448Y38069271D01*
X1935186Y37967814D01*
X1833729Y37884552D01*
X1797991Y37855222D01*
X1797989Y37855221D01*
X1641467Y37771557D01*
X1584853Y37754384D01*
X1471627Y37720037D01*
X1405442Y37713518D01*
X1339260Y37707000D01*
X1250740Y37707000D01*
X1184558Y37713518D01*
X1118373Y37720037D01*
X1005147Y37754384D01*
X948533Y37771557D01*
X792011Y37855221D01*
X792009Y37855222D01*
X756271Y37884552D01*
X654814Y37967814D01*
X571552Y38069271D01*
X542222Y38105009D01*
X517319Y38151599D01*
X458557Y38261533D01*
X422090Y38381750D01*
X407037Y38431373D01*
X389641Y38608000D01*
X407037Y38784627D01*
X458557Y38954466D01*
X458557Y38954467D01*
X542221Y39110989D01*
X542222Y39110991D01*
X571552Y39146729D01*
X654814Y39248186D01*
X788411Y39357825D01*
X792009Y39360778D01*
X809913Y39370348D01*
X948533Y39444443D01*
X1005147Y39461616D01*
X1118373Y39495963D01*
X1184558Y39502482D01*
X1250740Y39509000D01*
X1339260Y39509000D01*
X1405442Y39502482D01*
X1405442Y39502482D01*
G37*
G36*
X6844591Y39002915D02*
X6878569Y38992607D01*
X6909887Y38975867D01*
X6937339Y38953339D01*
X6959867Y38925887D01*
X6976607Y38894569D01*
X6986915Y38860591D01*
X6991000Y38819110D01*
X6991000Y38142890D01*
X6986915Y38101409D01*
X6976607Y38067431D01*
X6959867Y38036113D01*
X6937339Y38008661D01*
X6909887Y37986133D01*
X6878569Y37969393D01*
X6844591Y37959085D01*
X6803110Y37955000D01*
X6201890Y37955000D01*
X6160409Y37959085D01*
X6126431Y37969393D01*
X6095113Y37986133D01*
X6067661Y38008661D01*
X6045133Y38036113D01*
X6028393Y38067431D01*
X6018085Y38101409D01*
X6014000Y38142890D01*
X6014000Y38819110D01*
X6018085Y38860591D01*
X6028393Y38894569D01*
X6045133Y38925887D01*
X6067661Y38953339D01*
X6095113Y38975867D01*
X6126431Y38992607D01*
X6160409Y39002915D01*
X6201890Y39007000D01*
X6803110Y39007000D01*
X6844591Y39002915D01*
X6844591Y39002915D01*
G37*
G36*
X5269591Y39002915D02*
X5303569Y38992607D01*
X5334887Y38975867D01*
X5362339Y38953339D01*
X5384867Y38925887D01*
X5401607Y38894569D01*
X5411915Y38860591D01*
X5416000Y38819110D01*
X5416000Y38142890D01*
X5411915Y38101409D01*
X5401607Y38067431D01*
X5384867Y38036113D01*
X5362339Y38008661D01*
X5334887Y37986133D01*
X5303569Y37969393D01*
X5269591Y37959085D01*
X5228110Y37955000D01*
X4626890Y37955000D01*
X4585409Y37959085D01*
X4551431Y37969393D01*
X4520113Y37986133D01*
X4492661Y38008661D01*
X4470133Y38036113D01*
X4453393Y38067431D01*
X4443085Y38101409D01*
X4439000Y38142890D01*
X4439000Y38819110D01*
X4443085Y38860591D01*
X4453393Y38894569D01*
X4470133Y38925887D01*
X4492661Y38953339D01*
X4520113Y38975867D01*
X4551431Y38992607D01*
X4585409Y39002915D01*
X4626890Y39007000D01*
X5228110Y39007000D01*
X5269591Y39002915D01*
X5269591Y39002915D01*
G37*
G36*
X-9848311Y41936294D02*
X-9704960Y41922175D01*
X-9459720Y41847782D01*
X-9459718Y41847781D01*
X-9233704Y41726974D01*
X-9035603Y41564397D01*
X-8873026Y41366296D01*
X-8850752Y41324625D01*
X-8752218Y41140280D01*
X-8677825Y40895040D01*
X-8652706Y40640000D01*
X-8677825Y40384960D01*
X-8719675Y40247000D01*
X-8752219Y40139718D01*
X-8873026Y39913704D01*
X-9035603Y39715603D01*
X-9233704Y39553026D01*
X-9233706Y39553025D01*
X-9459720Y39432218D01*
X-9704960Y39357825D01*
X-9848311Y39343706D01*
X-9896094Y39339000D01*
X-10423906Y39339000D01*
X-10471689Y39343706D01*
X-10615040Y39357825D01*
X-10860280Y39432218D01*
X-11086294Y39553025D01*
X-11086296Y39553026D01*
X-11284397Y39715603D01*
X-11446974Y39913704D01*
X-11567781Y40139718D01*
X-11600325Y40247000D01*
X-11642175Y40384960D01*
X-11667294Y40640000D01*
X-11642175Y40895040D01*
X-11567782Y41140280D01*
X-11469248Y41324625D01*
X-11446974Y41366296D01*
X-11284397Y41564397D01*
X-11086296Y41726974D01*
X-10860282Y41847781D01*
X-10860280Y41847782D01*
X-10615040Y41922175D01*
X-10471689Y41936294D01*
X-10423906Y41941000D01*
X-9896094Y41941000D01*
X-9848311Y41936294D01*
X-9848311Y41936294D01*
G37*
G36*
X10471689Y41936294D02*
X10615040Y41922175D01*
X10860280Y41847782D01*
X10860282Y41847781D01*
X11086296Y41726974D01*
X11284397Y41564397D01*
X11446974Y41366296D01*
X11469248Y41324625D01*
X11567782Y41140280D01*
X11642175Y40895040D01*
X11667294Y40640000D01*
X11642175Y40384960D01*
X11600325Y40247000D01*
X11567781Y40139718D01*
X11446974Y39913704D01*
X11284397Y39715603D01*
X11086296Y39553026D01*
X11086294Y39553025D01*
X10860280Y39432218D01*
X10615040Y39357825D01*
X10471689Y39343706D01*
X10423906Y39339000D01*
X9896094Y39339000D01*
X9848311Y39343706D01*
X9704960Y39357825D01*
X9459720Y39432218D01*
X9233706Y39553025D01*
X9233704Y39553026D01*
X9035603Y39715603D01*
X8873026Y39913704D01*
X8752219Y40139718D01*
X8719675Y40247000D01*
X8677825Y40384960D01*
X8652706Y40640000D01*
X8677825Y40895040D01*
X8752218Y41140280D01*
X8850752Y41324625D01*
X8873026Y41366296D01*
X9035603Y41564397D01*
X9233704Y41726974D01*
X9459718Y41847781D01*
X9459720Y41847782D01*
X9704960Y41922175D01*
X9848311Y41936294D01*
X9896094Y41941000D01*
X10423906Y41941000D01*
X10471689Y41936294D01*
X10471689Y41936294D01*
G37*
G36*
X1405443Y42042481D02*
X1471627Y42035963D01*
X1584853Y42001616D01*
X1641467Y41984443D01*
X1722742Y41941000D01*
X1797991Y41900778D01*
X1833729Y41871448D01*
X1935186Y41788186D01*
X2013755Y41692448D01*
X2047778Y41650991D01*
X2047779Y41650989D01*
X2131443Y41494467D01*
X2131443Y41494466D01*
X2182963Y41324627D01*
X2200359Y41148000D01*
X2182963Y40971373D01*
X2159807Y40895037D01*
X2131443Y40801533D01*
X2103363Y40749000D01*
X2047778Y40645009D01*
X2043667Y40640000D01*
X1935186Y40507814D01*
X1851991Y40439539D01*
X1797991Y40395222D01*
X1797989Y40395221D01*
X1641467Y40311557D01*
X1584853Y40294384D01*
X1471627Y40260037D01*
X1405443Y40253519D01*
X1339260Y40247000D01*
X1250740Y40247000D01*
X1184557Y40253519D01*
X1118373Y40260037D01*
X1005147Y40294384D01*
X948533Y40311557D01*
X792011Y40395221D01*
X792009Y40395222D01*
X738009Y40439539D01*
X654814Y40507814D01*
X546333Y40640000D01*
X542222Y40645009D01*
X486637Y40749000D01*
X458557Y40801533D01*
X430193Y40895037D01*
X407037Y40971373D01*
X389641Y41148000D01*
X407037Y41324627D01*
X458557Y41494466D01*
X458557Y41494467D01*
X542221Y41650989D01*
X542222Y41650991D01*
X576245Y41692448D01*
X654814Y41788186D01*
X756271Y41871448D01*
X792009Y41900778D01*
X867258Y41941000D01*
X948533Y41984443D01*
X1005147Y42001616D01*
X1118373Y42035963D01*
X1184557Y42042481D01*
X1250740Y42049000D01*
X1339260Y42049000D01*
X1405443Y42042481D01*
X1405443Y42042481D01*
G37*
G36*
X-1134557Y42042481D02*
X-1068373Y42035963D01*
X-955147Y42001616D01*
X-898533Y41984443D01*
X-817258Y41941000D01*
X-742009Y41900778D01*
X-706271Y41871448D01*
X-604814Y41788186D01*
X-526245Y41692448D01*
X-492222Y41650991D01*
X-492221Y41650989D01*
X-408557Y41494467D01*
X-408557Y41494466D01*
X-357037Y41324627D01*
X-339641Y41148000D01*
X-357037Y40971373D01*
X-380193Y40895037D01*
X-408557Y40801533D01*
X-436637Y40749000D01*
X-492222Y40645009D01*
X-496333Y40640000D01*
X-604814Y40507814D01*
X-688009Y40439539D01*
X-742009Y40395222D01*
X-742011Y40395221D01*
X-898533Y40311557D01*
X-955147Y40294384D01*
X-1068373Y40260037D01*
X-1134557Y40253519D01*
X-1200740Y40247000D01*
X-1289260Y40247000D01*
X-1355443Y40253519D01*
X-1421627Y40260037D01*
X-1534853Y40294384D01*
X-1591467Y40311557D01*
X-1747989Y40395221D01*
X-1747991Y40395222D01*
X-1801991Y40439539D01*
X-1885186Y40507814D01*
X-1993667Y40640000D01*
X-1997778Y40645009D01*
X-2053363Y40749000D01*
X-2081443Y40801533D01*
X-2109807Y40895037D01*
X-2132963Y40971373D01*
X-2150359Y41148000D01*
X-2132963Y41324627D01*
X-2081443Y41494466D01*
X-2081443Y41494467D01*
X-1997779Y41650989D01*
X-1997778Y41650991D01*
X-1963755Y41692448D01*
X-1885186Y41788186D01*
X-1783729Y41871448D01*
X-1747991Y41900778D01*
X-1672742Y41941000D01*
X-1591467Y41984443D01*
X-1534853Y42001616D01*
X-1421627Y42035963D01*
X-1355443Y42042481D01*
X-1289260Y42049000D01*
X-1200740Y42049000D01*
X-1134557Y42042481D01*
X-1134557Y42042481D01*
G37*
G36*
X-15050409Y41415915D02*
X-15016431Y41405607D01*
X-14985113Y41388867D01*
X-14957661Y41366339D01*
X-14935133Y41338887D01*
X-14918393Y41307569D01*
X-14908085Y41273591D01*
X-14904000Y41232110D01*
X-14904000Y40555890D01*
X-14908085Y40514409D01*
X-14918393Y40480431D01*
X-14935133Y40449113D01*
X-14957661Y40421661D01*
X-14985113Y40399133D01*
X-15016431Y40382393D01*
X-15050409Y40372085D01*
X-15091890Y40368000D01*
X-15693110Y40368000D01*
X-15734591Y40372085D01*
X-15768569Y40382393D01*
X-15799887Y40399133D01*
X-15827339Y40421661D01*
X-15849867Y40449113D01*
X-15866607Y40480431D01*
X-15876915Y40514409D01*
X-15881000Y40555890D01*
X-15881000Y41232110D01*
X-15876915Y41273591D01*
X-15866607Y41307569D01*
X-15849867Y41338887D01*
X-15827339Y41366339D01*
X-15799887Y41388867D01*
X-15768569Y41405607D01*
X-15734591Y41415915D01*
X-15693110Y41420000D01*
X-15091890Y41420000D01*
X-15050409Y41415915D01*
X-15050409Y41415915D01*
G37*
G36*
X-13475409Y41415915D02*
X-13441431Y41405607D01*
X-13410113Y41388867D01*
X-13382661Y41366339D01*
X-13360133Y41338887D01*
X-13343393Y41307569D01*
X-13333085Y41273591D01*
X-13329000Y41232110D01*
X-13329000Y40555890D01*
X-13333085Y40514409D01*
X-13343393Y40480431D01*
X-13360133Y40449113D01*
X-13382661Y40421661D01*
X-13410113Y40399133D01*
X-13441431Y40382393D01*
X-13475409Y40372085D01*
X-13516890Y40368000D01*
X-14118110Y40368000D01*
X-14159591Y40372085D01*
X-14193569Y40382393D01*
X-14224887Y40399133D01*
X-14252339Y40421661D01*
X-14274867Y40449113D01*
X-14291607Y40480431D01*
X-14301915Y40514409D01*
X-14306000Y40555890D01*
X-14306000Y41232110D01*
X-14301915Y41273591D01*
X-14291607Y41307569D01*
X-14274867Y41338887D01*
X-14252339Y41366339D01*
X-14224887Y41388867D01*
X-14193569Y41405607D01*
X-14159591Y41415915D01*
X-14118110Y41420000D01*
X-13516890Y41420000D01*
X-13475409Y41415915D01*
X-13475409Y41415915D01*
G37*
G36*
X5269591Y41796915D02*
X5303569Y41786607D01*
X5334887Y41769867D01*
X5362339Y41747339D01*
X5384867Y41719887D01*
X5401607Y41688569D01*
X5411915Y41654591D01*
X5416000Y41613110D01*
X5416000Y40936890D01*
X5411915Y40895409D01*
X5401607Y40861431D01*
X5384867Y40830113D01*
X5362339Y40802661D01*
X5334887Y40780133D01*
X5303569Y40763393D01*
X5269591Y40753085D01*
X5228110Y40749000D01*
X4626890Y40749000D01*
X4585409Y40753085D01*
X4551431Y40763393D01*
X4520113Y40780133D01*
X4492661Y40802661D01*
X4470133Y40830113D01*
X4453393Y40861431D01*
X4443085Y40895409D01*
X4439000Y40936890D01*
X4439000Y41613110D01*
X4443085Y41654591D01*
X4453393Y41688569D01*
X4470133Y41719887D01*
X4492661Y41747339D01*
X4520113Y41769867D01*
X4551431Y41786607D01*
X4585409Y41796915D01*
X4626890Y41801000D01*
X5228110Y41801000D01*
X5269591Y41796915D01*
X5269591Y41796915D01*
G37*
G36*
X6844591Y41796915D02*
X6878569Y41786607D01*
X6909887Y41769867D01*
X6937339Y41747339D01*
X6959867Y41719887D01*
X6976607Y41688569D01*
X6986915Y41654591D01*
X6991000Y41613110D01*
X6991000Y40936890D01*
X6986915Y40895409D01*
X6976607Y40861431D01*
X6959867Y40830113D01*
X6937339Y40802661D01*
X6909887Y40780133D01*
X6878569Y40763393D01*
X6844591Y40753085D01*
X6803110Y40749000D01*
X6201890Y40749000D01*
X6160409Y40753085D01*
X6126431Y40763393D01*
X6095113Y40780133D01*
X6067661Y40802661D01*
X6045133Y40830113D01*
X6028393Y40861431D01*
X6018085Y40895409D01*
X6014000Y40936890D01*
X6014000Y41613110D01*
X6018085Y41654591D01*
X6028393Y41688569D01*
X6045133Y41719887D01*
X6067661Y41747339D01*
X6095113Y41769867D01*
X6126431Y41786607D01*
X6160409Y41796915D01*
X6201890Y41801000D01*
X6803110Y41801000D01*
X6844591Y41796915D01*
X6844591Y41796915D01*
G37*
G36*
X1405442Y44582482D02*
X1471627Y44575963D01*
X1584853Y44541616D01*
X1641467Y44524443D01*
X1736150Y44473833D01*
X1797991Y44440778D01*
X1833729Y44411448D01*
X1935186Y44328186D01*
X1996867Y44253026D01*
X2047778Y44190991D01*
X2047779Y44190989D01*
X2131443Y44034467D01*
X2131443Y44034466D01*
X2182963Y43864627D01*
X2200359Y43688000D01*
X2182963Y43511373D01*
X2148616Y43398147D01*
X2131443Y43341533D01*
X2057348Y43202913D01*
X2047778Y43185009D01*
X2019092Y43150055D01*
X1935186Y43047814D01*
X1836515Y42966838D01*
X1797991Y42935222D01*
X1797989Y42935221D01*
X1641467Y42851557D01*
X1584853Y42834384D01*
X1471627Y42800037D01*
X1405443Y42793519D01*
X1339260Y42787000D01*
X1250740Y42787000D01*
X1184557Y42793519D01*
X1118373Y42800037D01*
X1005147Y42834384D01*
X948533Y42851557D01*
X792011Y42935221D01*
X792009Y42935222D01*
X753485Y42966838D01*
X654814Y43047814D01*
X570908Y43150055D01*
X542222Y43185009D01*
X532652Y43202913D01*
X458557Y43341533D01*
X441384Y43398147D01*
X407037Y43511373D01*
X389641Y43688000D01*
X407037Y43864627D01*
X458557Y44034466D01*
X458557Y44034467D01*
X542221Y44190989D01*
X542222Y44190991D01*
X593133Y44253026D01*
X654814Y44328186D01*
X756271Y44411448D01*
X792009Y44440778D01*
X853850Y44473833D01*
X948533Y44524443D01*
X1005147Y44541616D01*
X1118373Y44575963D01*
X1184558Y44582482D01*
X1250740Y44589000D01*
X1339260Y44589000D01*
X1405442Y44582482D01*
X1405442Y44582482D01*
G37*
G36*
X-1134558Y44582482D02*
X-1068373Y44575963D01*
X-955147Y44541616D01*
X-898533Y44524443D01*
X-803850Y44473833D01*
X-742009Y44440778D01*
X-706271Y44411448D01*
X-604814Y44328186D01*
X-543133Y44253026D01*
X-492222Y44190991D01*
X-492221Y44190989D01*
X-408557Y44034467D01*
X-408557Y44034466D01*
X-357037Y43864627D01*
X-339641Y43688000D01*
X-357037Y43511373D01*
X-391384Y43398147D01*
X-408557Y43341533D01*
X-482652Y43202913D01*
X-492222Y43185009D01*
X-520908Y43150055D01*
X-604814Y43047814D01*
X-703485Y42966838D01*
X-742009Y42935222D01*
X-742011Y42935221D01*
X-898533Y42851557D01*
X-955147Y42834384D01*
X-1068373Y42800037D01*
X-1134557Y42793519D01*
X-1200740Y42787000D01*
X-1289260Y42787000D01*
X-1355443Y42793519D01*
X-1421627Y42800037D01*
X-1534853Y42834384D01*
X-1591467Y42851557D01*
X-1747989Y42935221D01*
X-1747991Y42935222D01*
X-1786515Y42966838D01*
X-1885186Y43047814D01*
X-1969092Y43150055D01*
X-1997778Y43185009D01*
X-2007348Y43202913D01*
X-2081443Y43341533D01*
X-2098616Y43398147D01*
X-2132963Y43511373D01*
X-2150359Y43688000D01*
X-2132963Y43864627D01*
X-2081443Y44034466D01*
X-2081443Y44034467D01*
X-1997779Y44190989D01*
X-1997778Y44190991D01*
X-1946867Y44253026D01*
X-1885186Y44328186D01*
X-1783729Y44411448D01*
X-1747991Y44440778D01*
X-1686150Y44473833D01*
X-1591467Y44524443D01*
X-1534853Y44541616D01*
X-1421627Y44575963D01*
X-1355442Y44582482D01*
X-1289260Y44589000D01*
X-1200740Y44589000D01*
X-1134558Y44582482D01*
X-1134558Y44582482D01*
G37*
G36*
X-14255004Y44633949D02*
X-14221347Y44623739D01*
X-14190333Y44607162D01*
X-14163148Y44584852D01*
X-14140838Y44557667D01*
X-14124261Y44526653D01*
X-14114051Y44492996D01*
X-14110000Y44451862D01*
X-14110000Y43122138D01*
X-14114051Y43081004D01*
X-14124261Y43047347D01*
X-14140838Y43016333D01*
X-14163148Y42989148D01*
X-14190333Y42966838D01*
X-14221347Y42950261D01*
X-14255004Y42940051D01*
X-14296138Y42936000D01*
X-15675862Y42936000D01*
X-15716996Y42940051D01*
X-15750653Y42950261D01*
X-15781667Y42966838D01*
X-15808852Y42989148D01*
X-15831162Y43016333D01*
X-15847739Y43047347D01*
X-15857949Y43081004D01*
X-15862000Y43122138D01*
X-15862000Y44451862D01*
X-15857949Y44492996D01*
X-15847739Y44526653D01*
X-15831162Y44557667D01*
X-15808852Y44584852D01*
X-15781667Y44607162D01*
X-15750653Y44623739D01*
X-15716996Y44633949D01*
X-15675862Y44638000D01*
X-14296138Y44638000D01*
X-14255004Y44633949D01*
X-14255004Y44633949D01*
G37*
G36*
X-3771000Y43111000D02*
X-5373000Y43111000D01*
X-5373000Y44263000D01*
X-3771000Y44263000D01*
X-3771000Y43111000D01*
X-3771000Y43111000D01*
G37*
G36*
X5269591Y44590915D02*
X5303569Y44580607D01*
X5334887Y44563867D01*
X5362339Y44541339D01*
X5384867Y44513887D01*
X5401607Y44482569D01*
X5411915Y44448591D01*
X5416000Y44407110D01*
X5416000Y43730890D01*
X5411915Y43689409D01*
X5401607Y43655431D01*
X5384867Y43624113D01*
X5362339Y43596661D01*
X5334887Y43574133D01*
X5303569Y43557393D01*
X5269591Y43547085D01*
X5228110Y43543000D01*
X4626890Y43543000D01*
X4585409Y43547085D01*
X4551431Y43557393D01*
X4520113Y43574133D01*
X4492661Y43596661D01*
X4470133Y43624113D01*
X4453393Y43655431D01*
X4443085Y43689409D01*
X4439000Y43730890D01*
X4439000Y44407110D01*
X4443085Y44448591D01*
X4453393Y44482569D01*
X4470133Y44513887D01*
X4492661Y44541339D01*
X4520113Y44563867D01*
X4551431Y44580607D01*
X4585409Y44590915D01*
X4626890Y44595000D01*
X5228110Y44595000D01*
X5269591Y44590915D01*
X5269591Y44590915D01*
G37*
G36*
X6844591Y44590915D02*
X6878569Y44580607D01*
X6909887Y44563867D01*
X6937339Y44541339D01*
X6959867Y44513887D01*
X6976607Y44482569D01*
X6986915Y44448591D01*
X6991000Y44407110D01*
X6991000Y43730890D01*
X6986915Y43689409D01*
X6976607Y43655431D01*
X6959867Y43624113D01*
X6937339Y43596661D01*
X6909887Y43574133D01*
X6878569Y43557393D01*
X6844591Y43547085D01*
X6803110Y43543000D01*
X6201890Y43543000D01*
X6160409Y43547085D01*
X6126431Y43557393D01*
X6095113Y43574133D01*
X6067661Y43596661D01*
X6045133Y43624113D01*
X6028393Y43655431D01*
X6018085Y43689409D01*
X6014000Y43730890D01*
X6014000Y44407110D01*
X6018085Y44448591D01*
X6028393Y44482569D01*
X6045133Y44513887D01*
X6067661Y44541339D01*
X6095113Y44563867D01*
X6126431Y44580607D01*
X6160409Y44590915D01*
X6201890Y44595000D01*
X6803110Y44595000D01*
X6844591Y44590915D01*
X6844591Y44590915D01*
G37*
G36*
X10471689Y46636294D02*
X10615040Y46622175D01*
X10860280Y46547782D01*
X10860282Y46547781D01*
X11086296Y46426974D01*
X11284397Y46264397D01*
X11446974Y46066296D01*
X11497302Y45972138D01*
X11567782Y45840280D01*
X11642175Y45595040D01*
X11667294Y45340000D01*
X11642175Y45084960D01*
X11567782Y44839720D01*
X11567781Y44839718D01*
X11446974Y44613704D01*
X11284397Y44415603D01*
X11086296Y44253026D01*
X11086294Y44253025D01*
X10860280Y44132218D01*
X10615040Y44057825D01*
X10471689Y44043706D01*
X10423906Y44039000D01*
X9896094Y44039000D01*
X9848311Y44043706D01*
X9704960Y44057825D01*
X9459720Y44132218D01*
X9233706Y44253025D01*
X9233704Y44253026D01*
X9035603Y44415603D01*
X8873026Y44613704D01*
X8752219Y44839718D01*
X8752218Y44839720D01*
X8677825Y45084960D01*
X8652706Y45340000D01*
X8677825Y45595040D01*
X8752218Y45840280D01*
X8822698Y45972138D01*
X8873026Y46066296D01*
X9035603Y46264397D01*
X9233704Y46426974D01*
X9459718Y46547781D01*
X9459720Y46547782D01*
X9704960Y46622175D01*
X9848311Y46636294D01*
X9896094Y46641000D01*
X10423906Y46641000D01*
X10471689Y46636294D01*
X10471689Y46636294D01*
G37*
G36*
X-9848311Y46636294D02*
X-9704960Y46622175D01*
X-9459720Y46547782D01*
X-9459718Y46547781D01*
X-9233704Y46426974D01*
X-9035603Y46264397D01*
X-8873026Y46066296D01*
X-8822698Y45972138D01*
X-8752218Y45840280D01*
X-8677825Y45595040D01*
X-8652706Y45340000D01*
X-8677825Y45084960D01*
X-8752218Y44839720D01*
X-8752219Y44839718D01*
X-8873026Y44613704D01*
X-9035603Y44415603D01*
X-9233704Y44253026D01*
X-9233706Y44253025D01*
X-9459720Y44132218D01*
X-9704960Y44057825D01*
X-9848311Y44043706D01*
X-9896094Y44039000D01*
X-10423906Y44039000D01*
X-10471689Y44043706D01*
X-10615040Y44057825D01*
X-10860280Y44132218D01*
X-11086294Y44253025D01*
X-11086296Y44253026D01*
X-11284397Y44415603D01*
X-11446974Y44613704D01*
X-11567781Y44839718D01*
X-11567782Y44839720D01*
X-11642175Y45084960D01*
X-11667294Y45340000D01*
X-11642175Y45595040D01*
X-11567782Y45840280D01*
X-11497302Y45972138D01*
X-11446974Y46066296D01*
X-11284397Y46264397D01*
X-11086296Y46426974D01*
X-10860282Y46547781D01*
X-10860280Y46547782D01*
X-10615040Y46622175D01*
X-10471689Y46636294D01*
X-10423906Y46641000D01*
X-9896094Y46641000D01*
X-9848311Y46636294D01*
X-9848311Y46636294D01*
G37*
G36*
X-3771000Y44811000D02*
X-5373000Y44811000D01*
X-5373000Y47313000D01*
X-3771000Y47313000D01*
X-3771000Y44811000D01*
X-3771000Y44811000D01*
G37*
G36*
X-6986409Y45924915D02*
X-6952431Y45914607D01*
X-6921113Y45897867D01*
X-6893661Y45875339D01*
X-6871133Y45847887D01*
X-6854393Y45816569D01*
X-6844085Y45782591D01*
X-6840000Y45741110D01*
X-6840000Y45139890D01*
X-6844085Y45098409D01*
X-6854393Y45064431D01*
X-6871133Y45033113D01*
X-6893661Y45005661D01*
X-6921113Y44983133D01*
X-6952431Y44966393D01*
X-6986409Y44956085D01*
X-7027890Y44952000D01*
X-7704110Y44952000D01*
X-7745591Y44956085D01*
X-7779569Y44966393D01*
X-7810887Y44983133D01*
X-7838339Y45005661D01*
X-7860867Y45033113D01*
X-7877607Y45064431D01*
X-7887915Y45098409D01*
X-7892000Y45139890D01*
X-7892000Y45741110D01*
X-7887915Y45782591D01*
X-7877607Y45816569D01*
X-7860867Y45847887D01*
X-7838339Y45875339D01*
X-7810887Y45897867D01*
X-7779569Y45914607D01*
X-7745591Y45924915D01*
X-7704110Y45929000D01*
X-7027890Y45929000D01*
X-6986409Y45924915D01*
X-6986409Y45924915D01*
G37*
G36*
X1405443Y47122481D02*
X1471627Y47115963D01*
X1584853Y47081616D01*
X1641467Y47064443D01*
X1780087Y46990348D01*
X1797991Y46980778D01*
X1833729Y46951448D01*
X1935186Y46868186D01*
X2014738Y46771250D01*
X2047778Y46730991D01*
X2047779Y46730989D01*
X2131443Y46574467D01*
X2145842Y46527000D01*
X2182963Y46404627D01*
X2200359Y46228000D01*
X2182963Y46051373D01*
X2148616Y45938147D01*
X2131443Y45881533D01*
X2076220Y45778220D01*
X2047778Y45725009D01*
X2018448Y45689271D01*
X1935186Y45587814D01*
X1833729Y45504552D01*
X1797991Y45475222D01*
X1797989Y45475221D01*
X1641467Y45391557D01*
X1584853Y45374384D01*
X1471627Y45340037D01*
X1405442Y45333518D01*
X1339260Y45327000D01*
X1250740Y45327000D01*
X1184558Y45333518D01*
X1118373Y45340037D01*
X1005147Y45374384D01*
X948533Y45391557D01*
X792011Y45475221D01*
X792009Y45475222D01*
X756271Y45504552D01*
X654814Y45587814D01*
X571552Y45689271D01*
X542222Y45725009D01*
X513780Y45778220D01*
X458557Y45881533D01*
X441384Y45938147D01*
X407037Y46051373D01*
X389641Y46228000D01*
X407037Y46404627D01*
X444158Y46527000D01*
X458557Y46574467D01*
X542221Y46730989D01*
X542222Y46730991D01*
X575262Y46771250D01*
X654814Y46868186D01*
X756271Y46951448D01*
X792009Y46980778D01*
X809913Y46990348D01*
X948533Y47064443D01*
X1005147Y47081616D01*
X1118373Y47115963D01*
X1184557Y47122481D01*
X1250740Y47129000D01*
X1339260Y47129000D01*
X1405443Y47122481D01*
X1405443Y47122481D01*
G37*
G36*
X-1134557Y47122481D02*
X-1068373Y47115963D01*
X-955147Y47081616D01*
X-898533Y47064443D01*
X-759913Y46990348D01*
X-742009Y46980778D01*
X-706271Y46951448D01*
X-604814Y46868186D01*
X-525262Y46771250D01*
X-492222Y46730991D01*
X-492221Y46730989D01*
X-408557Y46574467D01*
X-394158Y46527000D01*
X-357037Y46404627D01*
X-339641Y46228000D01*
X-357037Y46051373D01*
X-391384Y45938147D01*
X-408557Y45881533D01*
X-463780Y45778220D01*
X-492222Y45725009D01*
X-521552Y45689271D01*
X-604814Y45587814D01*
X-706271Y45504552D01*
X-742009Y45475222D01*
X-742011Y45475221D01*
X-898533Y45391557D01*
X-955147Y45374384D01*
X-1068373Y45340037D01*
X-1134558Y45333518D01*
X-1200740Y45327000D01*
X-1289260Y45327000D01*
X-1355442Y45333518D01*
X-1421627Y45340037D01*
X-1534853Y45374384D01*
X-1591467Y45391557D01*
X-1747989Y45475221D01*
X-1747991Y45475222D01*
X-1783729Y45504552D01*
X-1885186Y45587814D01*
X-1968448Y45689271D01*
X-1997778Y45725009D01*
X-2026220Y45778220D01*
X-2081443Y45881533D01*
X-2098616Y45938147D01*
X-2132963Y46051373D01*
X-2150359Y46228000D01*
X-2132963Y46404627D01*
X-2095842Y46527000D01*
X-2081443Y46574467D01*
X-1997779Y46730989D01*
X-1997778Y46730991D01*
X-1964738Y46771250D01*
X-1885186Y46868186D01*
X-1783729Y46951448D01*
X-1747991Y46980778D01*
X-1730087Y46990348D01*
X-1591467Y47064443D01*
X-1534853Y47081616D01*
X-1421627Y47115963D01*
X-1355443Y47122481D01*
X-1289260Y47129000D01*
X-1200740Y47129000D01*
X-1134557Y47122481D01*
X-1134557Y47122481D01*
G37*
G36*
X-14255004Y47483949D02*
X-14221347Y47473739D01*
X-14190333Y47457162D01*
X-14163148Y47434852D01*
X-14140838Y47407667D01*
X-14124261Y47376653D01*
X-14114051Y47342996D01*
X-14110000Y47301862D01*
X-14110000Y45972138D01*
X-14114051Y45931004D01*
X-14124261Y45897347D01*
X-14140838Y45866333D01*
X-14163148Y45839148D01*
X-14190333Y45816838D01*
X-14221347Y45800261D01*
X-14255004Y45790051D01*
X-14296138Y45786000D01*
X-15675862Y45786000D01*
X-15716996Y45790051D01*
X-15750653Y45800261D01*
X-15781667Y45816838D01*
X-15808852Y45839148D01*
X-15831162Y45866333D01*
X-15847739Y45897347D01*
X-15857949Y45931004D01*
X-15862000Y45972138D01*
X-15862000Y47301862D01*
X-15857949Y47342996D01*
X-15847739Y47376653D01*
X-15831162Y47407667D01*
X-15808852Y47434852D01*
X-15781667Y47457162D01*
X-15750653Y47473739D01*
X-15716996Y47483949D01*
X-15675862Y47488000D01*
X-14296138Y47488000D01*
X-14255004Y47483949D01*
X-14255004Y47483949D01*
G37*
G36*
X6844591Y47384915D02*
X6878569Y47374607D01*
X6909887Y47357867D01*
X6937339Y47335339D01*
X6959867Y47307887D01*
X6976607Y47276569D01*
X6986915Y47242591D01*
X6991000Y47201110D01*
X6991000Y46524890D01*
X6986915Y46483409D01*
X6976607Y46449431D01*
X6959867Y46418113D01*
X6937339Y46390661D01*
X6909887Y46368133D01*
X6878569Y46351393D01*
X6844591Y46341085D01*
X6803110Y46337000D01*
X6201890Y46337000D01*
X6160409Y46341085D01*
X6126431Y46351393D01*
X6095113Y46368133D01*
X6067661Y46390661D01*
X6045133Y46418113D01*
X6028393Y46449431D01*
X6018085Y46483409D01*
X6014000Y46524890D01*
X6014000Y47201110D01*
X6018085Y47242591D01*
X6028393Y47276569D01*
X6045133Y47307887D01*
X6067661Y47335339D01*
X6095113Y47357867D01*
X6126431Y47374607D01*
X6160409Y47384915D01*
X6201890Y47389000D01*
X6803110Y47389000D01*
X6844591Y47384915D01*
X6844591Y47384915D01*
G37*
G36*
X5269591Y47384915D02*
X5303569Y47374607D01*
X5334887Y47357867D01*
X5362339Y47335339D01*
X5384867Y47307887D01*
X5401607Y47276569D01*
X5411915Y47242591D01*
X5416000Y47201110D01*
X5416000Y46524890D01*
X5411915Y46483409D01*
X5401607Y46449431D01*
X5384867Y46418113D01*
X5362339Y46390661D01*
X5334887Y46368133D01*
X5303569Y46351393D01*
X5269591Y46341085D01*
X5228110Y46337000D01*
X4626890Y46337000D01*
X4585409Y46341085D01*
X4551431Y46351393D01*
X4520113Y46368133D01*
X4492661Y46390661D01*
X4470133Y46418113D01*
X4453393Y46449431D01*
X4443085Y46483409D01*
X4439000Y46524890D01*
X4439000Y47201110D01*
X4443085Y47242591D01*
X4453393Y47276569D01*
X4470133Y47307887D01*
X4492661Y47335339D01*
X4520113Y47357867D01*
X4551431Y47374607D01*
X4585409Y47384915D01*
X4626890Y47389000D01*
X5228110Y47389000D01*
X5269591Y47384915D01*
X5269591Y47384915D01*
G37*
G36*
X-6986409Y47499915D02*
X-6952431Y47489607D01*
X-6921113Y47472867D01*
X-6893661Y47450339D01*
X-6871133Y47422887D01*
X-6854393Y47391569D01*
X-6844085Y47357591D01*
X-6840000Y47316110D01*
X-6840000Y46714890D01*
X-6844085Y46673409D01*
X-6854393Y46639431D01*
X-6871133Y46608113D01*
X-6893661Y46580661D01*
X-6921113Y46558133D01*
X-6952431Y46541393D01*
X-6986409Y46531085D01*
X-7027890Y46527000D01*
X-7704110Y46527000D01*
X-7745591Y46531085D01*
X-7779569Y46541393D01*
X-7810887Y46558133D01*
X-7838339Y46580661D01*
X-7860867Y46608113D01*
X-7877607Y46639431D01*
X-7887915Y46673409D01*
X-7892000Y46714890D01*
X-7892000Y47316110D01*
X-7887915Y47357591D01*
X-7877607Y47391569D01*
X-7860867Y47422887D01*
X-7838339Y47450339D01*
X-7810887Y47472867D01*
X-7779569Y47489607D01*
X-7745591Y47499915D01*
X-7704110Y47504000D01*
X-7027890Y47504000D01*
X-6986409Y47499915D01*
X-6986409Y47499915D01*
G37*
M02*
