G04 #@! TF.GenerationSoftware,KiCad,Pcbnew,5.0.2-bee76a0~70~ubuntu18.04.1*
G04 #@! TF.CreationDate,2019-01-03T15:41:27+08:00*
G04 #@! TF.ProjectId,Divider,44697669-6465-4722-9e6b-696361645f70,rev?*
G04 #@! TF.SameCoordinates,PX8d9ee20PY6422c40*
G04 #@! TF.FileFunction,Soldermask,Top*
G04 #@! TF.FilePolarity,Negative*
%FSLAX46Y46*%
G04 Gerber Fmt 4.6, Leading zero omitted, Abs format (unit mm)*
G04 Created by KiCad (PCBNEW 5.0.2-bee76a0~70~ubuntu18.04.1) date Thu Jan  3 15:41:27 2019*
%MOMM*%
%LPD*%
G01*
G04 APERTURE LIST*
%ADD10C,0.100000*%
G04 APERTURE END LIST*
D10*
G36*
X-6613180Y-39301313D02*
X-6613177Y-39301314D01*
X-6613176Y-39301314D01*
X-6452762Y-39349975D01*
X-6452760Y-39349976D01*
X-6452757Y-39349977D01*
X-6304922Y-39428995D01*
X-6175341Y-39535341D01*
X-6068995Y-39664922D01*
X-5989977Y-39812756D01*
X-5989977Y-39812757D01*
X-5989975Y-39812761D01*
X-5953508Y-39932977D01*
X-5941313Y-39973179D01*
X-5929000Y-40098196D01*
X-5929000Y-41181803D01*
X-5941313Y-41306821D01*
X-5941314Y-41306824D01*
X-5941314Y-41306825D01*
X-5959640Y-41367239D01*
X-5989977Y-41467244D01*
X-6068995Y-41615078D01*
X-6175341Y-41744659D01*
X-6304922Y-41851005D01*
X-6452756Y-41930023D01*
X-6452759Y-41930024D01*
X-6452761Y-41930025D01*
X-6613175Y-41978686D01*
X-6613176Y-41978686D01*
X-6613179Y-41978687D01*
X-6780000Y-41995117D01*
X-6946820Y-41978687D01*
X-6946823Y-41978686D01*
X-6946824Y-41978686D01*
X-7107238Y-41930025D01*
X-7107240Y-41930024D01*
X-7107243Y-41930023D01*
X-7255077Y-41851005D01*
X-7384658Y-41744659D01*
X-7491004Y-41615078D01*
X-7570022Y-41467244D01*
X-7600358Y-41367239D01*
X-7618685Y-41306825D01*
X-7618685Y-41306824D01*
X-7618686Y-41306821D01*
X-7630999Y-41181804D01*
X-7631000Y-40098197D01*
X-7618687Y-39973180D01*
X-7618686Y-39973176D01*
X-7570025Y-39812762D01*
X-7570024Y-39812760D01*
X-7570023Y-39812757D01*
X-7491005Y-39664922D01*
X-7384659Y-39535341D01*
X-7255078Y-39428995D01*
X-7107244Y-39349977D01*
X-7107241Y-39349976D01*
X-7107239Y-39349975D01*
X-6946825Y-39301314D01*
X-6946824Y-39301314D01*
X-6946821Y-39301313D01*
X-6780000Y-39284883D01*
X-6613180Y-39301313D01*
X-6613180Y-39301313D01*
G37*
G36*
X13706820Y-39301313D02*
X13706823Y-39301314D01*
X13706824Y-39301314D01*
X13867238Y-39349975D01*
X13867240Y-39349976D01*
X13867243Y-39349977D01*
X14015078Y-39428995D01*
X14144659Y-39535341D01*
X14251005Y-39664922D01*
X14330023Y-39812756D01*
X14330023Y-39812757D01*
X14330025Y-39812761D01*
X14366492Y-39932977D01*
X14378687Y-39973179D01*
X14391000Y-40098196D01*
X14391000Y-41181803D01*
X14378687Y-41306821D01*
X14378686Y-41306824D01*
X14378686Y-41306825D01*
X14360360Y-41367239D01*
X14330023Y-41467244D01*
X14251005Y-41615078D01*
X14144659Y-41744659D01*
X14015078Y-41851005D01*
X13867244Y-41930023D01*
X13867241Y-41930024D01*
X13867239Y-41930025D01*
X13706825Y-41978686D01*
X13706824Y-41978686D01*
X13706821Y-41978687D01*
X13540000Y-41995117D01*
X13373180Y-41978687D01*
X13373177Y-41978686D01*
X13373176Y-41978686D01*
X13212762Y-41930025D01*
X13212760Y-41930024D01*
X13212757Y-41930023D01*
X13064923Y-41851005D01*
X12935342Y-41744659D01*
X12828996Y-41615078D01*
X12749978Y-41467244D01*
X12719642Y-41367239D01*
X12701315Y-41306825D01*
X12701315Y-41306824D01*
X12701314Y-41306821D01*
X12689001Y-41181804D01*
X12689000Y-40098197D01*
X12701313Y-39973180D01*
X12701314Y-39973176D01*
X12749975Y-39812762D01*
X12749976Y-39812760D01*
X12749977Y-39812757D01*
X12828995Y-39664922D01*
X12935341Y-39535341D01*
X13064922Y-39428995D01*
X13212756Y-39349977D01*
X13212759Y-39349976D01*
X13212761Y-39349975D01*
X13373175Y-39301314D01*
X13373176Y-39301314D01*
X13373179Y-39301313D01*
X13540000Y-39284883D01*
X13706820Y-39301313D01*
X13706820Y-39301313D01*
G37*
G36*
X5397024Y-39300590D02*
X5548011Y-39346392D01*
X5687161Y-39420768D01*
X5722750Y-39449975D01*
X5809133Y-39520867D01*
X5809134Y-39520869D01*
X5809136Y-39520870D01*
X5909230Y-39642835D01*
X5983608Y-39781988D01*
X6029410Y-39932975D01*
X6041000Y-40050654D01*
X6041000Y-41229346D01*
X6029410Y-41347025D01*
X5983608Y-41498012D01*
X5909230Y-41637165D01*
X5809133Y-41759133D01*
X5687165Y-41859230D01*
X5548012Y-41933608D01*
X5397025Y-41979410D01*
X5240000Y-41994875D01*
X5082976Y-41979410D01*
X4931989Y-41933608D01*
X4792836Y-41859230D01*
X4670868Y-41759133D01*
X4570771Y-41637165D01*
X4496393Y-41498012D01*
X4450591Y-41347025D01*
X4439001Y-41229346D01*
X4439000Y-40050655D01*
X4450590Y-39932976D01*
X4496392Y-39781989D01*
X4570768Y-39642839D01*
X4670865Y-39520870D01*
X4670867Y-39520867D01*
X4670869Y-39520866D01*
X4670870Y-39520864D01*
X4792835Y-39420770D01*
X4931988Y-39346392D01*
X5082975Y-39300590D01*
X5240000Y-39285125D01*
X5397024Y-39300590D01*
X5397024Y-39300590D01*
G37*
G36*
X-14922976Y-39300590D02*
X-14771989Y-39346392D01*
X-14632839Y-39420768D01*
X-14597250Y-39449975D01*
X-14510867Y-39520867D01*
X-14510866Y-39520869D01*
X-14510864Y-39520870D01*
X-14410770Y-39642835D01*
X-14336392Y-39781988D01*
X-14290590Y-39932975D01*
X-14279000Y-40050654D01*
X-14279000Y-41229346D01*
X-14290590Y-41347025D01*
X-14336392Y-41498012D01*
X-14410770Y-41637165D01*
X-14510867Y-41759133D01*
X-14632835Y-41859230D01*
X-14771988Y-41933608D01*
X-14922975Y-41979410D01*
X-15080000Y-41994875D01*
X-15237024Y-41979410D01*
X-15388011Y-41933608D01*
X-15527164Y-41859230D01*
X-15649132Y-41759133D01*
X-15749229Y-41637165D01*
X-15823607Y-41498012D01*
X-15869409Y-41347025D01*
X-15880999Y-41229346D01*
X-15881000Y-40050655D01*
X-15869410Y-39932976D01*
X-15823608Y-39781989D01*
X-15749232Y-39642839D01*
X-15649135Y-39520870D01*
X-15649133Y-39520867D01*
X-15649131Y-39520866D01*
X-15649130Y-39520864D01*
X-15527165Y-39420770D01*
X-15388012Y-39346392D01*
X-15237025Y-39300590D01*
X-15080000Y-39285125D01*
X-14922976Y-39300590D01*
X-14922976Y-39300590D01*
G37*
G36*
X-3513180Y-39401313D02*
X-3513177Y-39401314D01*
X-3513176Y-39401314D01*
X-3352762Y-39449975D01*
X-3352760Y-39449976D01*
X-3352757Y-39449977D01*
X-3204922Y-39528995D01*
X-3075341Y-39635341D01*
X-2968995Y-39764922D01*
X-2889977Y-39912756D01*
X-2889977Y-39912757D01*
X-2889975Y-39912761D01*
X-2848145Y-40050656D01*
X-2841313Y-40073179D01*
X-2829000Y-40198196D01*
X-2829000Y-41081803D01*
X-2841313Y-41206820D01*
X-2841314Y-41206822D01*
X-2841314Y-41206825D01*
X-2889975Y-41367239D01*
X-2889977Y-41367244D01*
X-2968995Y-41515078D01*
X-3075341Y-41644659D01*
X-3204922Y-41751005D01*
X-3352756Y-41830023D01*
X-3352759Y-41830024D01*
X-3352761Y-41830025D01*
X-3513175Y-41878686D01*
X-3513176Y-41878686D01*
X-3513179Y-41878687D01*
X-3680000Y-41895117D01*
X-3846820Y-41878687D01*
X-3846823Y-41878686D01*
X-3846824Y-41878686D01*
X-4007238Y-41830025D01*
X-4007240Y-41830024D01*
X-4007243Y-41830023D01*
X-4155077Y-41751005D01*
X-4284658Y-41644659D01*
X-4391004Y-41515078D01*
X-4470022Y-41367244D01*
X-4476155Y-41347025D01*
X-4518685Y-41206825D01*
X-4518685Y-41206824D01*
X-4518686Y-41206821D01*
X-4531000Y-41081803D01*
X-4531000Y-40198197D01*
X-4518687Y-40073180D01*
X-4518686Y-40073176D01*
X-4470025Y-39912762D01*
X-4470024Y-39912760D01*
X-4470023Y-39912757D01*
X-4391005Y-39764922D01*
X-4284659Y-39635341D01*
X-4155078Y-39528995D01*
X-4007244Y-39449977D01*
X-4007241Y-39449976D01*
X-4007239Y-39449975D01*
X-3846825Y-39401314D01*
X-3846824Y-39401314D01*
X-3846821Y-39401313D01*
X-3680000Y-39384883D01*
X-3513180Y-39401313D01*
X-3513180Y-39401313D01*
G37*
G36*
X16806820Y-39401313D02*
X16806823Y-39401314D01*
X16806824Y-39401314D01*
X16967238Y-39449975D01*
X16967240Y-39449976D01*
X16967243Y-39449977D01*
X17115078Y-39528995D01*
X17244659Y-39635341D01*
X17351005Y-39764922D01*
X17430023Y-39912756D01*
X17430023Y-39912757D01*
X17430025Y-39912761D01*
X17471855Y-40050656D01*
X17478687Y-40073179D01*
X17491000Y-40198196D01*
X17491000Y-41081803D01*
X17478687Y-41206820D01*
X17478686Y-41206822D01*
X17478686Y-41206825D01*
X17430025Y-41367239D01*
X17430023Y-41367244D01*
X17351005Y-41515078D01*
X17244659Y-41644659D01*
X17115078Y-41751005D01*
X16967244Y-41830023D01*
X16967241Y-41830024D01*
X16967239Y-41830025D01*
X16806825Y-41878686D01*
X16806824Y-41878686D01*
X16806821Y-41878687D01*
X16640000Y-41895117D01*
X16473180Y-41878687D01*
X16473177Y-41878686D01*
X16473176Y-41878686D01*
X16312762Y-41830025D01*
X16312760Y-41830024D01*
X16312757Y-41830023D01*
X16164923Y-41751005D01*
X16035342Y-41644659D01*
X15928996Y-41515078D01*
X15849978Y-41367244D01*
X15843845Y-41347025D01*
X15801315Y-41206825D01*
X15801315Y-41206824D01*
X15801314Y-41206821D01*
X15789000Y-41081803D01*
X15789000Y-40198197D01*
X15801313Y-40073180D01*
X15801314Y-40073176D01*
X15849975Y-39912762D01*
X15849976Y-39912760D01*
X15849977Y-39912757D01*
X15928995Y-39764922D01*
X16035341Y-39635341D01*
X16164922Y-39528995D01*
X16312756Y-39449977D01*
X16312759Y-39449976D01*
X16312761Y-39449975D01*
X16473175Y-39401314D01*
X16473176Y-39401314D01*
X16473179Y-39401313D01*
X16640000Y-39384883D01*
X16806820Y-39401313D01*
X16806820Y-39401313D01*
G37*
G36*
X-2135604Y-34645546D02*
X-1962534Y-34717234D01*
X-1806770Y-34821312D01*
X-1674312Y-34953770D01*
X-1570234Y-35109534D01*
X-1498546Y-35282604D01*
X-1462000Y-35466333D01*
X-1462000Y-35653667D01*
X-1498546Y-35837396D01*
X-1570234Y-36010466D01*
X-1674312Y-36166230D01*
X-1806770Y-36298688D01*
X-1962534Y-36402766D01*
X-2135604Y-36474454D01*
X-2319333Y-36511000D01*
X-2506667Y-36511000D01*
X-2690396Y-36474454D01*
X-2863466Y-36402766D01*
X-3019230Y-36298688D01*
X-3151688Y-36166230D01*
X-3255766Y-36010466D01*
X-3327454Y-35837396D01*
X-3364000Y-35653667D01*
X-3364000Y-35466333D01*
X-3327454Y-35282604D01*
X-3255766Y-35109534D01*
X-3151688Y-34953770D01*
X-3019230Y-34821312D01*
X-2863466Y-34717234D01*
X-2690396Y-34645546D01*
X-2506667Y-34609000D01*
X-2319333Y-34609000D01*
X-2135604Y-34645546D01*
X-2135604Y-34645546D01*
G37*
G36*
X-4002000Y-36511000D02*
X-5904000Y-36511000D01*
X-5904000Y-34609000D01*
X-4002000Y-34609000D01*
X-4002000Y-36511000D01*
X-4002000Y-36511000D01*
G37*
G36*
X18184396Y-34645546D02*
X18357466Y-34717234D01*
X18513230Y-34821312D01*
X18645688Y-34953770D01*
X18749766Y-35109534D01*
X18821454Y-35282604D01*
X18858000Y-35466333D01*
X18858000Y-35653667D01*
X18821454Y-35837396D01*
X18749766Y-36010466D01*
X18645688Y-36166230D01*
X18513230Y-36298688D01*
X18357466Y-36402766D01*
X18184396Y-36474454D01*
X18000667Y-36511000D01*
X17813333Y-36511000D01*
X17629604Y-36474454D01*
X17456534Y-36402766D01*
X17300770Y-36298688D01*
X17168312Y-36166230D01*
X17064234Y-36010466D01*
X16992546Y-35837396D01*
X16956000Y-35653667D01*
X16956000Y-35466333D01*
X16992546Y-35282604D01*
X17064234Y-35109534D01*
X17168312Y-34953770D01*
X17300770Y-34821312D01*
X17456534Y-34717234D01*
X17629604Y-34645546D01*
X17813333Y-34609000D01*
X18000667Y-34609000D01*
X18184396Y-34645546D01*
X18184396Y-34645546D01*
G37*
G36*
X16318000Y-36511000D02*
X14416000Y-36511000D01*
X14416000Y-34609000D01*
X16318000Y-34609000D01*
X16318000Y-36511000D01*
X16318000Y-36511000D01*
G37*
G36*
X-6613180Y-25712313D02*
X-6613177Y-25712314D01*
X-6613176Y-25712314D01*
X-6452762Y-25760975D01*
X-6452760Y-25760976D01*
X-6452757Y-25760977D01*
X-6304922Y-25839995D01*
X-6175341Y-25946341D01*
X-6068995Y-26075922D01*
X-5989977Y-26223756D01*
X-5989977Y-26223757D01*
X-5989975Y-26223761D01*
X-5953508Y-26343977D01*
X-5941313Y-26384179D01*
X-5929000Y-26509196D01*
X-5929000Y-27592803D01*
X-5941313Y-27717821D01*
X-5941314Y-27717824D01*
X-5941314Y-27717825D01*
X-5959640Y-27778239D01*
X-5989977Y-27878244D01*
X-6068995Y-28026078D01*
X-6175341Y-28155659D01*
X-6304922Y-28262005D01*
X-6452756Y-28341023D01*
X-6452759Y-28341024D01*
X-6452761Y-28341025D01*
X-6613175Y-28389686D01*
X-6613176Y-28389686D01*
X-6613179Y-28389687D01*
X-6780000Y-28406117D01*
X-6946820Y-28389687D01*
X-6946823Y-28389686D01*
X-6946824Y-28389686D01*
X-7107238Y-28341025D01*
X-7107240Y-28341024D01*
X-7107243Y-28341023D01*
X-7255077Y-28262005D01*
X-7384658Y-28155659D01*
X-7491004Y-28026078D01*
X-7570022Y-27878244D01*
X-7600358Y-27778239D01*
X-7618685Y-27717825D01*
X-7618685Y-27717824D01*
X-7618686Y-27717821D01*
X-7630999Y-27592804D01*
X-7631000Y-26509197D01*
X-7618687Y-26384180D01*
X-7618686Y-26384176D01*
X-7570025Y-26223762D01*
X-7570024Y-26223760D01*
X-7570023Y-26223757D01*
X-7491005Y-26075922D01*
X-7384659Y-25946341D01*
X-7255078Y-25839995D01*
X-7107244Y-25760977D01*
X-7107241Y-25760976D01*
X-7107239Y-25760975D01*
X-6946825Y-25712314D01*
X-6946824Y-25712314D01*
X-6946821Y-25712313D01*
X-6780000Y-25695883D01*
X-6613180Y-25712313D01*
X-6613180Y-25712313D01*
G37*
G36*
X13706820Y-25712313D02*
X13706823Y-25712314D01*
X13706824Y-25712314D01*
X13867238Y-25760975D01*
X13867240Y-25760976D01*
X13867243Y-25760977D01*
X14015078Y-25839995D01*
X14144659Y-25946341D01*
X14251005Y-26075922D01*
X14330023Y-26223756D01*
X14330023Y-26223757D01*
X14330025Y-26223761D01*
X14366492Y-26343977D01*
X14378687Y-26384179D01*
X14391000Y-26509196D01*
X14391000Y-27592803D01*
X14378687Y-27717821D01*
X14378686Y-27717824D01*
X14378686Y-27717825D01*
X14360360Y-27778239D01*
X14330023Y-27878244D01*
X14251005Y-28026078D01*
X14144659Y-28155659D01*
X14015078Y-28262005D01*
X13867244Y-28341023D01*
X13867241Y-28341024D01*
X13867239Y-28341025D01*
X13706825Y-28389686D01*
X13706824Y-28389686D01*
X13706821Y-28389687D01*
X13540000Y-28406117D01*
X13373180Y-28389687D01*
X13373177Y-28389686D01*
X13373176Y-28389686D01*
X13212762Y-28341025D01*
X13212760Y-28341024D01*
X13212757Y-28341023D01*
X13064923Y-28262005D01*
X12935342Y-28155659D01*
X12828996Y-28026078D01*
X12749978Y-27878244D01*
X12719642Y-27778239D01*
X12701315Y-27717825D01*
X12701315Y-27717824D01*
X12701314Y-27717821D01*
X12689001Y-27592804D01*
X12689000Y-26509197D01*
X12701313Y-26384180D01*
X12701314Y-26384176D01*
X12749975Y-26223762D01*
X12749976Y-26223760D01*
X12749977Y-26223757D01*
X12828995Y-26075922D01*
X12935341Y-25946341D01*
X13064922Y-25839995D01*
X13212756Y-25760977D01*
X13212759Y-25760976D01*
X13212761Y-25760975D01*
X13373175Y-25712314D01*
X13373176Y-25712314D01*
X13373179Y-25712313D01*
X13540000Y-25695883D01*
X13706820Y-25712313D01*
X13706820Y-25712313D01*
G37*
G36*
X5397024Y-25711590D02*
X5548011Y-25757392D01*
X5687161Y-25831768D01*
X5722750Y-25860975D01*
X5809133Y-25931867D01*
X5809134Y-25931869D01*
X5809136Y-25931870D01*
X5909230Y-26053835D01*
X5983608Y-26192988D01*
X6029410Y-26343975D01*
X6041000Y-26461654D01*
X6041000Y-27640346D01*
X6029410Y-27758025D01*
X5983608Y-27909012D01*
X5909230Y-28048165D01*
X5809133Y-28170133D01*
X5687165Y-28270230D01*
X5548012Y-28344608D01*
X5397025Y-28390410D01*
X5240000Y-28405875D01*
X5082976Y-28390410D01*
X4931989Y-28344608D01*
X4792836Y-28270230D01*
X4670868Y-28170133D01*
X4570771Y-28048165D01*
X4496393Y-27909012D01*
X4450591Y-27758025D01*
X4439001Y-27640346D01*
X4439000Y-26461655D01*
X4450590Y-26343976D01*
X4496392Y-26192989D01*
X4570768Y-26053839D01*
X4670865Y-25931870D01*
X4670867Y-25931867D01*
X4670869Y-25931866D01*
X4670870Y-25931864D01*
X4792835Y-25831770D01*
X4931988Y-25757392D01*
X5082975Y-25711590D01*
X5240000Y-25696125D01*
X5397024Y-25711590D01*
X5397024Y-25711590D01*
G37*
G36*
X-14922976Y-25711590D02*
X-14771989Y-25757392D01*
X-14632839Y-25831768D01*
X-14597250Y-25860975D01*
X-14510867Y-25931867D01*
X-14510866Y-25931869D01*
X-14510864Y-25931870D01*
X-14410770Y-26053835D01*
X-14336392Y-26192988D01*
X-14290590Y-26343975D01*
X-14279000Y-26461654D01*
X-14279000Y-27640346D01*
X-14290590Y-27758025D01*
X-14336392Y-27909012D01*
X-14410770Y-28048165D01*
X-14510867Y-28170133D01*
X-14632835Y-28270230D01*
X-14771988Y-28344608D01*
X-14922975Y-28390410D01*
X-15080000Y-28405875D01*
X-15237024Y-28390410D01*
X-15388011Y-28344608D01*
X-15527164Y-28270230D01*
X-15649132Y-28170133D01*
X-15749229Y-28048165D01*
X-15823607Y-27909012D01*
X-15869409Y-27758025D01*
X-15880999Y-27640346D01*
X-15881000Y-26461655D01*
X-15869410Y-26343976D01*
X-15823608Y-26192989D01*
X-15749232Y-26053839D01*
X-15649135Y-25931870D01*
X-15649133Y-25931867D01*
X-15649131Y-25931866D01*
X-15649130Y-25931864D01*
X-15527165Y-25831770D01*
X-15388012Y-25757392D01*
X-15237025Y-25711590D01*
X-15080000Y-25696125D01*
X-14922976Y-25711590D01*
X-14922976Y-25711590D01*
G37*
G36*
X16806820Y-25812313D02*
X16806823Y-25812314D01*
X16806824Y-25812314D01*
X16967238Y-25860975D01*
X16967240Y-25860976D01*
X16967243Y-25860977D01*
X17115078Y-25939995D01*
X17244659Y-26046341D01*
X17351005Y-26175922D01*
X17430023Y-26323756D01*
X17430023Y-26323757D01*
X17430025Y-26323761D01*
X17471855Y-26461656D01*
X17478687Y-26484179D01*
X17491000Y-26609196D01*
X17491000Y-27492803D01*
X17478687Y-27617820D01*
X17478686Y-27617822D01*
X17478686Y-27617825D01*
X17430025Y-27778239D01*
X17430023Y-27778244D01*
X17351005Y-27926078D01*
X17244659Y-28055659D01*
X17115078Y-28162005D01*
X16967244Y-28241023D01*
X16967241Y-28241024D01*
X16967239Y-28241025D01*
X16806825Y-28289686D01*
X16806824Y-28289686D01*
X16806821Y-28289687D01*
X16640000Y-28306117D01*
X16473180Y-28289687D01*
X16473177Y-28289686D01*
X16473176Y-28289686D01*
X16312762Y-28241025D01*
X16312760Y-28241024D01*
X16312757Y-28241023D01*
X16164923Y-28162005D01*
X16035342Y-28055659D01*
X15928996Y-27926078D01*
X15849978Y-27778244D01*
X15843845Y-27758025D01*
X15801315Y-27617825D01*
X15801315Y-27617824D01*
X15801314Y-27617821D01*
X15789000Y-27492803D01*
X15789000Y-26609197D01*
X15801313Y-26484180D01*
X15801314Y-26484176D01*
X15849975Y-26323762D01*
X15849976Y-26323760D01*
X15849977Y-26323757D01*
X15928995Y-26175922D01*
X16035341Y-26046341D01*
X16164922Y-25939995D01*
X16312756Y-25860977D01*
X16312759Y-25860976D01*
X16312761Y-25860975D01*
X16473175Y-25812314D01*
X16473176Y-25812314D01*
X16473179Y-25812313D01*
X16640000Y-25795883D01*
X16806820Y-25812313D01*
X16806820Y-25812313D01*
G37*
G36*
X-3513180Y-25812313D02*
X-3513177Y-25812314D01*
X-3513176Y-25812314D01*
X-3352762Y-25860975D01*
X-3352760Y-25860976D01*
X-3352757Y-25860977D01*
X-3204922Y-25939995D01*
X-3075341Y-26046341D01*
X-2968995Y-26175922D01*
X-2889977Y-26323756D01*
X-2889977Y-26323757D01*
X-2889975Y-26323761D01*
X-2848145Y-26461656D01*
X-2841313Y-26484179D01*
X-2829000Y-26609196D01*
X-2829000Y-27492803D01*
X-2841313Y-27617820D01*
X-2841314Y-27617822D01*
X-2841314Y-27617825D01*
X-2889975Y-27778239D01*
X-2889977Y-27778244D01*
X-2968995Y-27926078D01*
X-3075341Y-28055659D01*
X-3204922Y-28162005D01*
X-3352756Y-28241023D01*
X-3352759Y-28241024D01*
X-3352761Y-28241025D01*
X-3513175Y-28289686D01*
X-3513176Y-28289686D01*
X-3513179Y-28289687D01*
X-3680000Y-28306117D01*
X-3846820Y-28289687D01*
X-3846823Y-28289686D01*
X-3846824Y-28289686D01*
X-4007238Y-28241025D01*
X-4007240Y-28241024D01*
X-4007243Y-28241023D01*
X-4155077Y-28162005D01*
X-4284658Y-28055659D01*
X-4391004Y-27926078D01*
X-4470022Y-27778244D01*
X-4476155Y-27758025D01*
X-4518685Y-27617825D01*
X-4518685Y-27617824D01*
X-4518686Y-27617821D01*
X-4531000Y-27492803D01*
X-4531000Y-26609197D01*
X-4518687Y-26484180D01*
X-4518686Y-26484176D01*
X-4470025Y-26323762D01*
X-4470024Y-26323760D01*
X-4470023Y-26323757D01*
X-4391005Y-26175922D01*
X-4284659Y-26046341D01*
X-4155078Y-25939995D01*
X-4007244Y-25860977D01*
X-4007241Y-25860976D01*
X-4007239Y-25860975D01*
X-3846825Y-25812314D01*
X-3846824Y-25812314D01*
X-3846821Y-25812313D01*
X-3680000Y-25795883D01*
X-3513180Y-25812313D01*
X-3513180Y-25812313D01*
G37*
G36*
X-2135604Y-21056546D02*
X-1962534Y-21128234D01*
X-1806770Y-21232312D01*
X-1674312Y-21364770D01*
X-1570234Y-21520534D01*
X-1498546Y-21693604D01*
X-1462000Y-21877333D01*
X-1462000Y-22064667D01*
X-1498546Y-22248396D01*
X-1570234Y-22421466D01*
X-1674312Y-22577230D01*
X-1806770Y-22709688D01*
X-1962534Y-22813766D01*
X-2135604Y-22885454D01*
X-2319333Y-22922000D01*
X-2506667Y-22922000D01*
X-2690396Y-22885454D01*
X-2863466Y-22813766D01*
X-3019230Y-22709688D01*
X-3151688Y-22577230D01*
X-3255766Y-22421466D01*
X-3327454Y-22248396D01*
X-3364000Y-22064667D01*
X-3364000Y-21877333D01*
X-3327454Y-21693604D01*
X-3255766Y-21520534D01*
X-3151688Y-21364770D01*
X-3019230Y-21232312D01*
X-2863466Y-21128234D01*
X-2690396Y-21056546D01*
X-2506667Y-21020000D01*
X-2319333Y-21020000D01*
X-2135604Y-21056546D01*
X-2135604Y-21056546D01*
G37*
G36*
X16318000Y-22922000D02*
X14416000Y-22922000D01*
X14416000Y-21020000D01*
X16318000Y-21020000D01*
X16318000Y-22922000D01*
X16318000Y-22922000D01*
G37*
G36*
X-4002000Y-22922000D02*
X-5904000Y-22922000D01*
X-5904000Y-21020000D01*
X-4002000Y-21020000D01*
X-4002000Y-22922000D01*
X-4002000Y-22922000D01*
G37*
G36*
X18184396Y-21056546D02*
X18357466Y-21128234D01*
X18513230Y-21232312D01*
X18645688Y-21364770D01*
X18749766Y-21520534D01*
X18821454Y-21693604D01*
X18858000Y-21877333D01*
X18858000Y-22064667D01*
X18821454Y-22248396D01*
X18749766Y-22421466D01*
X18645688Y-22577230D01*
X18513230Y-22709688D01*
X18357466Y-22813766D01*
X18184396Y-22885454D01*
X18000667Y-22922000D01*
X17813333Y-22922000D01*
X17629604Y-22885454D01*
X17456534Y-22813766D01*
X17300770Y-22709688D01*
X17168312Y-22577230D01*
X17064234Y-22421466D01*
X16992546Y-22248396D01*
X16956000Y-22064667D01*
X16956000Y-21877333D01*
X16992546Y-21693604D01*
X17064234Y-21520534D01*
X17168312Y-21364770D01*
X17300770Y-21232312D01*
X17456534Y-21128234D01*
X17629604Y-21056546D01*
X17813333Y-21020000D01*
X18000667Y-21020000D01*
X18184396Y-21056546D01*
X18184396Y-21056546D01*
G37*
G36*
X13706820Y-12123313D02*
X13706823Y-12123314D01*
X13706824Y-12123314D01*
X13867238Y-12171975D01*
X13867240Y-12171976D01*
X13867243Y-12171977D01*
X14015078Y-12250995D01*
X14144659Y-12357341D01*
X14251005Y-12486922D01*
X14330023Y-12634756D01*
X14330023Y-12634757D01*
X14330025Y-12634761D01*
X14366492Y-12754977D01*
X14378687Y-12795179D01*
X14391000Y-12920196D01*
X14391000Y-14003803D01*
X14378687Y-14128821D01*
X14378686Y-14128824D01*
X14378686Y-14128825D01*
X14360360Y-14189239D01*
X14330023Y-14289244D01*
X14251005Y-14437078D01*
X14144659Y-14566659D01*
X14015078Y-14673005D01*
X13867244Y-14752023D01*
X13867241Y-14752024D01*
X13867239Y-14752025D01*
X13706825Y-14800686D01*
X13706824Y-14800686D01*
X13706821Y-14800687D01*
X13540000Y-14817117D01*
X13373180Y-14800687D01*
X13373177Y-14800686D01*
X13373176Y-14800686D01*
X13212762Y-14752025D01*
X13212760Y-14752024D01*
X13212757Y-14752023D01*
X13064923Y-14673005D01*
X12935342Y-14566659D01*
X12828996Y-14437078D01*
X12749978Y-14289244D01*
X12719642Y-14189239D01*
X12701315Y-14128825D01*
X12701315Y-14128824D01*
X12701314Y-14128821D01*
X12689001Y-14003804D01*
X12689000Y-12920197D01*
X12701313Y-12795180D01*
X12701314Y-12795176D01*
X12749975Y-12634762D01*
X12749976Y-12634760D01*
X12749977Y-12634757D01*
X12828995Y-12486922D01*
X12935341Y-12357341D01*
X13064922Y-12250995D01*
X13212756Y-12171977D01*
X13212759Y-12171976D01*
X13212761Y-12171975D01*
X13373175Y-12123314D01*
X13373176Y-12123314D01*
X13373179Y-12123313D01*
X13540000Y-12106883D01*
X13706820Y-12123313D01*
X13706820Y-12123313D01*
G37*
G36*
X-6613180Y-12123313D02*
X-6613177Y-12123314D01*
X-6613176Y-12123314D01*
X-6452762Y-12171975D01*
X-6452760Y-12171976D01*
X-6452757Y-12171977D01*
X-6304922Y-12250995D01*
X-6175341Y-12357341D01*
X-6068995Y-12486922D01*
X-5989977Y-12634756D01*
X-5989977Y-12634757D01*
X-5989975Y-12634761D01*
X-5953508Y-12754977D01*
X-5941313Y-12795179D01*
X-5929000Y-12920196D01*
X-5929000Y-14003803D01*
X-5941313Y-14128821D01*
X-5941314Y-14128824D01*
X-5941314Y-14128825D01*
X-5959640Y-14189239D01*
X-5989977Y-14289244D01*
X-6068995Y-14437078D01*
X-6175341Y-14566659D01*
X-6304922Y-14673005D01*
X-6452756Y-14752023D01*
X-6452759Y-14752024D01*
X-6452761Y-14752025D01*
X-6613175Y-14800686D01*
X-6613176Y-14800686D01*
X-6613179Y-14800687D01*
X-6780000Y-14817117D01*
X-6946820Y-14800687D01*
X-6946823Y-14800686D01*
X-6946824Y-14800686D01*
X-7107238Y-14752025D01*
X-7107240Y-14752024D01*
X-7107243Y-14752023D01*
X-7255077Y-14673005D01*
X-7384658Y-14566659D01*
X-7491004Y-14437078D01*
X-7570022Y-14289244D01*
X-7600358Y-14189239D01*
X-7618685Y-14128825D01*
X-7618685Y-14128824D01*
X-7618686Y-14128821D01*
X-7630999Y-14003804D01*
X-7631000Y-12920197D01*
X-7618687Y-12795180D01*
X-7618686Y-12795176D01*
X-7570025Y-12634762D01*
X-7570024Y-12634760D01*
X-7570023Y-12634757D01*
X-7491005Y-12486922D01*
X-7384659Y-12357341D01*
X-7255078Y-12250995D01*
X-7107244Y-12171977D01*
X-7107241Y-12171976D01*
X-7107239Y-12171975D01*
X-6946825Y-12123314D01*
X-6946824Y-12123314D01*
X-6946821Y-12123313D01*
X-6780000Y-12106883D01*
X-6613180Y-12123313D01*
X-6613180Y-12123313D01*
G37*
G36*
X-14922976Y-12122590D02*
X-14771989Y-12168392D01*
X-14632839Y-12242768D01*
X-14597250Y-12271975D01*
X-14510867Y-12342867D01*
X-14510866Y-12342869D01*
X-14510864Y-12342870D01*
X-14410770Y-12464835D01*
X-14336392Y-12603988D01*
X-14290590Y-12754975D01*
X-14279000Y-12872654D01*
X-14279000Y-14051346D01*
X-14290590Y-14169025D01*
X-14336392Y-14320012D01*
X-14410770Y-14459165D01*
X-14510867Y-14581133D01*
X-14632835Y-14681230D01*
X-14771988Y-14755608D01*
X-14922975Y-14801410D01*
X-15080000Y-14816875D01*
X-15237024Y-14801410D01*
X-15388011Y-14755608D01*
X-15527164Y-14681230D01*
X-15649132Y-14581133D01*
X-15749229Y-14459165D01*
X-15823607Y-14320012D01*
X-15869409Y-14169025D01*
X-15880999Y-14051346D01*
X-15881000Y-12872655D01*
X-15869410Y-12754976D01*
X-15823608Y-12603989D01*
X-15749232Y-12464839D01*
X-15649135Y-12342870D01*
X-15649133Y-12342867D01*
X-15649131Y-12342866D01*
X-15649130Y-12342864D01*
X-15527165Y-12242770D01*
X-15388012Y-12168392D01*
X-15237025Y-12122590D01*
X-15080000Y-12107125D01*
X-14922976Y-12122590D01*
X-14922976Y-12122590D01*
G37*
G36*
X5397024Y-12122590D02*
X5548011Y-12168392D01*
X5687161Y-12242768D01*
X5722750Y-12271975D01*
X5809133Y-12342867D01*
X5809134Y-12342869D01*
X5809136Y-12342870D01*
X5909230Y-12464835D01*
X5983608Y-12603988D01*
X6029410Y-12754975D01*
X6041000Y-12872654D01*
X6041000Y-14051346D01*
X6029410Y-14169025D01*
X5983608Y-14320012D01*
X5909230Y-14459165D01*
X5809133Y-14581133D01*
X5687165Y-14681230D01*
X5548012Y-14755608D01*
X5397025Y-14801410D01*
X5240000Y-14816875D01*
X5082976Y-14801410D01*
X4931989Y-14755608D01*
X4792836Y-14681230D01*
X4670868Y-14581133D01*
X4570771Y-14459165D01*
X4496393Y-14320012D01*
X4450591Y-14169025D01*
X4439001Y-14051346D01*
X4439000Y-12872655D01*
X4450590Y-12754976D01*
X4496392Y-12603989D01*
X4570768Y-12464839D01*
X4670865Y-12342870D01*
X4670867Y-12342867D01*
X4670869Y-12342866D01*
X4670870Y-12342864D01*
X4792835Y-12242770D01*
X4931988Y-12168392D01*
X5082975Y-12122590D01*
X5240000Y-12107125D01*
X5397024Y-12122590D01*
X5397024Y-12122590D01*
G37*
G36*
X-3513180Y-12223313D02*
X-3513177Y-12223314D01*
X-3513176Y-12223314D01*
X-3352762Y-12271975D01*
X-3352760Y-12271976D01*
X-3352757Y-12271977D01*
X-3204922Y-12350995D01*
X-3075341Y-12457341D01*
X-2968995Y-12586922D01*
X-2889977Y-12734756D01*
X-2889977Y-12734757D01*
X-2889975Y-12734761D01*
X-2848145Y-12872656D01*
X-2841313Y-12895179D01*
X-2829000Y-13020196D01*
X-2829000Y-13903803D01*
X-2841313Y-14028820D01*
X-2841314Y-14028822D01*
X-2841314Y-14028825D01*
X-2889975Y-14189239D01*
X-2889977Y-14189244D01*
X-2968995Y-14337078D01*
X-3075341Y-14466659D01*
X-3204922Y-14573005D01*
X-3352756Y-14652023D01*
X-3352759Y-14652024D01*
X-3352761Y-14652025D01*
X-3513175Y-14700686D01*
X-3513176Y-14700686D01*
X-3513179Y-14700687D01*
X-3680000Y-14717117D01*
X-3846820Y-14700687D01*
X-3846823Y-14700686D01*
X-3846824Y-14700686D01*
X-4007238Y-14652025D01*
X-4007240Y-14652024D01*
X-4007243Y-14652023D01*
X-4155077Y-14573005D01*
X-4284658Y-14466659D01*
X-4391004Y-14337078D01*
X-4470022Y-14189244D01*
X-4476155Y-14169025D01*
X-4518685Y-14028825D01*
X-4518685Y-14028824D01*
X-4518686Y-14028821D01*
X-4531000Y-13903803D01*
X-4531000Y-13020197D01*
X-4518687Y-12895180D01*
X-4518686Y-12895176D01*
X-4470025Y-12734762D01*
X-4470024Y-12734760D01*
X-4470023Y-12734757D01*
X-4391005Y-12586922D01*
X-4284659Y-12457341D01*
X-4155078Y-12350995D01*
X-4007244Y-12271977D01*
X-4007241Y-12271976D01*
X-4007239Y-12271975D01*
X-3846825Y-12223314D01*
X-3846824Y-12223314D01*
X-3846821Y-12223313D01*
X-3680000Y-12206883D01*
X-3513180Y-12223313D01*
X-3513180Y-12223313D01*
G37*
G36*
X16806820Y-12223313D02*
X16806823Y-12223314D01*
X16806824Y-12223314D01*
X16967238Y-12271975D01*
X16967240Y-12271976D01*
X16967243Y-12271977D01*
X17115078Y-12350995D01*
X17244659Y-12457341D01*
X17351005Y-12586922D01*
X17430023Y-12734756D01*
X17430023Y-12734757D01*
X17430025Y-12734761D01*
X17471855Y-12872656D01*
X17478687Y-12895179D01*
X17491000Y-13020196D01*
X17491000Y-13903803D01*
X17478687Y-14028820D01*
X17478686Y-14028822D01*
X17478686Y-14028825D01*
X17430025Y-14189239D01*
X17430023Y-14189244D01*
X17351005Y-14337078D01*
X17244659Y-14466659D01*
X17115078Y-14573005D01*
X16967244Y-14652023D01*
X16967241Y-14652024D01*
X16967239Y-14652025D01*
X16806825Y-14700686D01*
X16806824Y-14700686D01*
X16806821Y-14700687D01*
X16640000Y-14717117D01*
X16473180Y-14700687D01*
X16473177Y-14700686D01*
X16473176Y-14700686D01*
X16312762Y-14652025D01*
X16312760Y-14652024D01*
X16312757Y-14652023D01*
X16164923Y-14573005D01*
X16035342Y-14466659D01*
X15928996Y-14337078D01*
X15849978Y-14189244D01*
X15843845Y-14169025D01*
X15801315Y-14028825D01*
X15801315Y-14028824D01*
X15801314Y-14028821D01*
X15789000Y-13903803D01*
X15789000Y-13020197D01*
X15801313Y-12895180D01*
X15801314Y-12895176D01*
X15849975Y-12734762D01*
X15849976Y-12734760D01*
X15849977Y-12734757D01*
X15928995Y-12586922D01*
X16035341Y-12457341D01*
X16164922Y-12350995D01*
X16312756Y-12271977D01*
X16312759Y-12271976D01*
X16312761Y-12271975D01*
X16473175Y-12223314D01*
X16473176Y-12223314D01*
X16473179Y-12223313D01*
X16640000Y-12206883D01*
X16806820Y-12223313D01*
X16806820Y-12223313D01*
G37*
G36*
X16318000Y-9333000D02*
X14416000Y-9333000D01*
X14416000Y-7431000D01*
X16318000Y-7431000D01*
X16318000Y-9333000D01*
X16318000Y-9333000D01*
G37*
G36*
X-4002000Y-9333000D02*
X-5904000Y-9333000D01*
X-5904000Y-7431000D01*
X-4002000Y-7431000D01*
X-4002000Y-9333000D01*
X-4002000Y-9333000D01*
G37*
G36*
X-2135604Y-7467546D02*
X-1962534Y-7539234D01*
X-1806770Y-7643312D01*
X-1674312Y-7775770D01*
X-1570234Y-7931534D01*
X-1498546Y-8104604D01*
X-1462000Y-8288333D01*
X-1462000Y-8475667D01*
X-1498546Y-8659396D01*
X-1570234Y-8832466D01*
X-1674312Y-8988230D01*
X-1806770Y-9120688D01*
X-1962534Y-9224766D01*
X-2135604Y-9296454D01*
X-2319333Y-9333000D01*
X-2506667Y-9333000D01*
X-2690396Y-9296454D01*
X-2863466Y-9224766D01*
X-3019230Y-9120688D01*
X-3151688Y-8988230D01*
X-3255766Y-8832466D01*
X-3327454Y-8659396D01*
X-3364000Y-8475667D01*
X-3364000Y-8288333D01*
X-3327454Y-8104604D01*
X-3255766Y-7931534D01*
X-3151688Y-7775770D01*
X-3019230Y-7643312D01*
X-2863466Y-7539234D01*
X-2690396Y-7467546D01*
X-2506667Y-7431000D01*
X-2319333Y-7431000D01*
X-2135604Y-7467546D01*
X-2135604Y-7467546D01*
G37*
G36*
X18184396Y-7467546D02*
X18357466Y-7539234D01*
X18513230Y-7643312D01*
X18645688Y-7775770D01*
X18749766Y-7931534D01*
X18821454Y-8104604D01*
X18858000Y-8288333D01*
X18858000Y-8475667D01*
X18821454Y-8659396D01*
X18749766Y-8832466D01*
X18645688Y-8988230D01*
X18513230Y-9120688D01*
X18357466Y-9224766D01*
X18184396Y-9296454D01*
X18000667Y-9333000D01*
X17813333Y-9333000D01*
X17629604Y-9296454D01*
X17456534Y-9224766D01*
X17300770Y-9120688D01*
X17168312Y-8988230D01*
X17064234Y-8832466D01*
X16992546Y-8659396D01*
X16956000Y-8475667D01*
X16956000Y-8288333D01*
X16992546Y-8104604D01*
X17064234Y-7931534D01*
X17168312Y-7775770D01*
X17300770Y-7643312D01*
X17456534Y-7539234D01*
X17629604Y-7467546D01*
X17813333Y-7431000D01*
X18000667Y-7431000D01*
X18184396Y-7467546D01*
X18184396Y-7467546D01*
G37*
G36*
X13706820Y1338687D02*
X13706823Y1338686D01*
X13706824Y1338686D01*
X13867238Y1290025D01*
X13867240Y1290024D01*
X13867243Y1290023D01*
X14015078Y1211005D01*
X14144659Y1104659D01*
X14251005Y975078D01*
X14330023Y827244D01*
X14330023Y827243D01*
X14330025Y827239D01*
X14366492Y707023D01*
X14378687Y666821D01*
X14391000Y541804D01*
X14391000Y-541803D01*
X14378687Y-666821D01*
X14378686Y-666824D01*
X14378686Y-666825D01*
X14360360Y-727239D01*
X14330023Y-827244D01*
X14251005Y-975078D01*
X14144659Y-1104659D01*
X14015078Y-1211005D01*
X13867244Y-1290023D01*
X13867241Y-1290024D01*
X13867239Y-1290025D01*
X13706825Y-1338686D01*
X13706824Y-1338686D01*
X13706821Y-1338687D01*
X13540000Y-1355117D01*
X13373180Y-1338687D01*
X13373177Y-1338686D01*
X13373176Y-1338686D01*
X13212762Y-1290025D01*
X13212760Y-1290024D01*
X13212757Y-1290023D01*
X13064923Y-1211005D01*
X12935342Y-1104659D01*
X12828996Y-975078D01*
X12749978Y-827244D01*
X12719642Y-727239D01*
X12701315Y-666825D01*
X12701315Y-666824D01*
X12701314Y-666821D01*
X12689001Y-541804D01*
X12689000Y541803D01*
X12701313Y666820D01*
X12701314Y666824D01*
X12749975Y827238D01*
X12749976Y827240D01*
X12749977Y827243D01*
X12828995Y975078D01*
X12935341Y1104659D01*
X13064922Y1211005D01*
X13212756Y1290023D01*
X13212759Y1290024D01*
X13212761Y1290025D01*
X13373175Y1338686D01*
X13373176Y1338686D01*
X13373179Y1338687D01*
X13540000Y1355117D01*
X13706820Y1338687D01*
X13706820Y1338687D01*
G37*
G36*
X-6613180Y1338687D02*
X-6613177Y1338686D01*
X-6613176Y1338686D01*
X-6452762Y1290025D01*
X-6452760Y1290024D01*
X-6452757Y1290023D01*
X-6304922Y1211005D01*
X-6175341Y1104659D01*
X-6068995Y975078D01*
X-5989977Y827244D01*
X-5989977Y827243D01*
X-5989975Y827239D01*
X-5953508Y707023D01*
X-5941313Y666821D01*
X-5929000Y541804D01*
X-5929000Y-541803D01*
X-5941313Y-666821D01*
X-5941314Y-666824D01*
X-5941314Y-666825D01*
X-5959640Y-727239D01*
X-5989977Y-827244D01*
X-6068995Y-975078D01*
X-6175341Y-1104659D01*
X-6304922Y-1211005D01*
X-6452756Y-1290023D01*
X-6452759Y-1290024D01*
X-6452761Y-1290025D01*
X-6613175Y-1338686D01*
X-6613176Y-1338686D01*
X-6613179Y-1338687D01*
X-6780000Y-1355117D01*
X-6946820Y-1338687D01*
X-6946823Y-1338686D01*
X-6946824Y-1338686D01*
X-7107238Y-1290025D01*
X-7107240Y-1290024D01*
X-7107243Y-1290023D01*
X-7255077Y-1211005D01*
X-7384658Y-1104659D01*
X-7491004Y-975078D01*
X-7570022Y-827244D01*
X-7600358Y-727239D01*
X-7618685Y-666825D01*
X-7618685Y-666824D01*
X-7618686Y-666821D01*
X-7630999Y-541804D01*
X-7631000Y541803D01*
X-7618687Y666820D01*
X-7618686Y666824D01*
X-7570025Y827238D01*
X-7570024Y827240D01*
X-7570023Y827243D01*
X-7491005Y975078D01*
X-7384659Y1104659D01*
X-7255078Y1211005D01*
X-7107244Y1290023D01*
X-7107241Y1290024D01*
X-7107239Y1290025D01*
X-6946825Y1338686D01*
X-6946824Y1338686D01*
X-6946821Y1338687D01*
X-6780000Y1355117D01*
X-6613180Y1338687D01*
X-6613180Y1338687D01*
G37*
G36*
X5397024Y1339410D02*
X5548011Y1293608D01*
X5687161Y1219232D01*
X5722750Y1190025D01*
X5809133Y1119133D01*
X5809134Y1119131D01*
X5809136Y1119130D01*
X5909230Y997165D01*
X5983608Y858012D01*
X6029410Y707025D01*
X6041000Y589346D01*
X6041000Y-589346D01*
X6029410Y-707025D01*
X5983608Y-858012D01*
X5909230Y-997165D01*
X5809133Y-1119133D01*
X5687165Y-1219230D01*
X5548012Y-1293608D01*
X5397025Y-1339410D01*
X5240000Y-1354875D01*
X5082976Y-1339410D01*
X4931989Y-1293608D01*
X4792836Y-1219230D01*
X4670868Y-1119133D01*
X4570771Y-997165D01*
X4496393Y-858012D01*
X4450591Y-707025D01*
X4439001Y-589346D01*
X4439000Y589345D01*
X4450590Y707024D01*
X4496392Y858011D01*
X4570768Y997161D01*
X4670865Y1119130D01*
X4670867Y1119133D01*
X4670869Y1119134D01*
X4670870Y1119136D01*
X4792835Y1219230D01*
X4931988Y1293608D01*
X5082975Y1339410D01*
X5240000Y1354875D01*
X5397024Y1339410D01*
X5397024Y1339410D01*
G37*
G36*
X-14922976Y1339410D02*
X-14771989Y1293608D01*
X-14632839Y1219232D01*
X-14597250Y1190025D01*
X-14510867Y1119133D01*
X-14510866Y1119131D01*
X-14510864Y1119130D01*
X-14410770Y997165D01*
X-14336392Y858012D01*
X-14290590Y707025D01*
X-14279000Y589346D01*
X-14279000Y-589346D01*
X-14290590Y-707025D01*
X-14336392Y-858012D01*
X-14410770Y-997165D01*
X-14510867Y-1119133D01*
X-14632835Y-1219230D01*
X-14771988Y-1293608D01*
X-14922975Y-1339410D01*
X-15080000Y-1354875D01*
X-15237024Y-1339410D01*
X-15388011Y-1293608D01*
X-15527164Y-1219230D01*
X-15649132Y-1119133D01*
X-15749229Y-997165D01*
X-15823607Y-858012D01*
X-15869409Y-707025D01*
X-15880999Y-589346D01*
X-15881000Y589345D01*
X-15869410Y707024D01*
X-15823608Y858011D01*
X-15749232Y997161D01*
X-15649135Y1119130D01*
X-15649133Y1119133D01*
X-15649131Y1119134D01*
X-15649130Y1119136D01*
X-15527165Y1219230D01*
X-15388012Y1293608D01*
X-15237025Y1339410D01*
X-15080000Y1354875D01*
X-14922976Y1339410D01*
X-14922976Y1339410D01*
G37*
G36*
X-3513180Y1238687D02*
X-3513177Y1238686D01*
X-3513176Y1238686D01*
X-3352762Y1190025D01*
X-3352760Y1190024D01*
X-3352757Y1190023D01*
X-3204922Y1111005D01*
X-3075341Y1004659D01*
X-2968995Y875078D01*
X-2889977Y727244D01*
X-2889977Y727243D01*
X-2889975Y727239D01*
X-2848145Y589344D01*
X-2841313Y566821D01*
X-2829000Y441804D01*
X-2829000Y-441803D01*
X-2841313Y-566820D01*
X-2841314Y-566822D01*
X-2841314Y-566825D01*
X-2889975Y-727239D01*
X-2889977Y-727244D01*
X-2968995Y-875078D01*
X-3075341Y-1004659D01*
X-3204922Y-1111005D01*
X-3352756Y-1190023D01*
X-3352759Y-1190024D01*
X-3352761Y-1190025D01*
X-3513175Y-1238686D01*
X-3513176Y-1238686D01*
X-3513179Y-1238687D01*
X-3680000Y-1255117D01*
X-3846820Y-1238687D01*
X-3846823Y-1238686D01*
X-3846824Y-1238686D01*
X-4007238Y-1190025D01*
X-4007240Y-1190024D01*
X-4007243Y-1190023D01*
X-4155077Y-1111005D01*
X-4284658Y-1004659D01*
X-4391004Y-875078D01*
X-4470022Y-727244D01*
X-4476155Y-707025D01*
X-4518685Y-566825D01*
X-4518685Y-566824D01*
X-4518686Y-566821D01*
X-4531000Y-441803D01*
X-4531000Y441803D01*
X-4518687Y566820D01*
X-4518686Y566824D01*
X-4470025Y727238D01*
X-4470024Y727240D01*
X-4470023Y727243D01*
X-4391005Y875078D01*
X-4284659Y1004659D01*
X-4155078Y1111005D01*
X-4007244Y1190023D01*
X-4007241Y1190024D01*
X-4007239Y1190025D01*
X-3846825Y1238686D01*
X-3846824Y1238686D01*
X-3846821Y1238687D01*
X-3680000Y1255117D01*
X-3513180Y1238687D01*
X-3513180Y1238687D01*
G37*
G36*
X16806820Y1238687D02*
X16806823Y1238686D01*
X16806824Y1238686D01*
X16967238Y1190025D01*
X16967240Y1190024D01*
X16967243Y1190023D01*
X17115078Y1111005D01*
X17244659Y1004659D01*
X17351005Y875078D01*
X17430023Y727244D01*
X17430023Y727243D01*
X17430025Y727239D01*
X17471855Y589344D01*
X17478687Y566821D01*
X17491000Y441804D01*
X17491000Y-441803D01*
X17478687Y-566820D01*
X17478686Y-566822D01*
X17478686Y-566825D01*
X17430025Y-727239D01*
X17430023Y-727244D01*
X17351005Y-875078D01*
X17244659Y-1004659D01*
X17115078Y-1111005D01*
X16967244Y-1190023D01*
X16967241Y-1190024D01*
X16967239Y-1190025D01*
X16806825Y-1238686D01*
X16806824Y-1238686D01*
X16806821Y-1238687D01*
X16640000Y-1255117D01*
X16473180Y-1238687D01*
X16473177Y-1238686D01*
X16473176Y-1238686D01*
X16312762Y-1190025D01*
X16312760Y-1190024D01*
X16312757Y-1190023D01*
X16164923Y-1111005D01*
X16035342Y-1004659D01*
X15928996Y-875078D01*
X15849978Y-727244D01*
X15843845Y-707025D01*
X15801315Y-566825D01*
X15801315Y-566824D01*
X15801314Y-566821D01*
X15789000Y-441803D01*
X15789000Y441803D01*
X15801313Y566820D01*
X15801314Y566824D01*
X15849975Y727238D01*
X15849976Y727240D01*
X15849977Y727243D01*
X15928995Y875078D01*
X16035341Y1004659D01*
X16164922Y1111005D01*
X16312756Y1190023D01*
X16312759Y1190024D01*
X16312761Y1190025D01*
X16473175Y1238686D01*
X16473176Y1238686D01*
X16473179Y1238687D01*
X16640000Y1255117D01*
X16806820Y1238687D01*
X16806820Y1238687D01*
G37*
G36*
X-2135604Y6121454D02*
X-1962534Y6049766D01*
X-1806770Y5945688D01*
X-1674312Y5813230D01*
X-1570234Y5657466D01*
X-1498546Y5484396D01*
X-1462000Y5300667D01*
X-1462000Y5113333D01*
X-1498546Y4929604D01*
X-1570234Y4756534D01*
X-1674312Y4600770D01*
X-1806770Y4468312D01*
X-1962534Y4364234D01*
X-2135604Y4292546D01*
X-2319333Y4256000D01*
X-2506667Y4256000D01*
X-2690396Y4292546D01*
X-2863466Y4364234D01*
X-3019230Y4468312D01*
X-3151688Y4600770D01*
X-3255766Y4756534D01*
X-3327454Y4929604D01*
X-3364000Y5113333D01*
X-3364000Y5300667D01*
X-3327454Y5484396D01*
X-3255766Y5657466D01*
X-3151688Y5813230D01*
X-3019230Y5945688D01*
X-2863466Y6049766D01*
X-2690396Y6121454D01*
X-2506667Y6158000D01*
X-2319333Y6158000D01*
X-2135604Y6121454D01*
X-2135604Y6121454D01*
G37*
G36*
X18184396Y6121454D02*
X18357466Y6049766D01*
X18513230Y5945688D01*
X18645688Y5813230D01*
X18749766Y5657466D01*
X18821454Y5484396D01*
X18858000Y5300667D01*
X18858000Y5113333D01*
X18821454Y4929604D01*
X18749766Y4756534D01*
X18645688Y4600770D01*
X18513230Y4468312D01*
X18357466Y4364234D01*
X18184396Y4292546D01*
X18000667Y4256000D01*
X17813333Y4256000D01*
X17629604Y4292546D01*
X17456534Y4364234D01*
X17300770Y4468312D01*
X17168312Y4600770D01*
X17064234Y4756534D01*
X16992546Y4929604D01*
X16956000Y5113333D01*
X16956000Y5300667D01*
X16992546Y5484396D01*
X17064234Y5657466D01*
X17168312Y5813230D01*
X17300770Y5945688D01*
X17456534Y6049766D01*
X17629604Y6121454D01*
X17813333Y6158000D01*
X18000667Y6158000D01*
X18184396Y6121454D01*
X18184396Y6121454D01*
G37*
G36*
X16318000Y4256000D02*
X14416000Y4256000D01*
X14416000Y6158000D01*
X16318000Y6158000D01*
X16318000Y4256000D01*
X16318000Y4256000D01*
G37*
G36*
X-4002000Y4256000D02*
X-5904000Y4256000D01*
X-5904000Y6158000D01*
X-4002000Y6158000D01*
X-4002000Y4256000D01*
X-4002000Y4256000D01*
G37*
G36*
X-15228000Y5449000D02*
X-17030000Y5449000D01*
X-17030000Y7251000D01*
X-15228000Y7251000D01*
X-15228000Y5449000D01*
X-15228000Y5449000D01*
G37*
G36*
X-13478557Y7244481D02*
X-13412373Y7237963D01*
X-13299147Y7203616D01*
X-13242533Y7186443D01*
X-13103913Y7112348D01*
X-13086009Y7102778D01*
X-13050271Y7073448D01*
X-12948814Y6990186D01*
X-12865552Y6888729D01*
X-12836222Y6852991D01*
X-12836221Y6852989D01*
X-12752557Y6696467D01*
X-12752557Y6696466D01*
X-12701037Y6526627D01*
X-12683641Y6350000D01*
X-12701037Y6173373D01*
X-12716787Y6121453D01*
X-12752557Y6003533D01*
X-12826652Y5864913D01*
X-12836222Y5847009D01*
X-12863944Y5813230D01*
X-12948814Y5709814D01*
X-13050271Y5626552D01*
X-13086009Y5597222D01*
X-13086011Y5597221D01*
X-13242533Y5513557D01*
X-13299147Y5496384D01*
X-13412373Y5462037D01*
X-13478558Y5455518D01*
X-13544740Y5449000D01*
X-13633260Y5449000D01*
X-13699442Y5455518D01*
X-13765627Y5462037D01*
X-13878853Y5496384D01*
X-13935467Y5513557D01*
X-14091989Y5597221D01*
X-14091991Y5597222D01*
X-14127729Y5626552D01*
X-14229186Y5709814D01*
X-14314056Y5813230D01*
X-14341778Y5847009D01*
X-14351348Y5864913D01*
X-14425443Y6003533D01*
X-14461213Y6121453D01*
X-14476963Y6173373D01*
X-14494359Y6350000D01*
X-14476963Y6526627D01*
X-14425443Y6696466D01*
X-14425443Y6696467D01*
X-14341779Y6852989D01*
X-14341778Y6852991D01*
X-14312448Y6888729D01*
X-14229186Y6990186D01*
X-14127729Y7073448D01*
X-14091991Y7102778D01*
X-14074087Y7112348D01*
X-13935467Y7186443D01*
X-13878853Y7203616D01*
X-13765627Y7237963D01*
X-13699443Y7244481D01*
X-13633260Y7251000D01*
X-13544740Y7251000D01*
X-13478557Y7244481D01*
X-13478557Y7244481D01*
G37*
G36*
X-13478558Y9784482D02*
X-13412373Y9777963D01*
X-13299147Y9743616D01*
X-13242533Y9726443D01*
X-13103913Y9652348D01*
X-13086009Y9642778D01*
X-13050271Y9613448D01*
X-12948814Y9530186D01*
X-12865552Y9428729D01*
X-12836222Y9392991D01*
X-12836221Y9392989D01*
X-12752557Y9236467D01*
X-12752557Y9236466D01*
X-12701037Y9066627D01*
X-12683641Y8890000D01*
X-12701037Y8713373D01*
X-12735384Y8600147D01*
X-12752557Y8543533D01*
X-12826652Y8404913D01*
X-12836222Y8387009D01*
X-12865552Y8351271D01*
X-12948814Y8249814D01*
X-13050271Y8166552D01*
X-13086009Y8137222D01*
X-13086011Y8137221D01*
X-13242533Y8053557D01*
X-13299147Y8036384D01*
X-13412373Y8002037D01*
X-13478557Y7995519D01*
X-13544740Y7989000D01*
X-13633260Y7989000D01*
X-13699443Y7995519D01*
X-13765627Y8002037D01*
X-13878853Y8036384D01*
X-13935467Y8053557D01*
X-14091989Y8137221D01*
X-14091991Y8137222D01*
X-14127729Y8166552D01*
X-14229186Y8249814D01*
X-14312448Y8351271D01*
X-14341778Y8387009D01*
X-14351348Y8404913D01*
X-14425443Y8543533D01*
X-14442616Y8600147D01*
X-14476963Y8713373D01*
X-14494359Y8890000D01*
X-14476963Y9066627D01*
X-14425443Y9236466D01*
X-14425443Y9236467D01*
X-14341779Y9392989D01*
X-14341778Y9392991D01*
X-14312448Y9428729D01*
X-14229186Y9530186D01*
X-14127729Y9613448D01*
X-14091991Y9642778D01*
X-14074087Y9652348D01*
X-13935467Y9726443D01*
X-13878853Y9743616D01*
X-13765627Y9777963D01*
X-13699442Y9784482D01*
X-13633260Y9791000D01*
X-13544740Y9791000D01*
X-13478558Y9784482D01*
X-13478558Y9784482D01*
G37*
G36*
X-16018558Y9784482D02*
X-15952373Y9777963D01*
X-15839147Y9743616D01*
X-15782533Y9726443D01*
X-15643913Y9652348D01*
X-15626009Y9642778D01*
X-15590271Y9613448D01*
X-15488814Y9530186D01*
X-15405552Y9428729D01*
X-15376222Y9392991D01*
X-15376221Y9392989D01*
X-15292557Y9236467D01*
X-15292557Y9236466D01*
X-15241037Y9066627D01*
X-15223641Y8890000D01*
X-15241037Y8713373D01*
X-15275384Y8600147D01*
X-15292557Y8543533D01*
X-15366652Y8404913D01*
X-15376222Y8387009D01*
X-15405552Y8351271D01*
X-15488814Y8249814D01*
X-15590271Y8166552D01*
X-15626009Y8137222D01*
X-15626011Y8137221D01*
X-15782533Y8053557D01*
X-15839147Y8036384D01*
X-15952373Y8002037D01*
X-16018557Y7995519D01*
X-16084740Y7989000D01*
X-16173260Y7989000D01*
X-16239443Y7995519D01*
X-16305627Y8002037D01*
X-16418853Y8036384D01*
X-16475467Y8053557D01*
X-16631989Y8137221D01*
X-16631991Y8137222D01*
X-16667729Y8166552D01*
X-16769186Y8249814D01*
X-16852448Y8351271D01*
X-16881778Y8387009D01*
X-16891348Y8404913D01*
X-16965443Y8543533D01*
X-16982616Y8600147D01*
X-17016963Y8713373D01*
X-17034359Y8890000D01*
X-17016963Y9066627D01*
X-16965443Y9236466D01*
X-16965443Y9236467D01*
X-16881779Y9392989D01*
X-16881778Y9392991D01*
X-16852448Y9428729D01*
X-16769186Y9530186D01*
X-16667729Y9613448D01*
X-16631991Y9642778D01*
X-16614087Y9652348D01*
X-16475467Y9726443D01*
X-16418853Y9743616D01*
X-16305627Y9777963D01*
X-16239442Y9784482D01*
X-16173260Y9791000D01*
X-16084740Y9791000D01*
X-16018558Y9784482D01*
X-16018558Y9784482D01*
G37*
G36*
X-16018558Y12324482D02*
X-15952373Y12317963D01*
X-15839147Y12283616D01*
X-15782533Y12266443D01*
X-15643913Y12192348D01*
X-15626009Y12182778D01*
X-15590271Y12153448D01*
X-15488814Y12070186D01*
X-15405552Y11968729D01*
X-15376222Y11932991D01*
X-15376221Y11932989D01*
X-15292557Y11776467D01*
X-15292557Y11776466D01*
X-15241037Y11606627D01*
X-15223641Y11430000D01*
X-15241037Y11253373D01*
X-15275384Y11140147D01*
X-15292557Y11083533D01*
X-15366652Y10944913D01*
X-15376222Y10927009D01*
X-15405552Y10891271D01*
X-15488814Y10789814D01*
X-15590271Y10706552D01*
X-15626009Y10677222D01*
X-15626011Y10677221D01*
X-15782533Y10593557D01*
X-15839147Y10576384D01*
X-15952373Y10542037D01*
X-16018557Y10535519D01*
X-16084740Y10529000D01*
X-16173260Y10529000D01*
X-16239442Y10535518D01*
X-16305627Y10542037D01*
X-16418853Y10576384D01*
X-16475467Y10593557D01*
X-16631989Y10677221D01*
X-16631991Y10677222D01*
X-16667729Y10706552D01*
X-16769186Y10789814D01*
X-16852448Y10891271D01*
X-16881778Y10927009D01*
X-16891348Y10944913D01*
X-16965443Y11083533D01*
X-16982616Y11140147D01*
X-17016963Y11253373D01*
X-17034359Y11430000D01*
X-17016963Y11606627D01*
X-16965443Y11776466D01*
X-16965443Y11776467D01*
X-16881779Y11932989D01*
X-16881778Y11932991D01*
X-16852448Y11968729D01*
X-16769186Y12070186D01*
X-16667729Y12153448D01*
X-16631991Y12182778D01*
X-16614087Y12192348D01*
X-16475467Y12266443D01*
X-16418853Y12283616D01*
X-16305627Y12317963D01*
X-16239442Y12324482D01*
X-16173260Y12331000D01*
X-16084740Y12331000D01*
X-16018558Y12324482D01*
X-16018558Y12324482D01*
G37*
G36*
X-13478558Y12324482D02*
X-13412373Y12317963D01*
X-13299147Y12283616D01*
X-13242533Y12266443D01*
X-13103913Y12192348D01*
X-13086009Y12182778D01*
X-13050271Y12153448D01*
X-12948814Y12070186D01*
X-12865552Y11968729D01*
X-12836222Y11932991D01*
X-12836221Y11932989D01*
X-12752557Y11776467D01*
X-12752557Y11776466D01*
X-12701037Y11606627D01*
X-12683641Y11430000D01*
X-12701037Y11253373D01*
X-12735384Y11140147D01*
X-12752557Y11083533D01*
X-12826652Y10944913D01*
X-12836222Y10927009D01*
X-12865552Y10891271D01*
X-12948814Y10789814D01*
X-13050271Y10706552D01*
X-13086009Y10677222D01*
X-13086011Y10677221D01*
X-13242533Y10593557D01*
X-13299147Y10576384D01*
X-13412373Y10542037D01*
X-13478557Y10535519D01*
X-13544740Y10529000D01*
X-13633260Y10529000D01*
X-13699442Y10535518D01*
X-13765627Y10542037D01*
X-13878853Y10576384D01*
X-13935467Y10593557D01*
X-14091989Y10677221D01*
X-14091991Y10677222D01*
X-14127729Y10706552D01*
X-14229186Y10789814D01*
X-14312448Y10891271D01*
X-14341778Y10927009D01*
X-14351348Y10944913D01*
X-14425443Y11083533D01*
X-14442616Y11140147D01*
X-14476963Y11253373D01*
X-14494359Y11430000D01*
X-14476963Y11606627D01*
X-14425443Y11776466D01*
X-14425443Y11776467D01*
X-14341779Y11932989D01*
X-14341778Y11932991D01*
X-14312448Y11968729D01*
X-14229186Y12070186D01*
X-14127729Y12153448D01*
X-14091991Y12182778D01*
X-14074087Y12192348D01*
X-13935467Y12266443D01*
X-13878853Y12283616D01*
X-13765627Y12317963D01*
X-13699442Y12324482D01*
X-13633260Y12331000D01*
X-13544740Y12331000D01*
X-13478558Y12324482D01*
X-13478558Y12324482D01*
G37*
G36*
X10726821Y14678687D02*
X10726824Y14678686D01*
X10726825Y14678686D01*
X10887239Y14630025D01*
X10887241Y14630024D01*
X10887244Y14630023D01*
X11035078Y14551005D01*
X11164659Y14444659D01*
X11271005Y14315078D01*
X11350023Y14167244D01*
X11398687Y14006821D01*
X11415117Y13840000D01*
X11398687Y13673179D01*
X11350023Y13512756D01*
X11271005Y13364922D01*
X11164659Y13235341D01*
X11035078Y13128995D01*
X10887244Y13049977D01*
X10887241Y13049976D01*
X10887239Y13049975D01*
X10726825Y13001314D01*
X10726824Y13001314D01*
X10726821Y13001313D01*
X10601804Y12989000D01*
X9718196Y12989000D01*
X9593179Y13001313D01*
X9593176Y13001314D01*
X9593175Y13001314D01*
X9432761Y13049975D01*
X9432759Y13049976D01*
X9432756Y13049977D01*
X9284922Y13128995D01*
X9155341Y13235341D01*
X9048995Y13364922D01*
X8969977Y13512756D01*
X8921313Y13673179D01*
X8904883Y13840000D01*
X8921313Y14006821D01*
X8969977Y14167244D01*
X9048995Y14315078D01*
X9155341Y14444659D01*
X9284922Y14551005D01*
X9432756Y14630023D01*
X9432759Y14630024D01*
X9432761Y14630025D01*
X9593175Y14678686D01*
X9593176Y14678686D01*
X9593179Y14678687D01*
X9718196Y14691000D01*
X10601804Y14691000D01*
X10726821Y14678687D01*
X10726821Y14678687D01*
G37*
G36*
X-9593179Y14678687D02*
X-9593176Y14678686D01*
X-9593175Y14678686D01*
X-9432761Y14630025D01*
X-9432759Y14630024D01*
X-9432756Y14630023D01*
X-9284922Y14551005D01*
X-9155341Y14444659D01*
X-9048995Y14315078D01*
X-8969977Y14167244D01*
X-8921313Y14006821D01*
X-8904883Y13840000D01*
X-8921313Y13673179D01*
X-8969977Y13512756D01*
X-9048995Y13364922D01*
X-9155341Y13235341D01*
X-9284922Y13128995D01*
X-9432756Y13049977D01*
X-9432759Y13049976D01*
X-9432761Y13049975D01*
X-9593175Y13001314D01*
X-9593176Y13001314D01*
X-9593179Y13001313D01*
X-9718196Y12989000D01*
X-10601804Y12989000D01*
X-10726821Y13001313D01*
X-10726824Y13001314D01*
X-10726825Y13001314D01*
X-10887239Y13049975D01*
X-10887241Y13049976D01*
X-10887244Y13049977D01*
X-11035078Y13128995D01*
X-11164659Y13235341D01*
X-11271005Y13364922D01*
X-11350023Y13512756D01*
X-11398687Y13673179D01*
X-11415117Y13840000D01*
X-11398687Y14006821D01*
X-11350023Y14167244D01*
X-11271005Y14315078D01*
X-11164659Y14444659D01*
X-11035078Y14551005D01*
X-10887244Y14630023D01*
X-10887241Y14630024D01*
X-10887239Y14630025D01*
X-10726825Y14678686D01*
X-10726824Y14678686D01*
X-10726821Y14678687D01*
X-10601804Y14691000D01*
X-9718196Y14691000D01*
X-9593179Y14678687D01*
X-9593179Y14678687D01*
G37*
G36*
X10826821Y17778687D02*
X10826824Y17778686D01*
X10826825Y17778686D01*
X10987239Y17730025D01*
X10987241Y17730024D01*
X10987244Y17730023D01*
X11135078Y17651005D01*
X11264659Y17544659D01*
X11371005Y17415078D01*
X11450023Y17267244D01*
X11498687Y17106821D01*
X11515117Y16940000D01*
X11498687Y16773179D01*
X11450023Y16612756D01*
X11371005Y16464922D01*
X11264659Y16335341D01*
X11135078Y16228995D01*
X10987244Y16149977D01*
X10987241Y16149976D01*
X10987239Y16149975D01*
X10826825Y16101314D01*
X10826824Y16101314D01*
X10826821Y16101313D01*
X10701804Y16089000D01*
X9618196Y16089000D01*
X9493179Y16101313D01*
X9493176Y16101314D01*
X9493175Y16101314D01*
X9332761Y16149975D01*
X9332759Y16149976D01*
X9332756Y16149977D01*
X9184922Y16228995D01*
X9055341Y16335341D01*
X8948995Y16464922D01*
X8869977Y16612756D01*
X8821313Y16773179D01*
X8804883Y16940000D01*
X8821313Y17106821D01*
X8869977Y17267244D01*
X8948995Y17415078D01*
X9055341Y17544659D01*
X9184922Y17651005D01*
X9332756Y17730023D01*
X9332759Y17730024D01*
X9332761Y17730025D01*
X9493175Y17778686D01*
X9493176Y17778686D01*
X9493179Y17778687D01*
X9618196Y17791000D01*
X10701804Y17791000D01*
X10826821Y17778687D01*
X10826821Y17778687D01*
G37*
G36*
X-9493179Y17778687D02*
X-9493176Y17778686D01*
X-9493175Y17778686D01*
X-9332761Y17730025D01*
X-9332759Y17730024D01*
X-9332756Y17730023D01*
X-9184922Y17651005D01*
X-9055341Y17544659D01*
X-8948995Y17415078D01*
X-8869977Y17267244D01*
X-8821313Y17106821D01*
X-8804883Y16940000D01*
X-8821313Y16773179D01*
X-8869977Y16612756D01*
X-8948995Y16464922D01*
X-9055341Y16335341D01*
X-9184922Y16228995D01*
X-9332756Y16149977D01*
X-9332759Y16149976D01*
X-9332761Y16149975D01*
X-9493175Y16101314D01*
X-9493176Y16101314D01*
X-9493179Y16101313D01*
X-9618196Y16089000D01*
X-10701804Y16089000D01*
X-10826821Y16101313D01*
X-10826824Y16101314D01*
X-10826825Y16101314D01*
X-10987239Y16149975D01*
X-10987241Y16149976D01*
X-10987244Y16149977D01*
X-11135078Y16228995D01*
X-11264659Y16335341D01*
X-11371005Y16464922D01*
X-11450023Y16612756D01*
X-11498687Y16773179D01*
X-11515117Y16940000D01*
X-11498687Y17106821D01*
X-11450023Y17267244D01*
X-11371005Y17415078D01*
X-11264659Y17544659D01*
X-11135078Y17651005D01*
X-10987244Y17730023D01*
X-10987241Y17730024D01*
X-10987239Y17730025D01*
X-10826825Y17778686D01*
X-10826824Y17778686D01*
X-10826821Y17778687D01*
X-10701804Y17791000D01*
X-9618196Y17791000D01*
X-9493179Y17778687D01*
X-9493179Y17778687D01*
G37*
G36*
X10867025Y26029410D02*
X11018012Y25983608D01*
X11157165Y25909230D01*
X11279133Y25809133D01*
X11379230Y25687165D01*
X11453608Y25548012D01*
X11499410Y25397025D01*
X11514875Y25240000D01*
X11499410Y25082975D01*
X11453608Y24931988D01*
X11379230Y24792835D01*
X11279133Y24670867D01*
X11157165Y24570770D01*
X11018012Y24496392D01*
X10867025Y24450590D01*
X10749346Y24439000D01*
X9570654Y24439000D01*
X9452975Y24450590D01*
X9301988Y24496392D01*
X9162835Y24570770D01*
X9040867Y24670867D01*
X8940770Y24792835D01*
X8866392Y24931988D01*
X8820590Y25082975D01*
X8805125Y25240000D01*
X8820590Y25397025D01*
X8866392Y25548012D01*
X8940770Y25687165D01*
X9040867Y25809133D01*
X9162835Y25909230D01*
X9301988Y25983608D01*
X9452975Y26029410D01*
X9570654Y26041000D01*
X10749346Y26041000D01*
X10867025Y26029410D01*
X10867025Y26029410D01*
G37*
G36*
X-9452975Y26029410D02*
X-9301988Y25983608D01*
X-9162835Y25909230D01*
X-9040867Y25809133D01*
X-8940770Y25687165D01*
X-8866392Y25548012D01*
X-8820590Y25397025D01*
X-8805125Y25240000D01*
X-8820590Y25082975D01*
X-8866392Y24931988D01*
X-8940770Y24792835D01*
X-9040867Y24670867D01*
X-9162835Y24570770D01*
X-9301988Y24496392D01*
X-9452975Y24450590D01*
X-9570654Y24439000D01*
X-10749346Y24439000D01*
X-10867025Y24450590D01*
X-11018012Y24496392D01*
X-11157165Y24570770D01*
X-11279133Y24670867D01*
X-11379230Y24792835D01*
X-11453608Y24931988D01*
X-11499410Y25082975D01*
X-11514875Y25240000D01*
X-11499410Y25397025D01*
X-11453608Y25548012D01*
X-11379230Y25687165D01*
X-11279133Y25809133D01*
X-11157165Y25909230D01*
X-11018012Y25983608D01*
X-10867025Y26029410D01*
X-10749346Y26041000D01*
X-9570654Y26041000D01*
X-9452975Y26029410D01*
X-9452975Y26029410D01*
G37*
G36*
X3557565Y29230011D02*
X3748834Y29150785D01*
X3920976Y29035763D01*
X4067363Y28889376D01*
X4182385Y28717234D01*
X4261611Y28525965D01*
X4302000Y28322916D01*
X4302000Y28115884D01*
X4261611Y27912835D01*
X4182385Y27721566D01*
X4067363Y27549424D01*
X3920976Y27403037D01*
X3748834Y27288015D01*
X3557565Y27208789D01*
X3354516Y27168400D01*
X3147484Y27168400D01*
X2944435Y27208789D01*
X2753166Y27288015D01*
X2581024Y27403037D01*
X2434637Y27549424D01*
X2319615Y27721566D01*
X2240389Y27912835D01*
X2200000Y28115884D01*
X2200000Y28322916D01*
X2240389Y28525965D01*
X2319615Y28717234D01*
X2434637Y28889376D01*
X2581024Y29035763D01*
X2753166Y29150785D01*
X2944435Y29230011D01*
X3147484Y29270400D01*
X3354516Y29270400D01*
X3557565Y29230011D01*
X3557565Y29230011D01*
G37*
G36*
X-2942435Y29230011D02*
X-2751166Y29150785D01*
X-2579024Y29035763D01*
X-2432637Y28889376D01*
X-2317615Y28717234D01*
X-2238389Y28525965D01*
X-2198000Y28322916D01*
X-2198000Y28115884D01*
X-2238389Y27912835D01*
X-2317615Y27721566D01*
X-2432637Y27549424D01*
X-2579024Y27403037D01*
X-2751166Y27288015D01*
X-2942435Y27208789D01*
X-3145484Y27168400D01*
X-3352516Y27168400D01*
X-3555565Y27208789D01*
X-3746834Y27288015D01*
X-3918976Y27403037D01*
X-4065363Y27549424D01*
X-4180385Y27721566D01*
X-4259611Y27912835D01*
X-4300000Y28115884D01*
X-4300000Y28322916D01*
X-4259611Y28525965D01*
X-4180385Y28717234D01*
X-4065363Y28889376D01*
X-3918976Y29035763D01*
X-3746834Y29150785D01*
X-3555565Y29230011D01*
X-3352516Y29270400D01*
X-3145484Y29270400D01*
X-2942435Y29230011D01*
X-2942435Y29230011D01*
G37*
G36*
X-2942435Y33730011D02*
X-2751166Y33650785D01*
X-2579024Y33535763D01*
X-2432637Y33389376D01*
X-2317615Y33217234D01*
X-2238389Y33025965D01*
X-2198000Y32822916D01*
X-2198000Y32615884D01*
X-2238389Y32412835D01*
X-2317615Y32221566D01*
X-2432637Y32049424D01*
X-2579024Y31903037D01*
X-2751166Y31788015D01*
X-2942435Y31708789D01*
X-3145484Y31668400D01*
X-3352516Y31668400D01*
X-3555565Y31708789D01*
X-3746834Y31788015D01*
X-3918976Y31903037D01*
X-4065363Y32049424D01*
X-4180385Y32221566D01*
X-4259611Y32412835D01*
X-4300000Y32615884D01*
X-4300000Y32822916D01*
X-4259611Y33025965D01*
X-4180385Y33217234D01*
X-4065363Y33389376D01*
X-3918976Y33535763D01*
X-3746834Y33650785D01*
X-3555565Y33730011D01*
X-3352516Y33770400D01*
X-3145484Y33770400D01*
X-2942435Y33730011D01*
X-2942435Y33730011D01*
G37*
G36*
X3557565Y33730011D02*
X3748834Y33650785D01*
X3920976Y33535763D01*
X4067363Y33389376D01*
X4182385Y33217234D01*
X4261611Y33025965D01*
X4302000Y32822916D01*
X4302000Y32615884D01*
X4261611Y32412835D01*
X4182385Y32221566D01*
X4067363Y32049424D01*
X3920976Y31903037D01*
X3748834Y31788015D01*
X3557565Y31708789D01*
X3354516Y31668400D01*
X3147484Y31668400D01*
X2944435Y31708789D01*
X2753166Y31788015D01*
X2581024Y31903037D01*
X2434637Y32049424D01*
X2319615Y32221566D01*
X2240389Y32412835D01*
X2200000Y32615884D01*
X2200000Y32822916D01*
X2240389Y33025965D01*
X2319615Y33217234D01*
X2434637Y33389376D01*
X2581024Y33535763D01*
X2753166Y33650785D01*
X2944435Y33730011D01*
X3147484Y33770400D01*
X3354516Y33770400D01*
X3557565Y33730011D01*
X3557565Y33730011D01*
G37*
G36*
X-9848311Y37236294D02*
X-9704960Y37222175D01*
X-9459720Y37147782D01*
X-9459718Y37147781D01*
X-9233704Y37026974D01*
X-9035603Y36864397D01*
X-8873026Y36666296D01*
X-8873025Y36666294D01*
X-8752218Y36440280D01*
X-8677825Y36195040D01*
X-8652706Y35940000D01*
X-8677825Y35684960D01*
X-8752218Y35439720D01*
X-8752219Y35439718D01*
X-8873026Y35213704D01*
X-9035603Y35015603D01*
X-9233704Y34853026D01*
X-9233706Y34853025D01*
X-9459720Y34732218D01*
X-9704960Y34657825D01*
X-9848311Y34643706D01*
X-9896094Y34639000D01*
X-10423906Y34639000D01*
X-10471689Y34643706D01*
X-10615040Y34657825D01*
X-10860280Y34732218D01*
X-11086294Y34853025D01*
X-11086296Y34853026D01*
X-11284397Y35015603D01*
X-11446974Y35213704D01*
X-11567781Y35439718D01*
X-11567782Y35439720D01*
X-11642175Y35684960D01*
X-11667294Y35940000D01*
X-11642175Y36195040D01*
X-11567782Y36440280D01*
X-11446975Y36666294D01*
X-11446974Y36666296D01*
X-11284397Y36864397D01*
X-11086296Y37026974D01*
X-10860282Y37147781D01*
X-10860280Y37147782D01*
X-10615040Y37222175D01*
X-10471689Y37236294D01*
X-10423906Y37241000D01*
X-9896094Y37241000D01*
X-9848311Y37236294D01*
X-9848311Y37236294D01*
G37*
G36*
X10471689Y37236294D02*
X10615040Y37222175D01*
X10860280Y37147782D01*
X10860282Y37147781D01*
X11086296Y37026974D01*
X11284397Y36864397D01*
X11446974Y36666296D01*
X11446975Y36666294D01*
X11567782Y36440280D01*
X11642175Y36195040D01*
X11667294Y35940000D01*
X11642175Y35684960D01*
X11567782Y35439720D01*
X11567781Y35439718D01*
X11446974Y35213704D01*
X11284397Y35015603D01*
X11086296Y34853026D01*
X11086294Y34853025D01*
X10860280Y34732218D01*
X10615040Y34657825D01*
X10471689Y34643706D01*
X10423906Y34639000D01*
X9896094Y34639000D01*
X9848311Y34643706D01*
X9704960Y34657825D01*
X9459720Y34732218D01*
X9233706Y34853025D01*
X9233704Y34853026D01*
X9035603Y35015603D01*
X8873026Y35213704D01*
X8752219Y35439718D01*
X8752218Y35439720D01*
X8677825Y35684960D01*
X8652706Y35940000D01*
X8677825Y36195040D01*
X8752218Y36440280D01*
X8873025Y36666294D01*
X8873026Y36666296D01*
X9035603Y36864397D01*
X9233704Y37026974D01*
X9459718Y37147781D01*
X9459720Y37147782D01*
X9704960Y37222175D01*
X9848311Y37236294D01*
X9896094Y37241000D01*
X10423906Y37241000D01*
X10471689Y37236294D01*
X10471689Y37236294D01*
G37*
G36*
X1405443Y36962481D02*
X1471627Y36955963D01*
X1584853Y36921616D01*
X1641467Y36904443D01*
X1780087Y36830348D01*
X1797991Y36820778D01*
X1833729Y36791448D01*
X1935186Y36708186D01*
X2018448Y36606729D01*
X2047778Y36570991D01*
X2047779Y36570989D01*
X2131443Y36414467D01*
X2131443Y36414466D01*
X2182963Y36244627D01*
X2200359Y36068000D01*
X2182963Y35891373D01*
X2148616Y35778147D01*
X2131443Y35721533D01*
X2111894Y35684960D01*
X2047778Y35565009D01*
X2018448Y35529271D01*
X1935186Y35427814D01*
X1833729Y35344552D01*
X1797991Y35315222D01*
X1797989Y35315221D01*
X1641467Y35231557D01*
X1584853Y35214384D01*
X1471627Y35180037D01*
X1405442Y35173518D01*
X1339260Y35167000D01*
X1250740Y35167000D01*
X1184558Y35173518D01*
X1118373Y35180037D01*
X1005147Y35214384D01*
X948533Y35231557D01*
X792011Y35315221D01*
X792009Y35315222D01*
X756271Y35344552D01*
X654814Y35427814D01*
X571552Y35529271D01*
X542222Y35565009D01*
X478106Y35684960D01*
X458557Y35721533D01*
X441384Y35778147D01*
X407037Y35891373D01*
X389641Y36068000D01*
X407037Y36244627D01*
X458557Y36414466D01*
X458557Y36414467D01*
X542221Y36570989D01*
X542222Y36570991D01*
X571552Y36606729D01*
X654814Y36708186D01*
X756271Y36791448D01*
X792009Y36820778D01*
X809913Y36830348D01*
X948533Y36904443D01*
X1005147Y36921616D01*
X1118373Y36955963D01*
X1184557Y36962481D01*
X1250740Y36969000D01*
X1339260Y36969000D01*
X1405443Y36962481D01*
X1405443Y36962481D01*
G37*
G36*
X-344000Y35167000D02*
X-2146000Y35167000D01*
X-2146000Y36969000D01*
X-344000Y36969000D01*
X-344000Y35167000D01*
X-344000Y35167000D01*
G37*
G36*
X1405442Y39502482D02*
X1471627Y39495963D01*
X1584853Y39461616D01*
X1641467Y39444443D01*
X1780087Y39370348D01*
X1797991Y39360778D01*
X1801589Y39357825D01*
X1935186Y39248186D01*
X2018448Y39146729D01*
X2047778Y39110991D01*
X2047779Y39110989D01*
X2131443Y38954467D01*
X2131443Y38954466D01*
X2182963Y38784627D01*
X2200359Y38608000D01*
X2182963Y38431373D01*
X2148616Y38318147D01*
X2131443Y38261533D01*
X2057348Y38122913D01*
X2047778Y38105009D01*
X2018448Y38069271D01*
X1935186Y37967814D01*
X1833729Y37884552D01*
X1797991Y37855222D01*
X1797989Y37855221D01*
X1641467Y37771557D01*
X1584853Y37754384D01*
X1471627Y37720037D01*
X1405442Y37713518D01*
X1339260Y37707000D01*
X1250740Y37707000D01*
X1184558Y37713518D01*
X1118373Y37720037D01*
X1005147Y37754384D01*
X948533Y37771557D01*
X792011Y37855221D01*
X792009Y37855222D01*
X756271Y37884552D01*
X654814Y37967814D01*
X571552Y38069271D01*
X542222Y38105009D01*
X532652Y38122913D01*
X458557Y38261533D01*
X441384Y38318147D01*
X407037Y38431373D01*
X389641Y38608000D01*
X407037Y38784627D01*
X458557Y38954466D01*
X458557Y38954467D01*
X542221Y39110989D01*
X542222Y39110991D01*
X571552Y39146729D01*
X654814Y39248186D01*
X788411Y39357825D01*
X792009Y39360778D01*
X809913Y39370348D01*
X948533Y39444443D01*
X1005147Y39461616D01*
X1118373Y39495963D01*
X1184558Y39502482D01*
X1250740Y39509000D01*
X1339260Y39509000D01*
X1405442Y39502482D01*
X1405442Y39502482D01*
G37*
G36*
X-1134558Y39502482D02*
X-1068373Y39495963D01*
X-955147Y39461616D01*
X-898533Y39444443D01*
X-759913Y39370348D01*
X-742009Y39360778D01*
X-738411Y39357825D01*
X-604814Y39248186D01*
X-521552Y39146729D01*
X-492222Y39110991D01*
X-492221Y39110989D01*
X-408557Y38954467D01*
X-408557Y38954466D01*
X-357037Y38784627D01*
X-339641Y38608000D01*
X-357037Y38431373D01*
X-391384Y38318147D01*
X-408557Y38261533D01*
X-482652Y38122913D01*
X-492222Y38105009D01*
X-521552Y38069271D01*
X-604814Y37967814D01*
X-706271Y37884552D01*
X-742009Y37855222D01*
X-742011Y37855221D01*
X-898533Y37771557D01*
X-955147Y37754384D01*
X-1068373Y37720037D01*
X-1134558Y37713518D01*
X-1200740Y37707000D01*
X-1289260Y37707000D01*
X-1355442Y37713518D01*
X-1421627Y37720037D01*
X-1534853Y37754384D01*
X-1591467Y37771557D01*
X-1747989Y37855221D01*
X-1747991Y37855222D01*
X-1783729Y37884552D01*
X-1885186Y37967814D01*
X-1968448Y38069271D01*
X-1997778Y38105009D01*
X-2007348Y38122913D01*
X-2081443Y38261533D01*
X-2098616Y38318147D01*
X-2132963Y38431373D01*
X-2150359Y38608000D01*
X-2132963Y38784627D01*
X-2081443Y38954466D01*
X-2081443Y38954467D01*
X-1997779Y39110989D01*
X-1997778Y39110991D01*
X-1968448Y39146729D01*
X-1885186Y39248186D01*
X-1751589Y39357825D01*
X-1747991Y39360778D01*
X-1730087Y39370348D01*
X-1591467Y39444443D01*
X-1534853Y39461616D01*
X-1421627Y39495963D01*
X-1355442Y39502482D01*
X-1289260Y39509000D01*
X-1200740Y39509000D01*
X-1134558Y39502482D01*
X-1134558Y39502482D01*
G37*
G36*
X-9848311Y41936294D02*
X-9704960Y41922175D01*
X-9459720Y41847782D01*
X-9459718Y41847781D01*
X-9233704Y41726974D01*
X-9035603Y41564397D01*
X-8873026Y41366296D01*
X-8850752Y41324625D01*
X-8752218Y41140280D01*
X-8677825Y40895040D01*
X-8652706Y40640000D01*
X-8677825Y40384960D01*
X-8719675Y40247000D01*
X-8752219Y40139718D01*
X-8873026Y39913704D01*
X-9035603Y39715603D01*
X-9233704Y39553026D01*
X-9233706Y39553025D01*
X-9459720Y39432218D01*
X-9704960Y39357825D01*
X-9848311Y39343706D01*
X-9896094Y39339000D01*
X-10423906Y39339000D01*
X-10471689Y39343706D01*
X-10615040Y39357825D01*
X-10860280Y39432218D01*
X-11086294Y39553025D01*
X-11086296Y39553026D01*
X-11284397Y39715603D01*
X-11446974Y39913704D01*
X-11567781Y40139718D01*
X-11600325Y40247000D01*
X-11642175Y40384960D01*
X-11667294Y40640000D01*
X-11642175Y40895040D01*
X-11567782Y41140280D01*
X-11469248Y41324625D01*
X-11446974Y41366296D01*
X-11284397Y41564397D01*
X-11086296Y41726974D01*
X-10860282Y41847781D01*
X-10860280Y41847782D01*
X-10615040Y41922175D01*
X-10471689Y41936294D01*
X-10423906Y41941000D01*
X-9896094Y41941000D01*
X-9848311Y41936294D01*
X-9848311Y41936294D01*
G37*
G36*
X10471689Y41936294D02*
X10615040Y41922175D01*
X10860280Y41847782D01*
X10860282Y41847781D01*
X11086296Y41726974D01*
X11284397Y41564397D01*
X11446974Y41366296D01*
X11469248Y41324625D01*
X11567782Y41140280D01*
X11642175Y40895040D01*
X11667294Y40640000D01*
X11642175Y40384960D01*
X11600325Y40247000D01*
X11567781Y40139718D01*
X11446974Y39913704D01*
X11284397Y39715603D01*
X11086296Y39553026D01*
X11086294Y39553025D01*
X10860280Y39432218D01*
X10615040Y39357825D01*
X10471689Y39343706D01*
X10423906Y39339000D01*
X9896094Y39339000D01*
X9848311Y39343706D01*
X9704960Y39357825D01*
X9459720Y39432218D01*
X9233706Y39553025D01*
X9233704Y39553026D01*
X9035603Y39715603D01*
X8873026Y39913704D01*
X8752219Y40139718D01*
X8719675Y40247000D01*
X8677825Y40384960D01*
X8652706Y40640000D01*
X8677825Y40895040D01*
X8752218Y41140280D01*
X8850752Y41324625D01*
X8873026Y41366296D01*
X9035603Y41564397D01*
X9233704Y41726974D01*
X9459718Y41847781D01*
X9459720Y41847782D01*
X9704960Y41922175D01*
X9848311Y41936294D01*
X9896094Y41941000D01*
X10423906Y41941000D01*
X10471689Y41936294D01*
X10471689Y41936294D01*
G37*
G36*
X-1134557Y42042481D02*
X-1068373Y42035963D01*
X-955147Y42001616D01*
X-898533Y41984443D01*
X-817258Y41941000D01*
X-742009Y41900778D01*
X-706271Y41871448D01*
X-604814Y41788186D01*
X-521552Y41686729D01*
X-492222Y41650991D01*
X-492221Y41650989D01*
X-408557Y41494467D01*
X-408557Y41494466D01*
X-357037Y41324627D01*
X-339641Y41148000D01*
X-357037Y40971373D01*
X-380193Y40895037D01*
X-408557Y40801533D01*
X-482652Y40662913D01*
X-492222Y40645009D01*
X-496333Y40640000D01*
X-604814Y40507814D01*
X-706271Y40424552D01*
X-742009Y40395222D01*
X-742011Y40395221D01*
X-898533Y40311557D01*
X-955147Y40294384D01*
X-1068373Y40260037D01*
X-1134557Y40253519D01*
X-1200740Y40247000D01*
X-1289260Y40247000D01*
X-1355443Y40253519D01*
X-1421627Y40260037D01*
X-1534853Y40294384D01*
X-1591467Y40311557D01*
X-1747989Y40395221D01*
X-1747991Y40395222D01*
X-1783729Y40424552D01*
X-1885186Y40507814D01*
X-1993667Y40640000D01*
X-1997778Y40645009D01*
X-2007348Y40662913D01*
X-2081443Y40801533D01*
X-2109807Y40895037D01*
X-2132963Y40971373D01*
X-2150359Y41148000D01*
X-2132963Y41324627D01*
X-2081443Y41494466D01*
X-2081443Y41494467D01*
X-1997779Y41650989D01*
X-1997778Y41650991D01*
X-1968448Y41686729D01*
X-1885186Y41788186D01*
X-1783729Y41871448D01*
X-1747991Y41900778D01*
X-1672742Y41941000D01*
X-1591467Y41984443D01*
X-1534853Y42001616D01*
X-1421627Y42035963D01*
X-1355443Y42042481D01*
X-1289260Y42049000D01*
X-1200740Y42049000D01*
X-1134557Y42042481D01*
X-1134557Y42042481D01*
G37*
G36*
X1405443Y42042481D02*
X1471627Y42035963D01*
X1584853Y42001616D01*
X1641467Y41984443D01*
X1722742Y41941000D01*
X1797991Y41900778D01*
X1833729Y41871448D01*
X1935186Y41788186D01*
X2018448Y41686729D01*
X2047778Y41650991D01*
X2047779Y41650989D01*
X2131443Y41494467D01*
X2131443Y41494466D01*
X2182963Y41324627D01*
X2200359Y41148000D01*
X2182963Y40971373D01*
X2159807Y40895037D01*
X2131443Y40801533D01*
X2057348Y40662913D01*
X2047778Y40645009D01*
X2043667Y40640000D01*
X1935186Y40507814D01*
X1833729Y40424552D01*
X1797991Y40395222D01*
X1797989Y40395221D01*
X1641467Y40311557D01*
X1584853Y40294384D01*
X1471627Y40260037D01*
X1405443Y40253519D01*
X1339260Y40247000D01*
X1250740Y40247000D01*
X1184557Y40253519D01*
X1118373Y40260037D01*
X1005147Y40294384D01*
X948533Y40311557D01*
X792011Y40395221D01*
X792009Y40395222D01*
X756271Y40424552D01*
X654814Y40507814D01*
X546333Y40640000D01*
X542222Y40645009D01*
X532652Y40662913D01*
X458557Y40801533D01*
X430193Y40895037D01*
X407037Y40971373D01*
X389641Y41148000D01*
X407037Y41324627D01*
X458557Y41494466D01*
X458557Y41494467D01*
X542221Y41650989D01*
X542222Y41650991D01*
X571552Y41686729D01*
X654814Y41788186D01*
X756271Y41871448D01*
X792009Y41900778D01*
X867258Y41941000D01*
X948533Y41984443D01*
X1005147Y42001616D01*
X1118373Y42035963D01*
X1184557Y42042481D01*
X1250740Y42049000D01*
X1339260Y42049000D01*
X1405443Y42042481D01*
X1405443Y42042481D01*
G37*
G36*
X1405442Y44582482D02*
X1471627Y44575963D01*
X1584853Y44541616D01*
X1641467Y44524443D01*
X1780087Y44450348D01*
X1797991Y44440778D01*
X1833729Y44411448D01*
X1935186Y44328186D01*
X1996867Y44253026D01*
X2047778Y44190991D01*
X2047779Y44190989D01*
X2131443Y44034467D01*
X2131443Y44034466D01*
X2182963Y43864627D01*
X2200359Y43688000D01*
X2182963Y43511373D01*
X2148616Y43398147D01*
X2131443Y43341533D01*
X2057348Y43202913D01*
X2047778Y43185009D01*
X2018448Y43149271D01*
X1935186Y43047814D01*
X1833729Y42964552D01*
X1797991Y42935222D01*
X1797989Y42935221D01*
X1641467Y42851557D01*
X1584853Y42834384D01*
X1471627Y42800037D01*
X1405443Y42793519D01*
X1339260Y42787000D01*
X1250740Y42787000D01*
X1184557Y42793519D01*
X1118373Y42800037D01*
X1005147Y42834384D01*
X948533Y42851557D01*
X792011Y42935221D01*
X792009Y42935222D01*
X756271Y42964552D01*
X654814Y43047814D01*
X571552Y43149271D01*
X542222Y43185009D01*
X532652Y43202913D01*
X458557Y43341533D01*
X441384Y43398147D01*
X407037Y43511373D01*
X389641Y43688000D01*
X407037Y43864627D01*
X458557Y44034466D01*
X458557Y44034467D01*
X542221Y44190989D01*
X542222Y44190991D01*
X593133Y44253026D01*
X654814Y44328186D01*
X756271Y44411448D01*
X792009Y44440778D01*
X809913Y44450348D01*
X948533Y44524443D01*
X1005147Y44541616D01*
X1118373Y44575963D01*
X1184558Y44582482D01*
X1250740Y44589000D01*
X1339260Y44589000D01*
X1405442Y44582482D01*
X1405442Y44582482D01*
G37*
G36*
X-1134558Y44582482D02*
X-1068373Y44575963D01*
X-955147Y44541616D01*
X-898533Y44524443D01*
X-759913Y44450348D01*
X-742009Y44440778D01*
X-706271Y44411448D01*
X-604814Y44328186D01*
X-543133Y44253026D01*
X-492222Y44190991D01*
X-492221Y44190989D01*
X-408557Y44034467D01*
X-408557Y44034466D01*
X-357037Y43864627D01*
X-339641Y43688000D01*
X-357037Y43511373D01*
X-391384Y43398147D01*
X-408557Y43341533D01*
X-482652Y43202913D01*
X-492222Y43185009D01*
X-521552Y43149271D01*
X-604814Y43047814D01*
X-706271Y42964552D01*
X-742009Y42935222D01*
X-742011Y42935221D01*
X-898533Y42851557D01*
X-955147Y42834384D01*
X-1068373Y42800037D01*
X-1134557Y42793519D01*
X-1200740Y42787000D01*
X-1289260Y42787000D01*
X-1355443Y42793519D01*
X-1421627Y42800037D01*
X-1534853Y42834384D01*
X-1591467Y42851557D01*
X-1747989Y42935221D01*
X-1747991Y42935222D01*
X-1783729Y42964552D01*
X-1885186Y43047814D01*
X-1968448Y43149271D01*
X-1997778Y43185009D01*
X-2007348Y43202913D01*
X-2081443Y43341533D01*
X-2098616Y43398147D01*
X-2132963Y43511373D01*
X-2150359Y43688000D01*
X-2132963Y43864627D01*
X-2081443Y44034466D01*
X-2081443Y44034467D01*
X-1997779Y44190989D01*
X-1997778Y44190991D01*
X-1946867Y44253026D01*
X-1885186Y44328186D01*
X-1783729Y44411448D01*
X-1747991Y44440778D01*
X-1730087Y44450348D01*
X-1591467Y44524443D01*
X-1534853Y44541616D01*
X-1421627Y44575963D01*
X-1355442Y44582482D01*
X-1289260Y44589000D01*
X-1200740Y44589000D01*
X-1134558Y44582482D01*
X-1134558Y44582482D01*
G37*
G36*
X10471689Y46636294D02*
X10615040Y46622175D01*
X10860280Y46547782D01*
X10860282Y46547781D01*
X11086296Y46426974D01*
X11284397Y46264397D01*
X11446974Y46066296D01*
X11545731Y45881534D01*
X11567782Y45840280D01*
X11642175Y45595040D01*
X11667294Y45340000D01*
X11642175Y45084960D01*
X11567782Y44839720D01*
X11567781Y44839718D01*
X11446974Y44613704D01*
X11284397Y44415603D01*
X11086296Y44253026D01*
X11086294Y44253025D01*
X10860280Y44132218D01*
X10615040Y44057825D01*
X10471689Y44043706D01*
X10423906Y44039000D01*
X9896094Y44039000D01*
X9848311Y44043706D01*
X9704960Y44057825D01*
X9459720Y44132218D01*
X9233706Y44253025D01*
X9233704Y44253026D01*
X9035603Y44415603D01*
X8873026Y44613704D01*
X8752219Y44839718D01*
X8752218Y44839720D01*
X8677825Y45084960D01*
X8652706Y45340000D01*
X8677825Y45595040D01*
X8752218Y45840280D01*
X8774269Y45881534D01*
X8873026Y46066296D01*
X9035603Y46264397D01*
X9233704Y46426974D01*
X9459718Y46547781D01*
X9459720Y46547782D01*
X9704960Y46622175D01*
X9848311Y46636294D01*
X9896094Y46641000D01*
X10423906Y46641000D01*
X10471689Y46636294D01*
X10471689Y46636294D01*
G37*
G36*
X-9848311Y46636294D02*
X-9704960Y46622175D01*
X-9459720Y46547782D01*
X-9459718Y46547781D01*
X-9233704Y46426974D01*
X-9035603Y46264397D01*
X-8873026Y46066296D01*
X-8774269Y45881534D01*
X-8752218Y45840280D01*
X-8677825Y45595040D01*
X-8652706Y45340000D01*
X-8677825Y45084960D01*
X-8752218Y44839720D01*
X-8752219Y44839718D01*
X-8873026Y44613704D01*
X-9035603Y44415603D01*
X-9233704Y44253026D01*
X-9233706Y44253025D01*
X-9459720Y44132218D01*
X-9704960Y44057825D01*
X-9848311Y44043706D01*
X-9896094Y44039000D01*
X-10423906Y44039000D01*
X-10471689Y44043706D01*
X-10615040Y44057825D01*
X-10860280Y44132218D01*
X-11086294Y44253025D01*
X-11086296Y44253026D01*
X-11284397Y44415603D01*
X-11446974Y44613704D01*
X-11567781Y44839718D01*
X-11567782Y44839720D01*
X-11642175Y45084960D01*
X-11667294Y45340000D01*
X-11642175Y45595040D01*
X-11567782Y45840280D01*
X-11545731Y45881534D01*
X-11446974Y46066296D01*
X-11284397Y46264397D01*
X-11086296Y46426974D01*
X-10860282Y46547781D01*
X-10860280Y46547782D01*
X-10615040Y46622175D01*
X-10471689Y46636294D01*
X-10423906Y46641000D01*
X-9896094Y46641000D01*
X-9848311Y46636294D01*
X-9848311Y46636294D01*
G37*
G36*
X1405443Y47122481D02*
X1471627Y47115963D01*
X1584853Y47081616D01*
X1641467Y47064443D01*
X1780087Y46990348D01*
X1797991Y46980778D01*
X1833729Y46951448D01*
X1935186Y46868186D01*
X2018448Y46766729D01*
X2047778Y46730991D01*
X2047779Y46730989D01*
X2131443Y46574467D01*
X2139538Y46547781D01*
X2182963Y46404627D01*
X2200359Y46228000D01*
X2182963Y46051373D01*
X2148616Y45938147D01*
X2131443Y45881533D01*
X2109392Y45840280D01*
X2047778Y45725009D01*
X2018448Y45689271D01*
X1935186Y45587814D01*
X1833729Y45504552D01*
X1797991Y45475222D01*
X1797989Y45475221D01*
X1641467Y45391557D01*
X1584853Y45374384D01*
X1471627Y45340037D01*
X1405442Y45333518D01*
X1339260Y45327000D01*
X1250740Y45327000D01*
X1184558Y45333518D01*
X1118373Y45340037D01*
X1005147Y45374384D01*
X948533Y45391557D01*
X792011Y45475221D01*
X792009Y45475222D01*
X756271Y45504552D01*
X654814Y45587814D01*
X571552Y45689271D01*
X542222Y45725009D01*
X480608Y45840280D01*
X458557Y45881533D01*
X441384Y45938147D01*
X407037Y46051373D01*
X389641Y46228000D01*
X407037Y46404627D01*
X450462Y46547781D01*
X458557Y46574467D01*
X542221Y46730989D01*
X542222Y46730991D01*
X571552Y46766729D01*
X654814Y46868186D01*
X756271Y46951448D01*
X792009Y46980778D01*
X809913Y46990348D01*
X948533Y47064443D01*
X1005147Y47081616D01*
X1118373Y47115963D01*
X1184557Y47122481D01*
X1250740Y47129000D01*
X1339260Y47129000D01*
X1405443Y47122481D01*
X1405443Y47122481D01*
G37*
G36*
X-1134557Y47122481D02*
X-1068373Y47115963D01*
X-955147Y47081616D01*
X-898533Y47064443D01*
X-759913Y46990348D01*
X-742009Y46980778D01*
X-706271Y46951448D01*
X-604814Y46868186D01*
X-521552Y46766729D01*
X-492222Y46730991D01*
X-492221Y46730989D01*
X-408557Y46574467D01*
X-400462Y46547781D01*
X-357037Y46404627D01*
X-339641Y46228000D01*
X-357037Y46051373D01*
X-391384Y45938147D01*
X-408557Y45881533D01*
X-430608Y45840280D01*
X-492222Y45725009D01*
X-521552Y45689271D01*
X-604814Y45587814D01*
X-706271Y45504552D01*
X-742009Y45475222D01*
X-742011Y45475221D01*
X-898533Y45391557D01*
X-955147Y45374384D01*
X-1068373Y45340037D01*
X-1134558Y45333518D01*
X-1200740Y45327000D01*
X-1289260Y45327000D01*
X-1355442Y45333518D01*
X-1421627Y45340037D01*
X-1534853Y45374384D01*
X-1591467Y45391557D01*
X-1747989Y45475221D01*
X-1747991Y45475222D01*
X-1783729Y45504552D01*
X-1885186Y45587814D01*
X-1968448Y45689271D01*
X-1997778Y45725009D01*
X-2059392Y45840280D01*
X-2081443Y45881533D01*
X-2098616Y45938147D01*
X-2132963Y46051373D01*
X-2150359Y46228000D01*
X-2132963Y46404627D01*
X-2089538Y46547781D01*
X-2081443Y46574467D01*
X-1997779Y46730989D01*
X-1997778Y46730991D01*
X-1968448Y46766729D01*
X-1885186Y46868186D01*
X-1783729Y46951448D01*
X-1747991Y46980778D01*
X-1730087Y46990348D01*
X-1591467Y47064443D01*
X-1534853Y47081616D01*
X-1421627Y47115963D01*
X-1355443Y47122481D01*
X-1289260Y47129000D01*
X-1200740Y47129000D01*
X-1134557Y47122481D01*
X-1134557Y47122481D01*
G37*
M02*
