M48
;DRILL file {KiCad 5.0.2-bee76a0~70~ubuntu18.04.1} date Thu Jan  3 15:41:16 2019
;FORMAT={-:-/ absolute / inch / decimal}
FMAT,2
INCH,TZ
T1C0.0157
T2C0.0197
T3C0.0236
T4C0.0354
T5C0.0394
T6C0.0433
T7C0.0453
%
G90
G05
T1
X-0.72Y0.395
X-0.695Y1.18
X-0.52Y1.71
X-0.48Y1.15
X-0.48Y1.08
X-0.38Y-0.165
X-0.38Y-0.285
X-0.245Y1.6
X-0.155Y0.515
X-0.155Y0.385
X-0.075Y0.755
X-0.075Y0.675
X-0.075Y0.595
X-0.005Y0.755
X-0.005Y0.675
X-0.005Y0.595
X0.Y1.015
X0.05Y0.51
X0.0514Y0.3304
X0.065Y0.755
X0.075Y0.675
X0.075Y0.595
X0.11Y0.1
X0.1138Y0.4073
X0.17Y0.35
X0.17Y0.31
X0.21Y0.35
X0.21Y0.31
X0.23Y0.52
X0.3166Y0.2789
X0.3852Y0.095
X0.39Y0.33
X0.4068Y-0.1235
X0.45Y0.35
X0.47Y1.14
X0.47Y1.08
X0.475Y-0.995
X0.48Y-0.095
X0.525Y0.28
X0.53Y1.155
X0.625Y1.77
X0.625Y1.255
T4
X0.605Y-0.865
X0.705Y-0.865
X-0.195Y-1.4
X-0.095Y-1.4
X-0.195Y0.205
X-0.095Y0.205
X0.605Y-1.4
X0.705Y-1.4
X0.605Y0.205
X0.705Y0.205
X-0.195Y-0.865
X-0.095Y-0.865
X0.605Y-0.33
X0.705Y-0.33
X-0.195Y-0.33
X-0.095Y-0.33
T5
X-0.635Y0.45
X-0.635Y0.35
X-0.635Y0.25
X-0.535Y0.45
X-0.535Y0.35
X-0.535Y0.25
X-0.049Y1.82
X-0.049Y1.72
X-0.049Y1.62
X-0.049Y1.52
X-0.049Y1.42
X0.051Y1.82
X0.051Y1.72
X0.051Y1.62
X0.051Y1.52
X0.051Y1.42
T6
X-0.1279Y1.2882
X-0.1279Y1.111
X0.128Y1.2882
X0.128Y1.111
T2
X-0.5937Y-1.0867G85X-0.5937Y-1.0433
G05
X-0.5937Y-0.5517G85X-0.5937Y-0.5083
G05
X0.2063Y-0.0217G85X0.2063Y0.0217
G05
X0.2063Y-0.5517G85X0.2063Y-0.5083
G05
X-0.5937Y-0.0217G85X-0.5937Y0.0217
G05
X-0.5937Y-1.6217G85X-0.5937Y-1.5783
G05
X-0.4217Y0.9937G85X-0.3783Y0.9937
G05
X0.2063Y-1.0867G85X0.2063Y-1.0433
G05
X0.2063Y-1.6217G85X0.2063Y-1.5783
G05
X0.3783Y0.9937G85X0.4217Y0.9937
G05
T3
X0.5331Y-0.0197G85X0.5331Y0.0197
G05
X0.6551Y-0.0157G85X0.6551Y0.0157
G05
X0.5331Y-0.5497G85X0.5331Y-0.5103
G05
X0.6551Y-0.5457G85X0.6551Y-0.5143
G05
X-0.2669Y-0.0197G85X-0.2669Y0.0197
G05
X-0.1449Y-0.0157G85X-0.1449Y0.0157
G05
X-0.2669Y-1.6197G85X-0.2669Y-1.5803
G05
X-0.1449Y-1.6157G85X-0.1449Y-1.5843
G05
X-0.4197Y0.6669G85X-0.3803Y0.6669
G05
X-0.4157Y0.5449G85X-0.3843Y0.5449
G05
X0.5331Y-1.0847G85X0.5331Y-1.0453
G05
X0.6551Y-1.0807G85X0.6551Y-1.0493
G05
X0.5331Y-1.6197G85X0.5331Y-1.5803
G05
X0.6551Y-1.6157G85X0.6551Y-1.5843
G05
X0.3803Y0.6669G85X0.4197Y0.6669
G05
X0.3843Y0.5449G85X0.4157Y0.5449
G05
X-0.2669Y-1.0847G85X-0.2669Y-1.0453
G05
X-0.1449Y-1.0807G85X-0.1449Y-1.0493
G05
X-0.2669Y-0.5497G85X-0.2669Y-0.5103
G05
X-0.1449Y-0.5457G85X-0.1449Y-0.5143
G05
T7
X0.3921Y1.785G85X0.4079Y1.785
G05
X0.3921Y1.6G85X0.4079Y1.6
G05
X0.3921Y1.415G85X0.4079Y1.415
G05
X-0.4079Y1.785G85X-0.3921Y1.785
G05
X-0.4079Y1.6G85X-0.3921Y1.6
G05
X-0.4079Y1.415G85X-0.3921Y1.415
G05
T0
M30
